<svg id="Layer_1" data-name="Layer 1" xmlns="http://www.w3.org/2000/svg" viewBox="0 0 369.78 163.55"><defs><style>.cls-1{fill:#fff;}</style></defs><title>Aria_logo</title><polygon class="cls-1" points="288.75 159.01 4.54 159.01 4.54 4.54 288.75 4.54 288.75 48.84 293.29 48.84 293.29 0 0 0 0 163.56 293.29 163.56 293.29 143.17 288.75 143.17 288.75 159.01"/><rect class="cls-1" x="288.73" y="62.43" width="4.57" height="67.4"/><path class="cls-1" d="M281.63,132l-5,.77,22.52,27.79H305L284.91,135.9c9-3.06,14.11-10.59,14.11-20.75,0-13.36-9-22-23-22H251.89v67.4h4.57V97.73H276c11.22,0,18.47,6.84,18.47,17.42C294.44,123.79,289.64,130.09,281.63,132Z" transform="translate(-29.16 -30.73)"/><path class="cls-1" d="M175.65,160l-0.24.54h4.84l9.23-20.87h36.06l9.22,20.87h4.93l-30-67.4H205.4Zm47.86-24.92h-32l16-36Z" transform="translate(-29.16 -30.73)"/><path class="cls-1" d="M369,93.16h-4.32L334.9,160l-0.24.54h4.84l9.23-20.87h36.06L394,160.56h4.93ZM350.77,135.1l16-36,16,36h-32Z" transform="translate(-29.16 -30.73)"/></svg>