<?xml version="1.0" encoding="utf-8"?>
<!-- Generator: Adobe Illustrator 20.1.0, SVG Export Plug-In . SVG Version: 6.00 Build 0)  -->
<svg version="1.1" id="Layer_1" xmlns="http://www.w3.org/2000/svg" xmlns:xlink="http://www.w3.org/1999/xlink" x="0px" y="0px"
	 viewBox="0 0 276.3 219.1" style="enable-background:new 0 0 276.3 219.1;" xml:space="preserve">
<style type="text/css">
	.st0{fill:none;stroke:#000000;stroke-miterlimit:10;}
	.st1{fill:#B3C2BE;}
	.st2{fill:none;stroke:#000000;stroke-linecap:round;stroke-linejoin:round;stroke-miterlimit:10;}
</style>
<g>
	<rect x="0.5" y="0.5" class="st0" width="220.8" height="137.1"/>
	<rect x="7.2" y="7.1" class="st0" width="207.4" height="123.9"/>
	<path class="st1" d="M220,73c-2.8-2.7-8.8-4.1-11-6.8c-1.6-1.9-3.7-4.4-6.2-4.7l-0.3,0c0.2-0.2,0.2-0.4,0.3-0.6
		c0.4-1.2,0.8-2.3,1.2-3.5c0.3-0.9,0.6-1.8,1.2-2.5c0.8-1,2-1.6,3.2-1.6c1.7,0,3.2,1,4.6,1.9c1,0.7,1.9,1.3,2.7,2.2
		c0.7,0.7,1.2,1.6,1.9,2.3c1.2,1.2,2.7,2.1,3.8,3.4c0.7,0.9,1.2,1.9,1.9,2.8c0.5,0.7,1.1,1.2,1.6,1.8c0.1,0.1,0.2,0.2,0.3,0.3
		c1.7,1.9,4.2,4,5.2,6.2h0c-0.1,1.4,0.2,2.7,0.7,4c0.3,0.6,0.6,1.1,0.8,1.7c0.5,1.2,0.4,4.6,0.5,5.9l-0.1,0.1
		c-1.3-1.4-2.8-2.8-3.8-3.6c-0.5-0.4-0.9-0.8-1.4-1.2l1.2-1.2c-0.7-0.7-1.4-1.4-2.1-2C224.3,76,222.4,74.2,220,73L220,73z"/>
	<path class="st1" d="M243.3,114.1c-1.2-1.4-2.7-2.7-4.5-2.9h-0.1c0-2.1-0.1-4.2-0.1-6.1c0.4,1.3,4.7,0.3,6.4,0.8
		c2.1,0.6,3.2,3.2,4.4,5c0.7,1,1.5,1.9,2.1,3c1.2,2.5,0.6,5.4-0.2,8.1c-0.4,1.2-0.9,2.4-0.7,3.6c-0.3,0-0.6,0-0.9,0l0-0.4
		C248.2,121.1,246.1,117.3,243.3,114.1"/>
	<path class="st1" d="M200.4,122.1c1.1-2.6,3.5-4.4,5.9-5.8c2.4-1.5,4.9-2.8,6.7-5c0.8-1,1.5-2.2,2.2-3.3c2-3.1,4.8-5.8,8-7.7l0,0
		c-0.7-0.6-2.5-1.9-3.4-1.9c-0.5,0-1,0-1.5,0.1c-1.1,0.4-1.4,0.5-2.5,0.7l-2.1-1.4c2.6-1.7,5.4-2.9,8.3-4c1.4-0.6,2.9-1.1,4.4-1.2
		c0.9-0.1,1.8,0,2.6,0.3c1.6,0.6,2.9,2,3.2,3.7c0.2,1,0.3,2.5,0,3.5l0,0.1l-1.4,1.5c-0.4,0-0.9,0.4-1.1,0.8c-2.8,4.1-4.3,9-7.3,12.9
		c-3.1,4-7.6,6.9-12.6,7.9c-0.8,0.1-1.5,0.3-2.3,0.3c-1.1,0-2.3-0.1-3.4-0.3c-1.1-0.2-3-0.2-4.1-0.4l-0.1-0.1
		C200.1,122.7,200.3,122.4,200.4,122.1"/>
	<path class="st1" d="M230.5,73.5c0.3-0.4,0.5-0.8,0.8-1.2l2.7,0.1c0.3,1.4,2.6,3.4,3.6,4.4l0.2,0c-0.1,0.7-0.2,1.3-0.4,2l0.7,0.1
		c0.9,0,1.6-0.8,1.8-1.6c0.3-0.8,0.3-1.7,0.3-2.6c0.2-2.1,1-4.2,2.2-5.9l2.8,0.2c-0.6,4.7-1,10-2,12.9l0.1,0.1
		c-0.4,0.7-0.5,1.4-0.9,2.1c-1.7,3-4.3,5.7-4.3,8.3h-0.1c0,0.6,0.1,1.9,0.1,3.6l-1.6,0c-0.6-0.8-1.3-1.4-1.6-2.4
		c-0.1-0.2-0.2-3.3,0-3.4c-0.1-1.1-1.3-2.8-2.8-4.4l0.1-0.1c-0.2-1.3,0-4.7-0.5-5.9c-0.2-0.6-0.6-1.1-0.8-1.7
		c-0.6-1.2-0.8-2.6-0.7-4C230.4,74,230.4,73.8,230.5,73.5L230.5,73.5z"/>
	<path class="st1" d="M222.7,83.3c-0.8-0.4-1.4-0.6-1.7-0.8c-1.3-0.4-2.4-1.1-3.4-0.3c-1.1,0.9-1.3,1.6-2.4,2.7l-2.8,0.7
		c-0.7-0.9-1.3-2-2.4-2.2c2.1-2,4.5-3.8,7.3-4.6c2.8-0.8,6-0.6,8.4,1.1c0.5,0.3,1,0.7,1.4,1.2c0.4,0.4,0.9,0.8,1.4,1.2
		c1,0.8,2.5,2.2,3.8,3.7c1.4,1.6,2.6,3.3,2.8,4.4c-0.2,0.1-0.1,3.2,0,3.4c0.3,1,1,1.7,1.6,2.4c0,0.5,0,2,0,4.2
		c0-0.1-0.1-0.2-0.1-0.3c-0.7-1.9-3.2-5.8-4.2-7.2c-0.4-0.4-0.9-0.9-1.4-1.5c-1-1.2-2.1-2.6-3.2-3.2c-0.4-0.2-0.8-0.3-1.1-0.3
		l0.4-2.5C225.7,84.8,224,84,222.7,83.3"/>
	<path class="st1" d="M236.4,120.4c-2.6-0.4-7-13.3-3.6-15.9l0-0.2c-0.4-0.8-0.8-1.5-1.3-2.2c-0.1-0.2-0.3-0.3-0.5-0.4
		c-0.1,0-0.2-0.1-0.3-0.1l1.4-1.5c0.4,0.4,1,0.4,1.5,0.4c0.8,0,1.5-0.1,2.3-0.2c0,0,0.1,0,0.1-0.1l0.5-0.2c0,0.1,0.1,0.2,0.1,0.3
		c0,0.4,0,0.9,0,1.4h-0.1c0,0-0.4,0.3-0.5,0.2c0-0.1-0.1,0-0.1,0c-0.3,0.1-0.5,0.2-0.8,0.2c-0.2,0.1-0.4,0.1-0.5,0.2
		c-0.2,0.1,0.2,0.4,0.2,0.6l0.1,0.1c0.6,0.8,1.4,1.6,1.7,2.5c0,4.3,0,9.6,0,14.8H236.4z"/>
	<path class="st1" d="M219.4,56.6c-3.2-4.6-6.8-9-11.1-12.6c-0.6-0.5-1.2-1-1.3-1.7c-0.1-0.5,0.1-1,0.3-1.5c0.3-0.7,0.5-1.4,0.8-2.1
		c0.2-0.6,0.5-1.2,0.9-1.7c0.8-1,2.3-1.3,3.5-0.8c1.1,0.5,1.8,1.6,2.9,1.9c1,0.3,2-0.1,3.1,0c1.7,0.2,3,1.6,3.9,3.1
		c0.9,1.5,1.7,3.1,3.1,4c0.8,0.5,1.7,0.7,2.3,1.4c1.1,1.1,0.8,2.9,1.2,4.4c0.3,1.3,1.2,2.3,1.8,3.5c0.6,1.2,0.9,2.4,1.2,3.7
		c0.1,0.3,0.1,0.5,0.2,0.8c0.5,2.3,1,4.5,1,6.9c0,1.9-0.8,4.5-1.8,6.4c-0.2,0.4-0.5,0.8-0.8,1.2l-0.1,0c0,0.2-0.1,0.5-0.1,0.7h0
		c-1-2.3-3.4-4.4-5.2-6.2l0.1-0.1c-0.4-1.4-0.3-3.2-1.1-4.4c-1.1-1.6-2.2-3.2-3.3-4.8C220.4,58,219.9,57.3,219.4,56.6"/>
	<path class="st1" d="M238.8,111.2c1.8,0.1,3.3,1.5,4.5,2.9c2.8,3.2,4.9,7,6.3,11l0,0.4c-1.3,0-2.7,0.2-3.8-0.4
		c-0.5-0.3-1-0.7-1.4-1.1c-1.3-1.1-3.4-1.9-5.1-2.3h0l-0.2,0c-0.1-3.5-0.2-7.2-0.3-10.6H238.8z"/>
	<path class="st1" d="M253.2,91.9c2,0.1,4,1,5.2,2.6c0.6,0.8,1.1,1.7,1.9,2.3c1.1,0.8,2.5,0.9,3.8,1c2.4,0.3,4.7,1.2,6.8,2.4
		c0.7,0.4,1.4,1,2,1.6c1.3,1.6,1.3,3.8,1.7,5.9c0.1,0.3,2.3,6.8,0.4,5.8c-1-0.6-1.8-1.5-2.5-2.4c-2.2-2.4-5.1-4.2-7.4-6.5
		c-1.6-1.6-2.9-3.5-4.8-4.8c-1.6-1.1-3.5-1.8-5.5-2.2c-3.1-0.8-6.6-1.1-9.5,0.4c-1.5,0.8-5.9,3.7-6.7,5.2h-0.2
		c0-1.1-0.1-2.2-0.1-3.2l0.3,0c1.6-0.4,4.7-2.6,6.3-3.5c0.2-0.1,1.2-0.9,1.4-0.9c0.2-0.1,1.5-1.4,3.1-2.4c0.9-0.6,2-1.2,2.8-1.3
		C252.6,91.9,252.9,91.9,253.2,91.9"/>
	<path class="st1" d="M238.3,92.5c0-2.6,2.6-5.3,4.3-8.3c0.4-0.7,0.5-1.5,0.9-2.1c0.1-0.2,0.2-0.3,0.3-0.4c0.7-0.9,1.8-1.4,2.9-1.9
		c2.2-1,4.3-2.3,6.3-3.6c1.7-1.2,3.3-2.4,5.2-3.2c1.9-0.8,4.1-1.1,5.9-0.2c1.3,0.6,2.2,1.8,3.6,2.2c2,0.6,4.5-0.4,6.2,0.9
		c-2.1,2.3-4.1,4.6-6.2,6.9c-3.5,3.9-9.2,8.2-14.4,9.2c-0.3,0-0.6,0-1,0.1c-0.9,0.1-1.9,0.7-2.8,1.3c-1.9,0.4-5.8,1.2-7.7,1.5
		c-0.4,0.1-0.8,0.2-1.1,0.3c-0.7,0.3-2,2.1-2.2,3.1c0-0.7,0-1.4-0.1-2.1C238.3,94.4,238.2,93.2,238.3,92.5L238.3,92.5z"/>
	<path class="st1" d="M237.8,76.9l-0.2,0c-1-1-3.3-3-3.6-4.4l-2.7-0.1c1-1.9,1.8-4.5,1.8-6.4c0-2.3-0.5-4.6-1-6.9
		c-0.1-0.3-0.1-0.5-0.2-0.8c0.6-2.3,2.2-4.9,3.7-6.6c0.8-0.8,1.7-1.5,2.7-2c3.9-2.2,8.5-2.7,12.5-4.5c3.5-1.6,6.5-4.3,10.1-5.9
		c1.2-0.5,2.5-0.9,3.7-0.7s2.4,1.4,2.3,2.6c-0.1,1-0.9,1.8-1.6,2.4c-2.3,2.1-4.7,4.3-7,6.4c-0.9,0.8-1.8,1.6-2.8,2.2
		c-0.8,0.5-1.8,0.9-2.5,1.5c-0.7,0.5-1.3,1.2-1.8,1.9c-1.4,1.7-2.8,3.3-3.7,5.3c-0.9,1.9-1.5,4.9-1.9,8.2l-2.8-0.2
		c-1.3,1.7-2.1,3.7-2.2,5.9c-0.1,0.9-0.1,1.8-0.3,2.6c-0.3,0.8-1,1.6-1.8,1.6l-0.7-0.1C237.6,78.2,237.7,77.5,237.8,76.9"/>
	<path class="st1" d="M231,91.4l-0.1,0.1c-0.7,0.1-2.4,0.7-3.8,0.9c-0.2,0-0.4,0-0.6,0.1c-3.3,0.2-5.7-0.1-7.7-0.1l0-1.9
		c0.7,0,1.5-0.2,2.2-0.5c1.2-0.5,2.2-1.2,3.4-1.6c0.8-0.3,1.6-0.5,2.5-0.4c0.4,0,0.8,0.1,1.1,0.3C228.9,88.8,230,90.2,231,91.4"/>
	<path class="st1" d="M220,73L220,73c2.4,1.2,4.3,3.1,6.2,4.9c0.7,0.7,1.4,1.4,2.1,2l-1.2,1.2c-0.4-0.4-0.9-0.8-1.4-1.1
		c-2.4-1.7-5.6-1.9-8.4-1.1c-2.8,0.8-5.2,2.6-7.3,4.6l-0.2,0c-3.4-1.3-6.9-5.5-10.2-7c-1-0.4-2-0.8-2.6-1.6
		c-0.3-0.4-0.4-0.9-0.6-1.4c-0.5-2.3-0.5-4.8,0.4-6.9c0.9-2.2,2.7-4,5-4.6c0.2-0.1,0.5-0.1,0.7-0.3l0.3,0c2.5,0.3,4.5,2.7,6.2,4.7
		C211.2,68.9,217.2,70.3,220,73"/>
	<path class="st1" d="M216.9,89.9c-0.4-0.2-0.8-0.6-1.2-0.9c-1.1-1-2.3-2.1-3.2-3.3l2.8-0.7c1.1-1,1.2-1.7,2.4-2.7
		c1-0.8,2.1-0.2,3.4,0.3c0.3,0.1,0.9,0.4,1.7,0.8c1.3,0.6,3,1.5,4.3,2l-0.4,2.5c-0.8-0.1-1.7,0.1-2.5,0.4c-1.2,0.4-2.2,1.1-3.4,1.6
		c-0.7,0.3-1.4,0.5-2.2,0.5c-0.5,0-1-0.1-1.4-0.3C217.1,90,217,90,216.9,89.9"/>
	<path class="st1" d="M215.7,99.2c1.1-0.2,1.4-0.4,2.5-0.7c0.5-0.1,1-0.1,1.5-0.1c0.9,0,2.7,1.3,3.4,1.9l0,0c-3.2,1.9-6,4.6-8,7.7
		c-0.7,1.1-1.4,2.3-2.2,3.3c-1.8,2.2-4.3,3.5-6.7,5c-2.4,1.5-4.8,3.2-5.9,5.8c-0.1,0.3-0.3,0.6-0.6,0.6h0c-0.1,0-0.3-0.1-0.4-0.2
		c-0.7-0.6-0.9-1.7-0.8-2.6c0.3-2.5,2.3-4.5,3.9-6.5c1.7-2,3.1-4.3,4-6.7c0.3-0.8,0.6-1.6,1-2.4c1.3-2.8,3.6-5,6.1-6.7L215.7,99.2z"
		/>
	<path class="st1" d="M211.3,92.9l-0.4-1.1c-3.2,1.2-5.3,3-8.3,5.9c-0.8,0.7-1.5,1.5-2.1,2.4l-0.1,2.2c-0.6,0-1.3-0.2-1.9-0.3
		c-0.7-0.2-1.5-0.4-1.9-1c-0.5-0.7-0.4-1.7-0.1-2.5c0.2-0.6,0.5-1.2,0.8-1.7c0.9-1.6,2.2-3.1,3.6-4.3c2.3-2.2,4.9-4.2,7.9-5
		c0.6-0.2,1.2-0.3,1.8-0.3c0.7-0.1,1.3,0,1.9,0.2c1.3,0.6,2.9,2,4.3,2.6c0.1,0.1,0.2,0.1,0.3,0.2c0.5,0.2,0.9,0.3,1.4,0.3l0,1.9
		c-1.6,0-2.9,0.3-4.3,1.2c-0.9,0.6-1.6,1.3-2.4,2c-0.6,0.5-1.2,1.1-1.9,1.6l-0.9-2c0.4-0.2,1-0.4,1.4-0.7
		C210.9,94.2,211.2,93.5,211.3,92.9"/>
	<path class="st1" d="M210.9,91.8l0.4,1.1c-0.1,0.6-0.4,1.3-0.7,1.5c-0.4,0.3-1,0.4-1.4,0.7l0.9,2c-1.9,1.5-3.9,2.9-6.1,4.2
		c-0.8,0.5-1.7,1-2.7,1.1c-0.3,0.1-0.7,0.1-1,0l0.1-2.2c0.5-0.9,1.3-1.7,2.1-2.4C205.6,94.9,207.7,93,210.9,91.8"/>
	<path class="st1" d="M208.8,87.3l0,0.1c-3,0.8-5.6,2.8-7.9,5c-1.4,1.3-2.7,2.7-3.6,4.3l-0.2-0.1c-1-0.5-2.7-1.7-3.3-2.6
		c-0.3-0.5-0.5-1-0.7-1.5c-0.3-0.8-0.8-1.5-1.4-2.1c-0.4-0.4-1.6-1.5-0.8-1.8c2.9-0.9,4.9-3.7,7.9-4.2c1.1-0.2,2.2,0,3.3,0.2
		C204.3,85,207.1,86,208.8,87.3"/>
	<path class="st2" d="M235.5,164.5c-6.3-0.2-13.2,2.4-18.2,6.1c3.6,2.2,8.2,3.4,12.4,3.7c1.7,0.1,3.4,0.3,5.1,0.4c0,0,0.1,0,0.1,0
		c1.6,0.1,3.4,0,5-0.1c0.1,0,0.2,0,0.2,0c6.1-0.4,11.7-2.2,17.2-4.3c0.2-0.1,0.5-0.4,0.6-0.6c0-0.1,0-0.3,0-0.4
		c-0.1-0.1-0.2-0.2-0.3-0.2c-5.8-3.1-11.8-4.3-18.2-4.7"/>
	<path class="st2" d="M223.6,216.4c1.6,1.2,5.8,1.8,7.7,2c5.4,0.6,10.8,0.3,16.2-0.7c1.9-0.4,3.9-0.9,5.4-2.1
		c1.5-1.2,2.5-2.9,3.3-4.6c1.3-2.8,2.1-5.8,2.4-8.8c0.1-1.4,0.2-2.8,0.2-4.3c0.1-8.6,0-19.5-0.6-28"/>
	<path class="st2" d="M217.3,170.7c-0.5,8.1-0.9,17.9-0.7,26c0.1,2.5,0.1,5.1,0.7,7.5c1.2,4.7,3.2,8.4,6.3,12.2"/>
	<path class="st2" d="M234.9,174.2c0.5-1.7,0.9-3.5,1.1-5.2c0.1-1.1,0.1-2.3,0.2-3.4c0-0.3,0-0.7,0-1c0-1.5,0.1-3.1,0.1-4.6
		c0.1-4.3,0.2-8.6,0.3-12.9c0-1.1,0-2.2,0.1-3.3c0-1.4,0-12.3,0.1-23.4c0-5.2,0-10.5,0-14.8c0-1.4,0-2.7,0-3.9c0-0.5,0-1,0-1.4
		c0-2.2,0-3.7,0-4.2"/>
	<path class="st2" d="M239.9,174c-0.5-2.9-0.8-5.8-0.9-8.8c0-0.3,0-0.5,0-0.8c0-0.4,0.1-0.9,0.2-1.3c0.2-0.5,0.5-1,0.6-1.5
		c0.1-0.7-0.2-1.3-0.4-2c-0.3-0.9-0.3-1.9-0.2-2.8c0.1-4.2,0.2-8.4,0.2-12.5c0-1.3-0.2-11.5-0.5-22.5c-0.1-3.5-0.2-7.1-0.3-10.6
		c-0.1-2.1-0.1-4.2-0.1-6.1c0-0.6,0-1.2-0.1-1.8c0-1.1,0-2.2-0.1-3.2c0-0.7,0-1.3,0-1.9c0-0.7,0-1.4,0-2.1c0-1.7-0.1-3-0.1-3.6v-0.3
		"/>
	<path class="st2" d="M232.2,100c0.3-1,0.2-2.5,0-3.5c-0.4-1.7-1.6-3.1-3.2-3.7c-0.9-0.3-1.7-0.4-2.6-0.3c-1.5,0.1-3,0.7-4.4,1.2
		c-2.9,1.1-5.7,2.3-8.3,4c-2.6,1.7-4.9,3.9-6.1,6.7c-0.4,0.8-0.6,1.6-1,2.4c-1,2.4-2.4,4.7-4,6.7c-1.6,2-3.6,3.9-3.9,6.5
		c-0.1,0.9,0.1,2,0.8,2.6c0.1,0.1,0.2,0.2,0.4,0.2h0c0.3,0,0.5-0.3,0.6-0.6c1.1-2.6,3.5-4.4,5.9-5.8c2.4-1.5,4.9-2.8,6.7-5
		c0.8-1,1.5-2.2,2.2-3.3c2-3.1,4.8-5.8,8-7.7c1.1-0.7,2.2-1.2,3.4-1.7"/>
	<path class="st2" d="M210.3,105.7c1.2-0.4,2.3-1.1,3.5-1.2c0.8,0,2.3,0.7,3,0.9"/>
	<path class="st2" d="M215.5,99.2c0.1,0,0.2,0,0.2,0c1.1-0.2,1.4-0.4,2.5-0.7c0.5-0.1,1-0.1,1.5-0.1c0.9,0,2.7,1.3,3.4,1.9"/>
	<path class="st2" d="M225.5,99.1c0.2,0.6,0.4,1.8,0,2.6c-0.3,0.6-0.7,1-1.1,1.6c-0.5,0.8-0.7,1.8-0.9,2.7"/>
	<path class="st2" d="M215.1,108.5c0.2,1,0.4,2.9,0.8,3.9c0.3,0.9,0.9,1.9,1.6,2.5"/>
	<path class="st2" d="M221.2,101.6c-0.8,1-1.2,3.7-1.2,5c0,1.1,0,2.2,0.2,3.3"/>
	<path class="st2" d="M199.9,122.8c1.1,0.2,3,0.2,4.1,0.4c1.1,0.2,2.3,0.3,3.4,0.3c0.8,0,1.6-0.1,2.3-0.3c5-1,9.5-3.8,12.6-7.8
		c3-4,4.5-8.9,7.3-12.9c0.3-0.4,0.7-0.8,1.1-0.8c0.1,0,0.2,0,0.3,0.1c0.2,0.1,0.3,0.3,0.5,0.4c0.5,0.7,0.9,1.4,1.3,2.2"/>
	<path class="st2" d="M236.7,105.7C236.7,105.7,236.7,105.7,236.7,105.7c-0.4-1-1.1-1.8-1.7-2.6"/>
	<path class="st2" d="M217.7,90.2c-0.2-0.1-0.5-0.2-0.8-0.3c-1.4-0.7-3.1-2-4.3-2.6c-0.6-0.3-1.3-0.3-1.9-0.2
		c-0.6,0.1-1.2,0.2-1.8,0.3c-3,0.8-5.6,2.8-7.9,5c-1.4,1.3-2.7,2.7-3.6,4.4c-0.3,0.6-0.6,1.1-0.8,1.7c-0.3,0.8-0.4,1.8,0.1,2.5
		c0.4,0.6,1.2,0.8,1.9,1c0.6,0.2,1.3,0.3,1.9,0.3c0.4,0,0.7,0,1,0c1-0.1,1.8-0.6,2.7-1.1c2.1-1.2,4.1-2.6,6-4.2
		c0.6-0.5,1.3-1,1.9-1.6c0.8-0.7,1.5-1.4,2.4-2c1.4-0.9,2.7-1.2,4.3-1.2c2,0,4.4,0.3,7.7,0.1c0.2,0,0.4,0,0.6,0
		c1.4-0.1,3.1-0.7,3.8-0.9"/>
	<path class="st2" d="M214,91c-1.2,0.2-2.2,0.5-3.1,0.8c-3.2,1.2-5.3,3-8.3,5.9c-0.8,0.7-1.5,1.5-2.1,2.4"/>
	<path class="st2" d="M203.6,92.5c0.5-0.1,1,0,1.5,0.4c0.4,0.3,1.2,0.8,1.8,0.8"/>
	<path class="st2" d="M211.3,92.3c0,0.2,0,0.4,0,0.6c-0.1,0.6-0.4,1.3-0.7,1.5c-0.4,0.3-0.9,0.4-1.4,0.7"/>
	<path class="st2" d="M197.1,96.6c-1-0.5-2.7-1.7-3.3-2.6c-0.3-0.5-0.5-1-0.7-1.5c-0.3-0.8-0.8-1.5-1.4-2.1
		c-0.4-0.4-1.6-1.5-0.8-1.8c2.9-0.9,4.9-3.7,7.9-4.2c1.1-0.2,2.2,0,3.3,0.2c2.1,0.4,4.9,1.3,6.6,2.6"/>
	<path class="st2" d="M194.5,89.4c1-0.2,6.9,0.3,7.8-0.3"/>
	<path class="st2" d="M199.1,89.5c-0.7,0.2-3,1.2-3.4,2.1"/>
	<path class="st2" d="M209.8,83.4c-3.4-1.3-6.9-5.5-10.2-7c-1-0.4-2-0.8-2.6-1.6c-0.3-0.4-0.5-0.9-0.6-1.4c-0.5-2.3-0.5-4.8,0.4-6.9
		c0.9-2.2,2.7-4,5-4.6c0.2-0.1,0.5-0.1,0.7-0.3c0.2-0.2,0.2-0.4,0.3-0.6c0.4-1.2,0.8-2.3,1.2-3.5c0.3-0.9,0.6-1.8,1.2-2.5
		c0.8-1,2-1.6,3.2-1.6c1.7,0,3.2,1,4.6,1.9c1,0.7,1.9,1.3,2.7,2.2c0.7,0.7,1.2,1.6,1.9,2.3c1.1,1.2,2.7,2.1,3.8,3.4
		c0.7,0.9,1.2,1.9,1.9,2.8c0.5,0.7,1.1,1.2,1.6,1.8c0.1,0.1,0.2,0.2,0.3,0.3c1.7,1.9,4.2,4,5.2,6.2"/>
	<path class="st2" d="M202.8,61.5c2.5,0.3,4.5,2.7,6.2,4.7c2.2,2.7,8.2,4.1,11,6.8c0.6,0.6,1,1.2,1.3,1.9"/>
	<path class="st2" d="M235,91.1c0.1-0.2,0.1-0.4,0.1-0.7c-0.1-1.1-1.3-2.8-2.8-4.4c-1.3-1.4-2.8-2.8-3.8-3.6
		c-0.5-0.4-0.9-0.8-1.4-1.2c-0.5-0.4-0.9-0.8-1.4-1.1c-2.4-1.7-5.6-1.9-8.4-1.1c-2.8,0.8-5.2,2.6-7.3,4.6c1.1,0.2,1.8,1.3,2.4,2.2
		c0.9,1.2,2.1,2.3,3.2,3.3c0.4,0.3,0.8,0.7,1.2,0.9c0.1,0.1,0.2,0.1,0.3,0.2c0.5,0.2,0.9,0.3,1.4,0.3c0.7,0,1.5-0.2,2.2-0.5
		c1.1-0.5,2.2-1.2,3.4-1.6c0.8-0.3,1.6-0.5,2.5-0.4c0.4,0,0.8,0.1,1.1,0.3c1.1,0.5,2.2,2,3.2,3.2c0.5,0.6,1,1.1,1.4,1.5"/>
	<path class="st2" d="M215.3,85c1.1-1,1.2-1.7,2.4-2.7c1-0.8,2.1-0.2,3.3,0.3c0.3,0.1,1,0.4,1.7,0.8c1.3,0.6,3,1.5,4.3,2
		c0.7,0.3,1.2,0.5,1.6,0.5"/>
	<path class="st2" d="M219.4,85.6c1.1-0.9,2.2-0.9,3.3-2.3c0,0,0,0,0,0"/>
	<path class="st2" d="M204.5,68.2c0.6,0.6,1.2,1.2,1.8,1.8c0.3,0.3,0.7,0.5,1.1,0.7c0.4,0.2,0.8,0.2,1.2,0.3c1.4,0.2,5-0.8,6.4-0.9"
		/>
	<path class="st2" d="M206.3,74.7c0.9,0.9,2.8,1.1,4.1,1.2c1.2,0.1,9.8-0.4,10.8-1"/>
	<path class="st2" d="M218.4,71.6c0.5-3.7-3.6-4.9-4.4-8.4"/>
	<path class="st2" d="M225.3,67.9c-0.4-1.4-0.3-3.2-1.1-4.3c-1.1-1.6-2.2-3.2-3.3-4.8c-0.5-0.7-1-1.4-1.5-2.1
		c-3.2-4.6-6.8-9-11.1-12.6c-0.6-0.5-1.2-1-1.3-1.7c-0.1-0.5,0.1-1,0.3-1.5c0.3-0.7,0.5-1.4,0.8-2.1c0.2-0.6,0.5-1.2,0.9-1.7
		c0.8-1,2.3-1.4,3.5-0.8c1,0.5,1.8,1.6,2.9,1.9c1,0.3,2-0.1,3.1,0c1.7,0.2,3,1.7,3.9,3.1c0.9,1.5,1.7,3.1,3.1,4
		c0.8,0.5,1.7,0.7,2.3,1.4c1,1.1,0.8,2.9,1.2,4.4c0.3,1.3,1.2,2.3,1.8,3.5c0.6,1.2,0.9,2.4,1.2,3.7c0.1,0.3,0.1,0.5,0.2,0.8
		c0.5,2.3,1,4.5,1,6.9c0,1.9-0.8,4.5-1.8,6.4c-0.2,0.4-0.5,0.8-0.8,1.2"/>
	<path class="st2" d="M232.5,85.8c-0.2-1.3,0-4.7-0.5-5.9c-0.2-0.6-0.6-1.1-0.8-1.7c-0.6-1.2-0.8-2.6-0.7-4c0-0.2,0-0.5,0.1-0.7v0"
		/>
	<path class="st2" d="M231.9,58.5c0-0.1,0-0.1,0-0.2c0.6-2.3,2.2-4.9,3.7-6.6c0.8-0.8,1.7-1.5,2.7-2c3.9-2.2,8.5-2.7,12.5-4.5
		c3.5-1.6,6.5-4.3,10.1-5.9c1.2-0.5,2.4-0.9,3.7-0.7s2.4,1.4,2.3,2.6c-0.1,1-0.9,1.8-1.6,2.4c-2.3,2.1-4.7,4.3-7,6.4
		c-0.9,0.8-1.8,1.6-2.8,2.2c-0.8,0.5-1.8,0.9-2.6,1.5c-0.7,0.5-1.3,1.2-1.8,1.9c-1.4,1.7-2.8,3.3-3.7,5.3c-0.9,1.9-1.5,4.9-1.9,8.2
		c-0.6,4.7-1.1,10-2,12.9"/>
	<path class="st2" d="M232.4,92.9c1,1.5,3.5,5.3,4.2,7.2c0.1,0.1,0.1,0.2,0.1,0.3"/>
	<path class="st2" d="M235.1,90.4L235.1,90.4c-0.2,0.1-0.1,3.2,0,3.4c0.3,1,1,1.7,1.6,2.4"/>
	<path class="st2" d="M232.8,104.5c-3.4,2.6,1.1,15.6,3.6,15.9"/>
	<path class="st2" d="M239.2,121.8c1.7,0.4,3.8,1.1,5.1,2.3c0.5,0.4,0.9,0.8,1.4,1.1c1.1,0.6,2.5,0.4,3.8,0.4c0.3,0,0.6,0,0.9,0
		c-0.2-1.2,0.3-2.4,0.7-3.6c0.9-2.6,1.5-5.6,0.2-8.1c-0.5-1.1-1.4-2-2.1-3c-1.3-1.8-2.3-4.4-4.4-5c-1.8-0.5-6,0.5-6.4-0.8"/>
	<path class="st2" d="M238.7,100.1c1.6-0.4,4.7-2.5,6.3-3.5c0.2-0.1,1.2-0.9,1.4-0.9c0.2-0.1,1.5-1.4,3.1-2.4c0.9-0.7,2-1.2,2.8-1.3
		c0.3,0,0.6-0.1,1-0.1c2,0.1,4,1,5.2,2.6c0.6,0.8,1.1,1.7,1.9,2.3c1.1,0.8,2.5,0.9,3.8,1c2.4,0.3,4.7,1.2,6.8,2.4
		c0.7,0.4,1.4,1,2,1.6c1.3,1.6,1.3,3.8,1.7,5.9c0.1,0.3,2.3,6.8,0.4,5.8c-1-0.6-1.8-1.5-2.5-2.4c-2.2-2.4-5.1-4.2-7.4-6.5
		c-1.6-1.6-2.9-3.5-4.8-4.8c-1.6-1.1-3.5-1.8-5.5-2.2c-3.1-0.8-6.6-1.1-9.5,0.4c-1.5,0.8-5.9,3.7-6.7,5.2"/>
	<path class="st2" d="M265.1,101.1c1.6,0.5,3.4,3.6,5,3.4"/>
	<path class="st2" d="M251.3,95.1c1.6-0.5,3.9-0.2,5.2,0.9"/>
	<path class="st2" d="M238.3,98.5c0-0.1,0-0.2,0-0.3c0.2-1,1.6-2.8,2.2-3.1c0.3-0.2,0.8-0.3,1.1-0.3c1.9-0.4,5.8-1.2,7.7-1.5
		c0,0,0.1,0,0.1,0"/>
	<path class="st2" d="M253.1,91.9C253.2,91.9,253.2,91.9,253.1,91.9c5.2-1,10.9-5.3,14.5-9.2c2.1-2.3,4.1-4.6,6.2-6.9
		c-1.7-1.3-4.2-0.2-6.2-0.9c-1.3-0.4-2.3-1.6-3.6-2.2c-1.8-0.9-4-0.6-5.9,0.2c-1.9,0.8-3.5,2.1-5.2,3.2c-2,1.4-4.1,2.6-6.3,3.6
		c-1,0.5-2.1,1-2.9,1.9c-0.1,0.1-0.2,0.3-0.3,0.4c-0.4,0.7-0.5,1.5-0.9,2.1c-1.7,3-4.4,5.7-4.4,8.3c0,0.1,0,0.2,0,0.3"/>
	<path class="st2" d="M243.5,90.7c4-2.6,7.1-5.3,11-8.1c1-0.7,6.2-0.9,8.7-2.9"/>
	<path class="st2" d="M255,78.3c-1.6,1.6-3.9,3.6-3.4,5.8"/>
	<path class="st2" d="M247.1,88.2c2.2,0.5,4.8,0.9,6.7-0.2c0.8-0.5,1.7-1,2.4-1.7"/>
	<path class="st2" d="M234.1,108.7c0.5,0.7,1.7,1.1,2.4,1.5"/>
	<path class="st2" d="M238.8,111.2c1.8,0.1,3.3,1.5,4.5,2.9c2.8,3.2,4.9,7,6.3,11.1"/>
	<path class="st2" d="M244.5,116.3c-0.8,1.1-1.9,1.9-1.5,3.2"/>
	<path class="st2" d="M244.2,114.4c0.8-0.7,1.9-0.5,3.9-0.1"/>
	<path class="st2" d="M237,81.8c0.1-1,0.3-2,0.5-3c0.1-0.7,0.2-1.3,0.4-2c0.6-3,1.3-6,2.1-9c1.5-5.7,3.6-11.5,7.9-15.5"/>
	<path class="st2" d="M237.1,56.5c0,0.6,0.1,1.3,0.2,1.9c0.3,1.8,2.5,4.4,3.5,5.9"/>
	<path class="st2" d="M234,72.5c0.3,1.4,2.6,3.4,3.6,4.4"/>
	<path class="st2" d="M238.2,79c0.9,0,1.6-0.8,1.8-1.6c0.3-0.8,0.3-1.7,0.3-2.6c0.2-2.1,1-4.2,2.2-5.9"/>
	<path class="st2" d="M217.8,42.6c3.4,2.1,3.5,5,3.8,8.5c0.1,1.7,1.4,3.1,2.1,4.6c0.9,1.8,3.7,6,4.2,7.9"/>
	<path class="st2" d="M214.6,46.1c1.5,1.7,4.5,3,6.6,3.7"/>
	<path class="st2" d="M225.8,53.4c0.1,1.1-0.8,3-1.1,4"/>
	<path class="st2" d="M240.9,111.9c0.7,0,1.9-1.3,2.8-0.8"/>
	<path class="st2" d="M232.2,100.1c0.4,0.4,1,0.4,1.5,0.4c0.8,0,1.5-0.1,2.3-0.2c0.1,0,0.1,0,0.1-0.1"/>
	<path class="st2" d="M234.8,103c0-0.2-0.4-0.4-0.2-0.5c0.1-0.1,0.3-0.2,0.5-0.2c0.3-0.1,0.5-0.2,0.8-0.2c0,0,0.1,0,0.1,0
		c0,0,0.4-0.2,0.5-0.2"/>
	<path class="st2" d="M228.5,80.1l-0.2-0.2c-0.7-0.7-1.4-1.4-2.1-2c-1.9-1.9-3.8-3.7-6.2-4.9"/>
	<line class="st0" x1="188.3" y1="137.6" x2="221.8" y2="137.6"/>
	<line class="st0" x1="188.3" y1="131" x2="214.6" y2="131"/>
	<line class="st0" x1="221.3" y1="116.6" x2="221.3" y2="137.6"/>
	<line class="st0" x1="214.6" y1="121.7" x2="214.6" y2="131.5"/>
	<line class="st0" x1="214.6" y1="32.1" x2="214.6" y2="37.4"/>
	<line class="st0" x1="221.3" y1="32.1" x2="221.3" y2="40.1"/>
</g>
</svg>
