<?xml version="1.0" encoding="utf-8"?>
<!-- Generator: Adobe Illustrator 20.1.0, SVG Export Plug-In . SVG Version: 6.00 Build 0)  -->
<svg version="1.1" id="Layer_1" xmlns="http://www.w3.org/2000/svg" xmlns:xlink="http://www.w3.org/1999/xlink" x="0px" y="0px"
	 viewBox="0 0 81.4 53.7" style="enable-background:new 0 0 81.4 53.7;" xml:space="preserve">
<style type="text/css">
	.st0{fill:#FFFFFF;}
</style>
<g>
	<polygon class="st0" points="63.3,36.6 1,36.6 1,1 63.3,1 63.3,12 64.3,12 64.3,0 0,0 0,37.7 64.3,37.7 64.3,33.1 63.3,33.1 	"/>
	<rect x="63.3" y="15.3" class="st0" width="1" height="15.1"/>
	<path class="st0" d="M55.2,24l-1.1,0.2l5,6.2h1.3l-4.5-5.5c2-0.7,3.2-2.4,3.2-4.6c0-3-2-4.9-5.2-4.9h-5.4v15.1h1v-14h4.4
		c2.5,0,4.1,1.5,4.1,3.9C58,22.1,57,23.5,55.2,24z"/>
	<path class="st0" d="M31.4,30.3h1.1l1.3-2.9l0.4-0.9l0.4-0.9h8.1l0.4,0.9l0.4,0.9l1.3,2.9h1.1l-6.7-15.1h-1L31.4,30.3z M42.2,24.6
		H35l3.6-8.1L42.2,24.6z"/>
	<path class="st0" d="M74.7,15.3h-1l-6.6,14.9L67,30.3h1.1l1.3-2.9l0.4-0.9l0.4-0.9h8.1l0.4,0.9l0.4,0.9l1.3,2.9h1.1L74.7,15.3z
		 M70.6,24.6l3.6-8.1l3.6,8.1H70.6z"/>
</g>
<g>
	<path class="st0" d="M4.3,52.9c-0.3,0.1-0.8,0.3-1.4,0.3c-1.5,0-2.6-1-2.6-2.7c0-1.7,1.1-2.8,2.8-2.8c0.7,0,1.1,0.1,1.3,0.2
		l-0.2,0.6c-0.3-0.1-0.6-0.2-1.1-0.2C1.9,48.2,1,49,1,50.4c0,1.3,0.8,2.2,2.1,2.2c0.4,0,0.9-0.1,1.1-0.2L4.3,52.9z"/>
	<path class="st0" d="M8.3,52c0,0.4,0,0.7,0,1H7.7l0-0.6h0c-0.2,0.3-0.6,0.7-1.3,0.7c-0.6,0-1.3-0.3-1.3-1.7v-2.2h0.7v2.1
		c0,0.7,0.2,1.2,0.9,1.2c0.5,0,0.8-0.3,0.9-0.6c0-0.1,0.1-0.2,0.1-0.4v-2.4h0.7V52z"/>
	<path class="st0" d="M9.4,52.3c0.2,0.1,0.6,0.3,0.9,0.3c0.5,0,0.7-0.3,0.7-0.6c0-0.3-0.2-0.5-0.7-0.7c-0.7-0.2-1-0.6-1-1.1
		c0-0.6,0.5-1.1,1.3-1.1c0.4,0,0.7,0.1,0.9,0.2l-0.2,0.5c-0.2-0.1-0.4-0.2-0.8-0.2c-0.4,0-0.6,0.2-0.6,0.5c0,0.3,0.2,0.5,0.7,0.7
		c0.7,0.3,1,0.6,1,1.2c0,0.7-0.5,1.2-1.4,1.2c-0.4,0-0.8-0.1-1.1-0.3L9.4,52.3z"/>
	<path class="st0" d="M13.5,48.1v1.1h1v0.5h-1v2.1c0,0.5,0.1,0.7,0.5,0.7c0.2,0,0.3,0,0.4,0l0,0.5c-0.1,0.1-0.3,0.1-0.6,0.1
		c-0.3,0-0.6-0.1-0.8-0.3c-0.2-0.2-0.3-0.5-0.3-1v-2.1h-0.6v-0.5h0.6v-0.9L13.5,48.1z"/>
	<path class="st0" d="M18.7,51.1c0,1.4-1,2-1.9,2c-1,0-1.8-0.8-1.8-2c0-1.3,0.8-2,1.9-2C17.9,49.1,18.7,49.9,18.7,51.1z M15.6,51.1
		c0,0.8,0.5,1.5,1.2,1.5c0.7,0,1.2-0.6,1.2-1.5c0-0.7-0.3-1.5-1.2-1.5C16,49.6,15.6,50.4,15.6,51.1z"/>
	<path class="st0" d="M19.6,50.2c0-0.4,0-0.7,0-1h0.6l0,0.6h0c0.2-0.4,0.6-0.7,1.2-0.7c0.5,0,0.9,0.3,1.1,0.8h0
		c0.1-0.2,0.3-0.4,0.4-0.5c0.2-0.2,0.5-0.3,0.9-0.3c0.5,0,1.3,0.3,1.3,1.7V53h-0.7v-2.2c0-0.7-0.3-1.2-0.8-1.2
		c-0.4,0-0.7,0.3-0.8,0.6c0,0.1-0.1,0.2-0.1,0.3V53H22v-2.3c0-0.6-0.3-1.1-0.8-1.1c-0.4,0-0.8,0.3-0.9,0.7c0,0.1-0.1,0.2-0.1,0.3V53
		h-0.7V50.2z"/>
	<path class="st0" d="M28.8,53l-1.7-5.4h0.7l0.8,2.6c0.2,0.7,0.4,1.4,0.6,2h0c0.2-0.6,0.4-1.3,0.6-2l0.9-2.6h0.7L29.6,53H28.8z"/>
	<path class="st0" d="M32.2,51.2c0,0.9,0.6,1.3,1.3,1.3c0.5,0,0.8-0.1,1.1-0.2l0.1,0.5c-0.2,0.1-0.7,0.2-1.3,0.2
		c-1.2,0-1.9-0.8-1.9-1.9c0-1.2,0.7-2.1,1.8-2.1c1.3,0,1.6,1.1,1.6,1.8c0,0.1,0,0.3,0,0.3H32.2z M34.2,50.7c0-0.4-0.2-1.1-1-1.1
		c-0.7,0-1,0.7-1.1,1.1H34.2z"/>
	<path class="st0" d="M35.8,50.2c0-0.4,0-0.7,0-1h0.6l0,0.6h0c0.2-0.4,0.6-0.7,1.3-0.7c0.5,0,1.4,0.3,1.4,1.6V53h-0.7v-2.2
		c0-0.6-0.2-1.1-0.9-1.1c-0.5,0-0.8,0.3-0.9,0.7c0,0.1,0,0.2,0,0.3V53h-0.7V50.2z"/>
	<path class="st0" d="M41,48.1v1.1h1v0.5h-1v2.1c0,0.5,0.1,0.7,0.5,0.7c0.2,0,0.3,0,0.4,0l0,0.5c-0.1,0.1-0.3,0.1-0.6,0.1
		c-0.3,0-0.6-0.1-0.8-0.3c-0.2-0.2-0.3-0.5-0.3-1v-2.1h-0.6v-0.5h0.6v-0.9L41,48.1z"/>
	<path class="st0" d="M44.4,52.2c0.3,0.2,0.8,0.4,1.2,0.4c0.7,0,1.1-0.4,1.1-0.9c0-0.5-0.3-0.8-1-1.1c-0.9-0.3-1.4-0.8-1.4-1.5
		c0-0.8,0.7-1.5,1.7-1.5c0.5,0,0.9,0.1,1.2,0.3L47,48.4c-0.2-0.1-0.5-0.3-1-0.3c-0.7,0-1,0.4-1,0.8c0,0.5,0.3,0.7,1.1,1
		c0.9,0.3,1.4,0.8,1.4,1.6c0,0.8-0.6,1.5-1.9,1.5c-0.5,0-1.1-0.2-1.4-0.3L44.4,52.2z"/>
	<path class="st0" d="M51.9,51.1c0,1.4-1,2-1.9,2c-1,0-1.8-0.8-1.8-2c0-1.3,0.8-2,1.9-2C51.2,49.1,51.9,49.9,51.9,51.1z M48.9,51.1
		c0,0.8,0.5,1.5,1.2,1.5c0.7,0,1.2-0.6,1.2-1.5c0-0.7-0.3-1.5-1.2-1.5C49.2,49.6,48.9,50.4,48.9,51.1z"/>
	<path class="st0" d="M52.8,47.4h0.7V53h-0.7V47.4z"/>
	<path class="st0" d="M57.9,52c0,0.4,0,0.7,0,1h-0.6l0-0.6h0c-0.2,0.3-0.6,0.7-1.3,0.7c-0.6,0-1.3-0.3-1.3-1.7v-2.2h0.7v2.1
		c0,0.7,0.2,1.2,0.9,1.2c0.5,0,0.8-0.3,0.9-0.6c0-0.1,0.1-0.2,0.1-0.4v-2.4h0.7V52z"/>
	<path class="st0" d="M59.9,48.1v1.1h1v0.5h-1v2.1c0,0.5,0.1,0.7,0.5,0.7c0.2,0,0.3,0,0.4,0l0,0.5c-0.1,0.1-0.3,0.1-0.6,0.1
		c-0.3,0-0.6-0.1-0.8-0.3c-0.2-0.2-0.3-0.5-0.3-1v-2.1h-0.6v-0.5h0.6v-0.9L59.9,48.1z"/>
	<path class="st0" d="M62.5,48.1c0,0.2-0.2,0.4-0.4,0.4c-0.2,0-0.4-0.2-0.4-0.4c0-0.2,0.2-0.4,0.4-0.4
		C62.3,47.7,62.5,47.9,62.5,48.1z M61.7,53v-3.8h0.7V53H61.7z"/>
	<path class="st0" d="M67,51.1c0,1.4-1,2-1.9,2c-1,0-1.8-0.8-1.8-2c0-1.3,0.8-2,1.9-2C66.3,49.1,67,49.9,67,51.1z M64,51.1
		c0,0.8,0.5,1.5,1.2,1.5c0.7,0,1.2-0.6,1.2-1.5c0-0.7-0.3-1.5-1.2-1.5C64.3,49.6,64,50.4,64,51.1z"/>
	<path class="st0" d="M67.9,50.2c0-0.4,0-0.7,0-1h0.6l0,0.6h0c0.2-0.4,0.6-0.7,1.3-0.7c0.5,0,1.4,0.3,1.4,1.6V53h-0.7v-2.2
		c0-0.6-0.2-1.1-0.9-1.1c-0.5,0-0.8,0.3-0.9,0.7c0,0.1,0,0.2,0,0.3V53h-0.7V50.2z"/>
	<path class="st0" d="M72.2,52.3c0.2,0.1,0.6,0.3,0.9,0.3c0.5,0,0.7-0.3,0.7-0.6c0-0.3-0.2-0.5-0.7-0.7c-0.7-0.2-1-0.6-1-1.1
		c0-0.6,0.5-1.1,1.3-1.1c0.4,0,0.7,0.1,0.9,0.2l-0.2,0.5c-0.2-0.1-0.4-0.2-0.8-0.2c-0.4,0-0.6,0.2-0.6,0.5c0,0.3,0.2,0.5,0.7,0.7
		c0.7,0.3,1,0.6,1,1.2c0,0.7-0.5,1.2-1.4,1.2c-0.4,0-0.8-0.1-1.1-0.3L72.2,52.3z"/>
</g>
</svg>
