<?xml version="1.0" encoding="utf-8"?>
<!-- Generator: Adobe Illustrator 20.1.0, SVG Export Plug-In . SVG Version: 6.00 Build 0)  -->
<svg version="1.1" id="Layer_1" xmlns="http://www.w3.org/2000/svg" xmlns:xlink="http://www.w3.org/1999/xlink" x="0px" y="0px"
	 viewBox="0 0 170 178" style="enable-background:new 0 0 170 178;" xml:space="preserve">
<style type="text/css">
	.st0{fill:none;}
	.st1{fill:none;stroke:#000000;stroke-width:0.3;stroke-linecap:square;}
	.st2{fill:none;stroke:#000000;stroke-width:2;stroke-miterlimit:10;}
	.st3{fill:#D3D4D4;}
	.st4{fill:#D3D4D4;stroke:#000000;stroke-width:2;stroke-linejoin:round;stroke-miterlimit:10;}
	.st5{fill:url(#SVGID_1_);stroke:#000000;stroke-width:2;stroke-linejoin:round;stroke-miterlimit:10;}
</style>
<pattern  width="72" height="74.8" patternUnits="userSpaceOnUse" id="USGS_8_Sewage_Disposal" viewBox="72.2 -74.8 72 74.8" style="overflow:visible;">
	<g>
		<rect x="72.2" y="-74.8" class="st0" width="72" height="74.8"/>
		<g>
			<line class="st1" x1="144.2" y1="-0.8" x2="216.2" y2="-0.8"/>
			<line class="st1" x1="144.2" y1="-2.5" x2="216.2" y2="-2.5"/>
			<line class="st1" x1="144.2" y1="-4.2" x2="216.2" y2="-4.2"/>
			<line class="st1" x1="144.2" y1="-6" x2="216.2" y2="-6"/>
			<line class="st1" x1="144.2" y1="-7.7" x2="216.2" y2="-7.7"/>
			<line class="st1" x1="144.2" y1="-9.3" x2="216.2" y2="-9.3"/>
			<line class="st1" x1="144.2" y1="-11" x2="216.2" y2="-11"/>
			<line class="st1" x1="144.2" y1="-12.8" x2="216.2" y2="-12.8"/>
			<line class="st1" x1="144.2" y1="-14.5" x2="216.2" y2="-14.5"/>
			<line class="st1" x1="144.2" y1="-16.2" x2="216.2" y2="-16.2"/>
			<line class="st1" x1="144.2" y1="-17.8" x2="216.2" y2="-17.8"/>
			<line class="st1" x1="144.2" y1="-19.5" x2="216.2" y2="-19.5"/>
			<line class="st1" x1="144.2" y1="-21.2" x2="216.2" y2="-21.2"/>
			<line class="st1" x1="144.2" y1="-22.9" x2="216.2" y2="-22.9"/>
			<line class="st1" x1="144.2" y1="-24.6" x2="216.2" y2="-24.6"/>
			<line class="st1" x1="144.2" y1="-26.3" x2="216.2" y2="-26.3"/>
			<line class="st1" x1="144.2" y1="-28" x2="216.2" y2="-28"/>
			<line class="st1" x1="144.2" y1="-29.7" x2="216.2" y2="-29.7"/>
			<line class="st1" x1="144.2" y1="-31.4" x2="216.2" y2="-31.4"/>
			<line class="st1" x1="144.2" y1="-33.1" x2="216.2" y2="-33.1"/>
			<line class="st1" x1="144.2" y1="-34.8" x2="216.2" y2="-34.8"/>
			<line class="st1" x1="144.2" y1="-36.5" x2="216.2" y2="-36.5"/>
			<line class="st1" x1="144.2" y1="-38.2" x2="216.2" y2="-38.2"/>
			<line class="st1" x1="144.2" y1="-39.9" x2="216.2" y2="-39.9"/>
			<line class="st1" x1="144.2" y1="-41.6" x2="216.2" y2="-41.6"/>
			<line class="st1" x1="144.2" y1="-43.3" x2="216.2" y2="-43.3"/>
			<line class="st1" x1="144.2" y1="-45" x2="216.2" y2="-45"/>
			<line class="st1" x1="144.2" y1="-46.7" x2="216.2" y2="-46.7"/>
			<line class="st1" x1="144.2" y1="-48.4" x2="216.2" y2="-48.4"/>
			<line class="st1" x1="144.2" y1="-50.1" x2="216.2" y2="-50.1"/>
			<line class="st1" x1="144.2" y1="-51.8" x2="216.2" y2="-51.8"/>
			<line class="st1" x1="144.2" y1="-53.5" x2="216.2" y2="-53.5"/>
			<line class="st1" x1="144.2" y1="-55.2" x2="216.2" y2="-55.2"/>
			<line class="st1" x1="144.2" y1="-56.9" x2="216.2" y2="-56.9"/>
			<line class="st1" x1="144.2" y1="-58.6" x2="216.2" y2="-58.6"/>
			<line class="st1" x1="144.2" y1="-60.3" x2="216.2" y2="-60.3"/>
			<line class="st1" x1="144.2" y1="-62" x2="216.2" y2="-62"/>
			<line class="st1" x1="144.2" y1="-63.7" x2="216.2" y2="-63.7"/>
			<line class="st1" x1="144.2" y1="-65.4" x2="216.2" y2="-65.4"/>
			<line class="st1" x1="144.2" y1="-67.1" x2="216.2" y2="-67.1"/>
			<line class="st1" x1="144.2" y1="-68.8" x2="216.2" y2="-68.8"/>
			<line class="st1" x1="144.2" y1="-70.5" x2="216.2" y2="-70.5"/>
			<line class="st1" x1="144.2" y1="-72.2" x2="216.2" y2="-72.2"/>
			<line class="st1" x1="144.2" y1="-73.9" x2="216.2" y2="-73.9"/>
		</g>
		<g>
			<line class="st1" x1="72.2" y1="-0.8" x2="144.2" y2="-0.8"/>
			<line class="st1" x1="72.2" y1="-2.5" x2="144.2" y2="-2.5"/>
			<line class="st1" x1="72.2" y1="-4.2" x2="144.2" y2="-4.2"/>
			<line class="st1" x1="72.2" y1="-6" x2="144.2" y2="-6"/>
			<line class="st1" x1="72.2" y1="-7.7" x2="144.2" y2="-7.7"/>
			<line class="st1" x1="72.2" y1="-9.3" x2="144.2" y2="-9.3"/>
			<line class="st1" x1="72.2" y1="-11" x2="144.2" y2="-11"/>
			<line class="st1" x1="72.2" y1="-12.8" x2="144.2" y2="-12.8"/>
			<line class="st1" x1="72.2" y1="-14.5" x2="144.2" y2="-14.5"/>
			<line class="st1" x1="72.2" y1="-16.2" x2="144.2" y2="-16.2"/>
			<line class="st1" x1="72.2" y1="-17.8" x2="144.2" y2="-17.8"/>
			<line class="st1" x1="72.2" y1="-19.5" x2="144.2" y2="-19.5"/>
			<line class="st1" x1="72.2" y1="-21.2" x2="144.2" y2="-21.2"/>
			<line class="st1" x1="72.2" y1="-22.9" x2="144.2" y2="-22.9"/>
			<line class="st1" x1="72.2" y1="-24.6" x2="144.2" y2="-24.6"/>
			<line class="st1" x1="72.2" y1="-26.3" x2="144.2" y2="-26.3"/>
			<line class="st1" x1="72.2" y1="-28" x2="144.2" y2="-28"/>
			<line class="st1" x1="72.2" y1="-29.7" x2="144.2" y2="-29.7"/>
			<line class="st1" x1="72.2" y1="-31.4" x2="144.2" y2="-31.4"/>
			<line class="st1" x1="72.2" y1="-33.1" x2="144.2" y2="-33.1"/>
			<line class="st1" x1="72.2" y1="-34.8" x2="144.2" y2="-34.8"/>
			<line class="st1" x1="72.2" y1="-36.5" x2="144.2" y2="-36.5"/>
			<line class="st1" x1="72.2" y1="-38.2" x2="144.2" y2="-38.2"/>
			<line class="st1" x1="72.2" y1="-39.9" x2="144.2" y2="-39.9"/>
			<line class="st1" x1="72.2" y1="-41.6" x2="144.2" y2="-41.6"/>
			<line class="st1" x1="72.2" y1="-43.3" x2="144.2" y2="-43.3"/>
			<line class="st1" x1="72.2" y1="-45" x2="144.2" y2="-45"/>
			<line class="st1" x1="72.2" y1="-46.7" x2="144.2" y2="-46.7"/>
			<line class="st1" x1="72.2" y1="-48.4" x2="144.2" y2="-48.4"/>
			<line class="st1" x1="72.2" y1="-50.1" x2="144.2" y2="-50.1"/>
			<line class="st1" x1="72.2" y1="-51.8" x2="144.2" y2="-51.8"/>
			<line class="st1" x1="72.2" y1="-53.5" x2="144.2" y2="-53.5"/>
			<line class="st1" x1="72.2" y1="-55.2" x2="144.2" y2="-55.2"/>
			<line class="st1" x1="72.2" y1="-56.9" x2="144.2" y2="-56.9"/>
			<line class="st1" x1="72.2" y1="-58.6" x2="144.2" y2="-58.6"/>
			<line class="st1" x1="72.2" y1="-60.3" x2="144.2" y2="-60.3"/>
			<line class="st1" x1="72.2" y1="-62" x2="144.2" y2="-62"/>
			<line class="st1" x1="72.2" y1="-63.7" x2="144.2" y2="-63.7"/>
			<line class="st1" x1="72.2" y1="-65.4" x2="144.2" y2="-65.4"/>
			<line class="st1" x1="72.2" y1="-67.1" x2="144.2" y2="-67.1"/>
			<line class="st1" x1="72.2" y1="-68.8" x2="144.2" y2="-68.8"/>
			<line class="st1" x1="72.2" y1="-70.5" x2="144.2" y2="-70.5"/>
			<line class="st1" x1="72.2" y1="-72.2" x2="144.2" y2="-72.2"/>
			<line class="st1" x1="72.2" y1="-73.9" x2="144.2" y2="-73.9"/>
		</g>
		<g>
			<line class="st1" x1="0.2" y1="-0.8" x2="72.2" y2="-0.8"/>
			<line class="st1" x1="0.2" y1="-2.5" x2="72.2" y2="-2.5"/>
			<line class="st1" x1="0.2" y1="-4.2" x2="72.2" y2="-4.2"/>
			<line class="st1" x1="0.2" y1="-6" x2="72.2" y2="-6"/>
			<line class="st1" x1="0.2" y1="-7.7" x2="72.2" y2="-7.7"/>
			<line class="st1" x1="0.2" y1="-9.3" x2="72.2" y2="-9.3"/>
			<line class="st1" x1="0.2" y1="-11" x2="72.2" y2="-11"/>
			<line class="st1" x1="0.2" y1="-12.8" x2="72.2" y2="-12.8"/>
			<line class="st1" x1="0.2" y1="-14.5" x2="72.2" y2="-14.5"/>
			<line class="st1" x1="0.2" y1="-16.2" x2="72.2" y2="-16.2"/>
			<line class="st1" x1="0.2" y1="-17.8" x2="72.2" y2="-17.8"/>
			<line class="st1" x1="0.2" y1="-19.5" x2="72.2" y2="-19.5"/>
			<line class="st1" x1="0.2" y1="-21.2" x2="72.2" y2="-21.2"/>
			<line class="st1" x1="0.2" y1="-22.9" x2="72.2" y2="-22.9"/>
			<line class="st1" x1="0.2" y1="-24.6" x2="72.2" y2="-24.6"/>
			<line class="st1" x1="0.2" y1="-26.3" x2="72.2" y2="-26.3"/>
			<line class="st1" x1="0.2" y1="-28" x2="72.2" y2="-28"/>
			<line class="st1" x1="0.2" y1="-29.7" x2="72.2" y2="-29.7"/>
			<line class="st1" x1="0.2" y1="-31.4" x2="72.2" y2="-31.4"/>
			<line class="st1" x1="0.2" y1="-33.1" x2="72.2" y2="-33.1"/>
			<line class="st1" x1="0.2" y1="-34.8" x2="72.2" y2="-34.8"/>
			<line class="st1" x1="0.2" y1="-36.5" x2="72.2" y2="-36.5"/>
			<line class="st1" x1="0.2" y1="-38.2" x2="72.2" y2="-38.2"/>
			<line class="st1" x1="0.2" y1="-39.9" x2="72.2" y2="-39.9"/>
			<line class="st1" x1="0.2" y1="-41.6" x2="72.2" y2="-41.6"/>
			<line class="st1" x1="0.2" y1="-43.3" x2="72.2" y2="-43.3"/>
			<line class="st1" x1="0.2" y1="-45" x2="72.2" y2="-45"/>
			<line class="st1" x1="0.2" y1="-46.7" x2="72.2" y2="-46.7"/>
			<line class="st1" x1="0.2" y1="-48.4" x2="72.2" y2="-48.4"/>
			<line class="st1" x1="0.2" y1="-50.1" x2="72.2" y2="-50.1"/>
			<line class="st1" x1="0.2" y1="-51.8" x2="72.2" y2="-51.8"/>
			<line class="st1" x1="0.2" y1="-53.5" x2="72.2" y2="-53.5"/>
			<line class="st1" x1="0.2" y1="-55.2" x2="72.2" y2="-55.2"/>
			<line class="st1" x1="0.2" y1="-56.9" x2="72.2" y2="-56.9"/>
			<line class="st1" x1="0.2" y1="-58.6" x2="72.2" y2="-58.6"/>
			<line class="st1" x1="0.2" y1="-60.3" x2="72.2" y2="-60.3"/>
			<line class="st1" x1="0.2" y1="-62" x2="72.2" y2="-62"/>
			<line class="st1" x1="0.2" y1="-63.7" x2="72.2" y2="-63.7"/>
			<line class="st1" x1="0.2" y1="-65.4" x2="72.2" y2="-65.4"/>
			<line class="st1" x1="0.2" y1="-67.1" x2="72.2" y2="-67.1"/>
			<line class="st1" x1="0.2" y1="-68.8" x2="72.2" y2="-68.8"/>
			<line class="st1" x1="0.2" y1="-70.5" x2="72.2" y2="-70.5"/>
			<line class="st1" x1="0.2" y1="-72.2" x2="72.2" y2="-72.2"/>
			<line class="st1" x1="0.2" y1="-73.9" x2="72.2" y2="-73.9"/>
		</g>
	</g>
</pattern>
<g>
	<rect x="-2.8" y="5.4" transform="matrix(2.239459e-11 -1 1 2.239459e-11 -4 174)" class="st2" width="175.6" height="167.2"/>
	
		<rect x="62.6" y="70.8" transform="matrix(8.785512e-11 -1 1 8.785512e-11 -69.3798 239.3798)" class="st2" width="44.8" height="167.2"/>
	<circle cx="23.2" cy="23" r="11.5"/>
	<g>
		<path class="st3" d="M23,27.4v-2.8h-4.8v-0.9l4.6-6.5h1.5v6.4h1.4v1.1h-1.4v2.8H23z M23,23.5V20c0-0.5,0-1.1,0-1.6h0
			c-0.3,0.6-0.6,1-0.9,1.5l-2.5,3.5v0H23z"/>
	</g>
	<g>
		<path d="M49.6,144.5h0.8v5.8h2.8v0.7h-3.6V144.5z"/>
		<path d="M54.5,148.9c0,1.2,0.8,1.6,1.6,1.6c0.6,0,1-0.1,1.3-0.2l0.1,0.6c-0.3,0.1-0.8,0.3-1.6,0.3c-1.4,0-2.3-1-2.3-2.4
			s0.8-2.5,2.2-2.5c1.5,0,1.9,1.4,1.9,2.2c0,0.2,0,0.3,0,0.4H54.5z M57,148.3c0-0.5-0.2-1.4-1.2-1.4c-0.9,0-1.2,0.8-1.3,1.4H57z"/>
		<path d="M61.5,151.1l-0.1-0.6h0c-0.3,0.4-0.8,0.7-1.4,0.7c-1,0-1.4-0.7-1.4-1.4c0-1.1,1-1.8,2.8-1.8V148c0-0.4-0.1-1.1-1.1-1.1
			c-0.4,0-0.9,0.1-1.2,0.3l-0.2-0.6c0.4-0.3,1-0.4,1.5-0.4c1.4,0,1.8,1,1.8,1.9v1.8c0,0.4,0,0.8,0.1,1.1H61.5z M61.4,148.7
			c-0.9,0-2,0.1-2,1.1c0,0.6,0.4,0.8,0.8,0.8c0.6,0,1-0.4,1.1-0.8c0-0.1,0-0.2,0-0.3V148.7z"/>
		<path d="M63.8,146.4l0.9,2.6c0.2,0.4,0.3,0.8,0.4,1.2h0c0.1-0.4,0.2-0.8,0.4-1.2l0.9-2.6h0.9l-1.8,4.7h-0.8l-1.8-4.7H63.8z"/>
		<path d="M69.1,145c0,0.3-0.2,0.5-0.5,0.5c-0.3,0-0.5-0.2-0.5-0.5c0-0.3,0.2-0.5,0.5-0.5C68.9,144.5,69.1,144.7,69.1,145z
			 M68.2,151.1v-4.7H69v4.7H68.2z"/>
		<path d="M70.4,147.6c0-0.5,0-0.9,0-1.3h0.8l0,0.8h0c0.2-0.4,0.8-0.9,1.6-0.9c0.7,0,1.7,0.4,1.7,2v2.8h-0.9v-2.7
			c0-0.8-0.3-1.4-1.1-1.4c-0.6,0-1,0.4-1.1,0.9c0,0.1-0.1,0.3-0.1,0.4v2.8h-0.9V147.6z"/>
		<path d="M79.9,146.4c0,0.3,0,0.7,0,1.3v2.7c0,1.1-0.2,1.7-0.7,2.1c-0.5,0.4-1.1,0.6-1.7,0.6c-0.6,0-1.2-0.1-1.6-0.4l0.2-0.7
			c0.3,0.2,0.8,0.4,1.4,0.4c0.9,0,1.5-0.5,1.5-1.6v-0.5h0c-0.3,0.4-0.8,0.8-1.5,0.8c-1.2,0-2-1-2-2.3c0-1.6,1-2.5,2.1-2.5
			c0.8,0,1.3,0.4,1.5,0.8h0l0-0.7H79.9z M79,148.2c0-0.1,0-0.3,0-0.4c-0.2-0.5-0.6-0.9-1.2-0.9c-0.8,0-1.4,0.7-1.4,1.8
			c0,0.9,0.5,1.7,1.4,1.7c0.5,0,1-0.3,1.2-0.9c0-0.1,0.1-0.3,0.1-0.5V148.2z"/>
		<path d="M83.3,151.1c0-0.3,0-0.8,0-1.2v-5.7h0.8v3h0c0.3-0.5,0.8-0.9,1.6-0.9c1.2,0,2,1,2,2.4c0,1.7-1.1,2.5-2.1,2.5
			c-0.7,0-1.2-0.3-1.6-0.9h0l0,0.8H83.3z M84.2,149.2c0,0.1,0,0.2,0,0.3c0.2,0.6,0.7,1,1.3,1c0.9,0,1.4-0.7,1.4-1.8
			c0-0.9-0.5-1.7-1.4-1.7c-0.6,0-1.1,0.4-1.3,1c0,0.1,0,0.2,0,0.3V149.2z"/>
		<path d="M93.1,148.7c0,1.7-1.2,2.5-2.3,2.5c-1.3,0-2.3-0.9-2.3-2.4c0-1.6,1-2.5,2.3-2.5C92.2,146.3,93.1,147.2,93.1,148.7z
			 M89.4,148.7c0,1,0.6,1.8,1.4,1.8c0.8,0,1.4-0.8,1.4-1.8c0-0.8-0.4-1.8-1.4-1.8S89.4,147.8,89.4,148.7z"/>
		<path d="M94.2,147.6c0-0.5,0-0.9,0-1.3h0.8l0,0.8h0c0.2-0.4,0.8-0.9,1.6-0.9c0.7,0,1.7,0.4,1.7,2v2.8h-0.9v-2.7
			c0-0.8-0.3-1.4-1.1-1.4c-0.6,0-1,0.4-1.1,0.9c0,0.1-0.1,0.3-0.1,0.4v2.8h-0.9V147.6z"/>
		<path d="M103.7,144.2v5.7c0,0.4,0,0.9,0,1.2h-0.8l0-0.8h0c-0.3,0.5-0.8,0.9-1.6,0.9c-1.1,0-2-1-2-2.4c0-1.6,1-2.5,2.1-2.5
			c0.7,0,1.2,0.3,1.4,0.7h0v-2.8H103.7z M102.8,148.3c0-0.1,0-0.3,0-0.4c-0.1-0.5-0.6-1-1.2-1c-0.9,0-1.4,0.8-1.4,1.8
			c0,1,0.5,1.7,1.4,1.7c0.6,0,1.1-0.4,1.3-1c0-0.1,0-0.2,0-0.4V148.3z"/>
		<path d="M106,145c0,0.3-0.2,0.5-0.5,0.5c-0.3,0-0.5-0.2-0.5-0.5c0-0.3,0.2-0.5,0.5-0.5C105.8,144.5,106,144.7,106,145z
			 M105.1,151.1v-4.7h0.9v4.7H105.1z"/>
		<path d="M107.3,147.6c0-0.5,0-0.9,0-1.3h0.8l0,0.8h0c0.2-0.4,0.8-0.9,1.6-0.9c0.7,0,1.7,0.4,1.7,2v2.8h-0.9v-2.7
			c0-0.8-0.3-1.4-1.1-1.4c-0.6,0-1,0.4-1.1,0.9c0,0.1-0.1,0.3-0.1,0.4v2.8h-0.9V147.6z"/>
		<path d="M116.8,146.4c0,0.3,0,0.7,0,1.3v2.7c0,1.1-0.2,1.7-0.7,2.1c-0.5,0.4-1.1,0.6-1.7,0.6c-0.6,0-1.2-0.1-1.6-0.4l0.2-0.7
			c0.3,0.2,0.8,0.4,1.4,0.4c0.9,0,1.5-0.5,1.5-1.6v-0.5h0c-0.3,0.4-0.8,0.8-1.5,0.8c-1.2,0-2-1-2-2.3c0-1.6,1-2.5,2.1-2.5
			c0.8,0,1.3,0.4,1.5,0.8h0l0-0.7H116.8z M115.9,148.2c0-0.1,0-0.3,0-0.4c-0.2-0.5-0.6-0.9-1.2-0.9c-0.8,0-1.4,0.7-1.4,1.8
			c0,0.9,0.5,1.7,1.4,1.7c0.5,0,1-0.3,1.2-0.9c0-0.1,0.1-0.3,0.1-0.5V148.2z"/>
		<path d="M51.2,159.3c0-0.5,0-0.9,0-1.3h0.7l0,0.8h0c0.3-0.4,0.7-0.9,1.5-0.9c0.6,0,1.1,0.4,1.3,0.9h0c0.1-0.3,0.3-0.5,0.5-0.6
			c0.3-0.2,0.6-0.3,1-0.3c0.6,0,1.5,0.4,1.5,2v2.8H57v-2.7c0-0.9-0.3-1.4-1-1.4c-0.5,0-0.9,0.4-1,0.8c0,0.1-0.1,0.3-0.1,0.4v2.9
			h-0.8v-2.8c0-0.7-0.3-1.3-1-1.3c-0.5,0-0.9,0.4-1.1,0.9c0,0.1-0.1,0.3-0.1,0.4v2.8h-0.8V159.3z"/>
		<path d="M61.9,162.7l-0.1-0.6h0c-0.3,0.4-0.8,0.7-1.4,0.7c-1,0-1.4-0.7-1.4-1.4c0-1.1,1-1.8,2.8-1.8v-0.1c0-0.4-0.1-1.1-1.1-1.1
			c-0.4,0-0.9,0.1-1.2,0.3l-0.2-0.6c0.4-0.3,1-0.4,1.5-0.4c1.4,0,1.8,1,1.8,1.9v1.8c0,0.4,0,0.8,0.1,1.1H61.9z M61.7,160.3
			c-0.9,0-2,0.1-2,1.1c0,0.6,0.4,0.8,0.8,0.8c0.6,0,1-0.4,1.1-0.8c0-0.1,0-0.2,0-0.3V160.3z"/>
		<path d="M64.9,156.7v1.4h1.2v0.7h-1.2v2.5c0,0.6,0.2,0.9,0.6,0.9c0.2,0,0.4,0,0.5-0.1l0,0.6c-0.2,0.1-0.4,0.1-0.8,0.1
			c-0.4,0-0.7-0.1-0.9-0.4c-0.2-0.3-0.3-0.7-0.3-1.2v-2.6h-0.7V158h0.7v-1.1L64.9,156.7z"/>
		<path d="M67.5,160.5c0,1.2,0.8,1.6,1.6,1.6c0.6,0,1-0.1,1.3-0.2l0.1,0.6c-0.3,0.1-0.8,0.3-1.6,0.3c-1.4,0-2.3-1-2.3-2.4
			s0.8-2.5,2.2-2.5c1.5,0,1.9,1.4,1.9,2.2c0,0.2,0,0.3,0,0.4H67.5z M70.1,159.9c0-0.5-0.2-1.4-1.2-1.4c-0.9,0-1.2,0.8-1.3,1.4H70.1z
			"/>
		<path d="M71.9,159.5c0-0.6,0-1,0-1.5h0.7l0,0.9h0c0.2-0.6,0.7-1,1.3-1c0.1,0,0.2,0,0.2,0v0.8c-0.1,0-0.2,0-0.3,0
			c-0.6,0-1,0.5-1.1,1.1c0,0.1,0,0.3,0,0.4v2.5h-0.8V159.5z"/>
		<path d="M76.1,156.7c0,0.3-0.2,0.5-0.5,0.5c-0.3,0-0.5-0.2-0.5-0.5c0-0.3,0.2-0.5,0.5-0.5C75.9,156.2,76.1,156.4,76.1,156.7z
			 M75.2,162.7V158H76v4.7H75.2z"/>
		<path d="M80,162.7l-0.1-0.6h0c-0.3,0.4-0.8,0.7-1.4,0.7c-1,0-1.4-0.7-1.4-1.4c0-1.1,1-1.8,2.8-1.8v-0.1c0-0.4-0.1-1.1-1.1-1.1
			c-0.4,0-0.9,0.1-1.2,0.3l-0.2-0.6c0.4-0.3,1-0.4,1.5-0.4c1.4,0,1.8,1,1.8,1.9v1.8c0,0.4,0,0.8,0.1,1.1H80z M79.9,160.3
			c-0.9,0-2,0.1-2,1.1c0,0.6,0.4,0.8,0.8,0.8c0.6,0,1-0.4,1.1-0.8c0-0.1,0-0.2,0-0.3V160.3z"/>
		<path d="M82.1,155.8H83v6.9h-0.9V155.8z"/>
		<path d="M87.5,156.7v1.4h1.2v0.7h-1.2v2.5c0,0.6,0.2,0.9,0.6,0.9c0.2,0,0.4,0,0.5-0.1l0,0.6c-0.2,0.1-0.4,0.1-0.8,0.1
			c-0.4,0-0.7-0.1-0.9-0.4c-0.2-0.3-0.3-0.7-0.3-1.2v-2.6h-0.7V158h0.7v-1.1L87.5,156.7z"/>
		<path d="M93.9,160.3c0,1.7-1.2,2.5-2.3,2.5c-1.3,0-2.3-0.9-2.3-2.4c0-1.6,1-2.5,2.3-2.5C93,157.9,93.9,158.9,93.9,160.3z
			 M90.2,160.4c0,1,0.6,1.8,1.4,1.8c0.8,0,1.4-0.8,1.4-1.8c0-0.8-0.4-1.8-1.4-1.8S90.2,159.5,90.2,160.4z"/>
		<path d="M100.4,162.6c-0.2,0.1-0.7,0.3-1.4,0.3c-1.4,0-2.3-1-2.3-2.4c0-1.4,1-2.5,2.5-2.5c0.5,0,1,0.1,1.2,0.2l-0.2,0.7
			c-0.2-0.1-0.5-0.2-1-0.2c-1.1,0-1.7,0.8-1.7,1.8c0,1.1,0.7,1.8,1.6,1.8c0.5,0,0.8-0.1,1-0.2L100.4,162.6z"/>
		<path d="M105.3,161.4c0,0.5,0,0.9,0,1.3h-0.8l0-0.8h0c-0.2,0.4-0.7,0.9-1.6,0.9c-0.7,0-1.6-0.4-1.6-2.1V158h0.9v2.6
			c0,0.9,0.3,1.5,1,1.5c0.6,0,1-0.4,1.1-0.8c0-0.1,0.1-0.3,0.1-0.4V158h0.9V161.4z"/>
		<path d="M106.7,159.5c0-0.6,0-1,0-1.5h0.7l0,0.9h0c0.2-0.6,0.7-1,1.3-1c0.1,0,0.2,0,0.2,0v0.8c-0.1,0-0.2,0-0.3,0
			c-0.6,0-1,0.5-1.1,1.1c0,0.1,0,0.3,0,0.4v2.5h-0.8V159.5z"/>
		<path d="M110.3,160.5c0,1.2,0.8,1.6,1.6,1.6c0.6,0,1-0.1,1.3-0.2l0.1,0.6c-0.3,0.1-0.8,0.3-1.6,0.3c-1.4,0-2.3-1-2.3-2.4
			s0.8-2.5,2.2-2.5c1.5,0,1.9,1.4,1.9,2.2c0,0.2,0,0.3,0,0.4H110.3z M112.8,159.9c0-0.5-0.2-1.4-1.2-1.4c-0.9,0-1.2,0.8-1.3,1.4
			H112.8z"/>
		<path d="M114.4,162.2c0-0.4,0.2-0.6,0.6-0.6c0.3,0,0.6,0.3,0.6,0.6c0,0.4-0.2,0.6-0.6,0.6C114.6,162.8,114.4,162.6,114.4,162.2z"
			/>
	</g>
	<rect x="55.6" y="76.5" class="st4" width="58.8" height="7.9"/>
	<pattern  id="SVGID_1_" xlink:href="#USGS_8_Sewage_Disposal" patternTransform="matrix(1 0 0 1 -84.8176 -102.1511)">
	</pattern>
	<polygon class="st5" points="114.4,76.5 55.6,76.5 58.6,58.7 111.4,58.7 	"/>
	<g id="U3vy4V_1_">
		<g>
			<path d="M145.5,11.3c0.5,0,0.9,0,1.4,0c0,0,0.1,0,0.1,0c0.6,0.1,1.2,0.1,1.8,0.3c1.6,0.3,3,1,4.4,2c1,0.7,1.8,1.6,2.5,2.6
				c1.1,1.6,1.8,3.3,2.1,5.2c0,0.3,0.1,0.6,0.1,0.9c0,0.5,0,0.9,0,1.4c0,0.1,0,0.1,0,0.2c-0.1,1.2-0.4,2.4-0.9,3.6
				c-0.9,2-2.2,3.7-4,5c-1.6,1.1-3.3,1.8-5.3,2.1c-0.3,0-0.6,0.1-0.8,0.1c-0.5,0-0.9,0-1.4,0c-0.1,0-0.1,0-0.2,0
				c-0.5-0.1-1-0.1-1.5-0.2c-1.6-0.3-3.1-1-4.4-2c-1.3-0.9-2.4-2.1-3.2-3.5c-0.8-1.4-1.4-2.9-1.6-4.5c0-0.3-0.1-0.5-0.1-0.8
				c0-0.5,0-0.9,0-1.4c0-0.1,0-0.1,0-0.2c0.1-0.6,0.2-1.2,0.3-1.8c0.3-1.6,1-3,2-4.3c0.9-1.2,2-2.2,3.2-3c1.4-0.9,2.9-1.4,4.6-1.7
				C145,11.4,145.3,11.3,145.5,11.3z M136.4,23.2c0.1,5.3,4.5,9.6,9.9,9.6c5.4-0.1,9.8-4.5,9.7-9.9c-0.1-5.4-4.6-9.9-10.1-9.7
				C140.7,13.3,136.3,17.7,136.4,23.2z"/>
			<path d="M146.8,23c0.3-0.2,0.6-0.4,0.9-0.6c1.1-0.8,2.3-1.6,3.4-2.4c0.1-0.1,0.2-0.2,0.3-0.2c0.3-0.2,0.7-0.2,0.9,0.1
				c0.2,0.3,0.2,0.6-0.1,0.9c-0.3,0.3-0.7,0.5-1,0.7c-0.9,0.6-1.7,1.2-2.6,1.8c-0.7,0.5-1.4,1-2.1,1.4c-0.4,0.3-0.9,0.1-1-0.4
				c0-0.1,0-0.1,0-0.2c0-2.7,0-5.4,0-8.2c0-0.4,0.2-0.6,0.5-0.7c0.3-0.1,0.6,0.1,0.7,0.5c0,0.1,0,0.2,0,0.3c0,2.2,0,4.5,0,6.7
				C146.8,22.9,146.8,22.9,146.8,23z"/>
		</g>
	</g>
</g>
</svg>
