<?xml version="1.0" encoding="utf-8"?>
<!-- Generator: Adobe Illustrator 20.1.0, SVG Export Plug-In . SVG Version: 6.00 Build 0)  -->
<svg version="1.1" id="Layer_1" xmlns="http://www.w3.org/2000/svg" xmlns:xlink="http://www.w3.org/1999/xlink" x="0px" y="0px"
	 viewBox="0 0 169.2 177.6" style="enable-background:new 0 0 169.2 177.6;" xml:space="preserve">
<style type="text/css">
	.st0{fill:none;}
	.st1{fill:none;stroke:#000000;stroke-width:2;stroke-miterlimit:10;}
	.st2{fill:#D3D4D4;stroke:#000000;stroke-width:2;stroke-linejoin:round;stroke-miterlimit:10;}
	.st3{fill:#D3D4D4;stroke:#000000;stroke-width:2;stroke-linecap:round;stroke-linejoin:round;stroke-miterlimit:10;}
	.st4{fill:url(#SVGID_1_);stroke:#000000;stroke-width:2;stroke-linejoin:round;stroke-miterlimit:10;}
	.st5{fill:#D3D4D4;}
	.st6{fill:none;stroke:#000000;stroke-miterlimit:10;}
</style>
<pattern  x="-221.4" y="-308.3" width="72" height="72" patternUnits="userSpaceOnUse" id="Mezzotint" viewBox="5.3 -81.2 72 72" style="overflow:visible;">
	<g>
		<rect x="5.3" y="-81.2" class="st0" width="72" height="72"/>
		<g>
			<path d="M21.7-11.4c-0.4,1.6,1.5,4.6-2.5,2.9l0.5,1.4c-0.8-0.1-1.9-0.4-2,0.3C18-6,18.1-5.1,19.2-4.5l-1.5-0.2
				C14.4-7.7,23.4-6.8,21.7-11.4z"/>
			<path d="M66.9-10.2C66.2-10.4,65-9.6,64-9l-1.7,4.7l1.9-1.1l0.6,1.8l3.8-2.2l-1.6,2c-2.6,0.8-2.4-0.6-2.8-1.5l-1.9,1.1
				C61.9-4.7,62-5.4,60.8-5c4.5-2.3,2.4-3.9,3.6-5.9L66.9-10.2z"/>
			<path d="M66.6-8.7c-0.7,0.6-0.2,1.5-0.1,2.2c1.3-1.7,5.5-2,2.9-5.3c0.9,0.2,1,1.1,1.3,1.8c-2.4,0-2,4.9-5,2.9L66.6-8.7z"/>
			<polygon points="75,-9.9 73.3,-10.1 77.8,-8.6 78.1,-9.1 75.3,-10.5 			"/>
			<path d="M51.7-4L51-4.7l1-1L52.7-5L51.7-4l2,2c-0.5,0.6-1.3,1.1-1,2h-1C51.5-1.4,54.1-2.9,51.7-4h-1l2-6C52.4-8,49-6,51.7-4z"/>
			<path d="M27.9-12.8c-1.5,1.8-1.2,3.6-3.1,5.5l-1.4,0.8l1-0.6l0.4-1.7l-1,0.6c0.1,1.3-1.2,2.8-2.2,4.2l7.3-8L27.9-12.8z"/>
			<path d="M49.9-9.8l-2,3c0.4,2.1-0.6-3.1-3-4l3,3L49.9-9.8z"/>
			<path d="M36.2-10.4c4.1-1.2,0.1,2.5,0.2,3.7c-0.9,1.3,0.9-1.4,2.1-5.9C37.9-11.8,37.5-11,36.2-10.4z"/>
		</g>
		<g>
			<polygon points="3,-9.9 1.3,-10.1 5.8,-8.6 6.1,-9.1 3.3,-10.5 			"/>
		</g>
		<g>
			<path d="M79.2-74.7l-1-0.2v-1.4l1,0.2V-74.7l2.9,0.5c0.1,0.8-0.1,1.6,0.7,2.2L82-71.4C80.9-72.5,81.7-75.2,79.2-74.7l-0.7,0.6
				l-2.9-6.1C76.8-78.4,75.8-74.8,79.2-74.7z"/>
			<path d="M75.1-18.2c2.7,0.5,4.4-0.6,6.6-0.9l-3.4,0.7l-1.4-0.9C78.3-20.2,74.9-18.8,75.1-18.2z"/>
			<polygon points="75.5,-29.4 73.6,-28.8 77.6,-32.4 			"/>
			<polygon points="74.7,-40.1 74.2,-40.4 78.5,-40.9 78.5,-41.8 80.7,-42 79.6,-42.4 			"/>
		</g>
		<g>
			<polygon points="12.3,-18.7 11.7,-20 14.4,-21.1 10.9,-18.2 			"/>
			<path d="M13.7-81c-5,3.1,0.9,6.6,1,10c1.4,0.4,2-1.3,3-2c0.3-0.9-0.5-1.4-1-2l-1,1c-0.3-1.7,0.8-4-1-5c0.9,0.3,1.4-0.5,2-1
				c-1.8,0.7-0.7,2.7-1,4c0.7,1,2.4,1.6,2,3l-2,2l1,1c-0.5,0.6-1.3,1.1-1,2c1.6,1.6,3.9,4.6,6,2l-1,1c2.5,0.5-3.1,0.4-4-1
				c-1-2.6-1.6-6.3-5-7l1,1c2.7-1.7-0.7-3.3-1-5h-1C11.7-78.3,12.7-80.5,13.7-81z"/>
			<path d="M58.7-77L58-77.7l1-1l0.7,0.7L58.7-77c-1-0.7-1.6-2.4-3-2c-0.5,0.6-1.3,1.1-1,2c2.6,2.5-1.3-0.8,0-2
				C56.6-79.6,57.5-78.1,58.7-77z"/>
			<path d="M20.7-72.2c-0.9-0.3-1.4,0.5-2,1c-0.3,0.9,0.5,1.4,1,2c2.1-0.3,3.3-2.7,5-4c-0.6-1.2-1.9-1-3-1c1.1,0,2.4,0.2,3-1l-1,1
				l1,1l-3,3l1,1c0,2.5,0.2-1-1-1c-1.1,1.3-2.6,1.5-4,2l1-1l-1-1c1.8-1.2,2.3-2.9,2-5C19.7-74.1,19.5-72.8,20.7-72.2z"/>
			<path d="M63.2-66.7c0.6,1.9-0.9,2.8-2,4l1,1c-0.5,0.6-1.3,1.1-1,2c-2-2.7-4,0.7-6,1c-1.2,1.4,2.2-1.4,1-3c-0.3,0.9,0.5,1.4,1,2
				l5-2l-1-1l2-2l-2-2H63.2z"/>
			<path d="M67-59.7c3.4,2.1,1.8,2.8,1.8,3.8l-2,2c2.7,4,4.8-7.2,7.3-3.7c2.5,1.3-0.3,0.3-1-1L66.7-52l1-1l-1-1
				c1.3-2.7,4-3.2,0.2-6.8l1-1C68.3-60.8,67.5-60.3,67-59.7z"/>
			<path d="M71.9-55.1c2.2,0.7-1.9,3.4-2.8,5.1c1.2-0.8,2-0.7,3-0.9c0.6,0.3-0.3,1.2-0.9,1.9c-1.8,1.2-3.1,0.7-4.6,1l3.5,0.3
				c0.7-0.7,1.2-1.6,2.5-2c-3.7-1.2,0.9-4.2,0.4-6.8L71.9-55.1z"/>
			<path d="M63.7-45c0.6-0.5,1.1-1.3,2-1l1,1l1-1v2c-1.2-2.1-3.3-2.3-5-1v-1L63.7-45z"/>
			<path d="M62-41.5c-0.6-0.5-1.3-0.2-2.2,0c1.9-1.2-1.9-3.8,0-5C58.5-44.8,61.3-43.5,62-41.5z"/>
			<path d="M65.2-29.8c1.1,0,2.4-0.2,3,1l-0.7-0.7l2-2l0.7,0.7l-3,3c0.3-0.9-0.5-1.4-1-2H65.2z"/>
			<path d="M26.7-21c-0.6-1.2-1.9-1-3-1c-2,1,0.3,2.8,1,4L24-18.7l1-1l0.7,0.7l-1,1c-1.5-0.1-0.9-4.5-4-3l-1,1c0.5,0.6,1.3,1.1,1,2
				l-1,1l3,2c-0.6-0.5-1.1-1.3-2-1l-1,1c0.3-0.9-0.5-1.4-1-2c0.9,0.3,1.4-0.5,2-1c-0.5-1.4-0.7-2.9-2-4c1.2,1,5.3,2.2,5-1
				C25.1-23.4,25.7-21.7,26.7-21z"/>
			<path d="M17.7-19c-0.5,0.6-1.3,1.1-1,2c-0.6-0.5-1.1-1.3-2-1l0.7,0.7l-1,1L13.7-17l2-2l1,1L17.7-19z"/>
			<path d="M10.7-14c1.9,2.7,3.6-0.9,6,0c-0.5,0.6-1.3,1.1-1,2c-0.6-0.5-1.1-1.3-2-1c-0.5,0.6-1.3,1.1-1,2c1,0-5.7-2.7-1-6
				C11.7-15.9,11.9-14.6,10.7-14z"/>
			<path d="M12-35.4c1,1.7,2.7,1.2,4.3,1.1l0.1,1.4c0.8,0,1.7-0.2,2.2,0.6c-0.7-3.3,3.2-2.5,4.7-3.8c1.8,0-2.5,0.7-2.9-1.2
				c0.9,0.4,0.7,1.3,0.8,2.1l-4.8,2.4l-0.1-1.4L13.5-34l-0.2-2.8L12-35.4z"/>
			<path d="M13.3-55.3l0.8,1.2l2.3-1.6l0.8,1.2l1.2-0.8l-0.2,1c1.6-0.4-4.6,0.5-7.1-0.2C12-54.3,12.7-55,13.3-55.3z"/>
			<path d="M64.6-74.1c3.8,1.3-1.1,4.5,0.8,6.7C63.9-69.6,67.1-72,64.6-74.1z"/>
			<polygon points="68.8,-64.4 67.2,-63.2 70.5,-69.4 			"/>
			<path d="M15-51.4l1,1l-3,3l1,1h-1v-2c0.9,0.3,1.4-0.5,2-1c0.3-0.9-0.5-1.4-1-2c0.6-0.5,1.1-1.3,2-1L15-51.4z"/>
			<path d="M21.3-45.9c0.6,0.5,1.1,1.3,2,1c1.2-0.6,1-1.9,1-3h1l-1,1l0.7-0.7l2,2l-0.7,0.7c-0.6-0.5-1.1-1.3-2-1l-2,2l1,1l-1,1
				c1.5-2.6-3-4,0-6C21.8-47.3,21-46.8,21.3-45.9z"/>
			<polygon points="12.3,-43.9 14.3,-44.9 16.3,-42.9 			"/>
			<path d="M20.3-43.9c-1,1.3-3.1,2.2-3,4v1h-2v-1c1.4,0.4,2-1.3,3-2v-3C18.9-44.4,19.4-43.6,20.3-43.9z"/>
			<path d="M73.8-71.3l1,0.2l0.1,1.7l-1-0.2c-0.2-2-0.1-1.3,1.2-2.2c-0.5-0.6,0.7-2.3-0.2-2.2l0.7-0.8L73.8-71.3z"/>
			<path d="M56.5-8.9c-1.1,0.5,4.1-2.5,3-5C60.6-11.4,57.5-10.6,56.5-8.9z"/>
			<path d="M68.3-25.9l0-1.4c2.3,0.6,4-0.7,4.2-2.9c1.5-1.5-2.3,1.8,0,2.8c-2.6-0.9-4,1.4-5.6,2.9l0,1.4c4.2-0.5-2.1,1.1,0-1.4l0,1
				l-1.4,0l0-1C66.7-24,67.5-25.1,68.3-25.9z"/>
			<path d="M69.3-12.9l-3,5c-3.3,1.7,6.8-7.2-1-4l-0.7,0.7l-1-1l0.7-0.7c1,2,2.8-0.3,4-1c-2.4-1.2-2.4-3.8,0-5
				C65.3-18,66.8-14.5,69.3-12.9z"/>
			<path d="M61-24.4h1v2h-1c-0.6-1.9,0.9-2.8,2-4c-0.6-0.5-1.1-1.3-2-1l1-1c-1-1-3.3-2.8-1-4C57.7-29,68.6-25.9,61-24.4z"/>
			<path d="M58.8-53.2v1c-0.6-1.2-1.9-1-3-1l-1,1c2.7,0.1,1.4-1.7,1.5-3.2C59-52.4,55.5-54.7,58.8-53.2z"/>
			<path d="M64.5-48.4c0.6-0.5,1.1-1.3,2-1C65.9-48.9,65.4-48.1,64.5-48.4l-3-3l-2,2l1-2C62.3-50.6,63.7-50.5,64.5-48.4z"/>
			<path d="M69.3-75.2l1,1c-1.4-0.4-2,1.3-3,2l2,2c1.3-1,2.2-3.1,4-3c-1.6-0.5-3.7,5.1-6,2c0.7-1.8,2.1-4.2,3-5L69.3-75.2z"/>
			<path d="M62.8-75.2c0.2,1.5-1.7,2.3-1,4l1,1l-0.7-0.7l1-1l0.7,0.7c-1.2,0.6-1,1.9-1,3l-2-7H62.8z"/>
			<path d="M66-62.2c-1.2-0.6-1-1.9-1-3c1.4,0.4,2-1.3,3-2l-1-2C70.5-66.5,63.7-65.6,66-62.2z"/>
			<path d="M11.3-32.4l1.4,0.2l-1.4,1.1l-0.7-3.6C11.4-34.1,11.2-33.2,11.3-32.4z"/>
			<path d="M55.4-65.6c2.1,0.1,1-4.8,4.1-7.9l-4.9-0.2l3.4,0.3l0.6-1.4C59.7-72,57.8-69.3,55.4-65.6z"/>
			<path d="M12.8-27.7c-0.5-2.4,2.2-2.4,3.6-2.9v1.4c-2.4-1-4,0-4.3,2l-0.7-0.8L12.8-27.7z"/>
			<path d="M9.4-26.5v1.4l2.9,0.5v1.4l1.4,0.2L13-22.4c1.6,0.8-4.1-2.9-5.7-5.2C7.7-26.6,8.6-26.7,9.4-26.5z"/>
			<path d="M21.8-25.7v-1.4l1.4,0.2v1.4c2.7,1-5.6-2.5-4.3,2c-1.9,1.1,2-0.5,0.7-2L17.5-25C18.9-25.4,20.1-26.1,21.8-25.7z"/>
			<path d="M56.3-48.1c1.7,0.1,3.8,1.3,5,0.2c-0.9,3.2,3.2,1.7,4.3,3.5c-0.4,0.8-1.4,0.4-2.2,0.3c0.1-1.6-2.6-2.9-4.3-3.5L56.3-48.1
				l0.7,3.6l-0.7-5V-48.1z"/>
			<path d="M22.7-57.1c-2.6,0.5-0.9,3.5-1.4,5.3c-0.4-0.9-1.4-0.9-2.2-1.1c-0.9,0.3-0.6,1.2-0.7,2c0.7,1.4,2.4,0.9,3.6,1.3l-3.6,0.1
				c-0.1-0.8,0.1-1.6-0.7-2.2c4.5-0.9,2.5-4.2,5-6.8V-57.1z"/>
			<path d="M10.9-42.3l-1-0.3l0.2-1.4l1,0.3L10.9-42.3l2.8,0.9c0,0.8-0.4,1.6,0.4,2.3l-0.8,0.5C12.3-39.9,13.5-42.4,10.9-42.3
				l-0.8,0.5l-1.8-5.5C9.2-45.4,7.6-42.9,10.9-42.3z"/>
			<path d="M16.7-47.1c0.5-3.5-0.3,2.2,2.2,0.1l-3,0.3L16.7-47.1z"/>
			<path d="M12.1-62.6c0.1-0.8-0.1-1.7,0.7-2C12.8-63.8,13-62.9,12.1-62.6l-4.3-0.7v2.8l-0.7-2.2C9-63.2,10.1-63.9,12.1-62.6z"/>
			<path d="M15.4-63.8c0.7-0.3,1.5-0.9,2.1-0.2l0.4,1.4l1.2-0.6l-0.8,2c-0.1-2.6-1.8-3.6-3.8-2.9l0.4-1L15.4-63.8z"/>
			<path d="M25.2-50.8l1.1-0.8l-0.3,2l-2.7-2.4C24.2-52.3,24.6-51.4,25.2-50.8z"/>
			<path d="M8.4-69.8l1.4,0.2c-1.3,0.5-0.5,2.2-0.7,3.4l2.9,0.5c0.2-1.6-0.6-3.8,0.7-4.8c-1.5,0.5,1,6.3-2.9,5.1
				C9-67.3,8.3-70,8.4-71.2V-69.8z"/>
			<path d="M7.2-74.7l-1-0.2v-1.4l1,0.2V-74.7l2.9,0.5c0.1,0.8-0.1,1.6,0.7,2.2L10-71.4C8.9-72.5,9.7-75.2,7.2-74.7l-0.7,0.6
				l-2.9-6.1C4.8-78.4,3.8-74.8,7.2-74.7z"/>
			<path d="M71-33.2c0.1-0.8-0.1-1.7,0.7-2C71.6-34.4,71.9-33.5,71-33.2l-4.3-0.7v2.8L66-33.4C67.8-33.7,68.9-34.5,71-33.2z"/>
			<path d="M73.6-46.7c-0.9,1.6-0.1,4.6-3.6,2.9v1.4c-0.8-0.1-1.7-0.4-2.2,0.3c0.1,0.8-0.1,1.6,0.7,2.2l-1.4-0.2
				C65-43,73.6-42.1,73.6-46.7z"/>
			<path d="M21.7-83.3c-0.4,1.6,1.5,4.6-2.5,2.9l0.5,1.4c-0.8-0.1-1.9-0.4-2,0.3c0.4,0.8,0.5,1.6,1.5,2.2l-1.5-0.2
				C14.4-79.7,23.4-78.8,21.7-83.3z"/>
			<path d="M72.8-68.4c-2.4,0.5,0.4,3.5,0.5,5.3c-0.8-0.9-1.7-0.9-2.5-1.1c-0.8,0.3-0.2,1.2,0,2c1.2,1.4,2.7,0.9,4.1,1.3l-3.6,0.1
				c-0.4-0.8-0.5-1.6-1.5-2.2c4.1-0.9,1-4.2,2.6-6.8L72.8-68.4z"/>
			<path d="M75-16.8c-3.2-1.7-3.5,1.1-3.1,3.4c1.5,0.6,2-0.3,2.5-0.9c-0.8,0.3-0.2,1.2,0,2l0.5-0.6l1,0.8l-0.5,0.6
				c3.9,0.6-1.5,0.1-2-1.6c-4-1.4-0.1,2.9-1.5,3.7l-0.5-5.3l0.4,1L70.3-14l-0.4-1C74.1-13.6,69.7-19.5,75-16.8z"/>
			<path d="M63.7-42.3c-0.4,1.6,1.5,4.6-2.5,2.9l0.5,1.4c-0.8-0.1-1.9-0.4-2,0.3c0.4,0.8,0.5,1.6,1.5,2.2l-1.5-0.2
				C56.4-38.7,65.4-37.8,63.7-42.3z"/>
			<path d="M59.7-56c1.6,1.1,1.5,2.9,3.6,3.8l1.5,0.2l-1.1-0.2l-0.5-1.4l1.1,0.2c0,1.2,1.4,2.1,2.5,3l-8.1-4.6L59.7-56z"/>
			<path d="M66.7-61.1c-3.6,0.9-0.2,6.1-3.6,6l-1.1-0.2l-0.5-1.4l1.1,0.2l0.5,1.4c3.6,1.2,1-2.5,1.5-3.7l-1.5-0.2L66.7-61.1z"/>
			<path d="M17.8-56.9l-0.2-3.7c-3.2,2.9-4.3,1.2-6.2,1.6l1.6-0.2l-1,1.4c2.3-2.6,5.5,0.5,7.7,1.3l1-1.4
				C19.7-57,18.8-57.1,17.8-56.9z"/>
			<path d="M9.4-59.3l0-0.9l4.4-0.4l0-0.9l2.2-0.2l-1.1-0.4c2.4-0.6-6.2,2-8.8,3.6C6.8-59.1,8.2-59.1,9.4-59.3z"/>
			<path d="M9-51.4l0.3-1.4l1.1,1.5l-3.6,0.5C7.4-51.7,8.2-51.4,9-51.4z"/>
			<polygon points="17.2,-36.1 18.9,-35.6 14.8,-38.1 14.4,-37.6 16.8,-35.7 			"/>
			<path d="M23-30.2c-0.8,0.1-2,0.4-1.9-0.3c0.4-1.2,2.2-2.1,3.6-3l-0.3-0.6l-1,1.4l0.7-1l-3.2,0.5l-0.7,1c0.8-0.1,2-0.4,1.9,0.3
				l-2,2.8l-1.6,0.2l-1,1.4c3-3,6.2-1.6,7.9-4.9C24.7-31.6,24.3-30.8,23-30.2z"/>
			<path d="M84.6-49.3c-3.1,1.8-5.7,0.5-9.3-0.9c-0.3,2,5-0.2,7.9,2L84.6-49.3z"/>
			<path d="M78.9-33.6c3.7,0.6-1.5,0.1-1.4-1.6c-3.4-1.4-1.1,2.9-2.9,3.7l1.4-5.3v1l-1.4-0.2v-1c3.7,1.4,1.4-4.5,5.7-1.8
				c-2.6-1.7-3.9,1.1-4.3,3.4c1.3,0.6,2.1-0.3,2.9-0.9V-33.6z"/>
			<path d="M80.6-21c-0.4-2.6-5.9,0.5-8.6,1.3V-21c0.4,0.9,1.4,0.9,2.2,1.1l2.9-3.7c1.1,2.9,3.4,1.2,5,1.6L80.6-21z"/>
			<path d="M78.5-43.7c-1.7,0.3-2.9-2.4-4.3-0.7v-1.4L78.5-43.7z"/>
			<path d="M79.4-66.2c-0.1-0.8,0.1-1.6-0.7-2.2c-2.5-1.3-1.7,1.7-2.9,2.3c-1.8,1.4,0.9-0.4,0-1.4l-1.4-0.2c1,2.4,4.5-3.1,2.2-5.9
				L79.4-66.2z"/>
			<path d="M77.9-28.7l-0.5-1.4c2.7,1,4,0,3.6-2c1.1-1.2-1.9,1.3,1,2.8c-3.2-1.4-3.9,0.6-5.1,1.8l0.5,1.4c4.4,0.3-1.9,0.7-0.5-1.4
				l0.4,1l-1.5-0.2l-0.4-1C76.9-27.1,77.4-28,77.9-28.7z"/>
			<path d="M76.6-64.7l-1.3,0.8c1.8-0.6,1.9,0.3,2.2,0.9l-1,1.4c-0.9-1.5,0.4,2.8,2.5,1.5C74.2-59.2,79.6-64.1,76.6-64.7z"/>
			<path d="M77.9-56.7l-0.7,1c0.8-0.1,2-0.4,1.9,0.3l-2,2.8l-1.6,0.2l-1,1.4c3-3,6.2-1.6,7.9-4.9c-0.6,0.8-1.1,1.6-2.3,2.2
				c-0.8,0.1-2,0.4-1.9-0.3L77.9-56.7z"/>
			<path d="M62.1-34.5l-1.3,0.8c1.8-0.6,1.9,0.3,2.2,0.9l-1,1.4c-0.9-1.5,0.4,2.8,2.5,1.5C59.8-29,65.1-33.8,62.1-34.5z"/>
			<path d="M62.3-8.4c0.5-0.8,1.4-1.7,0.7-2l-1.6,0.2l1-1.4l-2.6,1.6c3.1-1,4,0,2.8,2L62.3-8.4z"/>
			<path d="M64-36.7c4.1-1.2,0.1,2.5,0.2,3.7c-0.9,1.3,0.9-1.4,2.1-5.9C65.6-38.1,65.2-37.2,64-36.7z"/>
			<path d="M66.9-82.2c-0.7-0.2-1.9,0.7-3,1.2l-1.7,4.7l1.9-1.1l0.6,1.8l3.8-2.2l-1.6,2c-2.6,0.8-2.4-0.6-2.8-1.5l-1.9,1.1
				c-0.3-0.4-0.2-1.2-1.4-0.8c4.5-2.3,2.4-3.9,3.6-5.9L66.9-82.2z"/>
			<path d="M72.3-78.3c-0.5,0.6-1.3,1.1-0.9,1.9l1.2,0.9l-1,1l2.2-0.1c-2.4-1-2.8-2.9-1.6-4.5l-1.1,0.1L72.3-78.3z"/>
			<path d="M66.6-80.7c-0.7,0.6-0.2,1.5-0.1,2.2c1.3-1.7,5.5-2,2.9-5.3c0.9,0.2,1,1.1,1.3,1.8c-2.4,0-2,4.9-5,2.9L66.6-80.7z"/>
			<path d="M69.6-37.2l0.7,0.7L69-35l-0.7-0.7c0.9-1.8,2.6-1.4,4.2-1.5c-0.1-0.8,0.1-1.7-0.8-2.1l1.4,0c0-1.4-0.5-4.3,2-3.6
				C70.4-42.8,76.2-33,69.6-37.2z"/>
			<path d="M63.6-21.7c-1,3.2-6-2.2-6,1.2l0.1,1.1l1.4,1.1l-0.1-1.1l-1.4-1.1c-1.1-4.1,2.5,0,3.7-0.1l0.2,1.6L63.6-21.7z"/>
			<path d="M71.5-25.4c-0.9-0.3-1.4,0.5-2,1c2.1,0.3,4.4,3.9,6,0c0.3,0.9-0.5,1.4-1,2c-1.2-2.1-5.3,0.6-5-3H71.5z"/>
			<path d="M65.4-19.4l-0.3-1.4l1.4-0.3l0.3,1.4c2.7,0.1-5.7-0.5-3.6,3.6c-1.5,1.7,1.8-1.2,0.3-2.2l-2,1.1
				C62.7-18.1,63.7-19.2,65.4-19.4z"/>
			<path d="M80-16.4c-1.4-0.4-2,1.3-3,2c0,2.5,0.2-1-1-1l-1,1l1-2c-0.3,0.9,0.5,1.4,1,2l2-3L80-16.4z"/>
			<polygon points="69.6,-18.6 68.2,-21.3 70.4,-19 70.9,-18.1 70,-17.7 			"/>
			<polygon points="75.5,-29.4 73.6,-28.8 77.6,-32.4 			"/>
			<path d="M3.1-18.2c2.7,0.5,4.4-0.6,6.6-0.9l-3.4,0.7l-1.4-0.9C6.3-20.2,2.9-18.8,3.1-18.2z"/>
			<polygon points="3.5,-29.4 1.6,-28.8 5.6,-32.4 			"/>
			<path d="M9-7.1c-4.1,1.2-0.1-2.5-0.2-3.7l1.6-0.2l-2.8-2C10.8-12.2,5.5-7,9-7.1z"/>
			<path d="M14.5-27.7c1.4,1.1,0.6,3.3,0.9,4.9l-0.1-2.8l-1.4,0.1C13.1-23.7,13.7-27.2,14.5-27.7z"/>
			<path d="M8.3-36.4c0.6-1.1,2.7-2.9,1.7-3.4L8.3-36.4c2.4-1.8-1.6,3.3,4.2-1.9C11-37.4,9.4-36.3,8.3-36.4z"/>
			<polygon points="75,-9.9 73.3,-10.1 77.8,-8.6 78.1,-9.1 75.3,-10.5 			"/>
			<polygon points="75,-81.9 73.3,-82.1 77.8,-80.6 78.1,-81.1 75.3,-82.5 			"/>
			<path d="M55.4-11c0.2-1.1,0.3-2.4,1.6-2.7l-0.8,0.5l-1.6-2.4l0.8-0.5l2.3,3.5c-0.8-0.5-1.5,0.2-2.2,0.6L55.4-11z"/>
			<polygon points="17.9,-12.4 17.2,-10.5 20.4,-10.9 			"/>
			<path d="M73.3-52.7l2-3l1,1C74.9-55.1,74.3-53.4,73.3-52.7z"/>
			<path d="M75.3-77.1c0,2.5,0.2-1-1-1l-1,1l1-2C74-78.2,74.8-77.7,75.3-77.1z"/>
			<path d="M78.1-45.9c-1.3-0.9-4.4-0.3-3.8-3.2c0.3,1.1,0.4,2.4,1.7,2.7c0.9,0.1,1.2-0.8,1.7-1.4l1.7,2.7L78.1-45.9z"/>
			<polygon points="79.6,-42.4 74.7,-40.1 74.2,-40.4 78.5,-40.9 			"/>
			<polygon points="2.7,-40.1 2.2,-40.4 6.5,-40.9 6.5,-41.8 8.7,-42 7.6,-42.4 			"/>
			<polygon points="58.5,-57.2 60.5,-58.7 57.5,-57.8 			"/>
			<polygon points="59.3,-26.7 59.3,-29 58,-28.8 			"/>
			<path d="M51.7-76L51-76.7l1-1l0.7,0.7L51.7-76l2,2c-0.5,0.6-1.3,1.1-1,2h-1C51.5-73.4,54.1-74.9,51.7-76h-1l2-6
				C52.4-80,49-78,51.7-76z"/>
			<path d="M49.7-62.7l-2,0l-0.7,1c0.1-1.8-2-2.7-3-4l-1,1c-0.2-1.4,3.9-2.9,0-4h-1l1-3C43.6-68.3,44.3-63.1,49.7-62.7z"/>
			<path d="M56.3-71.4c-4,0.8-5,5.9-8.4,5.8l-1-0.2l0.3-1.4l1,0.2l0.5,1.1c2.9,1.3,2.4-2.4,3.6-3.6l-1.4-0.3L56.3-71.4z"/>
			<path d="M48.2-58.7l4.5-0.8c-1.2,2.7,2.4,2.6,3.5,3.8l-1-1l-1,1c1.5-2.1-6.9-4.2-9.4-4.2l0.5-1.8C45-60.8,47.7-59.3,48.2-58.7z"
				/>
			<path d="M32.7-58c-2.5-1.1-3.3,2-5,3c0.3-0.9-0.5-1.4-1-2c-0.9-0.3-1.4,0.5-2,1c-0.4,1.4,1.3,2,2,3l-3-2c0.5-0.6,1.3-1.1,1-2
				c4.3,1.9,5.1-1.6,9-2L32.7-58z"/>
			<path d="M46.7-58c-1.9,0.6-3.4,3.2-5,0l-1,1c-0.6-0.5-1.1-1.3-2-1c-0.5,0.6-1.3,1.1-1,2l-1-1C37-60.3,43.4-54.7,46.7-58z"/>
			<path d="M32.7-49c0.3-0.9-0.5-1.4-1-2l-4,2l4,4c0.5-0.6,1.3-1.1,1-2l1,1c-0.9-0.3-1.4,0.5-2,1c0,2.6,2.5,1.6,3,4
				c-3.6-1.3-2.5-7.1-7-8c1.2-1.6,5.3-0.6,4-4L32.7-49z"/>
			<path d="M49.7-46.5c3.8,0.4,0.5-5.6,5-4L49.7-46.5z"/>
			<path d="M37.3-39.8l-0.7,1.2l2.4,1.5l-0.7,1.2l1.2,0.7l-1,0.2c1,1.3-2.3-4-2.6-6.6C35.8-40.6,36.7-40.3,37.3-39.8z"/>
			<path d="M39.7-45c1.3-2,3.5-0.5,5,0l-1,1c-1.2-2.1-3.3-2.3-5-1v-1L39.7-45z"/>
			<path d="M50.6-40.2c-1.2-3-2.1,1.5-5.1,0.1c-1,0.7,1.2-0.7,6.4-1.9C51.4-41.5,50.5-41.2,50.6-40.2z"/>
			<path d="M40.7-37.5l1,1h-2l2-3C42-38.6,41.2-38.1,40.7-37.5z"/>
			<path d="M37.7-33c1.7-1.3-4.2-2.7-5-6l-4,3l3-2l-1-1C34.5-38.5,35.8-36.1,37.7-33z"/>
			<path d="M50.7-35.5c0.3-0.9-0.5-1.4-1-2l1,1l1-2L50.7-35.5z"/>
			<path d="M53.7-33c1-0.7,1.6-2.4,3-2L53.7-33c0.4-1.9-3,1.9-1-3C52.7-34.9,52.5-33.6,53.7-33z"/>
			<path d="M27.7-33c0,1.1,0.2,2.4-1,3l2,2c2.1-1.2,2.3-3.3,1-5l1,3c-1.6,3.2-3.1,0.6-5,0c-1.2,1.7,5.1-2.9,0-3
				c-2.4,2.1,0.8,0.1,0-1C26.3-33.5,26.8-32.7,27.7-33z"/>
			<path d="M46.5-26.2c-1.6-0.7-0.7-3.4-3-3l1-1L46.5-26.2z"/>
			<path d="M49.2-28.2c-2,2.5,1.3-0.3-1-1c1.4,0.4,2-1.3,3-2l-2-1h2L49.2-28.2z"/>
			<path d="M34.9-25.3c1.3,1,2.2,3.1,4,3c-3,1.8,1.4,3,1,5c-0.9,0.3-1.4-0.5-2-1c1.3-1.1,0-3.6-1-5L34.9-25.3l-2,3l3-4L34.9-25.3z"
				/>
			<path d="M40.7-24.2c-4.4,5.1,4.5-2.9-1-1.8l5,0.8L40.7-24.2z"/>
			<path d="M41.7-21.5c3.3,2.7-2.3,5.3,1,8h-2C41-16.2,44.4-18.8,41.7-21.5h-1l6-3L41.7-21.5z"/>
			<path d="M36.2-21c-2.7,2.2-1.2,6.2-5,8c-1.4,1.7,2.8-2.2,3-4C34.2-18.6,33.8-21.3,36.2-21z"/>
			<path d="M54-18.3c-1.6-1.1-2.6,0.9-3.9,1.4c-1.1,3.2-0.4,4.6,2.5,5.5c0.9-0.3,0.9-1.2,1.1-1.9c-0.3-0.9-1.2-0.9-1.9-1.1
				c0.9-0.3,0.9-1.2,1.1-1.9c-0.6,2.1,1.7,3.6,0.3,5.8l-4.5-3c1.4-0.5,0.9-2.2,1.4-3.3l-3,0.8l6.4-3.1L54-18.3z"/>
			<path d="M45.7-33c-0.6-0.5-1.1-1.3-2-1c1.9-1.2-1.9-3.8,0-5C42.4-37.4,45-35,45.7-33z"/>
			<path d="M48.4-56.6c-2.4,3.3,1.5,6.8-1.1,9l-0.8,0.5l-0.7-1.2l0.8-0.5l0.7,1.2c3-1,0.1-3.4,0.2-5.1L46.2-52L48.4-56.6z"/>
			<path d="M35-72.1l-0.5,1.3l2.7,1l-0.5,1.3l1.3,0.5l-0.9,0.4c1.3,1.1-3.1-3.4-3.9-5.9C33.4-72.5,34.3-72.4,35-72.1z"/>
			<polygon points="40.8,-75.4 36.8,-78.4 40.8,-80.4 37.8,-78.4 			"/>
			<path d="M54.4-30.1c-0.6,0.7-0.1,1.5,0.2,2.2c1.1-1.8,5.3-2.6,2.3-5.6c0.9,0.1,1.1,1,1.5,1.7c-2.4,0.3-1.5,5.1-4.7,3.5L54.4-30.1
				z"/>
			<path d="M55-25.9l1-1l1,1l-1,1c1.5,2.3-2.8-5-5-1c-2.3-0.3,2,0.8,2-1l-2-1C52.4-27.4,53.9-27.2,55-25.9z"/>
			<polygon points="51.3,-52.7 50.3,-51.7 51.3,-54.7 52.3,-54.7 52.3,-52.7 			"/>
			<path d="M28-72.7c0.1,1.8-2,2.7-3,4l2-2l-1-1C24.1-71,27.1-72.9,28-72.7z"/>
			<polygon points="29,-63.7 26,-63.7 29,-64.7 30,-64.7 30,-63.7 			"/>
			<path d="M36.3-61.2c0.5-0.6,1.3-1.1,1-2c-1.1-2.4-2.6,0.2-4,0c-2.5,0,1,0.2,1-1l-1-1c-0.9,2.3,5.9,0.4,6-3L36.3-61.2z"/>
			<path d="M45-52.7c-0.9-2.7-4-1.4-6,0c0.6,1.2,1.9,1,3,1c-0.9-0.3-1.4,0.5-2,1h1v1h-1c2.6,2.5-1.3-0.8,0-2c-1.8-3-3,1.4-5,1l5-3
				L39.3-53l-1-1l0.7-0.7C41-51.6,43.4-57.1,45-52.7z"/>
			<path d="M41.4-71.1C41-72,40.1-72,39.3-72.2v1.4C37.8-72,37-74.5,35-74.3c0.9-0.3,0.6-1.2,0.7-2c-0.8,1.6,1.4,2.6,2.2,3.9
				C39.1-72,40.7-72.5,41.4-71.1z"/>
			<path d="M53.3-47.1c2.2,1.2,2.4,2.8,3,4.4l1.5,0.2c0.4,0.8,0.5,1.6,1.5,2.2c-3.8-1.1-1.3,2.9-2,4.3c0.8,1.8-0.3-2.4-2.5-3
				c0.8,0.9,1.7,0.9,2.5,1.1l0.5-4.5l-1.5-0.2l-1-2.8L52.3-46L53.3-47.1z"/>
			<path d="M34.1-14c1.1-0.9,2-0.9,2.9-1.1l-1.6,0.2l2.3-2.2L34.1-14z"/>
			<path d="M29.9-24.8c-0.9,0.3-0.6,1.2-0.7,2"/>
			<path d="M38.8-10.4c0.8-0.1,2-0.4,1.9,0.3c1-2.1,5.6-2,6.6-4.1C45.6-12.1,41.6-11.6,38.8-10.4z"/>
			<path d="M49.3-20.4c-0.8,0.1-2,0.4-1.9-0.3c0.4-1.2,2.2-2.1,3.6-3l-0.3-0.6l-1,1.4l0.7-1l-3.2,0.5l-0.7,1c0.8-0.1,2-0.4,1.9,0.3
				l-2,2.8l-1.6,0.2l-1,1.4c3-3,6.2-1.6,7.9-4.9C50.9-21.9,50.5-21,49.3-20.4z"/>
			<path d="M27.9-84.8c-1.5,1.8-1.2,3.6-3.1,5.5l-1.4,0.8l1-0.6l0.4-1.7l-1,0.6c0.1,1.3-1.2,2.8-2.2,4.2l7.3-8L27.9-84.8z"/>
			<path d="M26.7-36.2L25-36.4l-1.9-2.7l-1.7-0.3l-0.9-1.3l-0.4,0.5C18.4-41.8,25.4-36,29-34C27.7-34.6,27.3-35.4,26.7-36.2z"/>
			<path d="M29.9-24.8c-0.8-0.1-1.7-0.4-2.2,0.3c0.5-2.1-4.1-2-3.6-4.1C24.4-26.5,28-26,29.9-24.8z"/>
			<path d="M32.4-35.1c1.8,1.2,1.4,2.8,1.4,4.4l1.4,0.2c0.1,0.8-0.1,1.6,0.7,2.2c-3.4-1.1-2.4,2.9-3.6,4.3c0.1,1.8,0.6-2.4-1.4-3
				c0.4,0.9,1.4,0.9,2.2,1.1l2.2-4.5l-1.4-0.2v-2.8L31-34L32.4-35.1z"/>
			<path d="M43.4-33c-2.6-1.7-3.9,1.1-4.3,3.4c1.3,0.6,2.1-0.3,2.9-0.9c-0.9,0.3-0.6,1.2-0.7,2l0.7-0.6l0.7,0.8L42-27.7
				c3.7,0.6-1.5,0.1-1.4-1.6c-3.4-1.4-1.1,2.9-2.9,3.7l1.4-5.3v1l-1.4-0.2v-1C41.4-29.8,39.1-35.7,43.4-33z"/>
			<path d="M30.3-20.4l1,1h-2l2-3C31.6-21.5,30.8-21,30.3-20.4z"/>
			<path d="M22.7-12.7l3.3-3.3c0.7,3,3.2,1.6,4.8,2.1l-1.4-0.4L29.2-13c-0.1-2.6-5.9-0.1-8.7,0.3l0.2-1.4C21-13.1,21.9-13,22.7-12.7
				z"/>
			<path d="M30.2-16.4c0.4-3.5-0.2,2.2,2.2-0.3l-3,0.9L30.2-16.4z"/>
			<path d="M25.8-41.9c1.1,0.4,2.5,0.7,2.7,2l2.8-0.9c-0.5-2.2-2.6-3.2-4.8-2.7l3.4,0.3c2.7,2.6-0.5,2.9-1.8,4.2
				c1.3,1.7-1.2-5.4-3.1-1.1c1.3,2.8,0.4-0.6-1-0.4C24.8-40.9,25.8-41.1,25.8-41.9z"/>
			<path d="M21.7-59.2l2.9-3.7c1.1,2.9,3.4,1.2,5,1.6l-1.4-0.2v1.4c-0.4-2.6-5.9,0.5-8.6,1.3v-1.4C19.9-59.4,20.9-59.4,21.7-59.2z"
				/>
			<path d="M32.5-61.3l0.8,1.3l2.2-1.4l0.8,1.3l1.1-0.7l-0.2,1c1.5-0.2-4.3-0.1-6.7-1.2C31.2-60.3,31.8-61,32.5-61.3z"/>
			<polygon points="34.4,-55.5 35,-56.8 35,-53.4 34.1,-53.2 33.5,-55.3 			"/>
			<path d="M53.8-41.8c-0.1-0.8,0.1-1.7-0.7-2l-1.4,0.2v-1.4l-1.4,1.6c2.4-1,4,0,4.3,2l0.7-0.8L53.8-41.8z"/>
			<path d="M44.7-47.6c-0.4-0.9-1.4-0.9-2.2-1.1l1.4,0.2l-0.7-2.2L44.7-47.6z"/>
			<path d="M46.1-42.8v-1.4l1.4,0.2v1.4c2.7,1-5.6-2.5-4.3,2c-1.9,1.1,2-0.5,0.7-2l-2.2,0.3C43.2-42.5,44.4-43.2,46.1-42.8z"/>
			<path d="M52.5-60.9c-1.2-0.6-1-1.9-1-3c1.4,0.4,2-1.3,3-2l-1-2C57-65.2,50.2-64.3,52.5-60.9z"/>
			<path d="M31.3-73.7c-0.7-0.2-1.7-0.1-1.8-1l0.5-1.4l-1.4-0.2l1.8-1.2c-1.4,2.2-0.6,4,1.4,4.6l-0.9,0.6L31.3-73.7z"/>
			<path d="M39-74.2c-0.5,0.6-1.3,1.1-0.9,1.9l1.2,0.9l-1,1l2.2-0.1c-2.4-1-2.8-2.9-1.6-4.5L37.8-75L39-74.2z"/>
			<path d="M59.7-67.1l0.7,0.8c-1.3-0.6-2.1,0.3-2.9,0.9v1.4c2-1.5-2.5,2.8-3.6,1.5C58-61.6,56.2-66.4,59.7-67.1z"/>
			<path d="M49.2-55.8c0.4-0.6,1.1-1,2.1-1.2l0.7,0.8c-1.3-0.6-2.1,0.3-2.9,0.9L49.2-55.8z"/>
			<path d="M32.8-67.2c-0.2-1.1-1.6-2.9-0.5-3.4L32.8-67.2c-1.7-1.8,0.4,3.3-3.6-1.9C30.3-68.2,31.5-67,32.8-67.2z"/>
			<path d="M27.7-66.6c-0.2-0.8-0.8-1.7,0-2C27.9-67.8,28.5-66.9,27.7-66.6l-4.6-0.7l1,2.8l-1.5-2.2C24.3-67.2,25.2-67.9,27.7-66.6z
				"/>
			<path d="M42.3-59.7c2.3-1.9-5-5.3-1.2-7.2L42.3-59.7z"/>
			<path d="M41.9-79c1.1,0.9,2.5,1.9,2.5,3l3.1,0.5c-0.2-2.2-2.2-4-4.6-4.7l3.6,1.9c2.4,3.5-1,2.3-2.5,2.9c1.1,2.1-0.3-5.3-3-2.5
				c0.9,3.1,0.5-0.4-1-0.8C40.7-78.6,41.8-78.2,41.9-79z"/>
			<path d="M53.3-21.3c2.1,4.1,7.7,4.7,8.6,8l0.1,0.9l-1.6-0.6l-0.1-0.9l1.6,0.6c0.5-2.6-3.4-2.8-5.1-4.3l0.1,1.3L53.3-21.3z"/>
			<path d="M47.5-32.4c-0.6,1,2.6-4.7,0.3-6.1C50.1-37.1,47.3-34.4,47.5-32.4z"/>
			<path d="M45.6-70.7c0.8,0.1,1.9,0.4,2-0.3c0-1.2-1.4-2.1-2.5-3l0.5-0.6l0.5,1.4l-0.4-1l3,0.5l0.4,1c-0.8-0.1-1.9-0.4-2,0.3l1,2.8
				l1.5,0.2l0.5,1.4c-1.9-3-5.6-1.6-6.1-4.9C44.4-72.2,44.5-71.3,45.6-70.7z"/>
			<path d="M32.3-77.1l-0.2-3.7c-3.2,2.9-4.2,1.2-6.2,1.6l1.6-0.2l-1,1.4c2.3-2.6,5.5,0.5,7.7,1.3l1-1.4
				C34.2-77.3,33.3-77.3,32.3-77.1z"/>
			<polygon points="25.9,-75.9 26.8,-74.2 27.2,-76.7 26.9,-77.3 25.6,-76.4 			"/>
			<path d="M21.6-4l7.3-8l-1-0.8c-1.5,1.8-1.2,3.6-3.1,5.5L21.6-4z"/>
			<polygon points="50.1,-19 50.8,-21 47.6,-20.5 			"/>
			<polygon points="35,-10.2 35.7,-12.2 32.5,-11.7 			"/>
			<path d="M52.8-22.1c0.8-0.1,2-0.4,1.9,0.3c1-2.1,5.6-2,6.6-4.1C59.6-23.8,55.6-23.3,52.8-22.1z"/>
			<path d="M35.1-47.2l0.1,1.6L39-42l0.1,1.6l0.6-0.2l-1.3-2.8c-0.3,0.6-1.2-0.4-1.9-0.9c-0.8-1.2-0.6-2.1-0.7-3
				C35-48,34.2-49,33.9-48.4L35.1-47.2z"/>
			<polygon points="38.3,-48.4 38.3,-46.9 36.8,-49.8 37.5,-50.5 39,-49.1 			"/>
			<polygon points="29.1,-53 28.4,-51.4 31.4,-55 31,-55.5 28.7,-53.5 			"/>
			<path d="M49.9-81.8l-2,3c0.4,2.1-0.6-3.1-3-4l3,3L49.9-81.8z"/>
			<path d="M36.2-82.4c4.1-1.2,0.1,2.5,0.2,3.7c-0.9,1.3,0.9-1.4,2.1-5.9C37.9-83.8,37.5-83,36.2-82.4z"/>
			<polygon points="45.6,-15.1 44.8,-14.7 43.4,-16.4 43.7,-15.3 			"/>
			<polygon points="48.2,-10.9 48.5,-11.7 47.2,-11.5 			"/>
			<path d="M39.4-62.3c0.6,0.4,0.9,1.2,1,2.2l-0.9,0.6c0.8-1.2-0.1-2.1-0.6-2.9L39.4-62.3z"/>
			<path d="M41.5-73.7c-2.7-2.3,1.7,1.4,1-2l-1,3V-73.7z"/>
			<polygon points="50.3,-61.4 50.8,-61 50.3,-60.4 49.3,-60.4 49.3,-61.4 			"/>
			<polygon points="46.3,-37.2 46.8,-36.8 46.3,-36.2 45.3,-36.2 45.3,-37.2 			"/>
			<polygon points="46.3,-30.7 46.2,-31.3 47,-31.4 47.7,-30.6 47,-30 			"/>
		</g>
		<g>
			<path d="M12.6-49.3c-3.1,1.8-5.7,0.5-9.3-0.9c-0.3,2,5-0.2,7.9,2L12.6-49.3z"/>
			<path d="M6.9-33.6c3.7,0.6-1.5,0.1-1.4-1.6c-3.4-1.4-1.1,2.9-2.9,3.7L4-36.8v1l-1.4-0.2v-1c3.7,1.4,1.4-4.5,5.7-1.8
				c-2.6-1.7-3.9,1.1-4.3,3.4c1.3,0.6,2.1-0.3,2.9-0.9V-33.6z"/>
			<path d="M8.6-21c-0.4-2.6-5.9,0.5-8.6,1.3V-21c0.4,0.9,1.4,0.9,2.2,1.1L5-23.7c1.1,2.9,3.4,1.2,5,1.6L8.6-21z"/>
			<path d="M6.5-43.7c-1.7,0.3-2.9-2.4-4.3-0.7v-1.4L6.5-43.7z"/>
			<path d="M7.4-66.2c-0.1-0.8,0.1-1.6-0.7-2.2c-2.5-1.3-1.7,1.7-2.9,2.3c-1.8,1.4,0.9-0.4,0-1.4l-1.4-0.2c1,2.4,4.5-3.1,2.2-5.9
				L7.4-66.2z"/>
			<path d="M5.9-28.7l-0.5-1.4c2.7,1,4,0,3.6-2c1.1-1.2-1.9,1.3,1,2.8c-3.2-1.4-3.9,0.6-5.1,1.8l0.5,1.4c4.4,0.3-1.9,0.7-0.5-1.4
				l0.4,1l-1.5-0.2l-0.4-1C4.9-27.1,5.4-28,5.9-28.7z"/>
			<path d="M4.6-64.7l-1.3,0.8C5-64.5,5.2-63.6,5.5-63l-1,1.4c-0.9-1.5,0.4,2.8,2.5,1.5C2.2-59.2,7.6-64.1,4.6-64.7z"/>
			<path d="M5.9-56.7l-0.7,1c0.8-0.1,2-0.4,1.9,0.3l-2,2.8l-1.6,0.2l-1,1.4c3-3,6.2-1.6,7.9-4.9c-0.6,0.8-1.1,1.6-2.3,2.2
				c-0.8,0.1-2,0.4-1.9-0.3L5.9-56.7z"/>
			<path d="M8-16.4c-1.4-0.4-2,1.3-3,2c0,2.5,0.2-1-1-1l-1,1l1-2c-0.3,0.9,0.5,1.4,1,2l2-3L8-16.4z"/>
			<polygon points="3.5,-29.4 1.6,-28.8 5.6,-32.4 			"/>
			<polygon points="3,-9.9 1.3,-10.1 5.8,-8.6 6.1,-9.1 3.3,-10.5 			"/>
			<polygon points="3,-81.9 1.3,-82.1 5.8,-80.6 6.1,-81.1 3.3,-82.5 			"/>
			<path d="M6.1-45.9c-1.3-0.9-4.4-0.3-3.8-3.2c0.3,1.1,0.4,2.4,1.7,2.7c0.9,0.1,1.2-0.8,1.7-1.4l1.7,2.7L6.1-45.9z"/>
			<polygon points="7.6,-42.4 2.7,-40.1 2.2,-40.4 6.5,-40.9 			"/>
		</g>
		<g>
			<path d="M56.5-80.9c-1.1,0.5,4.1-2.5,3-5C60.6-83.4,57.5-82.6,56.5-80.9z"/>
			<path d="M69.3-84.9l-3,5c-3.3,1.7,6.8-7.2-1-4l-0.7,0.7l-1-1l0.7-0.7c1,2,2.8-0.3,4-1c-2.4-1.2-2.4-3.8,0-5
				C65.3-90,66.8-86.5,69.3-84.9z"/>
			<path d="M62.3-80.4c0.5-0.8,1.4-1.7,0.7-2l-1.6,0.2l1-1.4l-2.6,1.6c3.1-1,4,0,2.8,2L62.3-80.4z"/>
			<path d="M9-79.1c-4.1,1.2-0.1-2.5-0.2-3.7l1.6-0.2l-2.8-2C10.8-84.2,5.5-79,9-79.1z"/>
			<polygon points="75,-81.9 73.3,-82.1 77.8,-80.6 78.1,-81.1 75.3,-82.5 			"/>
			<path d="M21.6-76l7.3-8l-1-0.8c-1.5,1.8-1.2,3.6-3.1,5.5L21.6-76z"/>
		</g>
		<g>
			<polygon points="3,-81.9 1.3,-82.1 5.8,-80.6 6.1,-81.1 3.3,-82.5 			"/>
		</g>
	</g>
</pattern>
<g>
	<g>
		<path d="M33,141c0.4-0.1,1-0.1,1.5-0.1c1,0,1.8,0.2,2.3,0.7c0.5,0.5,0.8,1.1,0.8,2c0,0.9-0.3,1.7-0.8,2.2
			c-0.5,0.5-1.4,0.8-2.5,0.8c-0.5,0-0.9,0-1.3-0.1V141z M33.7,146c0.2,0,0.4,0,0.7,0c1.5,0,2.4-0.9,2.4-2.4c0-1.3-0.7-2.2-2.3-2.2
			c-0.4,0-0.7,0-0.8,0.1V146z"/>
		<path d="M38.5,143.8c0-0.5,0-0.9,0-1.3h0.6l0,0.8h0c0.2-0.5,0.6-0.9,1.1-0.9c0.1,0,0.1,0,0.2,0v0.7c-0.1,0-0.1,0-0.2,0
			c-0.5,0-0.9,0.4-1,0.9c0,0.1,0,0.2,0,0.3v2.1h-0.7V143.8z"/>
		<path d="M41.7,142.6l0.9,2.4c0.1,0.3,0.2,0.6,0.3,0.8h0c0.1-0.2,0.2-0.5,0.3-0.8l0.8-2.4h0.8l-1.1,2.9c-0.5,1.4-0.9,2.1-1.4,2.5
			c-0.4,0.3-0.7,0.4-0.9,0.5l-0.2-0.6c0.2-0.1,0.4-0.2,0.6-0.4c0.2-0.2,0.4-0.4,0.6-0.8c0-0.1,0.1-0.1,0.1-0.2c0,0,0-0.1,0-0.2
			l-1.5-3.7H41.7z"/>
		<path d="M47.1,146.6v-3.5h-0.6v-0.6h0.6v-0.2c0-0.6,0.1-1.1,0.5-1.4c0.3-0.3,0.6-0.4,1-0.4c0.3,0,0.5,0.1,0.6,0.1l-0.1,0.6
			c-0.1,0-0.3-0.1-0.5-0.1c-0.6,0-0.8,0.5-0.8,1.2v0.2h1v0.6h-1v3.5H47.1z"/>
		<path d="M50.3,141.4c0,0.2-0.2,0.4-0.5,0.4c-0.3,0-0.4-0.2-0.4-0.4c0-0.3,0.2-0.5,0.5-0.5C50.1,141,50.3,141.2,50.3,141.4z
			 M49.5,146.6v-4h0.7v4H49.5z"/>
		<path d="M52.3,141.4v1.2h1v0.6h-1v2.2c0,0.5,0.1,0.8,0.5,0.8c0.2,0,0.3,0,0.4,0l0,0.5c-0.1,0.1-0.4,0.1-0.6,0.1
			c-0.3,0-0.6-0.1-0.8-0.3c-0.2-0.2-0.3-0.6-0.3-1v-2.2H51v-0.6h0.6v-1L52.3,141.4z"/>
		<path d="M56.2,142.6l0.8,2.3c0.1,0.4,0.2,0.7,0.3,1h0c0.1-0.3,0.2-0.7,0.3-1l0.8-2.3h0.8l-1.6,4H57l-1.5-4H56.2z"/>
		<path d="M60.3,144.7c0,1,0.6,1.4,1.4,1.4c0.5,0,0.8-0.1,1.1-0.2l0.1,0.5c-0.3,0.1-0.7,0.2-1.3,0.2c-1.2,0-2-0.8-2-2
			s0.7-2.2,1.9-2.2c1.3,0,1.7,1.2,1.7,1.9c0,0.2,0,0.3,0,0.3H60.3z M62.4,144.2c0-0.5-0.2-1.2-1-1.2c-0.7,0-1.1,0.7-1.1,1.2H62.4z"
			/>
		<path d="M64,143.6c0-0.4,0-0.8,0-1.1h0.6l0,0.7h0c0.2-0.4,0.7-0.8,1.3-0.8c0.6,0,1.4,0.3,1.4,1.7v2.4h-0.7v-2.3
			c0-0.6-0.2-1.2-0.9-1.2c-0.5,0-0.9,0.3-1,0.7c0,0.1-0.1,0.2-0.1,0.3v2.4H64V143.6z"/>
		<path d="M69.5,141.4v1.2h1v0.6h-1v2.2c0,0.5,0.1,0.8,0.5,0.8c0.2,0,0.3,0,0.4,0l0,0.5c-0.1,0.1-0.4,0.1-0.6,0.1
			c-0.3,0-0.6-0.1-0.8-0.3c-0.2-0.2-0.3-0.6-0.3-1v-2.2h-0.6v-0.6h0.6v-1L69.5,141.4z"/>
		<path d="M73.9,141.4c0,0.2-0.2,0.4-0.5,0.4c-0.3,0-0.4-0.2-0.4-0.4c0-0.3,0.2-0.5,0.5-0.5C73.7,141,73.9,141.2,73.9,141.4z
			 M73.1,146.6v-4h0.7v4H73.1z"/>
		<path d="M75,143.6c0-0.4,0-0.8,0-1.1h0.6l0,0.7h0c0.2-0.4,0.7-0.8,1.3-0.8c0.6,0,1.4,0.3,1.4,1.7v2.4h-0.7v-2.3
			c0-0.6-0.2-1.2-0.9-1.2c-0.5,0-0.9,0.3-1,0.7c0,0.1,0,0.2,0,0.3v2.4H75V143.6z"/>
		<path d="M80.5,141.4v1.2h1v0.6h-1v2.2c0,0.5,0.1,0.8,0.5,0.8c0.2,0,0.3,0,0.4,0l0,0.5c-0.1,0.1-0.4,0.1-0.6,0.1
			c-0.3,0-0.6-0.1-0.8-0.3c-0.2-0.2-0.3-0.6-0.3-1v-2.2h-0.6v-0.6h0.6v-1L80.5,141.4z"/>
		<path d="M86,144.5c0,1.5-1,2.1-2,2.1c-1.1,0-1.9-0.8-1.9-2.1c0-1.3,0.9-2.1,2-2.1C85.2,142.5,86,143.3,86,144.5z M82.8,144.6
			c0,0.9,0.5,1.5,1.2,1.5c0.7,0,1.2-0.7,1.2-1.6c0-0.7-0.3-1.5-1.2-1.5S82.8,143.8,82.8,144.6z"/>
		<path d="M88.7,146.6v-3.5h-0.6v-0.6h0.6v-0.2c0-0.6,0.1-1.1,0.5-1.4c0.3-0.3,0.6-0.4,1-0.4c0.3,0,0.5,0.1,0.6,0.1l-0.1,0.6
			c-0.1,0-0.3-0.1-0.5-0.1c-0.6,0-0.8,0.5-0.8,1.2v0.2h1v0.6h-1v3.5H88.7z"/>
		<path d="M91.1,140.7h0.7v5.9h-0.7V140.7z"/>
		<path d="M96.7,144.5c0,1.5-1,2.1-2,2.1c-1.1,0-1.9-0.8-1.9-2.1c0-1.3,0.9-2.1,2-2.1C95.9,142.5,96.7,143.3,96.7,144.5z
			 M93.5,144.6c0,0.9,0.5,1.5,1.2,1.5c0.7,0,1.2-0.7,1.2-1.6c0-0.7-0.3-1.5-1.2-1.5S93.5,143.8,93.5,144.6z"/>
		<path d="M101.2,144.5c0,1.5-1,2.1-2,2.1c-1.1,0-1.9-0.8-1.9-2.1c0-1.3,0.9-2.1,2-2.1C100.4,142.5,101.2,143.3,101.2,144.5z
			 M98,144.6c0,0.9,0.5,1.5,1.2,1.5c0.7,0,1.2-0.7,1.2-1.6c0-0.7-0.3-1.5-1.2-1.5S98,143.8,98,144.6z"/>
		<path d="M102.2,143.8c0-0.5,0-0.9,0-1.3h0.6l0,0.8h0c0.2-0.5,0.6-0.9,1.1-0.9c0.1,0,0.1,0,0.2,0v0.7c-0.1,0-0.1,0-0.2,0
			c-0.5,0-0.9,0.4-1,0.9c0,0.1,0,0.2,0,0.3v2.1h-0.7V143.8z"/>
		<path d="M110.3,144.5c0,1.5-1,2.1-2,2.1c-1.1,0-1.9-0.8-1.9-2.1c0-1.3,0.9-2.1,2-2.1C109.5,142.5,110.3,143.3,110.3,144.5z
			 M107.1,144.6c0,0.9,0.5,1.5,1.2,1.5c0.7,0,1.2-0.7,1.2-1.6c0-0.7-0.3-1.5-1.2-1.5S107.1,143.8,107.1,144.6z"/>
		<path d="M111.2,143.9c0-0.5,0-0.9,0-1.3h0.7l0,0.7h0c0.3-0.5,0.8-0.8,1.4-0.8c1,0,1.7,0.8,1.7,2c0,1.4-0.9,2.2-1.8,2.2
			c-0.5,0-1-0.2-1.2-0.6h0v2.2h-0.7V143.9z M111.9,144.9c0,0.1,0,0.2,0,0.3c0.1,0.5,0.6,0.9,1.1,0.9c0.8,0,1.2-0.6,1.2-1.6
			c0-0.8-0.4-1.5-1.2-1.5c-0.5,0-1,0.4-1.1,0.9c0,0.1,0,0.2,0,0.3V144.9z"/>
		<path d="M116.3,144.7c0,1,0.6,1.4,1.4,1.4c0.5,0,0.8-0.1,1.1-0.2l0.1,0.5c-0.3,0.1-0.7,0.2-1.3,0.2c-1.2,0-2-0.8-2-2
			s0.7-2.2,1.9-2.2c1.3,0,1.7,1.2,1.7,1.9c0,0.2,0,0.3,0,0.3H116.3z M118.5,144.2c0-0.5-0.2-1.2-1-1.2c-0.7,0-1.1,0.7-1.1,1.2H118.5
			z"/>
		<path d="M120.1,143.6c0-0.4,0-0.8,0-1.1h0.6l0,0.7h0c0.2-0.4,0.7-0.8,1.3-0.8c0.6,0,1.4,0.3,1.4,1.7v2.4h-0.7v-2.3
			c0-0.6-0.2-1.2-0.9-1.2c-0.5,0-0.9,0.3-1,0.7c0,0.1-0.1,0.2-0.1,0.3v2.4h-0.7V143.6z"/>
		<path d="M125.5,141.4c0,0.2-0.2,0.4-0.5,0.4c-0.3,0-0.4-0.2-0.4-0.4c0-0.3,0.2-0.5,0.5-0.5C125.3,141,125.5,141.2,125.5,141.4z
			 M124.7,146.6v-4h0.7v4H124.7z"/>
		<path d="M126.6,143.6c0-0.4,0-0.8,0-1.1h0.6l0,0.7h0c0.2-0.4,0.7-0.8,1.3-0.8c0.6,0,1.4,0.3,1.4,1.7v2.4h-0.7v-2.3
			c0-0.6-0.2-1.2-0.9-1.2c-0.5,0-0.9,0.3-1,0.7c0,0.1-0.1,0.2-0.1,0.3v2.4h-0.7V143.6z"/>
		<path d="M134.7,142.6c0,0.3,0,0.6,0,1.1v2.3c0,0.9-0.2,1.5-0.6,1.8c-0.4,0.4-1,0.5-1.5,0.5c-0.5,0-1-0.1-1.3-0.3l0.2-0.6
			c0.3,0.2,0.7,0.3,1.2,0.3c0.7,0,1.3-0.4,1.3-1.4v-0.4h0c-0.2,0.4-0.7,0.7-1.3,0.7c-1,0-1.7-0.8-1.7-2c0-1.4,0.9-2.1,1.8-2.1
			c0.7,0,1.1,0.4,1.3,0.7h0l0-0.6H134.7z M134,144.1c0-0.1,0-0.2,0-0.3c-0.1-0.4-0.5-0.8-1-0.8c-0.7,0-1.2,0.6-1.2,1.5
			c0,0.8,0.4,1.4,1.2,1.4c0.4,0,0.9-0.3,1-0.7c0-0.1,0.1-0.3,0.1-0.4V144.1z"/>
		<path d="M135.6,146.1c0-0.3,0.2-0.5,0.5-0.5s0.5,0.2,0.5,0.5c0,0.3-0.2,0.5-0.5,0.5C135.8,146.7,135.6,146.4,135.6,146.1z"/>
		<path d="M37.3,154.1c0-0.8-0.1-1.7-0.1-2.4h0c-0.2,0.7-0.4,1.4-0.7,2.1l-1,2.7H35l-0.9-2.7c-0.3-0.8-0.5-1.5-0.6-2.2h0
			c0,0.7-0.1,1.6-0.1,2.5l-0.1,2.4h-0.7l0.4-5.6h0.9l1,2.7c0.2,0.7,0.4,1.3,0.6,1.9h0c0.1-0.6,0.3-1.2,0.6-1.9l1-2.7h0.9l0.3,5.6
			h-0.7L37.3,154.1z"/>
		<path d="M41.6,156.5l-0.1-0.5h0c-0.2,0.3-0.7,0.6-1.2,0.6c-0.8,0-1.2-0.6-1.2-1.2c0-1,0.9-1.5,2.4-1.5v-0.1c0-0.3-0.1-0.9-0.9-0.9
			c-0.4,0-0.8,0.1-1,0.3l-0.2-0.5c0.3-0.2,0.8-0.4,1.3-0.4c1.2,0,1.5,0.8,1.5,1.6v1.5c0,0.3,0,0.7,0.1,1H41.6z M41.5,154.5
			c-0.8,0-1.7,0.1-1.7,0.9c0,0.5,0.3,0.7,0.7,0.7c0.5,0,0.9-0.3,1-0.7c0-0.1,0-0.2,0-0.2V154.5z"/>
		<path d="M44.1,154.4L44.1,154.4c0.1-0.1,0.3-0.3,0.4-0.5l1.2-1.4h0.9l-1.6,1.7l1.8,2.4h-0.9l-1.4-1.9l-0.4,0.4v1.5h-0.7v-5.9h0.7
			V154.4z"/>
		<path d="M47.6,154.7c0,1,0.6,1.4,1.4,1.4c0.5,0,0.8-0.1,1.1-0.2l0.1,0.5c-0.3,0.1-0.7,0.2-1.3,0.2c-1.2,0-2-0.8-2-2
			s0.7-2.2,1.9-2.2c1.3,0,1.7,1.2,1.7,1.9c0,0.2,0,0.3,0,0.3H47.6z M49.8,154.1c0-0.5-0.2-1.2-1-1.2c-0.7,0-1.1,0.7-1.1,1.2H49.8z"
			/>
		<path d="M53.1,155.8c0.2,0.1,0.6,0.3,1,0.3c0.5,0,0.8-0.3,0.8-0.6c0-0.3-0.2-0.5-0.7-0.7c-0.7-0.3-1.1-0.7-1.1-1.1
			c0-0.6,0.5-1.2,1.4-1.2c0.4,0,0.8,0.1,1,0.2l-0.2,0.5c-0.2-0.1-0.4-0.2-0.8-0.2c-0.4,0-0.7,0.2-0.7,0.5c0,0.3,0.2,0.5,0.8,0.7
			c0.7,0.3,1.1,0.6,1.1,1.2c0,0.7-0.5,1.2-1.5,1.2c-0.4,0-0.8-0.1-1.1-0.3L53.1,155.8z"/>
		<path d="M59.8,155.4c0,0.4,0,0.8,0,1.1h-0.6l0-0.7h0c-0.2,0.3-0.6,0.7-1.3,0.7c-0.6,0-1.4-0.3-1.4-1.8v-2.3h0.7v2.2
			c0,0.8,0.2,1.3,0.9,1.3c0.5,0,0.8-0.3,1-0.7c0-0.1,0.1-0.2,0.1-0.4v-2.5h0.7V155.4z"/>
		<path d="M61,153.8c0-0.5,0-0.9,0-1.3h0.6l0,0.8h0c0.2-0.5,0.6-0.9,1.1-0.9c0.1,0,0.1,0,0.2,0v0.7c-0.1,0-0.1,0-0.2,0
			c-0.5,0-0.9,0.4-1,0.9c0,0.1,0,0.2,0,0.3v2.1H61V153.8z"/>
		<path d="M64.1,154.7c0,1,0.6,1.4,1.4,1.4c0.5,0,0.8-0.1,1.1-0.2l0.1,0.5c-0.3,0.1-0.7,0.2-1.3,0.2c-1.2,0-2-0.8-2-2
			s0.7-2.2,1.9-2.2c1.3,0,1.7,1.2,1.7,1.9c0,0.2,0,0.3,0,0.3H64.1z M66.2,154.1c0-0.5-0.2-1.2-1-1.2c-0.7,0-1.1,0.7-1.1,1.2H66.2z"
			/>
		<path d="M69.6,153.8c0-0.5,0-0.9,0-1.3h0.6l0,0.8h0c0.2-0.5,0.6-0.9,1.1-0.9c0.1,0,0.1,0,0.2,0v0.7c-0.1,0-0.1,0-0.2,0
			c-0.5,0-0.9,0.4-1,0.9c0,0.1,0,0.2,0,0.3v2.1h-0.7V153.8z"/>
		<path d="M73.1,151.4c0,0.2-0.2,0.4-0.5,0.4c-0.3,0-0.4-0.2-0.4-0.4c0-0.3,0.2-0.5,0.5-0.5C73,150.9,73.1,151.1,73.1,151.4z
			 M72.3,156.5v-4h0.7v4H72.3z"/>
		<path d="M74.3,153.6c0-0.4,0-0.8,0-1.1h0.6l0,0.6h0c0.2-0.4,0.6-0.7,1.3-0.7c0.5,0,1,0.3,1.1,0.8h0c0.1-0.2,0.3-0.4,0.4-0.5
			c0.2-0.2,0.5-0.3,0.9-0.3c0.5,0,1.3,0.3,1.3,1.7v2.4h-0.7v-2.3c0-0.8-0.3-1.2-0.9-1.2c-0.4,0-0.7,0.3-0.9,0.7
			c0,0.1-0.1,0.2-0.1,0.4v2.5h-0.7v-2.4c0-0.6-0.3-1.1-0.8-1.1c-0.5,0-0.8,0.4-0.9,0.7c0,0.1-0.1,0.2-0.1,0.4v2.4h-0.7V153.6z"/>
		<path d="M86.6,154.5c0,1.5-1,2.1-2,2.1c-1.1,0-1.9-0.8-1.9-2.1c0-1.3,0.9-2.1,2-2.1C85.8,152.4,86.6,153.3,86.6,154.5z
			 M83.4,154.5c0,0.9,0.5,1.5,1.2,1.5c0.7,0,1.2-0.7,1.2-1.6c0-0.7-0.3-1.5-1.2-1.5S83.4,153.8,83.4,154.5z"/>
		<path d="M87.6,156.5v-3.5H87v-0.6h0.6v-0.2c0-0.6,0.1-1.1,0.5-1.4c0.3-0.3,0.6-0.4,1-0.4c0.3,0,0.5,0.1,0.6,0.1l-0.1,0.6
			c-0.1,0-0.3-0.1-0.5-0.1c-0.6,0-0.8,0.5-0.8,1.2v0.2h1v0.6h-1v3.5H87.6z"/>
		<path d="M92,152.5l0.8,2.3c0.1,0.4,0.2,0.7,0.3,1h0c0.1-0.3,0.2-0.7,0.3-1l0.8-2.3H95l-1.6,4h-0.7l-1.5-4H92z"/>
		<path d="M96,154.7c0,1,0.6,1.4,1.4,1.4c0.5,0,0.8-0.1,1.1-0.2l0.1,0.5c-0.3,0.1-0.7,0.2-1.3,0.2c-1.2,0-2-0.8-2-2s0.7-2.2,1.9-2.2
			c1.3,0,1.7,1.2,1.7,1.9c0,0.2,0,0.3,0,0.3H96z M98.2,154.1c0-0.5-0.2-1.2-1-1.2c-0.7,0-1.1,0.7-1.1,1.2H98.2z"/>
		<path d="M99.8,153.6c0-0.4,0-0.8,0-1.1h0.6l0,0.7h0c0.2-0.4,0.7-0.8,1.3-0.8c0.6,0,1.4,0.3,1.4,1.7v2.4h-0.7v-2.3
			c0-0.6-0.2-1.2-0.9-1.2c-0.5,0-0.9,0.3-1,0.7c0,0.1,0,0.2,0,0.3v2.4h-0.7V153.6z"/>
		<path d="M105.2,151.4v1.2h1v0.6h-1v2.2c0,0.5,0.1,0.8,0.5,0.8c0.2,0,0.3,0,0.4,0l0,0.5c-0.1,0.1-0.4,0.1-0.6,0.1
			c-0.3,0-0.6-0.1-0.8-0.3c-0.2-0.2-0.3-0.6-0.3-1v-2.2h-0.6v-0.6h0.6v-1L105.2,151.4z"/>
		<path d="M109.7,151.4c0,0.2-0.2,0.4-0.5,0.4c-0.3,0-0.4-0.2-0.4-0.4c0-0.3,0.2-0.5,0.5-0.5C109.5,150.9,109.7,151.1,109.7,151.4z
			 M108.9,156.5v-4h0.7v4H108.9z"/>
		<path d="M110.7,155.8c0.2,0.1,0.6,0.3,1,0.3c0.5,0,0.8-0.3,0.8-0.6c0-0.3-0.2-0.5-0.7-0.7c-0.7-0.3-1.1-0.7-1.1-1.1
			c0-0.6,0.5-1.2,1.4-1.2c0.4,0,0.8,0.1,1,0.2l-0.2,0.5c-0.2-0.1-0.4-0.2-0.8-0.2c-0.4,0-0.7,0.2-0.7,0.5c0,0.3,0.2,0.5,0.8,0.7
			c0.7,0.3,1.1,0.6,1.1,1.2c0,0.7-0.5,1.2-1.5,1.2c-0.4,0-0.8-0.1-1.1-0.3L110.7,155.8z"/>
		<path d="M115.8,155.8c0.2,0.1,0.6,0.3,1,0.3c0.5,0,0.8-0.3,0.8-0.6c0-0.3-0.2-0.5-0.7-0.7c-0.7-0.3-1.1-0.7-1.1-1.1
			c0-0.6,0.5-1.2,1.4-1.2c0.4,0,0.8,0.1,1,0.2l-0.2,0.5c-0.2-0.1-0.4-0.2-0.8-0.2c-0.4,0-0.7,0.2-0.7,0.5c0,0.3,0.2,0.5,0.8,0.7
			c0.7,0.3,1.1,0.6,1.1,1.2c0,0.7-0.5,1.2-1.5,1.2c-0.4,0-0.8-0.1-1.1-0.3L115.8,155.8z"/>
		<path d="M120,151.4c0,0.2-0.2,0.4-0.5,0.4c-0.3,0-0.4-0.2-0.4-0.4c0-0.3,0.2-0.5,0.5-0.5C119.8,150.9,120,151.1,120,151.4z
			 M119.2,156.5v-4h0.7v4H119.2z"/>
		<path d="M122,151.4v1.2h1v0.6h-1v2.2c0,0.5,0.1,0.8,0.5,0.8c0.2,0,0.3,0,0.4,0l0,0.5c-0.1,0.1-0.4,0.1-0.6,0.1
			c-0.3,0-0.6-0.1-0.8-0.3c-0.2-0.2-0.3-0.6-0.3-1v-2.2h-0.6v-0.6h0.6v-1L122,151.4z"/>
		<path d="M124.7,151.4v1.2h1v0.6h-1v2.2c0,0.5,0.1,0.8,0.5,0.8c0.2,0,0.3,0,0.4,0l0,0.5c-0.1,0.1-0.4,0.1-0.6,0.1
			c-0.3,0-0.6-0.1-0.8-0.3c-0.2-0.2-0.3-0.6-0.3-1v-2.2h-0.6v-0.6h0.6v-1L124.7,151.4z"/>
		<path d="M127.4,151.4c0,0.2-0.2,0.4-0.5,0.4c-0.3,0-0.4-0.2-0.4-0.4c0-0.3,0.2-0.5,0.5-0.5C127.2,150.9,127.4,151.1,127.4,151.4z
			 M126.6,156.5v-4h0.7v4H126.6z"/>
		<path d="M128.6,153.6c0-0.4,0-0.8,0-1.1h0.6l0,0.7h0c0.2-0.4,0.7-0.8,1.3-0.8c0.6,0,1.4,0.3,1.4,1.7v2.4h-0.7v-2.3
			c0-0.6-0.2-1.2-0.9-1.2c-0.5,0-0.9,0.3-1,0.7c0,0.1,0,0.2,0,0.3v2.4h-0.7V153.6z"/>
		<path d="M136.6,152.5c0,0.3,0,0.6,0,1.1v2.3c0,0.9-0.2,1.5-0.6,1.8c-0.4,0.4-1,0.5-1.5,0.5c-0.5,0-1-0.1-1.3-0.3l0.2-0.6
			c0.3,0.2,0.7,0.3,1.2,0.3c0.7,0,1.3-0.4,1.3-1.4v-0.4h0c-0.2,0.4-0.7,0.7-1.3,0.7c-1,0-1.7-0.8-1.7-2c0-1.4,0.9-2.1,1.8-2.1
			c0.7,0,1.1,0.4,1.3,0.7h0l0-0.6H136.6z M135.9,154.1c0-0.1,0-0.2,0-0.3c-0.1-0.4-0.5-0.8-1-0.8c-0.7,0-1.2,0.6-1.2,1.5
			c0,0.8,0.4,1.4,1.2,1.4c0.4,0,0.9-0.3,1-0.7c0-0.1,0.1-0.3,0.1-0.4V154.1z"/>
		<path d="M61.7,164.5c0,1.5-1,2.1-2,2.1c-1.1,0-1.9-0.8-1.9-2.1c0-1.3,0.9-2.1,2-2.1C60.9,162.4,61.7,163.2,61.7,164.5z
			 M58.5,164.5c0,0.9,0.5,1.5,1.2,1.5c0.7,0,1.2-0.7,1.2-1.6c0-0.7-0.3-1.5-1.2-1.5S58.5,163.7,58.5,164.5z"/>
		<path d="M62.6,163.6c0-0.4,0-0.8,0-1.1h0.6l0,0.7h0c0.2-0.4,0.7-0.8,1.3-0.8c0.6,0,1.4,0.3,1.4,1.7v2.4h-0.7v-2.3
			c0-0.6-0.2-1.2-0.9-1.2c-0.5,0-0.9,0.3-1,0.7c0,0.1,0,0.2,0,0.3v2.4h-0.7V163.6z"/>
		<path d="M69.9,161.3v1.2h1v0.6h-1v2.2c0,0.5,0.1,0.8,0.5,0.8c0.2,0,0.3,0,0.4,0l0,0.5c-0.1,0.1-0.4,0.1-0.6,0.1
			c-0.3,0-0.6-0.1-0.8-0.3c-0.2-0.2-0.3-0.6-0.3-1V163h-0.6v-0.6h0.6v-1L69.9,161.3z"/>
		<path d="M71.7,160.6h0.7v2.5h0c0.1-0.2,0.3-0.4,0.5-0.5c0.2-0.1,0.5-0.2,0.7-0.2c0.5,0,1.4,0.3,1.4,1.7v2.4h-0.7v-2.3
			c0-0.6-0.2-1.2-0.9-1.2c-0.5,0-0.8,0.3-1,0.7c0,0.1-0.1,0.2-0.1,0.3v2.4h-0.7V160.6z"/>
		<path d="M76.8,164.6c0,1,0.6,1.4,1.4,1.4c0.5,0,0.8-0.1,1.1-0.2l0.1,0.5c-0.3,0.1-0.7,0.2-1.3,0.2c-1.2,0-2-0.8-2-2
			s0.7-2.2,1.9-2.2c1.3,0,1.7,1.2,1.7,1.9c0,0.1,0,0.3,0,0.3H76.8z M78.9,164.1c0-0.5-0.2-1.2-1-1.2c-0.7,0-1.1,0.7-1.1,1.2H78.9z"
			/>
		<path d="M82.2,165.8c0.2,0.1,0.6,0.3,1,0.3c0.5,0,0.8-0.3,0.8-0.6c0-0.3-0.2-0.5-0.7-0.7c-0.7-0.3-1.1-0.7-1.1-1.1
			c0-0.6,0.5-1.2,1.4-1.2c0.4,0,0.8,0.1,1,0.2l-0.2,0.5c-0.2-0.1-0.4-0.2-0.8-0.2c-0.4,0-0.7,0.2-0.7,0.5c0,0.3,0.2,0.5,0.8,0.7
			c0.7,0.3,1.1,0.6,1.1,1.2c0,0.7-0.5,1.2-1.5,1.2c-0.4,0-0.8-0.1-1.1-0.3L82.2,165.8z"/>
		<path d="M88.9,165.4c0,0.4,0,0.8,0,1.1h-0.6l0-0.7h0c-0.2,0.3-0.6,0.7-1.3,0.7c-0.6,0-1.4-0.3-1.4-1.8v-2.3h0.7v2.2
			c0,0.8,0.2,1.3,0.9,1.3c0.5,0,0.8-0.3,1-0.7c0-0.1,0.1-0.2,0.1-0.4v-2.5h0.7V165.4z"/>
		<path d="M90.1,166.5c0-0.3,0-0.7,0-1v-4.9h0.7v2.5h0c0.3-0.4,0.7-0.7,1.4-0.7c1,0,1.7,0.8,1.7,2c0,1.4-0.9,2.1-1.8,2.1
			c-0.6,0-1-0.2-1.3-0.8h0l0,0.7H90.1z M90.9,164.9c0,0.1,0,0.2,0,0.3c0.1,0.5,0.6,0.9,1.1,0.9c0.8,0,1.2-0.6,1.2-1.5
			c0-0.8-0.4-1.5-1.2-1.5c-0.5,0-1,0.3-1.1,0.9c0,0.1,0,0.2,0,0.3V164.9z"/>
		<path d="M94.9,166.5V163h-0.6v-0.6h0.6v-0.2c0-0.6,0.1-1.1,0.5-1.4c0.3-0.3,0.6-0.4,1-0.4c0.3,0,0.5,0.1,0.6,0.1l-0.1,0.6
			c-0.1-0.1-0.3-0.1-0.5-0.1c-0.6,0-0.8,0.5-0.8,1.2v0.2h1v0.6h-1v3.5H94.9z"/>
		<path d="M97.3,160.6H98v5.9h-0.7V160.6z"/>
		<path d="M102.9,164.5c0,1.5-1,2.1-2,2.1c-1.1,0-1.9-0.8-1.9-2.1c0-1.3,0.9-2.1,2-2.1C102.1,162.4,102.9,163.2,102.9,164.5z
			 M99.7,164.5c0,0.9,0.5,1.5,1.2,1.5c0.7,0,1.2-0.7,1.2-1.6c0-0.7-0.3-1.5-1.2-1.5S99.7,163.7,99.7,164.5z"/>
		<path d="M107.4,164.5c0,1.5-1,2.1-2,2.1c-1.1,0-1.9-0.8-1.9-2.1c0-1.3,0.9-2.1,2-2.1C106.7,162.4,107.4,163.2,107.4,164.5z
			 M104.3,164.5c0,0.9,0.5,1.5,1.2,1.5c0.7,0,1.2-0.7,1.2-1.6c0-0.7-0.3-1.5-1.2-1.5S104.3,163.7,104.3,164.5z"/>
		<path d="M108.4,163.7c0-0.5,0-0.9,0-1.3h0.6l0,0.8h0c0.2-0.5,0.6-0.9,1.1-0.9c0.1,0,0.1,0,0.2,0v0.7c-0.1,0-0.1,0-0.2,0
			c-0.5,0-0.9,0.4-1,0.9c0,0.1,0,0.2,0,0.3v2.1h-0.7V163.7z"/>
		<path d="M110.5,166.1c0-0.3,0.2-0.5,0.5-0.5s0.5,0.2,0.5,0.5c0,0.3-0.2,0.5-0.5,0.5C110.7,166.6,110.5,166.4,110.5,166.1z"/>
	</g>
	
		<rect x="-3.2" y="5.2" transform="matrix(2.243634e-11 -1 1 2.243634e-11 -4.2012 173.4044)" class="st1" width="175.6" height="167.2"/>
	
		<rect x="62.2" y="70.6" transform="matrix(8.785512e-11 -1 1 8.785512e-11 -69.581 238.7842)" class="st1" width="44.8" height="167.2"/>
	<circle cx="22.8" cy="22.8" r="11.5"/>
	<rect x="50.9" y="44.2" class="st2" width="67.3" height="7.5"/>
	<polygon class="st3" points="116.4,40.1 52.9,40.1 54.8,25.6 114.2,25.6 	"/>
	<pattern  id="SVGID_1_" xlink:href="#Mezzotint" patternTransform="matrix(1 0 0 1 -18 -36)">
	</pattern>
	<rect x="1" y="76" class="st4" width="167.2" height="55.7"/>
	<polygon class="st3" points="122.1,115 47.1,115 50.9,92.2 118.3,92.2 	"/>
	<line class="st1" x1="51.9" y1="92.2" x2="51.9" y2="115"/>
	<line class="st1" x1="118.3" y1="92.2" x2="118.3" y2="115"/>
	<g>
		<path class="st5" d="M22.3,18.8L22.3,18.8l-1.8,1l-0.3-1.1l2.2-1.2h1.2v10.3h-1.3V18.8z"/>
	</g>
	<g>
		<g>
			<line class="st6" x1="82.8" y1="51.3" x2="82.8" y2="100.8"/>
			<g>
				<polygon points="77.8,99.3 82.8,107.9 87.7,99.3 				"/>
			</g>
		</g>
	</g>
</g>
</svg>
