<?xml version="1.0" encoding="utf-8"?>
<!-- Generator: Adobe Illustrator 20.1.0, SVG Export Plug-In . SVG Version: 6.00 Build 0)  -->
<svg version="1.1" id="Layer_1" xmlns="http://www.w3.org/2000/svg" xmlns:xlink="http://www.w3.org/1999/xlink" x="0px" y="0px"
	 viewBox="0 0 170 178" style="enable-background:new 0 0 170 178;" xml:space="preserve">
<style type="text/css">
	.st0{fill:none;stroke:#000000;stroke-width:2;stroke-miterlimit:10;}
	.st1{fill:#D3D4D4;}
	.st2{fill:#D3D4D4;stroke:#000000;stroke-width:2;stroke-linejoin:round;stroke-miterlimit:10;}
	.st3{fill:none;stroke:#000000;stroke-width:2;stroke-linecap:round;stroke-linejoin:round;stroke-miterlimit:10;}
</style>
<g>
	<rect x="-2.8" y="5.4" transform="matrix(2.243634e-11 -1 1 2.243634e-11 -4 174)" class="st0" width="175.6" height="167.2"/>
	
		<rect x="62.6" y="70.8" transform="matrix(8.769258e-11 -1 1 8.769258e-11 -69.3798 239.3798)" class="st0" width="44.8" height="167.2"/>
	<circle cx="23.2" cy="23" r="11.5"/>
	<g>
		<path class="st1" d="M20.1,26.8c0.4,0.3,1.3,0.6,2.3,0.6c1.8,0,2.3-1.1,2.3-2c0-1.4-1.3-2.1-2.7-2.1h-0.8v-1H22
			c1,0,2.3-0.5,2.3-1.7c0-0.8-0.5-1.5-1.8-1.5c-0.8,0-1.6,0.4-2.1,0.7l-0.4-1c0.5-0.4,1.6-0.8,2.7-0.8c2,0,2.9,1.2,2.9,2.4
			c0,1.1-0.6,2-1.9,2.4v0c1.3,0.3,2.3,1.2,2.3,2.6c0,1.6-1.3,3.1-3.7,3.1c-1.2,0-2.2-0.4-2.7-0.7L20.1,26.8z"/>
	</g>
	<g>
		<path d="M20.3,142.2v2.3H23v-2.3h0.7v5.6H23v-2.6h-2.7v2.6h-0.7v-5.6H20.3z"/>
		<path d="M28.6,145.7c0,1.5-1,2.1-2,2.1c-1.1,0-1.9-0.8-1.9-2.1c0-1.3,0.9-2.1,2-2.1C27.8,143.7,28.6,144.5,28.6,145.7z
			 M25.4,145.8c0,0.9,0.5,1.5,1.2,1.5c0.7,0,1.2-0.7,1.2-1.6c0-0.7-0.3-1.5-1.2-1.5S25.4,145,25.4,145.8z"/>
		<path d="M29.5,141.9h0.7v5.9h-0.7V141.9z"/>
		<path d="M35,141.9v4.9c0,0.4,0,0.8,0,1h-0.7l0-0.7h0c-0.2,0.4-0.7,0.8-1.4,0.8c-1,0-1.7-0.8-1.7-2c0-1.3,0.8-2.2,1.8-2.2
			c0.6,0,1,0.3,1.2,0.6h0v-2.4H35z M34.2,145.4c0-0.1,0-0.2,0-0.3c-0.1-0.5-0.5-0.8-1.1-0.8c-0.8,0-1.2,0.7-1.2,1.6
			c0,0.8,0.4,1.5,1.2,1.5c0.5,0,0.9-0.3,1.1-0.9c0-0.1,0-0.2,0-0.3V145.4z"/>
		<path d="M38.7,142.6c0,0.2-0.2,0.4-0.5,0.4c-0.3,0-0.4-0.2-0.4-0.4c0-0.3,0.2-0.5,0.5-0.5C38.6,142.2,38.7,142.4,38.7,142.6z
			 M37.9,147.8v-4h0.7v4H37.9z"/>
		<path d="M39.9,144.8c0-0.4,0-0.8,0-1.1h0.6l0,0.7h0c0.2-0.4,0.7-0.8,1.3-0.8c0.6,0,1.4,0.3,1.4,1.7v2.4h-0.7v-2.3
			c0-0.6-0.2-1.2-0.9-1.2c-0.5,0-0.9,0.3-1,0.7c0,0.1,0,0.2,0,0.3v2.4h-0.7V144.8z"/>
		<path d="M45.3,142.6v1.2h1v0.6h-1v2.2c0,0.5,0.1,0.8,0.5,0.8c0.2,0,0.3,0,0.4,0l0,0.5c-0.1,0.1-0.4,0.1-0.6,0.1
			c-0.3,0-0.6-0.1-0.8-0.3c-0.2-0.2-0.3-0.6-0.3-1v-2.2H44v-0.6h0.6v-1L45.3,142.6z"/>
		<path d="M50.8,145.7c0,1.5-1,2.1-2,2.1c-1.1,0-1.9-0.8-1.9-2.1c0-1.3,0.9-2.1,2-2.1C50,143.7,50.8,144.5,50.8,145.7z M47.6,145.8
			c0,0.9,0.5,1.5,1.2,1.5c0.7,0,1.2-0.7,1.2-1.6c0-0.7-0.3-1.5-1.2-1.5S47.6,145,47.6,145.8z"/>
		<path d="M53.5,145.1c0-0.5,0-0.9,0-1.3h0.7l0,0.7h0c0.3-0.5,0.8-0.8,1.4-0.8c1,0,1.7,0.8,1.7,2c0,1.4-0.9,2.2-1.8,2.2
			c-0.5,0-1-0.2-1.2-0.6h0v2.2h-0.7V145.1z M54.2,146.1c0,0.1,0,0.2,0,0.3c0.1,0.5,0.6,0.9,1.1,0.9c0.8,0,1.2-0.6,1.2-1.6
			c0-0.8-0.4-1.5-1.2-1.5c-0.5,0-1,0.4-1.1,0.9c0,0.1,0,0.2,0,0.3V146.1z"/>
		<path d="M58.2,141.9h0.7v5.9h-0.7V141.9z"/>
		<path d="M62.4,147.8l-0.1-0.5h0c-0.2,0.3-0.7,0.6-1.2,0.6c-0.8,0-1.2-0.6-1.2-1.2c0-1,0.9-1.5,2.4-1.5v-0.1c0-0.3-0.1-0.9-0.9-0.9
			c-0.4,0-0.8,0.1-1,0.3l-0.2-0.5c0.3-0.2,0.8-0.4,1.3-0.4c1.2,0,1.5,0.8,1.5,1.6v1.5c0,0.3,0,0.7,0.1,1H62.4z M62.3,145.7
			c-0.8,0-1.7,0.1-1.7,0.9c0,0.5,0.3,0.7,0.7,0.7c0.5,0,0.9-0.3,1-0.7c0-0.1,0-0.2,0-0.2V145.7z"/>
		<path d="M67,147.6c-0.2,0.1-0.6,0.2-1.2,0.2c-1.2,0-2-0.8-2-2c0-1.2,0.8-2.1,2.2-2.1c0.4,0,0.8,0.1,1,0.2l-0.2,0.6
			c-0.2-0.1-0.4-0.2-0.8-0.2c-0.9,0-1.4,0.7-1.4,1.5c0,0.9,0.6,1.5,1.4,1.5c0.4,0,0.7-0.1,0.9-0.2L67,147.6z"/>
		<path d="M68.2,145.9c0,1,0.6,1.4,1.4,1.4c0.5,0,0.8-0.1,1.1-0.2l0.1,0.5c-0.3,0.1-0.7,0.2-1.3,0.2c-1.2,0-2-0.8-2-2
			s0.7-2.2,1.9-2.2c1.3,0,1.7,1.2,1.7,1.9c0,0.2,0,0.3,0,0.3H68.2z M70.4,145.4c0-0.5-0.2-1.2-1-1.2c-0.7,0-1.1,0.7-1.1,1.2H70.4z"
			/>
		<path d="M71.7,147.3c0-0.3,0.2-0.5,0.5-0.5s0.5,0.2,0.5,0.5c0,0.3-0.2,0.5-0.5,0.5C71.9,147.9,71.7,147.6,71.7,147.3z"/>
		<path d="M75.4,142.2h3v0.6h-2.3v1.9h2.1v0.6h-2.1v2.5h-0.7V142.2z"/>
		<path d="M79.3,141.9H80v5.9h-0.7V141.9z"/>
		<path d="M82.1,142.6c0,0.2-0.2,0.4-0.5,0.4c-0.3,0-0.4-0.2-0.4-0.4c0-0.3,0.2-0.5,0.5-0.5C81.9,142.2,82.1,142.4,82.1,142.6z
			 M81.2,147.8v-4H82v4H81.2z"/>
		<path d="M83.2,145.1c0-0.5,0-0.9,0-1.3h0.7l0,0.7h0c0.3-0.5,0.8-0.8,1.4-0.8c1,0,1.7,0.8,1.7,2c0,1.4-0.9,2.2-1.8,2.2
			c-0.5,0-1-0.2-1.2-0.6h0v2.2h-0.7V145.1z M83.9,146.1c0,0.1,0,0.2,0,0.3c0.1,0.5,0.6,0.9,1.1,0.9c0.8,0,1.2-0.6,1.2-1.6
			c0-0.8-0.4-1.5-1.2-1.5c-0.5,0-1,0.4-1.1,0.9c0,0.1,0,0.2,0,0.3V146.1z"/>
		<path d="M90.6,142.6v1.2h1v0.6h-1v2.2c0,0.5,0.1,0.8,0.5,0.8c0.2,0,0.3,0,0.4,0l0,0.5c-0.1,0.1-0.4,0.1-0.6,0.1
			c-0.3,0-0.6-0.1-0.8-0.3c-0.2-0.2-0.3-0.6-0.3-1v-2.2h-0.6v-0.6h0.6v-1L90.6,142.6z"/>
		<path d="M92.4,145c0-0.5,0-0.9,0-1.3H93l0,0.8h0c0.2-0.5,0.6-0.9,1.1-0.9c0.1,0,0.1,0,0.2,0v0.7c-0.1,0-0.1,0-0.2,0
			c-0.5,0-0.9,0.4-1,0.9c0,0.1,0,0.2,0,0.3v2.1h-0.7V145z"/>
		<path d="M97.3,147.8l-0.1-0.5h0c-0.2,0.3-0.7,0.6-1.2,0.6c-0.8,0-1.2-0.6-1.2-1.2c0-1,0.9-1.5,2.4-1.5v-0.1c0-0.3-0.1-0.9-0.9-0.9
			c-0.4,0-0.8,0.1-1,0.3l-0.2-0.5c0.3-0.2,0.8-0.4,1.3-0.4c1.2,0,1.5,0.8,1.5,1.6v1.5c0,0.3,0,0.7,0.1,1H97.3z M97.2,145.7
			c-0.8,0-1.7,0.1-1.7,0.9c0,0.5,0.3,0.7,0.7,0.7c0.5,0,0.9-0.3,1-0.7c0-0.1,0-0.2,0-0.2V145.7z"/>
		<path d="M99.3,143.7l0.9,2.4c0.1,0.3,0.2,0.6,0.3,0.8h0c0.1-0.2,0.2-0.5,0.3-0.8l0.8-2.4h0.8l-1.1,2.9c-0.5,1.4-0.9,2.1-1.4,2.5
			c-0.4,0.3-0.7,0.4-0.9,0.5l-0.2-0.6c0.2-0.1,0.4-0.2,0.6-0.4c0.2-0.2,0.4-0.4,0.6-0.8c0-0.1,0.1-0.1,0.1-0.2c0,0,0-0.1,0-0.2
			l-1.5-3.7H99.3z"/>
		<path d="M108.1,146.7c0,0.4,0,0.8,0,1.1h-0.6l0-0.7h0c-0.2,0.3-0.6,0.7-1.3,0.7c-0.6,0-1.4-0.3-1.4-1.8v-2.3h0.7v2.2
			c0,0.8,0.2,1.3,0.9,1.3c0.5,0,0.8-0.3,1-0.7c0-0.1,0.1-0.2,0.1-0.4v-2.5h0.7V146.7z"/>
		<path d="M109.3,145.1c0-0.5,0-0.9,0-1.3h0.7l0,0.7h0c0.3-0.5,0.8-0.8,1.4-0.8c1,0,1.7,0.8,1.7,2c0,1.4-0.9,2.2-1.8,2.2
			c-0.5,0-1-0.2-1.2-0.6h0v2.2h-0.7V145.1z M110,146.1c0,0.1,0,0.2,0,0.3c0.1,0.5,0.6,0.9,1.1,0.9c0.8,0,1.2-0.6,1.2-1.6
			c0-0.8-0.4-1.5-1.2-1.5c-0.5,0-1,0.4-1.1,0.9c0,0.1,0,0.2,0,0.3V146.1z"/>
		<path d="M113.9,147c0.2,0.1,0.6,0.3,1,0.3c0.5,0,0.8-0.3,0.8-0.6c0-0.3-0.2-0.5-0.7-0.7c-0.7-0.3-1.1-0.7-1.1-1.1
			c0-0.6,0.5-1.2,1.4-1.2c0.4,0,0.8,0.1,1,0.2l-0.2,0.5c-0.2-0.1-0.4-0.2-0.8-0.2c-0.4,0-0.7,0.2-0.7,0.5c0,0.3,0.2,0.5,0.8,0.7
			c0.7,0.3,1.1,0.6,1.1,1.2c0,0.7-0.5,1.2-1.5,1.2c-0.4,0-0.8-0.1-1.1-0.3L113.9,147z"/>
		<path d="M118.1,142.6c0,0.2-0.2,0.4-0.5,0.4c-0.3,0-0.4-0.2-0.4-0.4c0-0.3,0.2-0.5,0.5-0.5C117.9,142.2,118.1,142.4,118.1,142.6z
			 M117.3,147.8v-4h0.7v4H117.3z"/>
		<path d="M122.7,141.9v4.9c0,0.4,0,0.8,0,1h-0.7l0-0.7h0c-0.2,0.4-0.7,0.8-1.4,0.8c-1,0-1.7-0.8-1.7-2c0-1.3,0.8-2.2,1.8-2.2
			c0.6,0,1,0.3,1.2,0.6h0v-2.4H122.7z M122,145.4c0-0.1,0-0.2,0-0.3c-0.1-0.5-0.5-0.8-1.1-0.8c-0.8,0-1.2,0.7-1.2,1.6
			c0,0.8,0.4,1.5,1.2,1.5c0.5,0,0.9-0.3,1.1-0.9c0-0.1,0-0.2,0-0.3V145.4z"/>
		<path d="M124.3,145.9c0,1,0.6,1.4,1.4,1.4c0.5,0,0.8-0.1,1.1-0.2l0.1,0.5c-0.3,0.1-0.7,0.2-1.3,0.2c-1.2,0-2-0.8-2-2
			s0.7-2.2,1.9-2.2c1.3,0,1.7,1.2,1.7,1.9c0,0.2,0,0.3,0,0.3H124.3z M126.5,145.4c0-0.5-0.2-1.2-1-1.2c-0.7,0-1.1,0.7-1.1,1.2H126.5
			z"/>
		<path d="M133.3,141.9v4.9c0,0.4,0,0.8,0,1h-0.7l0-0.7h0c-0.2,0.4-0.7,0.8-1.4,0.8c-1,0-1.7-0.8-1.7-2c0-1.3,0.8-2.2,1.8-2.2
			c0.6,0,1,0.3,1.2,0.6h0v-2.4H133.3z M132.6,145.4c0-0.1,0-0.2,0-0.3c-0.1-0.5-0.5-0.8-1.1-0.8c-0.8,0-1.2,0.7-1.2,1.6
			c0,0.8,0.4,1.5,1.2,1.5c0.5,0,0.9-0.3,1.1-0.9c0-0.1,0-0.2,0-0.3V145.4z"/>
		<path d="M138.2,145.7c0,1.5-1,2.1-2,2.1c-1.1,0-1.9-0.8-1.9-2.1c0-1.3,0.9-2.1,2-2.1C137.4,143.7,138.2,144.5,138.2,145.7z
			 M135,145.8c0,0.9,0.5,1.5,1.2,1.5c0.7,0,1.2-0.7,1.2-1.6c0-0.7-0.3-1.5-1.2-1.5S135,145,135,145.8z"/>
		<path d="M139.3,143.7l0.5,2c0.1,0.4,0.2,0.9,0.3,1.3h0c0.1-0.4,0.2-0.8,0.4-1.3l0.7-2.1h0.6l0.6,2c0.1,0.5,0.3,0.9,0.4,1.3h0
			c0.1-0.4,0.2-0.8,0.3-1.3l0.6-2h0.7l-1.3,4h-0.7l-0.6-1.9c-0.1-0.4-0.3-0.8-0.4-1.3h0c-0.1,0.5-0.2,0.9-0.4,1.3l-0.6,1.9h-0.7
			l-1.2-4H139.3z"/>
		<path d="M145.2,144.8c0-0.4,0-0.8,0-1.1h0.6l0,0.7h0c0.2-0.4,0.7-0.8,1.3-0.8c0.6,0,1.4,0.3,1.4,1.7v2.4h-0.7v-2.3
			c0-0.6-0.2-1.2-0.9-1.2c-0.5,0-0.9,0.3-1,0.7c0,0.1-0.1,0.2-0.1,0.3v2.4h-0.7V144.8z"/>
		<path d="M149.6,147.3c0-0.3,0.2-0.5,0.5-0.5s0.5,0.2,0.5,0.5c0,0.3-0.2,0.5-0.5,0.5C149.8,147.9,149.6,147.6,149.6,147.3z"/>
		<path d="M21.4,156l-0.6,1.8h-0.7l1.9-5.6h0.9l1.9,5.6H24l-0.6-1.8H21.4z M23.2,155.4l-0.5-1.6c-0.1-0.4-0.2-0.7-0.3-1h0
			c-0.1,0.3-0.2,0.7-0.3,1l-0.5,1.6H23.2z"/>
		<path d="M25.5,155c0-0.5,0-0.9,0-1.3h0.7l0,0.7h0c0.3-0.5,0.8-0.8,1.4-0.8c1,0,1.7,0.8,1.7,2c0,1.4-0.9,2.2-1.8,2.2
			c-0.5,0-1-0.2-1.2-0.6h0v2.2h-0.7V155z M26.2,156.1c0,0.1,0,0.2,0,0.3c0.1,0.5,0.6,0.9,1.1,0.9c0.8,0,1.2-0.6,1.2-1.6
			c0-0.8-0.4-1.5-1.2-1.5c-0.5,0-1,0.4-1.1,0.9c0,0.1,0,0.2,0,0.3V156.1z"/>
		<path d="M30.2,155c0-0.5,0-0.9,0-1.3h0.7l0,0.7h0c0.3-0.5,0.8-0.8,1.4-0.8c1,0,1.7,0.8,1.7,2c0,1.4-0.9,2.2-1.8,2.2
			c-0.5,0-1-0.2-1.2-0.6h0v2.2h-0.7V155z M31,156.1c0,0.1,0,0.2,0,0.3c0.1,0.5,0.6,0.9,1.1,0.9c0.8,0,1.2-0.6,1.2-1.6
			c0-0.8-0.4-1.5-1.2-1.5c-0.5,0-1,0.4-1.1,0.9c0,0.1,0,0.2,0,0.3V156.1z"/>
		<path d="M35,151.8h0.7v5.9H35V151.8z"/>
		<path d="M37.2,153.7l0.9,2.4c0.1,0.3,0.2,0.6,0.3,0.8h0c0.1-0.2,0.2-0.5,0.3-0.8l0.8-2.4h0.8l-1.1,2.9c-0.5,1.4-0.9,2.1-1.4,2.5
			c-0.4,0.3-0.7,0.4-0.9,0.5l-0.2-0.6c0.2-0.1,0.4-0.2,0.6-0.4c0.2-0.2,0.4-0.4,0.6-0.8c0-0.1,0.1-0.1,0.1-0.2c0,0,0-0.1,0-0.2
			l-1.5-3.7H37.2z"/>
		<path d="M43,155.9c0,1,0.6,1.4,1.4,1.4c0.5,0,0.8-0.1,1.1-0.2l0.1,0.5c-0.3,0.1-0.7,0.2-1.3,0.2c-1.2,0-2-0.8-2-2s0.7-2.2,1.9-2.2
			c1.3,0,1.7,1.2,1.7,1.9c0,0.2,0,0.3,0,0.3H43z M45.1,155.3c0-0.5-0.2-1.2-1-1.2c-0.7,0-1.1,0.7-1.1,1.2H45.1z"/>
		<path d="M47,153.7l0.8,2.3c0.1,0.4,0.2,0.7,0.3,1h0c0.1-0.3,0.2-0.7,0.3-1l0.8-2.3h0.8l-1.6,4h-0.7l-1.5-4H47z"/>
		<path d="M51.1,155.9c0,1,0.6,1.4,1.4,1.4c0.5,0,0.8-0.1,1.1-0.2l0.1,0.5c-0.3,0.1-0.7,0.2-1.3,0.2c-1.2,0-2-0.8-2-2
			s0.7-2.2,1.9-2.2c1.3,0,1.7,1.2,1.7,1.9c0,0.2,0,0.3,0,0.3H51.1z M53.2,155.3c0-0.5-0.2-1.2-1-1.2c-0.7,0-1.1,0.7-1.1,1.2H53.2z"
			/>
		<path d="M54.8,154.8c0-0.4,0-0.8,0-1.1h0.6l0,0.7h0c0.2-0.4,0.7-0.8,1.3-0.8c0.6,0,1.4,0.3,1.4,1.7v2.4h-0.7v-2.3
			c0-0.6-0.2-1.2-0.9-1.2c-0.5,0-0.9,0.3-1,0.7c0,0.1,0,0.2,0,0.3v2.4h-0.7V154.8z"/>
		<path d="M61.2,155c0-0.5,0-0.9,0-1.3h0.7l0,0.7h0c0.3-0.5,0.8-0.8,1.4-0.8c1,0,1.7,0.8,1.7,2c0,1.4-0.9,2.2-1.8,2.2
			c-0.5,0-1-0.2-1.2-0.6h0v2.2h-0.7V155z M61.9,156.1c0,0.1,0,0.2,0,0.3c0.1,0.5,0.6,0.9,1.1,0.9c0.8,0,1.2-0.6,1.2-1.6
			c0-0.8-0.4-1.5-1.2-1.5c-0.5,0-1,0.4-1.1,0.9c0,0.1,0,0.2,0,0.3V156.1z"/>
		<path d="M65.9,155c0-0.5,0-0.9,0-1.3h0.6l0,0.8h0c0.2-0.5,0.6-0.9,1.1-0.9c0.1,0,0.1,0,0.2,0v0.7c-0.1,0-0.1,0-0.2,0
			c-0.5,0-0.9,0.4-1,0.9c0,0.1,0,0.2,0,0.3v2.1h-0.7V155z"/>
		<path d="M69,155.9c0,1,0.6,1.4,1.4,1.4c0.5,0,0.8-0.1,1.1-0.2l0.1,0.5c-0.3,0.1-0.7,0.2-1.3,0.2c-1.2,0-2-0.8-2-2s0.7-2.2,1.9-2.2
			c1.3,0,1.7,1.2,1.7,1.9c0,0.2,0,0.3,0,0.3H69z M71.1,155.3c0-0.5-0.2-1.2-1-1.2c-0.7,0-1.1,0.7-1.1,1.2H71.1z"/>
		<path d="M72.6,157c0.2,0.1,0.6,0.3,1,0.3c0.5,0,0.8-0.3,0.8-0.6c0-0.3-0.2-0.5-0.7-0.7c-0.7-0.3-1.1-0.7-1.1-1.1
			c0-0.6,0.5-1.2,1.4-1.2c0.4,0,0.8,0.1,1,0.2l-0.2,0.5c-0.2-0.1-0.4-0.2-0.8-0.2c-0.4,0-0.7,0.2-0.7,0.5c0,0.3,0.2,0.5,0.8,0.7
			c0.7,0.3,1.1,0.6,1.1,1.2c0,0.7-0.5,1.2-1.5,1.2c-0.4,0-0.8-0.1-1.1-0.3L72.6,157z"/>
		<path d="M75.9,157c0.2,0.1,0.6,0.3,1,0.3c0.5,0,0.8-0.3,0.8-0.6c0-0.3-0.2-0.5-0.7-0.7c-0.7-0.3-1.1-0.7-1.1-1.1
			c0-0.6,0.5-1.2,1.4-1.2c0.4,0,0.8,0.1,1,0.2l-0.2,0.5c-0.2-0.1-0.4-0.2-0.8-0.2c-0.4,0-0.7,0.2-0.7,0.5c0,0.3,0.2,0.5,0.8,0.7
			c0.7,0.3,1.1,0.6,1.1,1.2c0,0.7-0.5,1.2-1.5,1.2c-0.4,0-0.8-0.1-1.1-0.3L75.9,157z"/>
		<path d="M82.7,156.6c0,0.4,0,0.8,0,1.1h-0.6l0-0.7h0c-0.2,0.3-0.6,0.7-1.3,0.7c-0.6,0-1.4-0.3-1.4-1.8v-2.3H80v2.2
			c0,0.8,0.2,1.3,0.9,1.3c0.5,0,0.8-0.3,1-0.7c0-0.1,0.1-0.2,0.1-0.4v-2.5h0.7V156.6z"/>
		<path d="M83.9,155c0-0.5,0-0.9,0-1.3h0.6l0,0.8h0c0.2-0.5,0.6-0.9,1.1-0.9c0.1,0,0.1,0,0.2,0v0.7c-0.1,0-0.1,0-0.2,0
			c-0.5,0-0.9,0.4-1,0.9c0,0.1,0,0.2,0,0.3v2.1h-0.7V155z"/>
		<path d="M86.9,155.9c0,1,0.6,1.4,1.4,1.4c0.5,0,0.8-0.1,1.1-0.2l0.1,0.5c-0.3,0.1-0.7,0.2-1.3,0.2c-1.2,0-2-0.8-2-2
			s0.7-2.2,1.9-2.2c1.3,0,1.7,1.2,1.7,1.9c0,0.2,0,0.3,0,0.3H86.9z M89.1,155.3c0-0.5-0.2-1.2-1-1.2c-0.7,0-1.1,0.7-1.1,1.2H89.1z"
			/>
		<path d="M95.8,156.6c0,0.4,0,0.8,0,1.1h-0.6l0-0.7h0c-0.2,0.3-0.6,0.7-1.3,0.7c-0.6,0-1.4-0.3-1.4-1.8v-2.3h0.7v2.2
			c0,0.8,0.2,1.3,0.9,1.3c0.5,0,0.8-0.3,1-0.7c0-0.1,0.1-0.2,0.1-0.4v-2.5h0.7V156.6z"/>
		<path d="M97,154.8c0-0.4,0-0.8,0-1.1h0.6l0,0.7h0c0.2-0.4,0.7-0.8,1.3-0.8c0.6,0,1.4,0.3,1.4,1.7v2.4h-0.7v-2.3
			c0-0.6-0.2-1.2-0.9-1.2c-0.5,0-0.9,0.3-1,0.7c0,0.1,0,0.2,0,0.3v2.4H97V154.8z"/>
		<path d="M102.5,152.6v1.2h1v0.6h-1v2.2c0,0.5,0.1,0.8,0.5,0.8c0.2,0,0.3,0,0.4,0l0,0.5c-0.1,0.1-0.4,0.1-0.6,0.1
			c-0.3,0-0.6-0.1-0.8-0.3c-0.2-0.2-0.3-0.6-0.3-1v-2.2h-0.6v-0.6h0.6v-1L102.5,152.6z"/>
		<path d="M105.2,152.6c0,0.2-0.2,0.4-0.5,0.4c-0.3,0-0.4-0.2-0.4-0.4c0-0.3,0.2-0.5,0.5-0.5C105,152.1,105.2,152.3,105.2,152.6z
			 M104.3,157.7v-4h0.7v4H104.3z"/>
		<path d="M106.3,151.8h0.7v5.9h-0.7V151.8z"/>
		<path d="M110.1,157.7v-3.5h-0.6v-0.6h0.6v-0.2c0-0.6,0.1-1.1,0.5-1.4c0.3-0.3,0.6-0.4,1-0.4c0.3,0,0.5,0.1,0.6,0.1l-0.1,0.6
			c-0.1,0-0.3-0.1-0.5-0.1c-0.6,0-0.8,0.5-0.8,1.2v0.2h1v0.6h-1v3.5H110.1z"/>
		<path d="M112.4,151.8h0.7v5.9h-0.7V151.8z"/>
		<path d="M118,155.7c0,1.5-1,2.1-2,2.1c-1.1,0-1.9-0.8-1.9-2.1c0-1.3,0.9-2.1,2-2.1C117.3,153.6,118,154.5,118,155.7z M114.8,155.7
			c0,0.9,0.5,1.5,1.2,1.5c0.7,0,1.2-0.7,1.2-1.6c0-0.7-0.3-1.5-1.2-1.5S114.8,155,114.8,155.7z"/>
		<path d="M122.6,155.7c0,1.5-1,2.1-2,2.1c-1.1,0-1.9-0.8-1.9-2.1c0-1.3,0.9-2.1,2-2.1C121.8,153.6,122.6,154.5,122.6,155.7z
			 M119.4,155.7c0,0.9,0.5,1.5,1.2,1.5c0.7,0,1.2-0.7,1.2-1.6c0-0.7-0.3-1.5-1.2-1.5S119.4,155,119.4,155.7z"/>
		<path d="M123.5,155c0-0.5,0-0.9,0-1.3h0.6l0,0.8h0c0.2-0.5,0.6-0.9,1.1-0.9c0.1,0,0.1,0,0.2,0v0.7c-0.1,0-0.1,0-0.2,0
			c-0.5,0-0.9,0.4-1,0.9c0,0.1,0,0.2,0,0.3v2.1h-0.7V155z"/>
		<path d="M127.1,152.6c0,0.2-0.2,0.4-0.5,0.4c-0.3,0-0.4-0.2-0.4-0.4c0-0.3,0.2-0.5,0.5-0.5C126.9,152.1,127.1,152.3,127.1,152.6z
			 M126.3,157.7v-4h0.7v4H126.3z"/>
		<path d="M128.2,154.8c0-0.4,0-0.8,0-1.1h0.6l0,0.7h0c0.2-0.4,0.7-0.8,1.3-0.8c0.6,0,1.4,0.3,1.4,1.7v2.4h-0.7v-2.3
			c0-0.6-0.2-1.2-0.9-1.2c-0.5,0-0.9,0.3-1,0.7c0,0.1,0,0.2,0,0.3v2.4h-0.7V154.8z"/>
		<path d="M136.3,153.7c0,0.3,0,0.6,0,1.1v2.3c0,0.9-0.2,1.5-0.6,1.8c-0.4,0.4-1,0.5-1.5,0.5c-0.5,0-1-0.1-1.3-0.3l0.2-0.6
			c0.3,0.2,0.7,0.3,1.2,0.3c0.7,0,1.3-0.4,1.3-1.4V157h0c-0.2,0.4-0.7,0.7-1.3,0.7c-1,0-1.7-0.8-1.7-2c0-1.4,0.9-2.1,1.8-2.1
			c0.7,0,1.1,0.4,1.3,0.7h0l0-0.6H136.3z M135.5,155.3c0-0.1,0-0.2,0-0.3c-0.1-0.4-0.5-0.8-1-0.8c-0.7,0-1.2,0.6-1.2,1.5
			c0,0.8,0.4,1.4,1.2,1.4c0.4,0,0.9-0.3,1-0.7c0-0.1,0.1-0.3,0.1-0.4V155.3z"/>
		<path d="M139.2,151.8h0.7v5.9h-0.7V151.8z"/>
		<path d="M142,152.6c0,0.2-0.2,0.4-0.5,0.4c-0.3,0-0.4-0.2-0.4-0.4c0-0.3,0.2-0.5,0.5-0.5C141.8,152.1,142,152.3,142,152.6z
			 M141.2,157.7v-4h0.7v4H141.2z"/>
		<path d="M143.5,155.9c0,1,0.6,1.4,1.4,1.4c0.5,0,0.8-0.1,1.1-0.2l0.1,0.5c-0.3,0.1-0.7,0.2-1.3,0.2c-1.2,0-2-0.8-2-2
			s0.7-2.2,1.9-2.2c1.3,0,1.7,1.2,1.7,1.9c0,0.2,0,0.3,0,0.3H143.5z M145.7,155.3c0-0.5-0.2-1.2-1-1.2c-0.7,0-1.1,0.7-1.1,1.2H145.7
			z"/>
		<path d="M147.2,157c0.2,0.1,0.6,0.3,1,0.3c0.5,0,0.8-0.3,0.8-0.6c0-0.3-0.2-0.5-0.7-0.7c-0.7-0.3-1.1-0.7-1.1-1.1
			c0-0.6,0.5-1.2,1.4-1.2c0.4,0,0.8,0.1,1,0.2l-0.2,0.5c-0.2-0.1-0.4-0.2-0.8-0.2c-0.4,0-0.7,0.2-0.7,0.5c0,0.3,0.2,0.5,0.8,0.7
			c0.7,0.3,1.1,0.6,1.1,1.2c0,0.7-0.5,1.2-1.5,1.2c-0.4,0-0.8-0.1-1.1-0.3L147.2,157z"/>
		<path d="M38.9,167.7v-3.5h-0.6v-0.6h0.6v-0.2c0-0.6,0.1-1.1,0.5-1.4c0.3-0.3,0.6-0.4,1-0.4c0.3,0,0.5,0.1,0.6,0.1l-0.1,0.6
			c-0.1-0.1-0.3-0.1-0.5-0.1c-0.6,0-0.8,0.5-0.8,1.2v0.2h1v0.6h-1v3.5H38.9z"/>
		<path d="M41.2,161.8H42v5.9h-0.7V161.8z"/>
		<path d="M45.4,167.7l-0.1-0.5h0c-0.2,0.3-0.7,0.6-1.2,0.6c-0.8,0-1.2-0.6-1.2-1.2c0-1,0.9-1.5,2.4-1.5v-0.1c0-0.3-0.1-0.9-0.9-0.9
			c-0.4,0-0.8,0.1-1,0.3l-0.2-0.5c0.3-0.2,0.8-0.4,1.3-0.4c1.2,0,1.5,0.8,1.5,1.6v1.5c0,0.3,0,0.7,0.1,1H45.4z M45.3,165.7
			c-0.8,0-1.7,0.1-1.7,0.9c0,0.5,0.3,0.7,0.7,0.7c0.5,0,0.9-0.3,1-0.7c0-0.1,0-0.2,0-0.2V165.7z"/>
		<path d="M48.1,162.5v1.2h1v0.6h-1v2.2c0,0.5,0.1,0.8,0.5,0.8c0.2,0,0.3,0,0.4,0l0,0.5c-0.1,0.1-0.4,0.1-0.6,0.1
			c-0.3,0-0.6-0.1-0.8-0.3c-0.2-0.2-0.3-0.6-0.3-1v-2.2h-0.6v-0.6h0.6v-1L48.1,162.5z"/>
		<path d="M52,163.7l0.5,2c0.1,0.4,0.2,0.9,0.3,1.3h0c0.1-0.4,0.2-0.8,0.4-1.3l0.7-2h0.6l0.6,2c0.1,0.5,0.3,0.9,0.4,1.3h0
			c0.1-0.4,0.2-0.8,0.3-1.3l0.6-2h0.7l-1.3,4h-0.7l-0.6-1.9c-0.1-0.4-0.3-0.8-0.4-1.3h0c-0.1,0.5-0.2,0.9-0.4,1.3l-0.6,1.9h-0.7
			l-1.2-4H52z"/>
		<path d="M58.6,162.6c0,0.2-0.2,0.4-0.5,0.4c-0.3,0-0.4-0.2-0.4-0.4c0-0.3,0.2-0.5,0.5-0.5C58.4,162.1,58.6,162.3,58.6,162.6z
			 M57.8,167.7v-4h0.7v4H57.8z"/>
		<path d="M60.6,162.5v1.2h1v0.6h-1v2.2c0,0.5,0.1,0.8,0.5,0.8c0.2,0,0.3,0,0.4,0l0,0.5c-0.1,0.1-0.4,0.1-0.6,0.1
			c-0.3,0-0.6-0.1-0.8-0.3c-0.2-0.2-0.3-0.6-0.3-1v-2.2h-0.6v-0.6h0.6v-1L60.6,162.5z"/>
		<path d="M62.5,161.8h0.7v2.5h0c0.1-0.2,0.3-0.4,0.5-0.5c0.2-0.1,0.5-0.2,0.7-0.2c0.5,0,1.4,0.3,1.4,1.7v2.4h-0.7v-2.3
			c0-0.6-0.2-1.2-0.9-1.2c-0.5,0-0.8,0.3-1,0.7c0,0.1-0.1,0.2-0.1,0.3v2.4h-0.7V161.8z"/>
		<path d="M69.7,162.5v1.2h1v0.6h-1v2.2c0,0.5,0.1,0.8,0.5,0.8c0.2,0,0.3,0,0.4,0l0,0.5c-0.1,0.1-0.4,0.1-0.6,0.1
			c-0.3,0-0.6-0.1-0.8-0.3c-0.2-0.2-0.3-0.6-0.3-1v-2.2h-0.6v-0.6H69v-1L69.7,162.5z"/>
		<path d="M71.6,161.8h0.7v2.5h0c0.1-0.2,0.3-0.4,0.5-0.5c0.2-0.1,0.5-0.2,0.7-0.2c0.5,0,1.4,0.3,1.4,1.7v2.4h-0.7v-2.3
			c0-0.6-0.2-1.2-0.9-1.2c-0.5,0-0.8,0.3-1,0.7c0,0.1-0.1,0.2-0.1,0.3v2.4h-0.7V161.8z"/>
		<path d="M76.6,165.8c0,1,0.6,1.4,1.4,1.4c0.5,0,0.8-0.1,1.1-0.2l0.1,0.5c-0.3,0.1-0.7,0.2-1.3,0.2c-1.2,0-2-0.8-2-2
			s0.7-2.2,1.9-2.2c1.3,0,1.7,1.2,1.7,1.9c0,0.1,0,0.3,0,0.3H76.6z M78.8,165.3c0-0.5-0.2-1.2-1-1.2c-0.7,0-1.1,0.7-1.1,1.2H78.8z"
			/>
		<path d="M82.1,164.9c0-0.5,0-0.9,0-1.3h0.6l0,0.8h0c0.2-0.5,0.6-0.9,1.1-0.9c0.1,0,0.1,0,0.2,0v0.7c-0.1,0-0.1,0-0.2,0
			c-0.5,0-0.9,0.4-1,0.9c0,0.1,0,0.2,0,0.3v2.1h-0.7V164.9z"/>
		<path d="M85.7,162.6c0,0.2-0.2,0.4-0.5,0.4c-0.3,0-0.4-0.2-0.4-0.4c0-0.3,0.2-0.5,0.5-0.5C85.5,162.1,85.7,162.3,85.7,162.6z
			 M84.9,167.7v-4h0.7v4H84.9z"/>
		<path d="M86.8,164.8c0-0.4,0-0.8,0-1.1h0.6l0,0.6h0c0.2-0.4,0.6-0.7,1.3-0.7c0.5,0,1,0.3,1.1,0.8h0c0.1-0.2,0.3-0.4,0.4-0.5
			c0.2-0.2,0.5-0.3,0.9-0.3c0.5,0,1.3,0.3,1.3,1.7v2.4h-0.7v-2.3c0-0.8-0.3-1.2-0.9-1.2c-0.4,0-0.7,0.3-0.9,0.7
			c0,0.1-0.1,0.2-0.1,0.4v2.5h-0.7v-2.4c0-0.6-0.3-1.1-0.8-1.1c-0.5,0-0.8,0.4-0.9,0.7c0,0.1-0.1,0.2-0.1,0.4v2.4h-0.7V164.8z"/>
		<path d="M99.2,165.7c0,1.5-1,2.1-2,2.1c-1.1,0-1.9-0.8-1.9-2.1c0-1.3,0.9-2.1,2-2.1C98.4,163.6,99.2,164.4,99.2,165.7z M96,165.7
			c0,0.9,0.5,1.5,1.2,1.5c0.7,0,1.2-0.7,1.2-1.6c0-0.7-0.3-1.5-1.2-1.5S96,164.9,96,165.7z"/>
		<path d="M100.2,167.7v-3.5h-0.6v-0.6h0.6v-0.2c0-0.6,0.1-1.1,0.5-1.4c0.3-0.3,0.6-0.4,1-0.4c0.3,0,0.5,0.1,0.6,0.1l-0.1,0.6
			c-0.1-0.1-0.3-0.1-0.5-0.1c-0.6,0-0.8,0.5-0.8,1.2v0.2h1v0.6h-1v3.5H100.2z"/>
		<path d="M105.2,162.5v1.2h1v0.6h-1v2.2c0,0.5,0.1,0.8,0.5,0.8c0.2,0,0.3,0,0.4,0l0,0.5c-0.1,0.1-0.4,0.1-0.6,0.1
			c-0.3,0-0.6-0.1-0.8-0.3c-0.2-0.2-0.3-0.6-0.3-1v-2.2h-0.6v-0.6h0.6v-1L105.2,162.5z"/>
		<path d="M107,161.8h0.7v2.5h0c0.1-0.2,0.3-0.4,0.5-0.5c0.2-0.1,0.5-0.2,0.7-0.2c0.5,0,1.4,0.3,1.4,1.7v2.4h-0.7v-2.3
			c0-0.6-0.2-1.2-0.9-1.2c-0.5,0-0.8,0.3-1,0.7c0,0.1,0,0.2,0,0.3v2.4H107V161.8z"/>
		<path d="M112,165.8c0,1,0.6,1.4,1.4,1.4c0.5,0,0.8-0.1,1.1-0.2l0.1,0.5c-0.3,0.1-0.7,0.2-1.3,0.2c-1.2,0-2-0.8-2-2
			s0.7-2.2,1.9-2.2c1.3,0,1.7,1.2,1.7,1.9c0,0.1,0,0.3,0,0.3H112z M114.2,165.3c0-0.5-0.2-1.2-1-1.2c-0.7,0-1.1,0.7-1.1,1.2H114.2z"
			/>
		<path d="M118.4,162.5v1.2h1v0.6h-1v2.2c0,0.5,0.1,0.8,0.5,0.8c0.2,0,0.3,0,0.4,0l0,0.5c-0.1,0.1-0.4,0.1-0.6,0.1
			c-0.3,0-0.6-0.1-0.8-0.3c-0.2-0.2-0.3-0.6-0.3-1v-2.2h-0.6v-0.6h0.6v-1L118.4,162.5z"/>
		<path d="M120.3,164.9c0-0.5,0-0.9,0-1.3h0.6l0,0.8h0c0.2-0.5,0.6-0.9,1.1-0.9c0.1,0,0.1,0,0.2,0v0.7c-0.1,0-0.1,0-0.2,0
			c-0.5,0-0.9,0.4-1,0.9c0,0.1,0,0.2,0,0.3v2.1h-0.7V164.9z"/>
		<path d="M125.2,167.7l-0.1-0.5h0c-0.2,0.3-0.7,0.6-1.2,0.6c-0.8,0-1.2-0.6-1.2-1.2c0-1,0.9-1.5,2.4-1.5v-0.1
			c0-0.3-0.1-0.9-0.9-0.9c-0.4,0-0.8,0.1-1,0.3L123,164c0.3-0.2,0.8-0.4,1.3-0.4c1.2,0,1.5,0.8,1.5,1.6v1.5c0,0.3,0,0.7,0.1,1H125.2
			z M125.1,165.7c-0.8,0-1.7,0.1-1.7,0.9c0,0.5,0.3,0.7,0.7,0.7c0.5,0,0.9-0.3,1-0.7c0-0.1,0-0.2,0-0.2V165.7z"/>
		<path d="M127.2,163.7l0.9,2.4c0.1,0.3,0.2,0.6,0.3,0.8h0c0.1-0.2,0.2-0.5,0.3-0.8l0.8-2.4h0.8l-1.1,2.9c-0.5,1.4-0.9,2.1-1.4,2.5
			c-0.4,0.3-0.7,0.4-0.9,0.5l-0.2-0.6c0.2-0.1,0.4-0.2,0.6-0.4c0.2-0.2,0.4-0.4,0.6-0.8c0-0.1,0.1-0.1,0.1-0.2c0,0,0-0.1,0-0.2
			l-1.5-3.7H127.2z"/>
		<path d="M130.3,167.3c0-0.3,0.2-0.5,0.5-0.5s0.5,0.2,0.5,0.5c0,0.3-0.2,0.5-0.5,0.5C130.5,167.8,130.3,167.6,130.3,167.3z"/>
	</g>
	<rect x="53.3" y="80.7" class="st2" width="67.3" height="10.3"/>
	<polygon class="st3" points="120.7,80.7 53.3,80.7 56.7,60.3 117.3,60.3 	"/>
	<circle cx="86.9" cy="70.5" r="1.1"/>
	<circle cx="72.4" cy="70.5" r="1.1"/>
	<circle cx="101.4" cy="70.5" r="1.1"/>
	<path d="M115.3,51.9c-1.4,2.9-2.5,3.3-5.4,2c-1.3,3-2.3,3.4-5.3,2c0,2.3,0.1,4.4,0,6.6c-0.1,1.4-0.7,2.6-2.4,2.8
		c-1.6,0.2-2.8-0.4-3.2-2.1c-0.2-0.8-0.3-1.6-0.3-2.3c0-3.2,0-6.4,0-9.5c0-2.8,0.1-5.5,0-8.3c0-0.9-0.2-1.9-0.3-2.8
		c-0.2,0-0.4,0-0.6-0.1c-0.2,0.6-0.5,1.2-0.5,1.8c-0.1,1.2,0.1,2.4,0,3.7c-0.1,1.5-0.9,2.5-2.5,2.7c-1.6,0.2-3-0.5-3.1-2.1
		c-0.5-6.7-0.6-13.4,4.7-18.7c7.5-7.6,19.6-4.4,23.1,6.2c1.8,5.4,1.1,11,0.8,16.5C120.1,52.5,118,53.1,115.3,51.9z"/>
	<path d="M56.7,51.9c1.4,2.9,2.5,3.3,5.4,2c1.3,3,2.3,3.4,5.3,2c0,2.3-0.1,4.4,0,6.6c0.1,1.4,0.7,2.6,2.4,2.8
		c1.6,0.2,2.8-0.4,3.2-2.1c0.2-0.8,0.3-1.6,0.3-2.3c0-3.2,0-6.4,0-9.5c0-2.8-0.1-5.5,0-8.3c0-0.9,0.2-1.9,0.3-2.8
		c0.2,0,0.4,0,0.6-0.1c0.2,0.6,0.5,1.2,0.5,1.8c0.1,1.2-0.1,2.4,0,3.7c0.1,1.5,0.9,2.5,2.5,2.7c1.6,0.2,3-0.5,3.1-2.1
		c0.5-6.7,0.6-13.4-4.7-18.7c-7.5-7.6-19.6-4.4-23.1,6.2c-1.8,5.4-1.1,11-0.8,16.5C51.9,52.5,54,53.1,56.7,51.9z"/>
	<path d="M152.6,62.2c-1,2.5-2.6,4.4-4.9,5.7c-1.2,0.7-2.6,1.1-4,1.3c-0.4,0-0.7,0.1-1.1,0.1c0,1.2,0,2.4,0,3.7
		c-2.5-1.7-5-3.5-7.5-5.2c2.5-1.7,5-3.5,7.5-5.2c0,1.3,0,2.5,0,3.7c3.8,0,7.2-2.9,7.6-7c0.4-4.1-2.4-7.7-6.6-8.4
		c-0.4-0.1-0.8-0.1-1.2-0.1v-3c0.3,0,0.5,0,0.8,0c0.2,0,0.4,0.1,0.6,0.1c2.1,0.3,3.9,1.1,5.5,2.4c2.5,2.1,3.8,4.9,3.9,8.2
		C153.3,59.7,153.1,61,152.6,62.2z"/>
</g>
</svg>
