<?xml version="1.0" encoding="utf-8"?>
<!-- Generator: Adobe Illustrator 20.1.0, SVG Export Plug-In . SVG Version: 6.00 Build 0)  -->
<svg version="1.1" id="Layer_1" xmlns="http://www.w3.org/2000/svg" xmlns:xlink="http://www.w3.org/1999/xlink" x="0px" y="0px"
	 viewBox="0 0 170 178" style="enable-background:new 0 0 170 178;" xml:space="preserve">
<style type="text/css">
	.st0{fill:none;}
	.st1{fill:none;stroke:#000000;stroke-width:0.3;stroke-linecap:square;}
	.st2{fill:url(#SVGID_1_);stroke:#000000;stroke-width:2;stroke-linejoin:round;stroke-miterlimit:10;}
	.st3{fill:none;stroke:#000000;stroke-width:2;stroke-miterlimit:10;}
	.st4{stroke:#000000;stroke-width:2;stroke-linecap:round;stroke-linejoin:round;stroke-miterlimit:10;}
	.st5{fill:#D3D4D4;}
	.st6{fill:#D3D4D4;stroke:#000000;stroke-width:2;stroke-linejoin:round;stroke-miterlimit:10;}
	.st7{fill:url(#SVGID_2_);stroke:#000000;stroke-width:2;stroke-linejoin:round;stroke-miterlimit:10;}
	.st8{fill:url(#SVGID_3_);}
</style>
<pattern  width="72" height="72" patternUnits="userSpaceOnUse" id="USGS_22_Gravel_Beach" viewBox="0.4 -72 72 72" style="overflow:visible;">
	<g>
		<rect x="0.4" y="-72" class="st0" width="72" height="72"/>
		<g>
			<path d="M21.3-68.9c-0.1,0-0.2,0-0.2-0.1C21-69.1,21-69.2,21-69.2s0-0.2,0.1-0.2c0.1-0.1,0.4-0.1,0.5,0c0.1,0.1,0.1,0.2,0.1,0.2
				s0,0.2-0.1,0.2C21.5-68.9,21.4-68.9,21.3-68.9z"/>
			<path d="M20.3-63.7c-0.1,0-0.2,0-0.2-0.1C20-63.8,20-63.9,20-64c0-0.1,0-0.2,0.1-0.2c0.1-0.1,0.3-0.1,0.5,0
				c0.1,0.1,0.1,0.2,0.1,0.2c0,0.1,0,0.2-0.1,0.2C20.5-63.7,20.5-63.7,20.3-63.7z"/>
			<path d="M20.6-61.4c-0.1,0-0.2,0-0.2-0.1c-0.1-0.1-0.1-0.2-0.1-0.2s0-0.2,0.1-0.2c0.1-0.1,0.4-0.1,0.5,0c0.1,0.1,0.1,0.2,0.1,0.2
				s0,0.2-0.1,0.2C20.8-61.4,20.7-61.4,20.6-61.4z"/>
			<path d="M15.6-61.4c-0.1,0-0.2,0-0.2-0.1c-0.1-0.1-0.1-0.2-0.1-0.2c0-0.1,0-0.2,0.1-0.2c0.1-0.1,0.4-0.1,0.5,0
				c0.1,0.1,0.1,0.2,0.1,0.2s0,0.2-0.1,0.2C15.8-61.4,15.7-61.4,15.6-61.4z"/>
			<path d="M23.1-51.9c-0.1,0-0.2,0-0.2-0.1c-0.1-0.1-0.1-0.2-0.1-0.2s0-0.2,0.1-0.2c0.1-0.1,0.4-0.1,0.5,0c0.1,0.1,0.1,0.2,0.1,0.2
				s0,0.2-0.1,0.2C23.3-51.9,23.2-51.9,23.1-51.9z"/>
			<path d="M15.6-48.9c-0.1,0-0.2,0-0.2-0.1c-0.1-0.1-0.1-0.2-0.1-0.2c0-0.1,0-0.2,0.1-0.2c0.1-0.1,0.3-0.1,0.5,0
				c0.1,0.1,0.1,0.2,0.1,0.2c0,0.1,0,0.2-0.1,0.2C15.8-48.9,15.7-48.9,15.6-48.9z"/>
			<path d="M14.3-47.9c-0.1,0-0.2,0-0.2-0.1C14-48.1,14-48.2,14-48.2s0-0.2,0.1-0.2c0.1-0.1,0.4-0.1,0.5,0c0.1,0.1,0.1,0.2,0.1,0.2
				s0,0.2-0.1,0.2C14.5-47.9,14.5-47.9,14.3-47.9z"/>
			<path d="M24.3-44.9c-0.1,0-0.2,0-0.2-0.1C24-45.1,24-45.2,24-45.2c0-0.1,0-0.2,0.1-0.2c0.1-0.1,0.4-0.1,0.5,0
				c0.1,0.1,0.1,0.2,0.1,0.2s0,0.2-0.1,0.2C24.5-44.9,24.4-44.9,24.3-44.9z"/>
			<path d="M31.1-46.2c-0.1,0-0.2,0-0.2-0.1c-0.1-0.1-0.1-0.2-0.1-0.2s0-0.2,0.1-0.2c0.1-0.1,0.4-0.1,0.5,0c0.1,0.1,0.1,0.2,0.1,0.2
				s0,0.2-0.1,0.2C31.3-46.2,31.2-46.2,31.1-46.2z"/>
			<path d="M31.6-48.7c-0.1,0-0.2,0-0.2-0.1c-0.1-0.1-0.1-0.2-0.1-0.2c0-0.1,0-0.2,0.1-0.2c0.1-0.1,0.3-0.1,0.5,0
				c0.1,0.1,0.1,0.2,0.1,0.2c0,0.1,0,0.2-0.1,0.2C31.8-48.7,31.7-48.7,31.6-48.7z"/>
			<path d="M29.6-53.7c-0.1,0-0.2,0-0.2-0.1c-0.1-0.1-0.1-0.2-0.1-0.2s0-0.2,0.1-0.2c0.1-0.1,0.4-0.1,0.5,0c0.1,0.1,0.1,0.2,0.1,0.2
				s0,0.2-0.1,0.2C29.8-53.7,29.7-53.7,29.6-53.7z"/>
			<path d="M34.3-52.2c-0.1,0-0.2,0-0.2-0.1C34-52.3,34-52.4,34-52.5s0-0.2,0.1-0.2c0.1-0.1,0.4-0.1,0.5,0c0.1,0.1,0.1,0.2,0.1,0.2
				s0,0.2-0.1,0.2C34.5-52.2,34.4-52.2,34.3-52.2z"/>
			<path d="M31.8-57.2c-0.1,0-0.2,0-0.2-0.1c-0.1-0.1-0.1-0.2-0.1-0.2s0-0.2,0.1-0.2c0.1-0.1,0.4-0.1,0.5,0c0.1,0.1,0.1,0.2,0.1,0.2
				s0,0.2-0.1,0.2C32-57.2,31.9-57.2,31.8-57.2z"/>
			<path d="M32.1-60.2c-0.1,0-0.2,0-0.3-0.1c-0.1-0.1-0.1-0.2-0.1-0.2s0-0.2,0.1-0.2c0.1-0.1,0.4-0.1,0.5,0c0.1,0.1,0.1,0.2,0.1,0.2
				s0,0.2-0.1,0.2C32.3-60.2,32.2-60.2,32.1-60.2z"/>
			<path d="M32.6-64.9c-0.1,0-0.2,0-0.2-0.1c-0.1-0.1-0.1-0.2-0.1-0.2s0-0.2,0.1-0.2c0.1-0.1,0.4-0.1,0.5,0c0.1,0.1,0.1,0.2,0.1,0.2
				s0,0.2-0.1,0.2C32.8-64.9,32.7-64.9,32.6-64.9z"/>
			<path d="M32.3-68.9c-0.1,0-0.2,0-0.2-0.1C32-69.1,32-69.2,32-69.2c0-0.1,0-0.2,0.1-0.2c0.1-0.1,0.3-0.1,0.5,0
				c0.1,0.1,0.1,0.2,0.1,0.2c0,0.1,0,0.2-0.1,0.2C32.5-68.9,32.4-68.9,32.3-68.9z"/>
			<path d="M34.3-70.7c-0.1,0-0.2,0-0.2-0.1C34-70.8,34-70.9,34-71c0-0.1,0-0.2,0.1-0.2c0.1-0.1,0.4-0.1,0.5,0
				c0.1,0.1,0.1,0.2,0.1,0.2c0,0.1,0,0.2-0.1,0.2C34.5-70.7,34.4-70.7,34.3-70.7z"/>
			<path d="M41.8-64.9c-0.1,0-0.2,0-0.2-0.1c-0.1-0.1-0.1-0.2-0.1-0.2s0-0.2,0.1-0.2c0.2-0.1,0.4-0.1,0.5,0c0.1,0.1,0.1,0.2,0.1,0.2
				s0,0.2-0.1,0.2C42-64.9,41.9-64.9,41.8-64.9z"/>
			<path d="M45.8-65.2c-0.1,0-0.2,0-0.2-0.1c-0.1-0.1-0.1-0.2-0.1-0.2s0-0.2,0.1-0.2c0.1-0.1,0.4-0.1,0.5,0c0.1,0.1,0.1,0.2,0.1,0.2
				s0,0.2-0.1,0.2C46-65.2,45.9-65.2,45.8-65.2z"/>
			<path d="M42.8-58.4c-0.1,0-0.2,0-0.2-0.1c-0.1-0.1-0.1-0.2-0.1-0.2c0-0.1,0-0.2,0.1-0.2c0.1-0.1,0.3-0.1,0.5,0
				c0.1,0.1,0.1,0.2,0.1,0.2c0,0.1,0,0.2-0.1,0.2C43-58.4,42.9-58.4,42.8-58.4z"/>
			<path d="M47.3-57.7c-0.1,0-0.2,0-0.2-0.1C47-57.8,47-57.9,47-58c0-0.1,0-0.2,0.1-0.2c0.1-0.1,0.3-0.1,0.5,0
				c0.1,0.1,0.1,0.2,0.1,0.2s0,0.2-0.1,0.2C47.5-57.7,47.4-57.7,47.3-57.7z"/>
			<path d="M47.3-55.7c-0.1,0-0.2,0-0.2-0.1C47-55.8,47-55.9,47-56c0-0.1,0-0.2,0.1-0.2c0.1-0.1,0.4-0.1,0.5,0
				c0.1,0.1,0.1,0.2,0.1,0.2s0,0.2-0.1,0.2C47.5-55.7,47.4-55.7,47.3-55.7z"/>
			<path d="M39.3-51.2c-0.1,0-0.2,0-0.2-0.1C39-51.3,39-51.4,39-51.5s0-0.2,0.1-0.2c0.1-0.1,0.4-0.1,0.5,0c0.1,0.1,0.1,0.2,0.1,0.2
				s0,0.2-0.1,0.2C39.5-51.2,39.4-51.2,39.3-51.2z"/>
			<path d="M50.6-58.4c-0.1,0-0.2,0-0.2-0.1c-0.1-0.1-0.1-0.2-0.1-0.2s0-0.2,0.1-0.2c0.1-0.1,0.4-0.1,0.5,0c0.1,0.1,0.1,0.2,0.1,0.2
				s0,0.2-0.1,0.2C50.8-58.4,50.7-58.4,50.6-58.4z"/>
			<path d="M52.6-59.9c-0.1,0-0.2,0-0.2-0.1c-0.1-0.1-0.1-0.2-0.1-0.2c0-0.1,0-0.2,0.1-0.2c0.1-0.1,0.3-0.1,0.5,0
				c0.1,0.1,0.1,0.2,0.1,0.2c0,0.1,0,0.2-0.1,0.2C52.8-59.9,52.7-59.9,52.6-59.9z"/>
			<path d="M55.1-60.9c-0.1,0-0.2,0-0.2-0.1c-0.1-0.1-0.1-0.2-0.1-0.2c0-0.1,0-0.2,0.1-0.2c0.1-0.1,0.3-0.1,0.5,0
				c0.1,0.1,0.1,0.2,0.1,0.2c0,0.1,0,0.2-0.1,0.2C55.3-60.9,55.2-60.9,55.1-60.9z"/>
			<path d="M56.8-71.2c-0.1,0-0.2,0-0.2-0.1c-0.1-0.1-0.1-0.2-0.1-0.2s0-0.2,0.1-0.2c0.1-0.1,0.4-0.1,0.5,0c0.1,0.1,0.1,0.2,0.1,0.2
				s0,0.2-0.1,0.2C57-71.2,56.9-71.2,56.8-71.2z"/>
			<path d="M68.3-68.9c-0.1,0-0.2,0-0.2-0.1C68-69.1,68-69.2,68-69.2c0-0.1,0-0.2,0.1-0.2c0.1-0.1,0.3-0.1,0.5,0
				c0.1,0.1,0.1,0.2,0.1,0.2c0,0.1,0,0.2-0.1,0.2C68.5-68.9,68.5-68.9,68.3-68.9z"/>
			<path d="M68.3-61.7c-0.1,0-0.2,0-0.2-0.1C68-61.8,68-61.9,68-62s0-0.2,0.1-0.2c0.1-0.1,0.4-0.1,0.5,0c0.1,0.1,0.1,0.2,0.1,0.2
				c0,0.1,0,0.2-0.1,0.2C68.5-61.7,68.4-61.7,68.3-61.7z"/>
			<path d="M64.6-59.7c-0.1,0-0.2,0-0.2-0.1c-0.1-0.1-0.1-0.2-0.1-0.2s0-0.2,0.1-0.2c0.1-0.1,0.4-0.1,0.5,0c0.1,0.1,0.1,0.2,0.1,0.2
				s0,0.2-0.1,0.2C64.8-59.7,64.7-59.7,64.6-59.7z"/>
			<path d="M65.6-56.2c-0.1,0-0.2,0-0.2-0.1c-0.1-0.1-0.1-0.2-0.1-0.2c0-0.1,0-0.2,0.1-0.2c0.1-0.1,0.4-0.1,0.5,0
				c0.1,0.1,0.1,0.2,0.1,0.2s0,0.2-0.1,0.2C65.8-56.2,65.7-56.2,65.6-56.2z"/>
			<path d="M64.3-52.2c-0.1,0-0.2,0-0.2-0.1C64-52.3,64-52.4,64-52.5s0-0.2,0.1-0.2c0.1-0.1,0.4-0.1,0.5,0c0.1,0.1,0.1,0.2,0.1,0.2
				c0,0.1,0,0.2-0.1,0.2C64.5-52.2,64.4-52.2,64.3-52.2z"/>
			<path d="M66.6-52.2c-0.1,0-0.2,0-0.2-0.1c-0.1-0.1-0.1-0.2-0.1-0.2c0-0.1,0-0.2,0.1-0.2c0.1-0.1,0.3-0.1,0.5,0
				c0.1,0.1,0.1,0.2,0.1,0.2c0,0.1,0,0.2-0.1,0.2C66.8-52.2,66.7-52.2,66.6-52.2z"/>
			<path d="M68.3-50.7c-0.1,0-0.2,0-0.2-0.1C68-50.8,68-50.9,68-51s0-0.2,0.1-0.2c0.1-0.1,0.4-0.1,0.5,0c0.1,0.1,0.1,0.2,0.1,0.2
				s0,0.2-0.1,0.2C68.5-50.7,68.4-50.7,68.3-50.7z"/>
			<path d="M7.3-19.7c-0.1,0-0.2,0-0.2-0.1C7-19.8,7-19.9,7-20s0-0.2,0.1-0.2c0.1-0.1,0.4-0.1,0.5,0c0.1,0.1,0.1,0.2,0.1,0.2
				s0,0.2-0.1,0.2C7.5-19.7,7.4-19.7,7.3-19.7z"/>
			<path d="M7.6-17.4c-0.1,0-0.2,0-0.2-0.1c-0.1-0.1-0.1-0.2-0.1-0.2s0-0.2,0.1-0.2c0.1-0.1,0.4-0.1,0.5,0C7.9-17.9,8-17.8,8-17.8
				s0,0.2-0.1,0.2C7.8-17.4,7.7-17.4,7.6-17.4z"/>
			<path d="M2.6-17.4c-0.1,0-0.2,0-0.2-0.1c-0.1-0.1-0.1-0.2-0.1-0.2s0-0.2,0.1-0.2c0.1-0.1,0.4-0.1,0.5,0C2.9-17.9,3-17.8,3-17.8
				s0,0.2-0.1,0.2C2.8-17.4,2.7-17.4,2.6-17.4z"/>
			<path d="M10.1-7.9c-0.1,0-0.2,0-0.2-0.1C9.8-8.1,9.8-8.2,9.8-8.2s0-0.2,0.1-0.2c0.1-0.1,0.4-0.1,0.5,0c0.1,0.1,0.1,0.2,0.1,0.2
				s0,0.2-0.1,0.2C10.3-7.9,10.2-7.9,10.1-7.9z"/>
			<path d="M1.3-3.9c-0.1,0-0.2,0-0.2-0.1C1-4.1,1-4.2,1-4.2s0-0.2,0.1-0.2c0.1-0.1,0.4-0.1,0.5,0c0.1,0.1,0.1,0.2,0.1,0.2
				s0,0.2-0.1,0.2C1.5-3.9,1.4-3.9,1.3-3.9z"/>
			<path d="M11.3-0.9c-0.1,0-0.2,0-0.2-0.1C11-1.1,11-1.2,11-1.2s0-0.2,0.1-0.2c0.1-0.1,0.4-0.1,0.5,0c0.1,0.1,0.1,0.2,0.1,0.2
				s0,0.2-0.1,0.2C11.5-0.9,11.4-0.9,11.3-0.9z"/>
			<path d="M18.6-4.7c-0.1,0-0.2,0-0.2-0.1c-0.1-0.1-0.1-0.2-0.1-0.2s0-0.2,0.1-0.2c0.1-0.1,0.4-0.1,0.5,0C18.9-5.2,19-5.1,19-5
				s0,0.2-0.1,0.2C18.8-4.7,18.7-4.7,18.6-4.7z"/>
			<path d="M16.6-9.7c-0.1,0-0.2,0-0.2-0.1c-0.1-0.1-0.1-0.2-0.1-0.2c0-0.1,0-0.2,0.1-0.2c0.1-0.1,0.4-0.1,0.5,0
				c0.1,0.1,0.1,0.2,0.1,0.2c0,0.1,0,0.2-0.1,0.2C16.8-9.7,16.7-9.7,16.6-9.7z"/>
			<path d="M19.8-14.2c-0.1,0-0.2,0-0.2-0.1c-0.1-0.1-0.1-0.2-0.1-0.2c0-0.1,0-0.2,0.1-0.2c0.1-0.1,0.4-0.1,0.5,0
				c0.1,0.1,0.1,0.2,0.1,0.2c0,0.1,0,0.2-0.1,0.2C20-14.2,19.9-14.2,19.8-14.2z"/>
			<path d="M19.1-16.2c-0.1,0-0.2,0-0.2-0.1c-0.1-0.1-0.1-0.2-0.1-0.2c0-0.1,0-0.2,0.1-0.2c0.1-0.1,0.3-0.1,0.5,0
				c0.1,0.1,0.1,0.2,0.1,0.2c0,0.1,0,0.2-0.1,0.2C19.3-16.2,19.2-16.2,19.1-16.2z"/>
			<path d="M16.6-17.2c-0.1,0-0.2,0-0.2-0.1c-0.1-0.1-0.1-0.2-0.1-0.2c0-0.1,0-0.2,0.1-0.2c0.1-0.1,0.3-0.1,0.5,0
				c0.1,0.1,0.1,0.2,0.1,0.2c0,0.1,0,0.2-0.1,0.2C16.8-17.2,16.7-17.2,16.6-17.2z"/>
			<path d="M19.6-20.9c-0.1,0-0.2,0-0.2-0.1c-0.1-0.1-0.1-0.2-0.1-0.2c0-0.1,0-0.2,0.1-0.2c0.1-0.1,0.4-0.1,0.5,0
				c0.1,0.1,0.1,0.2,0.1,0.2c0,0.1,0,0.2-0.1,0.2C19.8-20.9,19.7-20.9,19.6-20.9z"/>
			<path d="M19.3-24.9c-0.1,0-0.2,0-0.2-0.1C19-25.1,19-25.2,19-25.2s0-0.2,0.1-0.2c0.1-0.1,0.4-0.1,0.5,0c0.1,0.1,0.1,0.2,0.1,0.2
				s0,0.2-0.1,0.2C19.5-24.9,19.4-24.9,19.3-24.9z"/>
			<path d="M16.6-24.7c-0.1,0-0.2,0-0.2-0.1c-0.1-0.1-0.1-0.2-0.1-0.2s0-0.2,0.1-0.2c0.1-0.1,0.4-0.1,0.5,0c0.1,0.1,0.1,0.2,0.1,0.2
				s0,0.2-0.1,0.2C16.8-24.7,16.7-24.7,16.6-24.7z"/>
			<path d="M32.8-21.2c-0.1,0-0.2,0-0.2-0.1c-0.1-0.1-0.1-0.2-0.1-0.2c0-0.1,0-0.2,0.1-0.2c0.1-0.1,0.3-0.1,0.5,0
				c0.1,0.1,0.1,0.2,0.1,0.2c0,0.1,0,0.2-0.1,0.2C33-21.2,32.9-21.2,32.8-21.2z"/>
			<path d="M27.6-17.7c-0.1,0-0.2,0-0.2-0.1c-0.1-0.1-0.1-0.2-0.1-0.2s0-0.2,0.1-0.2c0.1-0.1,0.4-0.1,0.5,0c0.1,0.1,0.1,0.2,0.1,0.2
				s0,0.2-0.1,0.2C27.8-17.7,27.7-17.7,27.6-17.7z"/>
			<path d="M32.3-16.2c-0.1,0-0.2,0-0.2-0.1C32-16.3,32-16.4,32-16.5s0-0.2,0.1-0.2c0.1-0.1,0.4-0.1,0.5,0c0.1,0.1,0.1,0.2,0.1,0.2
				s0,0.2-0.1,0.2C32.5-16.2,32.4-16.2,32.3-16.2z"/>
			<path d="M32.3-14.4c-0.1,0-0.2,0-0.2-0.1C32-14.6,32-14.7,32-14.8c0-0.1,0-0.2,0.1-0.2c0.1-0.1,0.4-0.1,0.5,0
				c0.1,0.1,0.1,0.2,0.1,0.2c0,0.1,0,0.2-0.1,0.2C32.5-14.4,32.4-14.4,32.3-14.4z"/>
			<path d="M34.3-13.7c-0.1,0-0.2,0-0.2-0.1C34-13.8,34-13.9,34-14s0-0.2,0.1-0.2c0.1-0.1,0.4-0.1,0.5,0c0.1,0.1,0.1,0.2,0.1,0.2
				s0,0.2-0.1,0.2C34.5-13.7,34.4-13.7,34.3-13.7z"/>
			<path d="M26.3-7.2c-0.1,0-0.2,0-0.2-0.1C26-7.3,26-7.4,26-7.5s0-0.2,0.1-0.2c0.1-0.1,0.4-0.1,0.5,0c0.1,0.1,0.1,0.2,0.1,0.2
				s0,0.2-0.1,0.2C26.5-7.2,26.4-7.2,26.3-7.2z"/>
			<path d="M36.3-15.7c-0.1,0-0.2,0-0.2-0.1C36-15.8,36-15.9,36-16s0-0.2,0.1-0.2c0.2-0.1,0.4-0.1,0.5,0c0.1,0.1,0.1,0.2,0.1,0.2
				s0,0.2-0.1,0.2C36.5-15.7,36.4-15.7,36.3-15.7z"/>
			<path d="M39.6-15.9c-0.1,0-0.2,0-0.2-0.1c-0.1-0.1-0.1-0.2-0.1-0.2s0-0.2,0.1-0.2c0.1-0.1,0.4-0.1,0.5,0c0.1,0.1,0.1,0.2,0.1,0.2
				s0,0.2-0.1,0.2C39.8-15.9,39.7-15.9,39.6-15.9z"/>
			<path d="M42.1-21.2c-0.1,0-0.2,0-0.2-0.1c-0.1-0.1-0.1-0.2-0.1-0.2s0-0.2,0.1-0.2c0.1-0.1,0.4-0.1,0.5,0c0.1,0.1,0.1,0.2,0.1,0.2
				s0,0.2-0.1,0.2C42.3-21.2,42.2-21.2,42.1-21.2z"/>
			<path d="M43.8-27.2c-0.1,0-0.2,0-0.2-0.1c-0.1-0.1-0.1-0.2-0.1-0.2s0-0.2,0.1-0.2c0.1-0.1,0.4-0.1,0.5,0c0.1,0.1,0.1,0.2,0.1,0.2
				s0,0.2-0.1,0.2C44-27.2,43.9-27.2,43.8-27.2z"/>
			<path d="M51.3-21.4c-0.1,0-0.2,0-0.2-0.1C51-21.6,51-21.7,51-21.8s0-0.2,0.1-0.2c0.1-0.1,0.4-0.1,0.5,0c0.1,0.1,0.1,0.2,0.1,0.2
				s0,0.2-0.1,0.2C51.5-21.4,51.4-21.4,51.3-21.4z"/>
			<path d="M52.3-25.4c-0.1,0-0.2,0-0.2-0.1C52-25.6,52-25.7,52-25.8c0-0.1,0-0.2,0.1-0.2c0.1-0.1,0.3-0.1,0.5,0
				c0.1,0.1,0.1,0.2,0.1,0.2c0,0.1,0,0.2-0.1,0.2C52.5-25.4,52.4-25.4,52.3-25.4z"/>
			<path d="M55.3-24.9c-0.1,0-0.2,0-0.2-0.1C55-25.1,55-25.2,55-25.2s0-0.2,0.1-0.2c0.1-0.1,0.4-0.1,0.5,0c0.1,0.1,0.1,0.2,0.1,0.2
				c0,0.1,0,0.2-0.1,0.2C55.5-24.9,55.4-24.9,55.3-24.9z"/>
			<path d="M55.3-17.7c-0.1,0-0.2,0-0.2-0.1C55-17.8,55-17.9,55-18c0-0.1,0-0.2,0.1-0.2c0.1-0.1,0.3-0.1,0.5,0
				c0.1,0.1,0.1,0.2,0.1,0.2c0,0.1,0,0.2-0.1,0.2C55.5-17.7,55.4-17.7,55.3-17.7z"/>
			<path d="M51.6-15.7c-0.1,0-0.2,0-0.2-0.1c-0.1-0.1-0.1-0.2-0.1-0.2s0-0.2,0.1-0.2c0.1-0.1,0.4-0.1,0.5,0c0.1,0.1,0.1,0.2,0.1,0.2
				s0,0.2-0.1,0.2C51.8-15.7,51.7-15.7,51.6-15.7z"/>
			<path d="M51.3-8.2c-0.1,0-0.2,0-0.2-0.1C51-8.3,51-8.4,51-8.5s0-0.2,0.1-0.2c0.2-0.2,0.4-0.1,0.5,0c0.1,0.1,0.1,0.2,0.1,0.2
				s0,0.2-0.1,0.2C51.5-8.2,51.5-8.2,51.3-8.2z"/>
			<path d="M53.6-8.2c-0.1,0-0.2,0-0.2-0.1c-0.1-0.1-0.1-0.2-0.1-0.2c0-0.1,0-0.2,0.1-0.2c0.1-0.1,0.4-0.1,0.5,0
				C53.9-8.7,54-8.6,54-8.5c0,0.1,0,0.2-0.1,0.2C53.8-8.2,53.7-8.2,53.6-8.2z"/>
			<path d="M56.3-8.9c-0.1,0-0.2,0-0.2-0.1C56-9.1,56-9.2,56-9.2s0-0.2,0.1-0.2c0.1-0.1,0.4-0.1,0.5,0c0.1,0.1,0.1,0.2,0.1,0.2
				s0,0.2-0.1,0.2C56.5-8.9,56.4-8.9,56.3-8.9z"/>
			<path d="M58.6-10.4c-0.1,0-0.2,0-0.2-0.1c-0.1-0.1-0.1-0.2-0.1-0.2s0-0.2,0.1-0.2c0.1-0.1,0.4-0.1,0.5,0c0.1,0.1,0.1,0.2,0.1,0.2
				c0,0.1,0,0.2-0.1,0.2C58.8-10.4,58.7-10.4,58.6-10.4z"/>
			<path d="M21.3-44.9c-0.1,0-0.2,0-0.2-0.1C21-45.1,21-45.2,21-45.2s0-0.2,0.1-0.2c0.1-0.1,0.4-0.1,0.5,0c0.1,0.1,0.1,0.2,0.1,0.2
				s0,0.2-0.1,0.2C21.5-44.9,21.4-44.9,21.3-44.9z"/>
			<path d="M23.1-47.9c-0.1,0-0.2,0-0.2-0.1c-0.1-0.1-0.1-0.2-0.1-0.2s0-0.2,0.1-0.2c0.1-0.1,0.4-0.1,0.5,0c0.1,0.1,0.1,0.2,0.1,0.2
				s0,0.2-0.1,0.2C23.3-47.9,23.2-47.9,23.1-47.9z"/>
			<path d="M39.3-47.2c-0.1,0-0.2,0-0.2-0.1C39-47.3,39-47.4,39-47.5s0-0.2,0.1-0.2c0.1-0.1,0.4-0.1,0.5,0c0.1,0.1,0.1,0.2,0.1,0.2
				s0,0.2-0.1,0.2C39.5-47.2,39.4-47.2,39.3-47.2z"/>
			<path d="M46.6-42.9c-0.1,0-0.2,0-0.2-0.1c-0.1-0.1-0.1-0.2-0.1-0.2s0-0.2,0.1-0.2c0.2-0.2,0.4-0.1,0.5,0c0.1,0.1,0.1,0.2,0.1,0.2
				s0,0.2-0.1,0.2C46.8-42.9,46.7-42.9,46.6-42.9z"/>
			<path d="M55.6-43.9c-0.1,0-0.2,0-0.2-0.1c-0.1-0.1-0.1-0.2-0.1-0.2s0-0.2,0.1-0.2c0.1-0.1,0.4-0.1,0.5,0c0.1,0.1,0.1,0.2,0.1,0.2
				s0,0.2-0.1,0.2C55.8-43.9,55.7-43.9,55.6-43.9z"/>
			<path d="M51.6-46.7c-0.1,0-0.2,0-0.2-0.1c-0.1-0.1-0.1-0.2-0.1-0.2s0-0.2,0.1-0.2c0.1-0.1,0.4-0.1,0.5,0c0.1,0.1,0.1,0.2,0.1,0.2
				s0,0.2-0.1,0.2C51.8-46.7,51.7-46.7,51.6-46.7z"/>
			<path d="M52.3-42.4c-0.1,0-0.2,0-0.2-0.1C52-42.6,52-42.7,52-42.8s0-0.2,0.1-0.2c0.1-0.1,0.4-0.1,0.5,0c0.1,0.1,0.1,0.2,0.1,0.2
				s0,0.2-0.1,0.2C52.5-42.4,52.4-42.4,52.3-42.4z"/>
			<path d="M62.8-36.4c-0.1,0-0.2,0-0.2-0.1c-0.1-0.1-0.1-0.2-0.1-0.2c0-0.1,0-0.2,0.1-0.2c0.1-0.1,0.4-0.1,0.5,0
				c0.1,0.1,0.1,0.1,0.1,0.2c0,0.1,0,0.2-0.1,0.2C63-36.4,62.9-36.4,62.8-36.4z"/>
			<path d="M57.1-32.9c-0.1,0-0.2,0-0.2-0.1c-0.1-0.1-0.1-0.2-0.1-0.2s0-0.2,0.1-0.2c0.1-0.1,0.4-0.1,0.5,0c0.1,0.1,0.1,0.2,0.1,0.2
				s0,0.2-0.1,0.2C57.3-32.9,57.2-32.9,57.1-32.9z"/>
			<path d="M48.6-34.7c-0.1,0-0.2,0-0.2-0.1c-0.1-0.1-0.1-0.2-0.1-0.2s0-0.2,0.1-0.2c0.1-0.1,0.4-0.1,0.5,0c0.1,0.1,0.1,0.1,0.1,0.2
				c0,0.1,0,0.2-0.1,0.2C48.8-34.7,48.7-34.7,48.6-34.7z"/>
			<path d="M48.3-30.7c-0.1,0-0.2,0-0.2-0.1C48-30.8,48-30.9,48-31s0-0.2,0.1-0.2c0.1-0.1,0.4-0.1,0.5,0c0.1,0.1,0.1,0.2,0.1,0.2
				s0,0.2-0.1,0.2C48.5-30.7,48.4-30.7,48.3-30.7z"/>
			<path d="M53.8-26.9c-0.1,0-0.2,0-0.2-0.1c-0.1-0.1-0.1-0.1-0.1-0.2s0-0.2,0.1-0.2c0.1-0.1,0.3-0.1,0.5,0c0.1,0.1,0.1,0.2,0.1,0.2
				s0,0.2-0.1,0.2C54-26.9,53.9-26.9,53.8-26.9z"/>
			<path d="M62.6-23.9c-0.1,0-0.2,0-0.2-0.1c-0.1-0.1-0.1-0.2-0.1-0.2c0-0.1,0-0.2,0.1-0.2c0.1-0.1,0.4-0.1,0.5,0
				c0.1,0.1,0.1,0.1,0.1,0.2c0,0.1,0,0.2-0.1,0.2C62.8-23.9,62.7-23.9,62.6-23.9z"/>
			<path d="M65.3-20.2c-0.1,0-0.2,0-0.2-0.1C65-20.3,65-20.4,65-20.5c0-0.1,0-0.2,0.1-0.2c0.1-0.1,0.3-0.1,0.5,0
				c0.1,0.1,0.1,0.2,0.1,0.2c0,0.1,0,0.2-0.1,0.2C65.5-20.2,65.4-20.2,65.3-20.2z"/>
			<path d="M69.8-26.9c-0.1,0-0.2,0-0.2-0.1c-0.1-0.1-0.1-0.2-0.1-0.2s0-0.2,0.1-0.2c0.1-0.1,0.4-0.1,0.5,0c0.1,0.1,0.1,0.2,0.1,0.2
				s0,0.2-0.1,0.2C70-26.9,69.9-26.9,69.8-26.9z"/>
			<path d="M60.3-32.9c-0.1,0-0.2,0-0.2-0.1C60-33.1,60-33.2,60-33.2s0-0.2,0.1-0.2c0.1-0.1,0.3-0.1,0.5,0c0.1,0.1,0.1,0.2,0.1,0.2
				s0,0.2-0.1,0.2C60.5-32.9,60.5-32.9,60.3-32.9z"/>
			<path d="M32.8-24.9c-0.1,0-0.2,0-0.2-0.1c-0.1-0.1-0.1-0.2-0.1-0.2s0-0.2,0.1-0.2c0.1-0.1,0.4-0.1,0.5,0c0.1,0.1,0.1,0.2,0.1,0.2
				s0,0.2-0.1,0.2C33-24.9,32.9-24.9,32.8-24.9z"/>
			<path d="M26.6-34.2c-0.1,0-0.2,0-0.2-0.1c-0.1-0.1-0.1-0.2-0.1-0.2s0-0.2,0.1-0.2c0.1-0.1,0.4-0.1,0.5,0c0.1,0.1,0.1,0.2,0.1,0.2
				s0,0.2-0.1,0.2C26.8-34.2,26.7-34.2,26.6-34.2z"/>
			<path d="M30.1-36.4c-0.1,0-0.2,0-0.2-0.1c-0.1-0.1-0.1-0.2-0.1-0.2c0-0.1,0-0.2,0.1-0.2c0.1-0.1,0.4-0.1,0.5,0
				c0.1,0.1,0.1,0.2,0.1,0.2c0,0.1,0,0.2-0.1,0.2C30.3-36.4,30.2-36.4,30.1-36.4z"/>
			<path d="M10.8-42.4c-0.1,0-0.2,0-0.2-0.1c-0.1-0.1-0.1-0.2-0.1-0.2s0-0.2,0.1-0.2c0.1-0.1,0.4-0.1,0.5,0c0.1,0.1,0.1,0.2,0.1,0.2
				c0,0.1,0,0.2-0.1,0.2C11-42.4,10.9-42.4,10.8-42.4z"/>
			<path d="M6.3-40.4c-0.1,0-0.2,0-0.2-0.1C6-40.6,6-40.7,6-40.8s0-0.2,0.1-0.2c0.1-0.1,0.4-0.1,0.5,0c0.1,0.1,0.1,0.2,0.1,0.2
				s0,0.2-0.1,0.2C6.5-40.4,6.4-40.4,6.3-40.4z"/>
			<path d="M2.8-36.7c-0.1,0-0.2,0-0.2-0.1c-0.1-0.1-0.1-0.2-0.1-0.2s0-0.2,0.1-0.2c0.1-0.1,0.4-0.1,0.5,0c0.1,0.1,0.1,0.2,0.1,0.2
				s0,0.2-0.1,0.2C3-36.7,2.9-36.7,2.8-36.7z"/>
			<path d="M17.3-29.9c-0.1,0-0.2,0-0.2-0.1C17-30.1,17-30.2,17-30.2c0-0.1,0-0.2,0.1-0.2c0.1-0.1,0.4-0.1,0.5,0
				c0.1,0.1,0.1,0.2,0.1,0.2c0,0.1,0,0.2-0.1,0.2C17.5-29.9,17.5-29.9,17.3-29.9z"/>
			<path d="M13.1-35.9c-0.1,0-0.2,0-0.2-0.1c-0.1-0.1-0.1-0.2-0.1-0.2c0-0.1,0-0.2,0.1-0.2c0.1-0.1,0.3-0.1,0.5,0
				c0.1,0.1,0.1,0.2,0.1,0.2c0,0.1,0,0.2-0.1,0.2C13.3-35.9,13.2-35.9,13.1-35.9z"/>
			<path d="M26.8-41.7c-0.1,0-0.2,0-0.2-0.1c-0.1-0.1-0.1-0.2-0.1-0.2s0-0.2,0.1-0.2c0.1-0.1,0.4-0.1,0.5,0c0.1,0.1,0.1,0.2,0.1,0.2
				s0,0.2-0.1,0.2C27-41.7,26.9-41.7,26.8-41.7z"/>
			<path d="M39.6-41.2c-0.1,0-0.2,0-0.2-0.1c-0.1-0.1-0.1-0.2-0.1-0.2s0-0.2,0.1-0.2c0.1-0.1,0.4-0.1,0.5,0c0.1,0.1,0.1,0.2,0.1,0.2
				s0,0.2-0.1,0.2C39.8-41.2,39.7-41.2,39.6-41.2z"/>
			<path d="M38.6-39.2c-0.1,0-0.2,0-0.2-0.1c-0.1-0.1-0.1-0.2-0.1-0.2s0-0.2,0.1-0.2c0.1-0.1,0.4-0.1,0.5,0c0.1,0.1,0.1,0.2,0.1,0.2
				s0,0.2-0.1,0.2C38.8-39.2,38.7-39.2,38.6-39.2z"/>
			<path d="M28.3-29.9c-0.1,0-0.2,0-0.2-0.1C28-30.1,28-30.2,28-30.2s0-0.2,0.1-0.2c0.1-0.1,0.4-0.1,0.5,0c0.1,0.1,0.1,0.2,0.1,0.2
				s0,0.2-0.1,0.2C28.5-29.9,28.4-29.9,28.3-29.9z"/>
			<path d="M6.8-51.4c-0.1,0-0.2,0-0.2-0.1c-0.1-0.1-0.1-0.2-0.1-0.2s0-0.2,0.1-0.2c0.1-0.1,0.4-0.1,0.5,0c0.1,0.1,0.1,0.2,0.1,0.2
				s0,0.2-0.1,0.2C7-51.4,6.9-51.4,6.8-51.4z"/>
			<path d="M10.1-53.2c-0.1,0-0.2,0-0.2-0.1c-0.1-0.1-0.1-0.2-0.1-0.2s0-0.2,0.1-0.2c0.1-0.1,0.4-0.1,0.5,0c0.1,0.1,0.1,0.2,0.1,0.2
				s0,0.2-0.1,0.2C10.3-53.2,10.2-53.2,10.1-53.2z"/>
			<path d="M12.1-48.4c-0.1,0-0.2,0-0.2-0.1c-0.1-0.1-0.1-0.2-0.1-0.2c0-0.1,0-0.2,0.1-0.2c0.1-0.1,0.3-0.1,0.5,0
				c0.1,0.1,0.1,0.2,0.1,0.2c0,0.1,0,0.2-0.1,0.2C12.3-48.4,12.2-48.4,12.1-48.4z"/>
			<path d="M3.3-46.2c-0.1,0-0.2,0-0.2-0.1C3-46.3,3-46.4,3-46.5s0-0.2,0.1-0.2c0.1-0.1,0.4-0.1,0.5,0c0.1,0.1,0.1,0.2,0.1,0.2
				s0,0.2-0.1,0.2C3.5-46.2,3.4-46.2,3.3-46.2z"/>
			<path d="M64.6-42.4c-0.1,0-0.2,0-0.2-0.1c-0.1-0.1-0.1-0.2-0.1-0.2s0-0.2,0.1-0.2c0.1-0.1,0.4-0.1,0.5,0c0.1,0.1,0.1,0.2,0.1,0.2
				s0,0.2-0.1,0.2C64.8-42.4,64.7-42.4,64.6-42.4z"/>
			<path d="M69.8-42.2c-0.1,0-0.2,0-0.2-0.1c-0.1-0.1-0.1-0.2-0.1-0.2s0-0.2,0.1-0.2c0.1-0.1,0.3-0.1,0.5,0c0.1,0.1,0.1,0.2,0.1,0.2
				c0,0.1,0,0.2-0.1,0.2C70-42.2,70-42.2,69.8-42.2z"/>
			<path d="M1.8-62.9c-0.1,0-0.2,0-0.2-0.1c-0.1-0.1-0.1-0.2-0.1-0.2s0-0.2,0.1-0.2c0.1-0.1,0.4-0.1,0.5,0c0.1,0.1,0.1,0.2,0.1,0.2
				s0,0.2-0.1,0.2C2-62.9,1.9-62.9,1.8-62.9z"/>
			<path d="M16.8-65.9c-0.1,0-0.2,0-0.2-0.1c-0.1-0.1-0.1-0.2-0.1-0.2c0-0.1,0-0.2,0.1-0.2c0.1-0.1,0.4-0.1,0.5,0
				c0.1,0.1,0.1,0.2,0.1,0.2s0,0.2-0.1,0.2C17-65.9,16.9-65.9,16.8-65.9z"/>
			<path d="M4.1-65.9c-0.1,0-0.2,0-0.2-0.1c-0.1-0.1-0.1-0.2-0.1-0.2s0-0.2,0.1-0.2c0.1-0.1,0.4-0.1,0.5,0c0.1,0.1,0.1,0.2,0.1,0.2
				s0,0.2-0.1,0.2C4.3-65.9,4.2-65.9,4.1-65.9z"/>
			<path d="M13.1-57.7c-0.1,0-0.2,0-0.2-0.1c-0.1-0.1-0.1-0.2-0.1-0.2s0-0.2,0.1-0.2c0.1-0.1,0.4-0.1,0.5,0c0.1,0.1,0.1,0.2,0.1,0.2
				s0,0.2-0.1,0.2C13.3-57.7,13.2-57.7,13.1-57.7z"/>
			<path d="M18.8-52.7c-0.1,0-0.2,0-0.2-0.1c-0.1-0.1-0.1-0.2-0.1-0.2s0-0.2,0.1-0.2c0.1-0.1,0.4-0.1,0.5,0c0.1,0.1,0.1,0.2,0.1,0.2
				s0,0.2-0.1,0.2C19-52.7,18.9-52.7,18.8-52.7z"/>
			<path d="M21.6-34.9c-0.1,0-0.2,0-0.2-0.1c-0.1-0.1-0.1-0.2-0.1-0.2s0-0.2,0.1-0.2c0.1-0.1,0.4-0.1,0.5,0c0.1,0.1,0.1,0.2,0.1,0.2
				s0,0.2-0.1,0.2C21.8-34.9,21.7-34.9,21.6-34.9z"/>
			<path d="M1.1-27.7c-0.1,0-0.2,0-0.3-0.1c-0.1-0.1-0.1-0.2-0.1-0.2c0-0.1,0-0.2,0.1-0.2c0.1-0.1,0.3-0.1,0.5,0
				c0.1,0.1,0.1,0.2,0.1,0.2c0,0.1,0,0.2-0.1,0.2C1.3-27.7,1.2-27.7,1.1-27.7z"/>
			<path d="M68.3-5.9c-0.1,0-0.2,0-0.2-0.1C68-6.1,68-6.2,68-6.2c0-0.1,0-0.2,0.1-0.2c0.1-0.1,0.3-0.1,0.5,0
				c0.1,0.1,0.1,0.2,0.1,0.2c0,0.1,0,0.2-0.1,0.2C68.5-5.9,68.4-5.9,68.3-5.9z"/>
			<path d="M60.1-2.2c-0.1,0-0.2,0-0.2-0.1c-0.1-0.1-0.1-0.2-0.1-0.2s0-0.2,0.1-0.2c0.1-0.1,0.4-0.1,0.5,0c0.1,0.1,0.1,0.2,0.1,0.2
				s0,0.2-0.1,0.2C60.3-2.2,60.2-2.2,60.1-2.2z"/>
			<path d="M40.8-3.9c-0.1,0-0.2,0-0.2-0.1c-0.1-0.1-0.1-0.2-0.1-0.2s0-0.2,0.1-0.2c0.1-0.1,0.4-0.1,0.5,0c0.1,0.1,0.1,0.2,0.1,0.2
				s0,0.2-0.1,0.2C41-3.9,41-3.9,40.8-3.9z"/>
			<path d="M4.8-11.9c-0.1,0-0.2,0-0.2-0.1c-0.1-0.1-0.1-0.2-0.1-0.2s0-0.2,0.1-0.2c0.1-0.1,0.4-0.1,0.5,0c0.1,0.1,0.1,0.2,0.1,0.2
				s0,0.2-0.1,0.2C5-11.9,4.9-11.9,4.8-11.9z"/>
			<path d="M26.8-12.4c-0.1,0-0.2,0-0.2-0.1c-0.1-0.1-0.1-0.2-0.1-0.2s0-0.2,0.1-0.2c0.1-0.1,0.4-0.1,0.5,0c0.1,0.1,0.1,0.2,0.1,0.2
				s0,0.2-0.1,0.2C27-12.4,26.9-12.4,26.8-12.4z"/>
			<path d="M37.6-23.4c-0.1,0-0.2,0-0.2-0.1c-0.1-0.1-0.1-0.2-0.1-0.2c0-0.1,0-0.2,0.1-0.2c0.1-0.1,0.4-0.1,0.5,0
				c0.1,0.1,0.1,0.2,0.1,0.2s0,0.2-0.1,0.2C37.8-23.4,37.7-23.4,37.6-23.4z"/>
			<path d="M9.1-31.7c-0.1,0-0.2,0-0.2-0.1c-0.1-0.1-0.1-0.2-0.1-0.2c0-0.1,0-0.2,0.1-0.2c0.1-0.1,0.4-0.1,0.5,0
				c0.1,0.1,0.1,0.2,0.1,0.2c0,0.1,0,0.2-0.1,0.2C9.3-31.7,9.2-31.7,9.1-31.7z"/>
			<path d="M52.6-33.9c-0.1,0-0.2,0-0.2-0.1c-0.1-0.1-0.1-0.2-0.1-0.2c0-0.1,0-0.2,0.1-0.2c0.1-0.1,0.3-0.1,0.5,0
				c0.1,0.1,0.1,0.2,0.1,0.2c0,0.1,0,0.2-0.1,0.2C52.8-33.9,52.7-33.9,52.6-33.9z"/>
			<path d="M61.1-25.9c-0.1,0-0.2,0-0.2-0.1c-0.1-0.1-0.1-0.2-0.1-0.2c0-0.1,0-0.2,0.1-0.2c0.1-0.1,0.3-0.1,0.5,0
				c0.1,0.1,0.1,0.2,0.1,0.2c0,0.1,0,0.2-0.1,0.2C61.3-25.9,61.2-25.9,61.1-25.9z"/>
			<path d="M51.6-5.7c-0.1,0-0.2,0-0.2-0.1c-0.1-0.1-0.1-0.2-0.1-0.2s0-0.2,0.1-0.2c0.1-0.1,0.4-0.1,0.5,0C51.9-6.2,52-6.1,52-6
				s0,0.2-0.1,0.2C51.8-5.7,51.7-5.7,51.6-5.7z"/>
			<path d="M40.3-34.2c-0.1,0-0.2,0-0.2-0.1C40-34.3,40-34.4,40-34.5s0-0.2,0.1-0.2c0.2-0.1,0.4-0.1,0.5,0c0.1,0.1,0.1,0.2,0.1,0.2
				s0,0.2-0.1,0.2C40.5-34.2,40.4-34.2,40.3-34.2z"/>
			<path d="M27.8-58.4c-0.1,0-0.2,0-0.2-0.1c-0.1-0.1-0.1-0.2-0.1-0.2s0-0.2,0.1-0.2c0.1-0.1,0.4-0.1,0.5,0c0.1,0.1,0.1,0.2,0.1,0.2
				s0,0.2-0.1,0.2C28-58.4,27.9-58.4,27.8-58.4z"/>
			<path d="M20.1-45.4c-0.1,0-0.2,0-0.2-0.1c-0.1-0.1-0.1-0.2-0.1-0.2s0-0.2,0.1-0.2c0.1-0.1,0.4-0.1,0.5,0c0.1,0.1,0.1,0.2,0.1,0.2
				s0,0.2-0.1,0.2C20.3-45.4,20.2-45.4,20.1-45.4z"/>
			<path d="M12.1-70.2c-0.1,0-0.2,0-0.2-0.1c-0.1-0.1-0.1-0.2-0.1-0.2s0-0.2,0.1-0.2c0.1-0.1,0.4-0.1,0.5,0c0.1,0.1,0.1,0.2,0.1,0.2
				s0,0.2-0.1,0.2C12.3-70.2,12.2-70.2,12.1-70.2z"/>
			<path d="M55.6-68.2c-0.1,0-0.2,0-0.2-0.1c-0.1-0.1-0.1-0.2-0.1-0.2c0-0.1,0-0.2,0.1-0.2c0.1-0.1,0.3-0.1,0.5,0
				c0.1,0.1,0.1,0.2,0.1,0.2c0,0.1,0,0.2-0.1,0.2C55.8-68.2,55.7-68.2,55.6-68.2z"/>
			<path d="M47.6-2.2c-0.1,0-0.2,0-0.2-0.1c-0.1-0.1-0.1-0.2-0.1-0.2c0-0.1,0-0.2,0.1-0.2c0.1-0.1,0.4-0.1,0.5,0
				C47.9-2.7,48-2.6,48-2.5s0,0.2-0.1,0.2C47.8-2.2,47.7-2.2,47.6-2.2z"/>
			<path d="M5.1-31.7c-0.1,0-0.2,0-0.2-0.1c-0.1-0.1-0.1-0.2-0.1-0.2c0-0.1,0-0.2,0.1-0.2c0.1-0.1,0.3-0.1,0.5,0
				c0.1,0.1,0.1,0.2,0.1,0.2c0,0.1,0,0.2-0.1,0.2C5.3-31.7,5.2-31.7,5.1-31.7z"/>
			<path d="M69.1-58.7c-0.1,0-0.2,0-0.2-0.1c-0.1-0.1-0.1-0.2-0.1-0.2s0-0.2,0.1-0.2c0.1-0.1,0.4-0.1,0.5,0c0.1,0.1,0.1,0.2,0.1,0.2
				s0,0.2-0.1,0.2C69.3-58.7,69.2-58.7,69.1-58.7z"/>
			<path d="M23.6-57.9c-0.1,0-0.2,0-0.2-0.1c-0.1-0.1-0.1-0.2-0.1-0.2s0-0.2,0.1-0.2c0.1-0.1,0.4-0.1,0.5,0c0.1,0.1,0.1,0.2,0.1,0.2
				s0,0.2-0.1,0.2C23.8-57.9,23.7-57.9,23.6-57.9z"/>
			<path d="M20.8-54.7c-0.1,0-0.2,0-0.2-0.1c-0.1-0.1-0.1-0.2-0.1-0.2s0-0.2,0.1-0.2c0.1-0.1,0.4-0.1,0.5,0c0.1,0.1,0.1,0.2,0.1,0.2
				s0,0.2-0.1,0.2C21-54.7,20.9-54.7,20.8-54.7z"/>
			<path d="M15.1-54.7c-0.1,0-0.2,0-0.2-0.1c-0.1-0.1-0.1-0.2-0.1-0.2c0-0.1,0-0.2,0.1-0.2c0.1-0.1,0.3-0.1,0.5,0
				c0.1,0.1,0.1,0.2,0.1,0.2c0,0.1,0,0.2-0.1,0.2C15.3-54.7,15.2-54.7,15.1-54.7z"/>
			<path d="M6.3-60.2c-0.1,0-0.2,0-0.2-0.1C6-60.3,6-60.4,6-60.5s0-0.2,0.1-0.2c0.1-0.1,0.4-0.1,0.5,0c0.1,0.1,0.1,0.2,0.1,0.2
				c0,0.1,0,0.2-0.1,0.2C6.5-60.2,6.4-60.2,6.3-60.2z"/>
			<path d="M7.3-69.2c-0.1,0-0.2,0-0.2-0.1C7-69.3,7-69.4,7-69.5s0-0.2,0.1-0.2c0.1-0.1,0.4-0.1,0.5,0c0.1,0.1,0.1,0.2,0.1,0.2
				s0,0.2-0.1,0.2C7.5-69.2,7.4-69.2,7.3-69.2z"/>
			<path d="M10.3-63.7c-0.1,0-0.2,0-0.2-0.1C10-63.8,10-63.9,10-64c0-0.1,0-0.2,0.1-0.2c0.1-0.1,0.4-0.1,0.5,0
				c0.1,0.1,0.1,0.2,0.1,0.2c0,0.1,0,0.2-0.1,0.2C10.5-63.7,10.4-63.7,10.3-63.7z"/>
			<path d="M14.6-63.7c-0.1,0-0.2,0-0.2-0.1c-0.1-0.1-0.1-0.2-0.1-0.2c0-0.1,0-0.2,0.1-0.2c0.1-0.1,0.3-0.1,0.5,0
				c0.1,0.1,0.1,0.2,0.1,0.2c0,0.1,0,0.2-0.1,0.2C14.8-63.7,14.7-63.7,14.6-63.7z"/>
			<path d="M26.1-64.9c-0.1,0-0.2,0-0.2-0.1c-0.1-0.1-0.1-0.2-0.1-0.2s0-0.2,0.1-0.2c0.1-0.1,0.4-0.1,0.5,0c0.1,0.1,0.1,0.2,0.1,0.2
				s0,0.2-0.1,0.2C26.3-64.9,26.2-64.9,26.1-64.9z"/>
			<path d="M37.3-64.4c-0.1,0-0.2,0-0.2-0.1C37-64.6,37-64.7,37-64.8s0-0.2,0.1-0.2c0.1-0.1,0.4-0.1,0.5,0c0.1,0.1,0.1,0.2,0.1,0.2
				s0,0.2-0.1,0.2C37.5-64.4,37.4-64.4,37.3-64.4z"/>
			<path d="M37.8-67.7c-0.1,0-0.2,0-0.2-0.1c-0.1-0.1-0.1-0.2-0.1-0.2c0-0.1,0-0.2,0.1-0.2c0.1-0.1,0.4-0.1,0.5,0
				c0.1,0.1,0.1,0.2,0.1,0.2c0,0.1,0,0.2-0.1,0.2C38-67.7,37.9-67.7,37.8-67.7z"/>
			<path d="M43.6-69.7c-0.1,0-0.2,0-0.2-0.1c-0.1-0.1-0.1-0.2-0.1-0.2s0-0.2,0.1-0.2c0.1-0.1,0.4-0.1,0.5,0c0.1,0.1,0.1,0.2,0.1,0.2
				s0,0.2-0.1,0.2C43.8-69.7,43.7-69.7,43.6-69.7z"/>
			<path d="M49.8-63.7c-0.1,0-0.2,0-0.2-0.1c-0.1-0.1-0.1-0.2-0.1-0.2c0-0.1,0-0.2,0.1-0.2c0.1-0.1,0.4-0.1,0.5,0
				c0.1,0.1,0.1,0.2,0.1,0.2c0,0.1,0,0.2-0.1,0.2C50-63.7,49.9-63.7,49.8-63.7z"/>
			<path d="M46.3-62.7c-0.1,0-0.2,0-0.2-0.1C46-62.8,46-62.9,46-63s0-0.2,0.1-0.2c0.1-0.1,0.4-0.1,0.5,0c0.1,0.1,0.1,0.2,0.1,0.2
				s0,0.2-0.1,0.2C46.5-62.7,46.5-62.7,46.3-62.7z"/>
			<path d="M36.1-60.9c-0.1,0-0.2,0-0.2-0.1c-0.1-0.1-0.1-0.2-0.1-0.2c0-0.1,0-0.2,0.1-0.2c0.1-0.1,0.4-0.1,0.5,0
				c0.1,0.1,0.1,0.2,0.1,0.2s0,0.2-0.1,0.2C36.3-60.9,36.2-60.9,36.1-60.9z"/>
			<path d="M39.6-56.9c-0.1,0-0.2,0-0.2-0.1c-0.1-0.1-0.1-0.2-0.1-0.2s0-0.2,0.1-0.2c0.1-0.1,0.4-0.1,0.5,0c0.1,0.1,0.1,0.2,0.1,0.2
				s0,0.2-0.1,0.2C39.8-56.9,39.7-56.9,39.6-56.9z"/>
			<path d="M25.1-53.9c-0.1,0-0.2,0-0.2-0.1c-0.1-0.1-0.1-0.2-0.1-0.2s0-0.2,0.1-0.2c0.1-0.1,0.4-0.1,0.5,0c0.1,0.1,0.1,0.2,0.1,0.2
				s0,0.2-0.1,0.2C25.3-53.9,25.2-53.9,25.1-53.9z"/>
			<path d="M8.6-44.7c-0.1,0-0.2,0-0.2-0.1c-0.1-0.1-0.1-0.2-0.1-0.2s0-0.2,0.1-0.2c0.1-0.1,0.4-0.1,0.5,0C8.9-45.2,9-45.1,9-45
				s0,0.2-0.1,0.2C8.8-44.7,8.7-44.7,8.6-44.7z"/>
			<path d="M16.3-40.2c-0.1,0-0.2,0-0.2-0.1C16-40.3,16-40.4,16-40.5s0-0.2,0.1-0.2c0.1-0.1,0.4-0.1,0.5,0c0.1,0.1,0.1,0.2,0.1,0.2
				s0,0.2-0.1,0.2C16.5-40.2,16.4-40.2,16.3-40.2z"/>
			<path d="M10.8-38.4c-0.1,0-0.2,0-0.2-0.1c-0.1-0.1-0.1-0.2-0.1-0.2c0-0.1,0-0.2,0.1-0.2c0.1-0.1,0.3-0.1,0.5,0
				c0.1,0.1,0.1,0.2,0.1,0.2s0,0.2-0.1,0.2C11-38.4,10.9-38.4,10.8-38.4z"/>
			<path d="M5.6-34.9c-0.1,0-0.2,0-0.2-0.1c-0.1-0.1-0.1-0.2-0.1-0.2s0-0.2,0.1-0.2c0.1-0.1,0.4-0.1,0.5,0C5.9-35.4,6-35.3,6-35.2
				c0,0.1,0,0.2-0.1,0.2C5.8-34.9,5.7-34.9,5.6-34.9z"/>
			<path d="M3.6-51.4c-0.1,0-0.2,0-0.2-0.1c-0.1-0.1-0.1-0.2-0.1-0.2s0-0.2,0.1-0.2c0.1-0.1,0.4-0.1,0.5,0C3.9-51.9,4-51.8,4-51.8
				s0,0.2-0.1,0.2C3.8-51.4,3.7-51.4,3.6-51.4z"/>
			<path d="M20.8-41.2c-0.1,0-0.2,0-0.2-0.1c-0.1-0.1-0.1-0.2-0.1-0.2c0-0.1,0-0.2,0.1-0.2c0.1-0.1,0.3-0.1,0.5,0
				c0.1,0.1,0.1,0.2,0.1,0.2c0,0.1,0,0.2-0.1,0.2C21-41.2,20.9-41.2,20.8-41.2z"/>
			<path d="M17.8-36.4c-0.1,0-0.2,0-0.2-0.1c-0.1-0.1-0.1-0.2-0.1-0.2s0-0.2,0.1-0.2c0.1-0.1,0.4-0.1,0.5,0c0.1,0.1,0.1,0.2,0.1,0.2
				s0,0.2-0.1,0.2C18-36.4,17.9-36.4,17.8-36.4z"/>
			<path d="M16.3-32.9c-0.1,0-0.2,0-0.2-0.1C16-33.1,16-33.2,16-33.2c0-0.1,0-0.2,0.1-0.2c0.1-0.1,0.3-0.1,0.5,0
				c0.1,0.1,0.1,0.2,0.1,0.2c0,0.1,0,0.2-0.1,0.2C16.5-32.9,16.5-32.9,16.3-32.9z"/>
			<path d="M13.1-30.7c-0.1,0-0.2,0-0.2-0.1c-0.1-0.1-0.1-0.2-0.1-0.2c0-0.1,0-0.2,0.1-0.2c0.1-0.1,0.3-0.1,0.5,0
				c0.1,0.1,0.1,0.2,0.1,0.2c0,0.1,0,0.2-0.1,0.2C13.3-30.7,13.2-30.7,13.1-30.7z"/>
			<path d="M13.1-25.4c-0.1,0-0.2,0-0.2-0.1c-0.1-0.1-0.1-0.2-0.1-0.2c0-0.1,0-0.2,0.1-0.2c0.1-0.1,0.3-0.1,0.5,0
				c0.1,0.1,0.1,0.2,0.1,0.2c0,0.1,0,0.2-0.1,0.2C13.3-25.4,13.2-25.4,13.1-25.4z"/>
			<path d="M6.1-23.4c-0.1,0-0.2,0-0.2-0.1c-0.1-0.1-0.1-0.2-0.1-0.2s0-0.2,0.1-0.2c0.1-0.1,0.4-0.1,0.5,0c0.1,0.1,0.1,0.2,0.1,0.2
				s0,0.2-0.1,0.2C6.3-23.4,6.2-23.4,6.1-23.4z"/>
			<path d="M11.3-17.4c-0.1,0-0.2,0-0.2-0.1C11-17.6,11-17.7,11-17.8s0-0.2,0.1-0.2c0.1-0.1,0.4-0.1,0.5,0c0.1,0.1,0.1,0.2,0.1,0.2
				s0,0.2-0.1,0.2C11.5-17.4,11.4-17.4,11.3-17.4z"/>
			<path d="M15.8-13.4c-0.1,0-0.2,0-0.2-0.1c-0.1-0.1-0.1-0.2-0.1-0.2s0-0.2,0.1-0.2c0.1-0.1,0.4-0.1,0.5,0c0.1,0.1,0.1,0.2,0.1,0.2
				s0,0.2-0.1,0.2C16-13.4,15.9-13.4,15.8-13.4z"/>
			<path d="M6.3-8.4c-0.1,0-0.2,0-0.2-0.1C6-8.6,6-8.7,6-8.8S6-8.9,6.1-9c0.1-0.1,0.4-0.1,0.5,0c0.1,0.1,0.1,0.2,0.1,0.2
				c0,0.1,0,0.2-0.1,0.2C6.5-8.4,6.4-8.4,6.3-8.4z"/>
			<path d="M2.6-9.9c-0.1,0-0.2,0-0.2-0.1c-0.1-0.1-0.1-0.2-0.1-0.2s0-0.2,0.1-0.2c0.1-0.1,0.4-0.1,0.5,0C2.9-10.4,3-10.3,3-10.2
				c0,0.1,0,0.2-0.1,0.2C2.8-9.9,2.7-9.9,2.6-9.9z"/>
			<path d="M9.3-3.9c-0.1,0-0.2,0-0.2-0.1C9-4.1,9-4.2,9-4.2s0-0.2,0.1-0.2c0.1-0.1,0.4-0.1,0.5,0c0.1,0.1,0.1,0.2,0.1,0.2
				s0,0.2-0.1,0.2C9.5-3.9,9.5-3.9,9.3-3.9z"/>
			<path d="M13.8-2.4c-0.1,0-0.2,0-0.2-0.1c-0.1-0.1-0.1-0.2-0.1-0.2s0-0.2,0.1-0.2c0.1-0.1,0.4-0.1,0.5,0c0.1,0.1,0.1,0.2,0.1,0.2
				s0,0.2-0.1,0.2C14-2.4,13.9-2.4,13.8-2.4z"/>
			<path d="M21.8-3.4c-0.1,0-0.2,0-0.2-0.1c-0.1-0.1-0.1-0.2-0.1-0.2c0-0.1,0-0.2,0.1-0.2c0.1-0.1,0.4-0.1,0.5,0
				c0.1,0.1,0.1,0.2,0.1,0.2c0,0.1,0,0.2-0.1,0.2C22-3.4,21.9-3.4,21.8-3.4z"/>
			<path d="M23.3-6.2c-0.1,0-0.2,0-0.2-0.1C23-6.3,23-6.4,23-6.5s0-0.2,0.1-0.2c0.1-0.1,0.4-0.1,0.5,0c0.1,0.1,0.1,0.2,0.1,0.2
				s0,0.2-0.1,0.2C23.5-6.2,23.5-6.2,23.3-6.2z"/>
			<path d="M22.6-11.9c-0.1,0-0.2,0-0.2-0.1c-0.1-0.1-0.1-0.2-0.1-0.2s0-0.2,0.1-0.2c0.1-0.1,0.4-0.1,0.5,0c0.1,0.1,0.1,0.2,0.1,0.2
				s0,0.2-0.1,0.2C22.8-11.9,22.7-11.9,22.6-11.9z"/>
			<path d="M24.6-14.4c-0.1,0-0.2,0-0.2-0.1c-0.1-0.1-0.1-0.2-0.1-0.2c0-0.1,0-0.2,0.1-0.2c0.1-0.1,0.4-0.1,0.5,0
				c0.1,0.1,0.1,0.2,0.1,0.2c0,0.1,0,0.2-0.1,0.2C24.8-14.4,24.7-14.4,24.6-14.4z"/>
			<path d="M26.6-24.2c-0.1,0-0.2,0-0.2-0.1c-0.1-0.1-0.1-0.2-0.1-0.2s0-0.2,0.1-0.2c0.1-0.1,0.4-0.1,0.5,0c0.1,0.1,0.1,0.2,0.1,0.2
				s0,0.2-0.1,0.2C26.8-24.2,26.7-24.2,26.6-24.2z"/>
			<path d="M26.1-28.4c-0.1,0-0.2,0-0.2-0.1c-0.1-0.1-0.1-0.2-0.1-0.2s0-0.2,0.1-0.2c0.1-0.1,0.4-0.1,0.5,0c0.1,0.1,0.1,0.2,0.1,0.2
				s0,0.2-0.1,0.2C26.3-28.4,26.2-28.4,26.1-28.4z"/>
			<path d="M32.6-40.9c-0.1,0-0.2,0-0.2-0.1c-0.1-0.1-0.1-0.2-0.1-0.2c0-0.1,0-0.2,0.1-0.2c0.1-0.1,0.3-0.1,0.5,0
				c0.1,0.1,0.1,0.2,0.1,0.2c0,0.1,0,0.2-0.1,0.2C32.8-40.9,32.7-40.9,32.6-40.9z"/>
			<path d="M34.6-44.2c-0.1,0-0.2,0-0.2-0.1c-0.1-0.1-0.1-0.2-0.1-0.2s0-0.2,0.1-0.2c0.1-0.1,0.4-0.1,0.5,0c0.1,0.1,0.1,0.2,0.1,0.2
				s0,0.2-0.1,0.2C34.8-44.2,34.7-44.2,34.6-44.2z"/>
			<path d="M42.1-46.2c-0.1,0-0.2,0-0.2-0.1c-0.1-0.1-0.1-0.2-0.1-0.2s0-0.2,0.1-0.2c0.1-0.1,0.4-0.1,0.5,0c0.1,0.1,0.1,0.2,0.1,0.2
				s0,0.2-0.1,0.2C42.3-46.2,42.2-46.2,42.1-46.2z"/>
			<path d="M43.3-51.2c-0.1,0-0.2,0-0.2-0.1C43-51.3,43-51.4,43-51.5c0-0.1,0-0.2,0.1-0.2c0.1-0.1,0.4-0.1,0.5,0
				c0.1,0.1,0.1,0.2,0.1,0.2c0,0.1,0,0.2-0.1,0.2C43.5-51.2,43.4-51.2,43.3-51.2z"/>
			<path d="M36.8-52.7c-0.1,0-0.2,0-0.2-0.1c-0.1-0.1-0.1-0.2-0.1-0.2s0-0.2,0.1-0.2c0.2-0.2,0.4-0.1,0.5,0c0.1,0.1,0.1,0.2,0.1,0.2
				s0,0.2-0.1,0.2C37-52.7,36.9-52.7,36.8-52.7z"/>
			<path d="M28.1-49.7c-0.1,0-0.2,0-0.2-0.1c-0.1-0.1-0.1-0.2-0.1-0.2s0-0.2,0.1-0.2c0.1-0.1,0.4-0.1,0.5,0c0.1,0.1,0.1,0.2,0.1,0.2
				s0,0.2-0.1,0.2C28.3-49.7,28.2-49.7,28.1-49.7z"/>
			<path d="M52.3-49.9c-0.1,0-0.2,0-0.2-0.1C52-50.1,52-50.2,52-50.2s0-0.2,0.1-0.2c0.1-0.1,0.4-0.1,0.5,0c0.1,0.1,0.1,0.2,0.1,0.2
				s0,0.2-0.1,0.2C52.5-49.9,52.5-49.9,52.3-49.9z"/>
			<path d="M43.6-54.2c-0.1,0-0.2,0-0.2-0.1c-0.1-0.1-0.1-0.2-0.1-0.2s0-0.2,0.1-0.2c0.1-0.1,0.4-0.1,0.5,0c0.1,0.1,0.1,0.2,0.1,0.2
				s0,0.2-0.1,0.2C43.8-54.2,43.7-54.2,43.6-54.2z"/>
			<path d="M50.8-53.9c-0.1,0-0.2,0-0.2-0.1c-0.1-0.1-0.1-0.2-0.1-0.2s0-0.2,0.1-0.2c0.1-0.1,0.4-0.1,0.5,0c0.1,0.1,0.1,0.2,0.1,0.2
				s0,0.2-0.1,0.2C51-53.9,50.9-53.9,50.8-53.9z"/>
			<path d="M59.8-54.7c-0.1,0-0.2,0-0.2-0.1c-0.1-0.1-0.1-0.2-0.1-0.2c0-0.1,0-0.2,0.1-0.2c0.1-0.1,0.3-0.1,0.5,0
				c0.1,0.1,0.1,0.2,0.1,0.2c0,0.1,0,0.2-0.1,0.2C60-54.7,59.9-54.7,59.8-54.7z"/>
			<path d="M58.6-57.9c-0.1,0-0.2,0-0.2-0.1c-0.1-0.1-0.1-0.2-0.1-0.2s0-0.2,0.1-0.2c0.1-0.1,0.4-0.1,0.5,0c0.1,0.1,0.1,0.2,0.1,0.2
				s0,0.2-0.1,0.2C58.8-57.9,58.7-57.9,58.6-57.9z"/>
			<path d="M61.8-60.9c-0.1,0-0.2,0-0.2-0.1c-0.1-0.1-0.1-0.2-0.1-0.2c0-0.1,0-0.2,0.1-0.2c0.1-0.1,0.4-0.1,0.5,0
				c0.1,0.1,0.1,0.1,0.1,0.2c0,0.1,0,0.2-0.1,0.2C62-60.9,61.9-60.9,61.8-60.9z"/>
			<path d="M59.1-64.4c-0.1,0-0.2,0-0.2-0.1c-0.1-0.1-0.1-0.2-0.1-0.2s0-0.2,0.1-0.2c0.2-0.2,0.4-0.1,0.5,0c0.1,0.1,0.1,0.2,0.1,0.2
				c0,0.1,0,0.2-0.1,0.2C59.3-64.4,59.2-64.4,59.1-64.4z"/>
			<path d="M60.3-67.2c-0.1,0-0.2,0-0.2-0.1C60-67.3,60-67.4,60-67.5c0-0.1,0-0.2,0.1-0.2c0.1-0.1,0.3-0.1,0.5,0
				c0.1,0.1,0.1,0.2,0.1,0.2c0,0.1,0,0.2-0.1,0.2C60.5-67.2,60.4-67.2,60.3-67.2z"/>
			<path d="M67.8-65.9c-0.1,0-0.2,0-0.2-0.1c-0.1-0.1-0.1-0.2-0.1-0.2s0-0.2,0.1-0.2c0.1-0.1,0.4-0.1,0.5,0c0.1,0.1,0.1,0.2,0.1,0.2
				s0,0.2-0.1,0.2C68-65.9,67.9-65.9,67.8-65.9z"/>
			<path d="M71.1-63.4c-0.1,0-0.2,0-0.2-0.1c-0.1-0.1-0.1-0.2-0.1-0.2s0-0.2,0.1-0.2c0.1-0.1,0.4-0.1,0.5,0c0.1,0.1,0.1,0.2,0.1,0.2
				s0,0.2-0.1,0.2C71.3-63.4,71.2-63.4,71.1-63.4z"/>
			<path d="M66.1-62.2c-0.1,0-0.2,0-0.2-0.1c-0.1-0.1-0.1-0.2-0.1-0.2c0-0.1,0-0.2,0.1-0.2c0.1-0.1,0.4-0.1,0.5,0
				c0.1,0.1,0.1,0.2,0.1,0.2s0,0.2-0.1,0.2C66.3-62.2,66.2-62.2,66.1-62.2z"/>
			<path d="M60.6-48.2c-0.1,0-0.2,0-0.2-0.1c-0.1-0.1-0.1-0.2-0.1-0.2s0-0.2,0.1-0.2c0.1-0.1,0.4-0.1,0.5,0c0.1,0.1,0.1,0.2,0.1,0.2
				s0,0.2-0.1,0.2C60.8-48.2,60.7-48.2,60.6-48.2z"/>
			<path d="M55.8-48.2c-0.1,0-0.2,0-0.2-0.1c-0.1-0.1-0.1-0.2-0.1-0.2s0-0.2,0.1-0.2c0.1-0.1,0.4-0.1,0.5,0c0.1,0.1,0.1,0.2,0.1,0.2
				s0,0.2-0.1,0.2C56-48.2,55.9-48.2,55.8-48.2z"/>
			<path d="M55.8-53.2c-0.1,0-0.2,0-0.2-0.1c-0.1-0.1-0.1-0.2-0.1-0.2c0-0.1,0-0.2,0.1-0.2c0.1-0.1,0.3-0.1,0.5,0
				c0.1,0.1,0.1,0.2,0.1,0.2c0,0.1,0,0.2-0.1,0.2C56-53.2,55.9-53.2,55.8-53.2z"/>
			<path d="M65.3-46.2c-0.1,0-0.2,0-0.2-0.1C65-46.3,65-46.4,65-46.5c0-0.1,0-0.2,0.1-0.2c0.1-0.1,0.3-0.1,0.5,0
				c0.1,0.1,0.1,0.2,0.1,0.2c0,0.1,0,0.2-0.1,0.2C65.5-46.2,65.4-46.2,65.3-46.2z"/>
			<path d="M58.1-41.2c-0.1,0-0.2,0-0.2-0.1c-0.1-0.1-0.1-0.2-0.1-0.2c0-0.1,0-0.2,0.1-0.2c0.1-0.1,0.3-0.1,0.5,0
				c0.1,0.1,0.1,0.2,0.1,0.2c0,0.1,0,0.2-0.1,0.2C58.3-41.2,58.2-41.2,58.1-41.2z"/>
			<path d="M53.1-39.2c-0.1,0-0.2,0-0.2-0.1c-0.1-0.1-0.1-0.2-0.1-0.2c0-0.1,0-0.2,0.1-0.2c0.1-0.1,0.3-0.1,0.5,0
				c0.1,0.1,0.1,0.2,0.1,0.2c0,0.1,0,0.2-0.1,0.2C53.3-39.2,53.2-39.2,53.1-39.2z"/>
			<path d="M47.8-38.2c-0.1,0-0.2,0-0.2-0.1c-0.1-0.1-0.1-0.2-0.1-0.2c0-0.1,0-0.2,0.1-0.2c0.1-0.1,0.3-0.1,0.5,0
				c0.1,0.1,0.1,0.2,0.1,0.2c0,0.1,0,0.2-0.1,0.2C48-38.2,47.9-38.2,47.8-38.2z"/>
			<path d="M44.6-32.7c-0.1,0-0.2,0-0.2-0.1c-0.1-0.1-0.1-0.2-0.1-0.2s0-0.2,0.1-0.2c0.1-0.1,0.4-0.1,0.5,0c0.1,0.1,0.1,0.2,0.1,0.2
				s0,0.2-0.1,0.2C44.8-32.7,44.7-32.7,44.6-32.7z"/>
			<path d="M34.3-30.4c-0.1,0-0.2,0-0.2-0.1C34-30.6,34-30.7,34-30.8s0-0.2,0.1-0.2c0.1-0.1,0.4-0.1,0.5,0c0.1,0.1,0.1,0.2,0.1,0.2
				s0,0.2-0.1,0.2C34.5-30.4,34.4-30.4,34.3-30.4z"/>
			<path d="M41.1-23.9c-0.1,0-0.2,0-0.2-0.1c-0.1-0.1-0.1-0.2-0.1-0.2s0-0.2,0.1-0.2c0.1-0.1,0.4-0.1,0.5,0c0.1,0.1,0.1,0.2,0.1,0.2
				s0,0.2-0.1,0.2C41.3-23.9,41.2-23.9,41.1-23.9z"/>
			<path d="M46.1-19.7c-0.1,0-0.2,0-0.2-0.1c-0.1-0.1-0.1-0.2-0.1-0.2c0-0.1,0-0.2,0.1-0.2c0.1-0.1,0.4-0.1,0.5,0
				c0.1,0.1,0.1,0.2,0.1,0.2c0,0.1,0,0.2-0.1,0.2C46.3-19.7,46.2-19.7,46.1-19.7z"/>
			<path d="M46.8-15.2c-0.1,0-0.2,0-0.2-0.1c-0.1-0.1-0.1-0.2-0.1-0.2s0-0.2,0.1-0.2c0.2-0.1,0.4-0.1,0.5,0c0.1,0.1,0.1,0.2,0.1,0.2
				s0,0.2-0.1,0.2C47-15.2,46.9-15.2,46.8-15.2z"/>
			<path d="M42.3-12.4c-0.1,0-0.2,0-0.2-0.1C42-12.6,42-12.7,42-12.8s0-0.2,0.1-0.2c0.1-0.1,0.4-0.1,0.5,0c0.1,0.1,0.1,0.2,0.1,0.2
				s0,0.2-0.1,0.2C42.5-12.4,42.4-12.4,42.3-12.4z"/>
			<path d="M40.3-9.2c-0.1,0-0.2,0-0.2-0.1C40-9.3,40-9.4,40-9.5s0-0.2,0.1-0.2c0.1-0.1,0.4-0.1,0.5,0c0.1,0.1,0.1,0.2,0.1,0.2
				s0,0.2-0.1,0.2C40.5-9.2,40.5-9.2,40.3-9.2z"/>
			<path d="M36.3-9.2c-0.1,0-0.2,0-0.2-0.1C36-9.3,36-9.4,36-9.5c0-0.1,0-0.2,0.1-0.2c0.1-0.1,0.3-0.1,0.5,0
				c0.1,0.1,0.1,0.2,0.1,0.2c0,0.1,0,0.2-0.1,0.2C36.5-9.2,36.4-9.2,36.3-9.2z"/>
			<path d="M36.8-19.2c-0.1,0-0.2,0-0.2-0.1c-0.1-0.1-0.1-0.2-0.1-0.2s0-0.2,0.1-0.2c0.1-0.1,0.4-0.1,0.5,0c0.1,0.1,0.1,0.1,0.1,0.2
				c0,0.1,0,0.2-0.1,0.2C37-19.2,36.9-19.2,36.8-19.2z"/>
			<path d="M30.3-8.4c-0.1,0-0.2,0-0.2-0.1C30-8.6,30-8.7,30-8.8c0-0.1,0-0.2,0.1-0.2c0.1-0.1,0.4-0.1,0.5,0
				c0.1,0.1,0.1,0.2,0.1,0.2c0,0.1,0,0.2-0.1,0.2C30.5-8.4,30.4-8.4,30.3-8.4z"/>
			<path d="M31.8-3.4c-0.1,0-0.2,0-0.2-0.1c-0.1-0.1-0.1-0.2-0.1-0.2s0-0.2,0.1-0.2c0.1-0.1,0.4-0.1,0.5,0c0.1,0.1,0.1,0.2,0.1,0.2
				s0,0.2-0.1,0.2C32-3.4,31.9-3.4,31.8-3.4z"/>
			<path d="M37.3-0.9c-0.1,0-0.2,0-0.2-0.1C37-1.1,37-1.2,37-1.2c0-0.1,0-0.2,0.1-0.2c0.1-0.1,0.4-0.1,0.5,0
				c0.1,0.1,0.1,0.2,0.1,0.2c0,0.1,0,0.2-0.1,0.2C37.5-0.9,37.4-0.9,37.3-0.9z"/>
			<path d="M63.3-14.9c-0.1,0-0.2,0-0.2-0.1C63-15.1,63-15.2,63-15.2c0-0.1,0-0.2,0.1-0.2c0.1-0.1,0.3-0.1,0.5,0
				c0.1,0.1,0.1,0.2,0.1,0.2c0,0.1,0,0.2-0.1,0.2C63.5-14.9,63.4-14.9,63.3-14.9z"/>
			<path d="M60.3-21.2c-0.1,0-0.2,0-0.2-0.1C60-21.3,60-21.4,60-21.5s0-0.2,0.1-0.2c0.1-0.1,0.3-0.1,0.5,0c0.1,0.1,0.1,0.2,0.1,0.2
				s0,0.2-0.1,0.2C60.5-21.2,60.5-21.2,60.3-21.2z"/>
			<path d="M54.8-21.4c-0.1,0-0.2,0-0.2-0.1c-0.1-0.1-0.1-0.2-0.1-0.2s0-0.2,0.1-0.2c0.1-0.1,0.4-0.1,0.5,0c0.1,0.1,0.1,0.2,0.1,0.2
				s0,0.2-0.1,0.2C55-21.4,55-21.4,54.8-21.4z"/>
			<path d="M55.1-30.2c-0.1,0-0.2,0-0.2-0.1c-0.1-0.1-0.1-0.2-0.1-0.2s0-0.2,0.1-0.2c0.1-0.1,0.4-0.1,0.5,0c0.1,0.1,0.1,0.2,0.1,0.2
				s0,0.2-0.1,0.2C55.3-30.2,55.2-30.2,55.1-30.2z"/>
			<path d="M62.8-29.7c-0.1,0-0.2,0-0.2-0.1c-0.1-0.1-0.1-0.2-0.1-0.2s0-0.2,0.1-0.2c0.1-0.1,0.4-0.1,0.5,0c0.1,0.1,0.1,0.2,0.1,0.2
				s0,0.2-0.1,0.2C63-29.7,62.9-29.7,62.8-29.7z"/>
			<path d="M67.3-24.4c-0.1,0-0.2,0-0.2-0.1C67-24.6,67-24.7,67-24.8s0-0.2,0.1-0.2c0.1-0.1,0.4-0.1,0.5,0c0.1,0.1,0.1,0.2,0.1,0.2
				s0,0.2-0.1,0.2C67.5-24.4,67.4-24.4,67.3-24.4z"/>
			<path d="M69.8-17.7c-0.1,0-0.2,0-0.2-0.1c-0.1-0.1-0.1-0.2-0.1-0.2s0-0.2,0.1-0.2c0.1-0.1,0.4-0.1,0.5,0c0.1,0.1,0.1,0.2,0.1,0.2
				s0,0.2-0.1,0.2C70-17.7,69.9-17.7,69.8-17.7z"/>
			<path d="M63.8-10.2c-0.1,0-0.2,0-0.2-0.1c-0.1-0.1-0.1-0.2-0.1-0.2s0-0.2,0.1-0.2c0.1-0.1,0.4-0.1,0.5,0c0.1,0.1,0.1,0.2,0.1,0.2
				s0,0.2-0.1,0.2C64-10.2,63.9-10.2,63.8-10.2z"/>
			<path d="M70.6-10.9c-0.1,0-0.2,0-0.2-0.1c-0.1-0.1-0.1-0.2-0.1-0.2c0-0.1,0-0.2,0.1-0.2c0.1-0.1,0.3-0.1,0.5,0
				c0.1,0.1,0.1,0.2,0.1,0.2c0,0.1,0,0.2-0.1,0.2C70.8-10.9,70.7-10.9,70.6-10.9z"/>
			<path d="M65.1-6.4c-0.1,0-0.2,0-0.2-0.1c-0.1-0.1-0.1-0.2-0.1-0.2s0-0.2,0.1-0.2c0.1-0.1,0.4-0.1,0.5,0c0.1,0.1,0.1,0.2,0.1,0.2
				s0,0.2-0.1,0.2C65.3-6.4,65.2-6.4,65.1-6.4z"/>
			<path d="M66.1-3.7c-0.1,0-0.2,0-0.2-0.1c-0.1-0.1-0.1-0.2-0.1-0.2s0-0.2,0.1-0.2c0.1-0.1,0.4-0.1,0.5,0c0.1,0.1,0.1,0.2,0.1,0.2
				s0,0.2-0.1,0.2C66.3-3.7,66.2-3.7,66.1-3.7z"/>
			<path d="M62.8-1.7c-0.1,0-0.2,0-0.2-0.1c-0.1-0.1-0.1-0.2-0.1-0.2c0-0.1,0-0.2,0.1-0.2c0.1-0.1,0.4-0.1,0.5,0
				c0.1,0.1,0.1,0.1,0.1,0.2c0,0.1,0,0.2-0.1,0.2C63-1.7,62.9-1.7,62.8-1.7z"/>
			<path d="M53.1-2.2c-0.1,0-0.2,0-0.2-0.1c-0.1-0.1-0.1-0.2-0.1-0.2s0-0.2,0.1-0.2c0.1-0.1,0.4-0.1,0.5,0c0.1,0.1,0.1,0.2,0.1,0.2
				s0,0.2-0.1,0.2C53.3-2.2,53.2-2.2,53.1-2.2z"/>
			<path d="M45.1-5.4c-0.1,0-0.2,0-0.2-0.1c-0.1-0.1-0.1-0.2-0.1-0.2c0-0.1,0-0.2,0.1-0.2c0.1-0.1,0.3-0.1,0.5,0
				c0.1,0.1,0.1,0.2,0.1,0.2c0,0.1,0,0.2-0.1,0.2C45.3-5.4,45.2-5.4,45.1-5.4z"/>
			<path d="M28.8-0.7c-0.1,0-0.2,0-0.2-0.1c-0.1-0.1-0.1-0.2-0.1-0.2c0-0.1,0-0.2,0.1-0.2c0.1-0.1,0.3-0.1,0.5,0
				c0.1,0.1,0.1,0.2,0.1,0.2c0,0.1,0,0.2-0.1,0.2C29-0.7,28.9-0.7,28.8-0.7z"/>
			<path d="M3.3-42.4c-0.1,0-0.2,0-0.2-0.1C3-42.6,3-42.7,3-42.8s0-0.2,0.1-0.2c0.1-0.1,0.4-0.1,0.5,0c0.1,0.1,0.1,0.2,0.1,0.2
				s0,0.2-0.1,0.2C3.5-42.4,3.4-42.4,3.3-42.4z"/>
			<path d="M13.6-66.9c-0.1,0-0.2,0-0.2-0.1c-0.1-0.1-0.1-0.1-0.1-0.2c0-0.1,0-0.2,0.1-0.2c0.1-0.1,0.4-0.1,0.5,0
				c0.1,0.1,0.1,0.2,0.1,0.2c0,0.1,0,0.2-0.1,0.2C13.8-66.9,13.7-66.9,13.6-66.9z"/>
			<path d="M70.6-37.4c-0.1,0-0.2,0-0.2-0.1c-0.1-0.1-0.1-0.2-0.1-0.2c0-0.1,0-0.2,0.1-0.2c0.1-0.1,0.3-0.1,0.5,0
				c0.1,0.1,0.1,0.2,0.1,0.2c0,0.1,0,0.2-0.1,0.2C70.8-37.4,70.7-37.4,70.6-37.4z"/>
			<path d="M71.6-30.7c-0.1,0-0.2,0-0.2-0.1c-0.1-0.1-0.1-0.2-0.1-0.2s0-0.2,0.1-0.2c0.1-0.1,0.4-0.1,0.5,0c0.1,0.1,0.1,0.2,0.1,0.2
				s0,0.2-0.1,0.2C71.8-30.7,71.7-30.7,71.6-30.7z"/>
			<path d="M1.3-20.2c-0.1,0-0.2,0-0.2-0.1C1-20.3,1-20.4,1-20.5c0-0.1,0-0.2,0.1-0.2c0.1-0.1,0.3-0.1,0.5,0
				c0.1,0.1,0.1,0.2,0.1,0.2c0,0.1,0,0.2-0.1,0.2C1.5-20.2,1.4-20.2,1.3-20.2z"/>
			<path d="M72.3-48.4c-0.1,0-0.2,0-0.2-0.1C72-48.6,72-48.7,72-48.8s0-0.2,0.1-0.2c0.1-0.1,0.4-0.1,0.5,0c0.1,0.1,0.1,0.2,0.1,0.2
				s0,0.2-0.1,0.2C72.5-48.4,72.4-48.4,72.3-48.4z"/>
			<path d="M69.3-45.4c-0.1,0-0.2,0-0.2-0.1C69-45.6,69-45.7,69-45.8s0-0.2,0.1-0.2c0.1-0.1,0.4-0.1,0.5,0c0.1,0.1,0.1,0.2,0.1,0.2
				s0,0.2-0.1,0.2C69.5-45.4,69.4-45.4,69.3-45.4z"/>
			<path d="M68.8-11.7c-0.1,0-0.2,0-0.2-0.1c-0.1-0.1-0.1-0.2-0.1-0.2c0-0.1,0-0.2,0.1-0.2c0.1-0.1,0.4-0.1,0.5,0
				c0.1,0.1,0.1,0.2,0.1,0.2s0,0.2-0.1,0.2C69-11.7,68.9-11.7,68.8-11.7z"/>
			<path d="M71.8-3.7c-0.1,0-0.2,0-0.2-0.1c-0.1-0.1-0.1-0.2-0.1-0.2s0-0.2,0.1-0.2c0.1-0.1,0.4-0.1,0.5,0c0.1,0.1,0.1,0.2,0.1,0.2
				s0,0.2-0.1,0.2C72-3.7,71.9-3.7,71.8-3.7z"/>
			<path d="M0.8-14.2c-0.1,0-0.2,0-0.2-0.1c-0.1-0.1-0.1-0.2-0.1-0.2s0-0.2,0.1-0.2c0.1-0.1,0.4-0.1,0.5,0c0.1,0.1,0.1,0.2,0.1,0.2
				s0,0.2-0.1,0.2C1-14.2,0.9-14.2,0.8-14.2z"/>
			<path d="M3.1-0.7c-0.1,0-0.2,0-0.2-0.1C2.8-0.8,2.8-0.9,2.8-1c0-0.1,0-0.2,0.1-0.2c0.1-0.1,0.4-0.1,0.5,0C3.4-1.2,3.5-1.1,3.5-1
				c0,0.1,0,0.2-0.1,0.2C3.3-0.7,3.2-0.7,3.1-0.7z"/>
			<path d="M70.6-47.9c-0.1,0-0.2,0-0.2-0.1c-0.1-0.1-0.1-0.2-0.1-0.2c0-0.1,0-0.2,0.1-0.2c0.1-0.1,0.3-0.1,0.5,0
				c0.1,0.1,0.1,0.2,0.1,0.2c0,0.1,0,0.2-0.1,0.2C70.8-47.9,70.7-47.9,70.6-47.9z"/>
			<path d="M1.6-55.2c-0.1,0-0.2,0-0.2-0.1c-0.1-0.1-0.1-0.2-0.1-0.2s0-0.2,0.1-0.2c0.1-0.1,0.4-0.1,0.5,0C1.9-55.7,2-55.6,2-55.5
				s0,0.2-0.1,0.2C1.8-55.2,1.7-55.2,1.6-55.2z"/>
			<path d="M18.3-58.8c-0.2,0-0.3-0.1-0.5-0.2c-0.1-0.1-0.2-0.3-0.2-0.5s0.1-0.3,0.2-0.5c0.2-0.2,0.7-0.2,0.9,0
				c0.1,0.1,0.2,0.3,0.2,0.5s-0.1,0.3-0.2,0.5C18.7-58.9,18.5-58.8,18.3-58.8z"/>
			<path d="M29.6-60.8c-0.2,0-0.3-0.1-0.5-0.2C29-61.2,29-61.3,29-61.5s0.1-0.3,0.2-0.5c0.2-0.2,0.7-0.2,0.9,0
				c0.1,0.1,0.2,0.3,0.2,0.5s-0.1,0.3-0.2,0.5C29.9-60.9,29.8-60.8,29.6-60.8z"/>
			<path d="M29.6-68.3c-0.2,0-0.3-0.1-0.5-0.2C29-68.7,29-68.8,29-69c0-0.2,0.1-0.3,0.2-0.5c0.2-0.2,0.7-0.2,0.9,0
				c0.1,0.1,0.2,0.3,0.2,0.5s-0.1,0.3-0.2,0.5C29.9-68.4,29.8-68.3,29.6-68.3z"/>
			<path d="M40.6-61.3c-0.2,0-0.3-0.1-0.5-0.2C40-61.7,40-61.8,40-62s0.1-0.3,0.2-0.5c0.2-0.2,0.7-0.2,0.9,0
				c0.1,0.1,0.2,0.3,0.2,0.5c0,0.2-0.1,0.3-0.2,0.5C40.9-61.4,40.8-61.3,40.6-61.3z"/>
			<path d="M45.3-59.8c-0.2,0-0.3-0.1-0.5-0.2c-0.1-0.1-0.2-0.3-0.2-0.4s0.1-0.3,0.2-0.5c0.2-0.2,0.7-0.2,0.9,0
				c0.1,0.1,0.2,0.3,0.2,0.5s-0.1,0.3-0.2,0.5C45.7-59.9,45.5-59.8,45.3-59.8z"/>
			<path d="M47.6-48.8c-0.2,0-0.3-0.1-0.5-0.2C47-49.2,47-49.3,47-49.5s0.1-0.3,0.2-0.5c0.2-0.2,0.7-0.2,0.9,0
				c0.1,0.1,0.2,0.3,0.2,0.5s-0.1,0.3-0.2,0.5C47.9-48.9,47.8-48.8,47.6-48.8z"/>
			<path d="M55.1-64.8c-0.2,0-0.3-0.1-0.5-0.2c-0.1-0.1-0.2-0.3-0.2-0.5s0.1-0.3,0.2-0.5c0.2-0.2,0.7-0.2,0.9,0
				c0.1,0.1,0.2,0.3,0.2,0.5c0,0.2-0.1,0.3-0.2,0.5C55.4-64.9,55.3-64.8,55.1-64.8z"/>
			<path d="M64.3-65.1c-0.2,0-0.3-0.1-0.5-0.2c-0.1-0.1-0.2-0.3-0.2-0.5s0.1-0.3,0.2-0.5c0.2-0.2,0.7-0.2,0.9,0
				c0.1,0.1,0.2,0.3,0.2,0.5s-0.1,0.3-0.2,0.5C64.7-65.2,64.5-65.1,64.3-65.1z"/>
			<path d="M65.3-69.1c-0.2,0-0.3-0.1-0.5-0.2c-0.1-0.1-0.2-0.3-0.2-0.5s0.1-0.3,0.2-0.5c0.2-0.2,0.7-0.2,0.9,0
				c0.1,0.1,0.2,0.3,0.2,0.5s-0.1,0.3-0.2,0.4C65.7-69.2,65.5-69.1,65.3-69.1z"/>
			<path d="M69.8-53.6c-0.2,0-0.3-0.1-0.5-0.2c-0.1-0.1-0.2-0.3-0.2-0.5s0.1-0.3,0.2-0.5c0.2-0.2,0.7-0.2,0.9,0
				c0.1,0.1,0.2,0.3,0.2,0.5s-0.1,0.3-0.2,0.5C70.2-53.7,70-53.6,69.8-53.6z"/>
			<path d="M8.3-24.6c-0.2,0-0.3-0.1-0.5-0.2c-0.1-0.1-0.2-0.3-0.2-0.5s0.1-0.3,0.2-0.5c0.2-0.2,0.7-0.2,0.9,0
				C8.9-25.6,9-25.4,9-25.2s-0.1,0.3-0.2,0.5C8.7-24.7,8.5-24.6,8.3-24.6z"/>
			<path d="M5.3-14.8c-0.2,0-0.3-0.1-0.5-0.2c-0.1-0.1-0.2-0.3-0.2-0.5s0.1-0.3,0.2-0.5c0.2-0.2,0.7-0.2,0.9,0
				C5.9-15.8,6-15.7,6-15.5S5.9-15.2,5.8-15C5.7-14.9,5.5-14.8,5.3-14.8z"/>
			<path d="M2.6-4.6c-0.2,0-0.3-0.1-0.5-0.2C2-4.9,2-5.1,2-5.2S2-5.6,2.1-5.7C2.4-6,2.8-6,3.1-5.7c0.1,0.1,0.2,0.3,0.2,0.5
				S3.2-4.9,3.1-4.8C2.9-4.7,2.8-4.6,2.6-4.6z"/>
			<path d="M18.1-1.8c-0.2,0-0.3-0.1-0.5-0.2c-0.1-0.1-0.2-0.3-0.2-0.5s0.1-0.3,0.2-0.5c0.2-0.2,0.7-0.2,0.9,0
				c0.1,0.1,0.2,0.3,0.2,0.5S18.7-2.2,18.6-2C18.4-1.9,18.3-1.8,18.1-1.8z"/>
			<path d="M19.6-9.3c-0.2,0-0.3-0.1-0.5-0.2C19-9.7,19-9.8,19-10c0-0.2,0.1-0.3,0.2-0.5c0.2-0.2,0.7-0.2,0.9,0
				c0.1,0.1,0.2,0.3,0.2,0.5c0,0.2-0.1,0.3-0.2,0.5C19.9-9.4,19.8-9.3,19.6-9.3z"/>
			<path d="M21.3-26.3c-0.2,0-0.3-0.1-0.5-0.2c-0.1-0.1-0.2-0.3-0.2-0.5c0-0.2,0.1-0.3,0.2-0.5c0.2-0.2,0.7-0.2,0.9,0
				c0.1,0.1,0.2,0.3,0.2,0.5s-0.1,0.3-0.2,0.5C21.7-26.4,21.5-26.3,21.3-26.3z"/>
			<path d="M28.8-20.6c-0.2,0-0.3-0.1-0.5-0.2c-0.1-0.1-0.2-0.3-0.2-0.5s0.1-0.3,0.2-0.5c0.2-0.2,0.7-0.2,0.9,0
				c0.1,0.1,0.2,0.3,0.2,0.5s-0.1,0.3-0.2,0.5C29.2-20.7,29-20.6,28.8-20.6z"/>
			<path d="M34.3-11.3c-0.2,0-0.3-0.1-0.5-0.2c-0.1-0.1-0.2-0.3-0.2-0.5c0-0.2,0.1-0.3,0.2-0.5c0.2-0.2,0.7-0.2,0.9,0
				c0.1,0.1,0.2,0.3,0.2,0.5s-0.1,0.3-0.2,0.5C34.7-11.4,34.5-11.3,34.3-11.3z"/>
			<path d="M34.6-4.8c-0.2,0-0.3-0.1-0.5-0.2C34-5.2,34-5.3,34-5.5S34-5.8,34.1-6c0.2-0.2,0.7-0.2,0.9,0c0.1,0.1,0.2,0.3,0.2,0.5
				S35.2-5.2,35.1-5C34.9-4.9,34.8-4.8,34.6-4.8z"/>
			<path d="M42.1-16.6c-0.2,0-0.3-0.1-0.5-0.2c-0.1-0.1-0.2-0.3-0.2-0.5s0.1-0.3,0.2-0.5c0.2-0.2,0.7-0.2,0.9,0
				c0.1,0.1,0.2,0.3,0.2,0.5s-0.1,0.3-0.2,0.5C42.4-16.7,42.3-16.6,42.1-16.6z"/>
			<path d="M52.6-11.8c-0.2,0-0.3-0.1-0.5-0.2C52-12.2,52-12.3,52-12.5s0.1-0.3,0.2-0.5c0.2-0.2,0.7-0.2,0.9,0
				c0.1,0.1,0.2,0.3,0.2,0.5s-0.1,0.3-0.2,0.5C52.9-11.9,52.8-11.8,52.6-11.8z"/>
			<path d="M55.3-6.3c-0.2,0-0.3-0.1-0.5-0.2c-0.1-0.1-0.2-0.3-0.2-0.5c0-0.2,0.1-0.3,0.2-0.5c0.2-0.2,0.7-0.2,0.9,0
				C55.9-7.3,56-7.2,56-7c0,0.2-0.1,0.3-0.2,0.5C55.7-6.4,55.5-6.3,55.3-6.3z"/>
			<path d="M25.6-47.1c-0.2,0-0.3-0.1-0.5-0.2C25-47.4,25-47.6,25-47.8s0.1-0.3,0.2-0.5c0.2-0.2,0.7-0.2,0.9,0
				c0.1,0.1,0.2,0.3,0.2,0.5s-0.1,0.3-0.2,0.5C25.9-47.2,25.8-47.1,25.6-47.1z"/>
			<path d="M35.6-48.3c-0.2,0-0.3-0.1-0.5-0.2C35-48.7,35-48.8,35-49s0.1-0.3,0.2-0.5c0.2-0.2,0.7-0.2,0.9,0
				c0.1,0.1,0.2,0.3,0.2,0.5s-0.1,0.3-0.2,0.5C35.9-48.4,35.8-48.3,35.6-48.3z"/>
			<path d="M45.3-42.1c-0.2,0-0.3-0.1-0.5-0.2c-0.1-0.1-0.2-0.3-0.2-0.5s0.1-0.3,0.2-0.5c0.2-0.2,0.7-0.2,0.9,0
				c0.1,0.1,0.2,0.3,0.2,0.5s-0.1,0.3-0.2,0.5C45.7-42.2,45.5-42.1,45.3-42.1z"/>
			<path d="M52.3-28.6c-0.2,0-0.3-0.1-0.5-0.2c-0.1-0.1-0.2-0.3-0.2-0.5s0.1-0.3,0.2-0.5c0.2-0.2,0.7-0.2,0.9,0
				c0.1,0.1,0.2,0.3,0.2,0.5c0,0.2-0.1,0.3-0.2,0.5C52.7-28.7,52.5-28.6,52.3-28.6z"/>
			<path d="M67.3-19.8c-0.2,0-0.3-0.1-0.5-0.2c-0.1-0.1-0.2-0.3-0.2-0.5c0-0.2,0.1-0.3,0.2-0.5c0.2-0.2,0.7-0.2,0.9,0
				c0.1,0.1,0.2,0.3,0.2,0.5s-0.1,0.3-0.2,0.5C67.7-19.9,67.5-19.8,67.3-19.8z"/>
			<path d="M47.6-23.8c-0.2,0-0.3-0.1-0.5-0.2C47-24.2,47-24.3,47-24.5s0.1-0.3,0.2-0.5c0.2-0.2,0.7-0.2,0.9,0
				c0.1,0.1,0.2,0.3,0.2,0.5s-0.1,0.3-0.2,0.5C47.9-23.9,47.8-23.8,47.6-23.8z"/>
			<path d="M37.3-27.1c-0.2,0-0.3-0.1-0.5-0.2c-0.1-0.1-0.2-0.3-0.2-0.5s0.1-0.3,0.2-0.5c0.2-0.2,0.7-0.2,0.9,0
				c0.1,0.1,0.2,0.3,0.2,0.5s-0.1,0.3-0.2,0.5C37.7-27.2,37.5-27.1,37.3-27.1z"/>
			<path d="M17.3-43.1c-0.2,0-0.3-0.1-0.5-0.2c-0.1-0.1-0.2-0.3-0.2-0.5s0.1-0.3,0.2-0.5c0.2-0.2,0.7-0.2,0.9,0
				c0.1,0.1,0.2,0.3,0.2,0.5s-0.1,0.3-0.2,0.5C17.7-43.2,17.5-43.1,17.3-43.1z"/>
			<path d="M11.6-34.8c-0.2,0-0.3-0.1-0.5-0.2C11-35.2,11-35.3,11-35.5c0-0.2,0.1-0.3,0.2-0.5c0.2-0.2,0.7-0.2,0.9,0
				c0.1,0.1,0.2,0.3,0.2,0.5s-0.1,0.3-0.2,0.5C11.9-34.9,11.8-34.8,11.6-34.8z"/>
			<path d="M67.8-40.8c-0.2,0-0.3-0.1-0.5-0.2c-0.1-0.1-0.2-0.3-0.2-0.5s0.1-0.3,0.2-0.5c0.2-0.2,0.7-0.2,0.9,0
				c0.1,0.1,0.2,0.3,0.2,0.5c0,0.2-0.1,0.3-0.2,0.5C68.2-40.9,68-40.8,67.8-40.8z"/>
			<path d="M7.6-55.8c-0.2,0-0.3-0.1-0.5-0.2C7-56.2,7-56.3,7-56.5S7-56.8,7.1-57c0.2-0.2,0.7-0.2,0.9,0c0.1,0.1,0.2,0.3,0.2,0.5
				S8.2-56.2,8.1-56C7.9-55.9,7.8-55.8,7.6-55.8z"/>
			<path d="M8.8-66.3c-0.2,0-0.3-0.1-0.5-0.2c-0.1-0.1-0.2-0.3-0.2-0.5c0-0.2,0.1-0.3,0.2-0.5c0.2-0.2,0.7-0.2,0.9,0
				c0.1,0.1,0.2,0.3,0.2,0.5c0,0.2-0.1,0.3-0.2,0.5C9.2-66.4,9-66.3,8.8-66.3z"/>
			<path d="M3.8-69.1c-0.2,0-0.3-0.1-0.5-0.2c-0.1-0.1-0.2-0.3-0.2-0.5s0.1-0.3,0.2-0.5c0.2-0.2,0.7-0.2,0.9,0
				c0.1,0.1,0.2,0.3,0.2,0.5s-0.1,0.3-0.2,0.5C4.2-69.2,4-69.1,3.8-69.1z"/>
			<path d="M66.8-34.3c-0.2,0-0.3-0.1-0.5-0.2c-0.1-0.1-0.2-0.3-0.2-0.5s0.1-0.3,0.2-0.5c0.2-0.2,0.7-0.2,0.9,0
				c0.1,0.1,0.2,0.3,0.2,0.5c0,0.2-0.1,0.3-0.2,0.5C67.2-34.4,67-34.3,66.8-34.3z"/>
			<path d="M44.3-8.6c-0.2,0-0.3-0.1-0.5-0.2c-0.1-0.1-0.2-0.3-0.2-0.5s0.1-0.3,0.2-0.5c0.2-0.2,0.7-0.2,0.9,0
				C44.9-9.6,45-9.4,45-9.2s-0.1,0.3-0.2,0.5C44.7-8.7,44.5-8.6,44.3-8.6z"/>
			<path d="M26.1-1.6c-0.2,0-0.3-0.1-0.5-0.2c-0.1-0.1-0.2-0.3-0.2-0.5s0.1-0.3,0.2-0.5c0.2-0.2,0.7-0.2,0.9,0
				c0.1,0.1,0.2,0.3,0.2,0.5s-0.1,0.3-0.2,0.5C26.4-1.7,26.3-1.6,26.1-1.6z"/>
			<path d="M22.3-29.8c-0.2,0-0.3-0.1-0.5-0.2c-0.1-0.1-0.2-0.3-0.2-0.5s0.1-0.3,0.2-0.5c0.2-0.2,0.7-0.2,0.9,0
				c0.1,0.1,0.2,0.3,0.2,0.5s-0.1,0.3-0.2,0.5C22.7-29.9,22.5-29.8,22.3-29.8z"/>
			<path d="M24.3-42.6c-0.2,0-0.3-0.1-0.5-0.2c-0.1-0.1-0.2-0.3-0.2-0.5s0.1-0.3,0.2-0.5c0.2-0.2,0.7-0.2,0.9,0
				c0.1,0.1,0.2,0.3,0.2,0.5c0,0.2-0.1,0.3-0.2,0.5C24.7-42.7,24.5-42.6,24.3-42.6z"/>
			<path d="M41.8-37.1c-0.2,0-0.3-0.1-0.5-0.2c-0.1-0.1-0.2-0.3-0.2-0.5s0.1-0.3,0.2-0.5c0.2-0.2,0.7-0.2,0.9,0
				c0.1,0.1,0.2,0.3,0.2,0.5s-0.1,0.3-0.2,0.5C42.2-37.2,42-37.1,41.8-37.1z"/>
			<path d="M67.8-27.8c-0.2,0-0.3-0.1-0.5-0.2c-0.1-0.1-0.2-0.3-0.2-0.5s0.1-0.3,0.2-0.5c0.2-0.2,0.7-0.2,0.9,0
				c0.1,0.1,0.2,0.3,0.2,0.5c0,0.2-0.1,0.3-0.2,0.5C68.2-27.9,68-27.8,67.8-27.8z"/>
			<path d="M53.6-56.6c-0.2,0-0.3-0.1-0.5-0.2C53-56.9,53-57.1,53-57.2s0.1-0.3,0.2-0.5c0.2-0.2,0.7-0.2,0.9,0
				c0.1,0.1,0.2,0.3,0.2,0.5s-0.1,0.3-0.2,0.5C53.9-56.7,53.8-56.6,53.6-56.6z"/>
			<path d="M34.3-55.6c-0.2,0-0.3-0.1-0.5-0.2c-0.1-0.1-0.2-0.3-0.2-0.5c0-0.2,0.1-0.3,0.2-0.5c0.2-0.2,0.7-0.2,0.9,0
				c0.1,0.1,0.2,0.3,0.2,0.5c0,0.2-0.1,0.3-0.2,0.5C34.7-55.7,34.5-55.6,34.3-55.6z"/>
			<path d="M13.1-52.3c-0.2,0-0.3-0.1-0.5-0.2c-0.1-0.1-0.2-0.3-0.2-0.5s0.1-0.3,0.2-0.5c0.2-0.2,0.7-0.2,0.9,0
				c0.1,0.1,0.2,0.3,0.2,0.5s-0.1,0.3-0.2,0.5C13.4-52.4,13.3-52.3,13.1-52.3z"/>
			<path d="M49.8-67.1c-0.2,0-0.3-0.1-0.5-0.2c-0.1-0.1-0.2-0.3-0.2-0.5s0.1-0.3,0.2-0.5c0.2-0.2,0.7-0.2,0.9,0
				c0.1,0.1,0.2,0.3,0.2,0.5s-0.1,0.3-0.2,0.5C50.2-67.2,50-67.1,49.8-67.1z"/>
			<path d="M59.3-50.8c-0.2,0-0.3-0.1-0.5-0.2c-0.1-0.1-0.2-0.3-0.2-0.5s0.1-0.3,0.2-0.5c0.2-0.2,0.7-0.2,0.9,0
				c0.1,0.1,0.2,0.3,0.2,0.5c0,0.2-0.1,0.3-0.2,0.5C59.7-50.9,59.5-50.8,59.3-50.8z"/>
			<path d="M67.8-14.3c-0.2,0-0.3-0.1-0.5-0.2c-0.1-0.1-0.2-0.3-0.2-0.5s0.1-0.3,0.2-0.5c0.2-0.2,0.7-0.2,0.9,0
				c0.1,0.1,0.2,0.3,0.2,0.5c0,0.2-0.1,0.3-0.2,0.5C68.2-14.4,68-14.3,67.8-14.3z"/>
			<path d="M5.6-1.8C5.4-1.8,5.3-1.9,5.1-2S5-2.3,5-2.5S5-2.8,5.1-3c0.2-0.2,0.7-0.2,0.9,0c0.1,0.1,0.2,0.3,0.2,0.5S6.2-2.2,6.1-2
				C5.9-1.9,5.8-1.8,5.6-1.8z"/>
			<path d="M3.1-58.3c-0.2,0-0.3-0.1-0.5-0.2c-0.1-0.1-0.2-0.3-0.2-0.4s0.1-0.3,0.2-0.5c0.2-0.2,0.7-0.2,0.9,0
				c0.1,0.1,0.2,0.3,0.2,0.5s-0.1,0.3-0.2,0.5C3.4-58.4,3.3-58.3,3.1-58.3z"/>
			<path d="M16.8-68.3c-0.2,0-0.3-0.1-0.5-0.2c-0.1-0.1-0.2-0.3-0.2-0.5s0.1-0.3,0.2-0.5c0.2-0.2,0.7-0.2,0.9,0
				c0.1,0.1,0.2,0.3,0.2,0.5s-0.1,0.3-0.2,0.5C17.2-68.4,17-68.3,16.8-68.3z"/>
			<path d="M40.8-67.1c-0.2,0-0.3-0.1-0.5-0.2c-0.1-0.1-0.2-0.3-0.2-0.5s0.1-0.3,0.2-0.5c0.2-0.2,0.7-0.2,0.9,0
				c0.1,0.1,0.2,0.3,0.2,0.5c0,0.2-0.1,0.3-0.2,0.5C41.2-67.2,41-67.1,40.8-67.1z"/>
			<path d="M3.1-39.6c-0.2,0-0.3-0.1-0.5-0.2c-0.1-0.1-0.2-0.3-0.2-0.5s0.1-0.3,0.2-0.5c0.2-0.2,0.7-0.2,0.9,0
				c0.1,0.1,0.2,0.3,0.2,0.5s-0.1,0.3-0.2,0.5C3.4-39.7,3.3-39.6,3.1-39.6z"/>
			<path d="M7.8-46.6c-0.2,0-0.3-0.1-0.5-0.2c-0.1-0.1-0.2-0.3-0.2-0.5s0.1-0.3,0.2-0.5c0.2-0.2,0.7-0.2,0.9,0
				c0.1,0.1,0.2,0.3,0.2,0.5c0,0.2-0.1,0.3-0.2,0.5C8.2-46.7,8-46.6,7.8-46.6z"/>
			<path d="M4.3-24.8c-0.2,0-0.3-0.1-0.5-0.2c-0.1-0.1-0.2-0.3-0.2-0.5s0.1-0.3,0.2-0.5c0.2-0.2,0.7-0.2,0.9,0
				C4.9-25.8,5-25.7,5-25.5S4.9-25.2,4.8-25C4.7-24.9,4.5-24.8,4.3-24.8z"/>
			<path d="M11.3-21.1c-0.2,0-0.3-0.1-0.5-0.2c-0.1-0.1-0.2-0.3-0.2-0.5c0-0.2,0.1-0.3,0.2-0.5c0.2-0.2,0.7-0.2,0.9,0
				c0.1,0.1,0.2,0.3,0.2,0.5s-0.1,0.3-0.2,0.5C11.7-21.2,11.5-21.1,11.3-21.1z"/>
			<path d="M10.3-11.8c-0.2,0-0.3-0.1-0.5-0.2c-0.1-0.1-0.2-0.3-0.2-0.5s0.1-0.3,0.2-0.5c0.2-0.2,0.7-0.2,0.9,0
				c0.1,0.1,0.2,0.3,0.2,0.5s-0.1,0.3-0.2,0.5C10.7-11.9,10.5-11.8,10.3-11.8z"/>
			<path d="M13.8-5.8c-0.2,0-0.3-0.1-0.5-0.2c-0.1-0.1-0.2-0.3-0.2-0.5c0-0.2,0.1-0.3,0.2-0.5c0.2-0.2,0.7-0.2,0.9,0
				c0.1,0.1,0.2,0.3,0.2,0.5S14.4-6.2,14.3-6C14.2-5.9,14-5.8,13.8-5.8z"/>
			<path d="M22.3-18.3c-0.2,0-0.3-0.1-0.5-0.2c-0.1-0.1-0.2-0.3-0.2-0.5s0.1-0.3,0.2-0.5c0.2-0.2,0.7-0.2,0.9,0
				c0.1,0.1,0.2,0.3,0.2,0.5s-0.1,0.3-0.2,0.5C22.7-18.4,22.5-18.3,22.3-18.3z"/>
			<path d="M31.6-34.1c-0.2,0-0.3-0.1-0.5-0.2C31-34.4,31-34.6,31-34.8s0.1-0.3,0.2-0.5c0.2-0.2,0.7-0.2,0.9,0
				c0.1,0.1,0.2,0.3,0.2,0.5s-0.1,0.3-0.2,0.5C31.9-34.2,31.8-34.1,31.6-34.1z"/>
			<path d="M26.3-37.6c-0.2,0-0.3-0.1-0.5-0.2c-0.1-0.1-0.2-0.3-0.2-0.5s0.1-0.3,0.2-0.5c0.2-0.2,0.7-0.2,0.9,0
				c0.1,0.1,0.2,0.3,0.2,0.5s-0.1,0.3-0.2,0.5C26.7-37.7,26.5-37.6,26.3-37.6z"/>
			<path d="M37.6-43.1c-0.2,0-0.3-0.1-0.5-0.2C37-43.4,37-43.6,37-43.8s0.1-0.3,0.2-0.5c0.2-0.2,0.7-0.2,0.9,0
				c0.1,0.1,0.2,0.3,0.2,0.5s-0.1,0.3-0.2,0.5C37.9-43.2,37.8-43.1,37.6-43.1z"/>
			<path d="M62.1-55.1c-0.2,0-0.3-0.1-0.5-0.2c-0.1-0.1-0.2-0.3-0.2-0.5s0.1-0.3,0.2-0.5c0.2-0.2,0.7-0.2,0.9,0
				c0.1,0.1,0.2,0.3,0.2,0.5c0,0.2-0.1,0.3-0.2,0.5C62.4-55.2,62.3-55.1,62.1-55.1z"/>
			<path d="M61.6-44.6c-0.2,0-0.3-0.1-0.5-0.2C61-44.9,61-45.1,61-45.2s0.1-0.3,0.2-0.5c0.2-0.2,0.7-0.2,0.9,0
				c0.1,0.1,0.2,0.3,0.2,0.5s-0.1,0.3-0.2,0.5C61.9-44.7,61.8-44.6,61.6-44.6z"/>
			<path d="M59.1-14.6c-0.2,0-0.3-0.1-0.5-0.2c-0.1-0.1-0.2-0.3-0.2-0.5s0.1-0.3,0.2-0.5c0.2-0.2,0.7-0.2,0.9,0
				c0.1,0.1,0.2,0.3,0.2,0.5s-0.1,0.3-0.2,0.5C59.4-14.7,59.3-14.6,59.1-14.6z"/>
			<path d="M59.6-27.3c-0.2,0-0.3-0.1-0.5-0.2C59-27.7,59-27.8,59-28s0.1-0.3,0.2-0.5c0.2-0.2,0.7-0.2,0.9,0
				c0.1,0.1,0.2,0.3,0.2,0.5s-0.1,0.3-0.2,0.5C59.9-27.4,59.8-27.3,59.6-27.3z"/>
			<path d="M56.1-36.1c-0.2,0-0.3-0.1-0.5-0.2c-0.1-0.1-0.2-0.3-0.2-0.5s0.1-0.3,0.2-0.5c0.2-0.2,0.7-0.2,0.9,0
				c0.1,0.1,0.2,0.3,0.2,0.5s-0.1,0.3-0.2,0.5C56.4-36.2,56.3-36.1,56.1-36.1z"/>
			<path d="M69.6-1.1c-0.2,0-0.3-0.1-0.5-0.2C69-1.4,69-1.6,69-1.8s0.1-0.3,0.2-0.5c0.2-0.2,0.7-0.2,0.9,0c0.1,0.1,0.2,0.3,0.2,0.5
				s-0.1,0.3-0.2,0.5C69.9-1.2,69.8-1.1,69.6-1.1z"/>
			<path d="M61.1-5.8c-0.2,0-0.3-0.1-0.5-0.2c-0.1-0.1-0.2-0.3-0.2-0.5s0.1-0.3,0.2-0.5c0.2-0.2,0.7-0.2,0.9,0
				c0.1,0.1,0.2,0.3,0.2,0.5c0,0.2-0.1,0.3-0.2,0.5C61.4-5.9,61.3-5.8,61.1-5.8z"/>
			<path d="M44.8-0.3c-0.2,0-0.3-0.1-0.5-0.2c-0.1-0.1-0.2-0.3-0.2-0.5c0-0.2,0.1-0.3,0.2-0.5c0.2-0.2,0.7-0.2,0.9,0
				c0.1,0.1,0.2,0.3,0.2,0.5c0,0.2-0.1,0.3-0.2,0.5C45.2-0.4,45-0.3,44.8-0.3z"/>
			<path d="M24.8-70.6c-0.2,0-0.3-0.1-0.5-0.2c-0.1-0.1-0.2-0.3-0.2-0.5c0-0.2,0.1-0.3,0.2-0.5c0.2-0.2,0.7-0.2,0.9,0
				c0.1,0.1,0.2,0.3,0.2,0.5s-0.1,0.3-0.2,0.5C25.2-70.7,25-70.6,24.8-70.6z"/>
		</g>
		<g>
			<path d="M0.3-48.4c-0.1,0-0.2,0-0.2-0.1C0-48.6,0-48.7,0-48.8s0-0.2,0.1-0.2c0.1-0.1,0.4-0.1,0.5,0c0.1,0.1,0.1,0.2,0.1,0.2
				s0,0.2-0.1,0.2C0.5-48.4,0.4-48.4,0.3-48.4z"/>
		</g>
	</g>
</pattern>
<pattern  width="72" height="74.8" patternUnits="userSpaceOnUse" id="USGS_8_Sewage_Disposal" viewBox="72.2 -74.8 72 74.8" style="overflow:visible;">
	<g>
		<rect x="72.2" y="-74.8" class="st0" width="72" height="74.8"/>
		<g>
			<line class="st1" x1="144.2" y1="-0.8" x2="216.2" y2="-0.8"/>
			<line class="st1" x1="144.2" y1="-2.5" x2="216.2" y2="-2.5"/>
			<line class="st1" x1="144.2" y1="-4.2" x2="216.2" y2="-4.2"/>
			<line class="st1" x1="144.2" y1="-6" x2="216.2" y2="-6"/>
			<line class="st1" x1="144.2" y1="-7.7" x2="216.2" y2="-7.7"/>
			<line class="st1" x1="144.2" y1="-9.3" x2="216.2" y2="-9.3"/>
			<line class="st1" x1="144.2" y1="-11" x2="216.2" y2="-11"/>
			<line class="st1" x1="144.2" y1="-12.8" x2="216.2" y2="-12.8"/>
			<line class="st1" x1="144.2" y1="-14.5" x2="216.2" y2="-14.5"/>
			<line class="st1" x1="144.2" y1="-16.2" x2="216.2" y2="-16.2"/>
			<line class="st1" x1="144.2" y1="-17.8" x2="216.2" y2="-17.8"/>
			<line class="st1" x1="144.2" y1="-19.5" x2="216.2" y2="-19.5"/>
			<line class="st1" x1="144.2" y1="-21.2" x2="216.2" y2="-21.2"/>
			<line class="st1" x1="144.2" y1="-22.9" x2="216.2" y2="-22.9"/>
			<line class="st1" x1="144.2" y1="-24.6" x2="216.2" y2="-24.6"/>
			<line class="st1" x1="144.2" y1="-26.3" x2="216.2" y2="-26.3"/>
			<line class="st1" x1="144.2" y1="-28" x2="216.2" y2="-28"/>
			<line class="st1" x1="144.2" y1="-29.7" x2="216.2" y2="-29.7"/>
			<line class="st1" x1="144.2" y1="-31.4" x2="216.2" y2="-31.4"/>
			<line class="st1" x1="144.2" y1="-33.1" x2="216.2" y2="-33.1"/>
			<line class="st1" x1="144.2" y1="-34.8" x2="216.2" y2="-34.8"/>
			<line class="st1" x1="144.2" y1="-36.5" x2="216.2" y2="-36.5"/>
			<line class="st1" x1="144.2" y1="-38.2" x2="216.2" y2="-38.2"/>
			<line class="st1" x1="144.2" y1="-39.9" x2="216.2" y2="-39.9"/>
			<line class="st1" x1="144.2" y1="-41.6" x2="216.2" y2="-41.6"/>
			<line class="st1" x1="144.2" y1="-43.3" x2="216.2" y2="-43.3"/>
			<line class="st1" x1="144.2" y1="-45" x2="216.2" y2="-45"/>
			<line class="st1" x1="144.2" y1="-46.7" x2="216.2" y2="-46.7"/>
			<line class="st1" x1="144.2" y1="-48.4" x2="216.2" y2="-48.4"/>
			<line class="st1" x1="144.2" y1="-50.1" x2="216.2" y2="-50.1"/>
			<line class="st1" x1="144.2" y1="-51.8" x2="216.2" y2="-51.8"/>
			<line class="st1" x1="144.2" y1="-53.5" x2="216.2" y2="-53.5"/>
			<line class="st1" x1="144.2" y1="-55.2" x2="216.2" y2="-55.2"/>
			<line class="st1" x1="144.2" y1="-56.9" x2="216.2" y2="-56.9"/>
			<line class="st1" x1="144.2" y1="-58.6" x2="216.2" y2="-58.6"/>
			<line class="st1" x1="144.2" y1="-60.3" x2="216.2" y2="-60.3"/>
			<line class="st1" x1="144.2" y1="-62" x2="216.2" y2="-62"/>
			<line class="st1" x1="144.2" y1="-63.7" x2="216.2" y2="-63.7"/>
			<line class="st1" x1="144.2" y1="-65.4" x2="216.2" y2="-65.4"/>
			<line class="st1" x1="144.2" y1="-67.1" x2="216.2" y2="-67.1"/>
			<line class="st1" x1="144.2" y1="-68.8" x2="216.2" y2="-68.8"/>
			<line class="st1" x1="144.2" y1="-70.5" x2="216.2" y2="-70.5"/>
			<line class="st1" x1="144.2" y1="-72.2" x2="216.2" y2="-72.2"/>
			<line class="st1" x1="144.2" y1="-73.9" x2="216.2" y2="-73.9"/>
		</g>
		<g>
			<line class="st1" x1="72.2" y1="-0.8" x2="144.2" y2="-0.8"/>
			<line class="st1" x1="72.2" y1="-2.5" x2="144.2" y2="-2.5"/>
			<line class="st1" x1="72.2" y1="-4.2" x2="144.2" y2="-4.2"/>
			<line class="st1" x1="72.2" y1="-6" x2="144.2" y2="-6"/>
			<line class="st1" x1="72.2" y1="-7.7" x2="144.2" y2="-7.7"/>
			<line class="st1" x1="72.2" y1="-9.3" x2="144.2" y2="-9.3"/>
			<line class="st1" x1="72.2" y1="-11" x2="144.2" y2="-11"/>
			<line class="st1" x1="72.2" y1="-12.8" x2="144.2" y2="-12.8"/>
			<line class="st1" x1="72.2" y1="-14.5" x2="144.2" y2="-14.5"/>
			<line class="st1" x1="72.2" y1="-16.2" x2="144.2" y2="-16.2"/>
			<line class="st1" x1="72.2" y1="-17.8" x2="144.2" y2="-17.8"/>
			<line class="st1" x1="72.2" y1="-19.5" x2="144.2" y2="-19.5"/>
			<line class="st1" x1="72.2" y1="-21.2" x2="144.2" y2="-21.2"/>
			<line class="st1" x1="72.2" y1="-22.9" x2="144.2" y2="-22.9"/>
			<line class="st1" x1="72.2" y1="-24.6" x2="144.2" y2="-24.6"/>
			<line class="st1" x1="72.2" y1="-26.3" x2="144.2" y2="-26.3"/>
			<line class="st1" x1="72.2" y1="-28" x2="144.2" y2="-28"/>
			<line class="st1" x1="72.2" y1="-29.7" x2="144.2" y2="-29.7"/>
			<line class="st1" x1="72.2" y1="-31.4" x2="144.2" y2="-31.4"/>
			<line class="st1" x1="72.2" y1="-33.1" x2="144.2" y2="-33.1"/>
			<line class="st1" x1="72.2" y1="-34.8" x2="144.2" y2="-34.8"/>
			<line class="st1" x1="72.2" y1="-36.5" x2="144.2" y2="-36.5"/>
			<line class="st1" x1="72.2" y1="-38.2" x2="144.2" y2="-38.2"/>
			<line class="st1" x1="72.2" y1="-39.9" x2="144.2" y2="-39.9"/>
			<line class="st1" x1="72.2" y1="-41.6" x2="144.2" y2="-41.6"/>
			<line class="st1" x1="72.2" y1="-43.3" x2="144.2" y2="-43.3"/>
			<line class="st1" x1="72.2" y1="-45" x2="144.2" y2="-45"/>
			<line class="st1" x1="72.2" y1="-46.7" x2="144.2" y2="-46.7"/>
			<line class="st1" x1="72.2" y1="-48.4" x2="144.2" y2="-48.4"/>
			<line class="st1" x1="72.2" y1="-50.1" x2="144.2" y2="-50.1"/>
			<line class="st1" x1="72.2" y1="-51.8" x2="144.2" y2="-51.8"/>
			<line class="st1" x1="72.2" y1="-53.5" x2="144.2" y2="-53.5"/>
			<line class="st1" x1="72.2" y1="-55.2" x2="144.2" y2="-55.2"/>
			<line class="st1" x1="72.2" y1="-56.9" x2="144.2" y2="-56.9"/>
			<line class="st1" x1="72.2" y1="-58.6" x2="144.2" y2="-58.6"/>
			<line class="st1" x1="72.2" y1="-60.3" x2="144.2" y2="-60.3"/>
			<line class="st1" x1="72.2" y1="-62" x2="144.2" y2="-62"/>
			<line class="st1" x1="72.2" y1="-63.7" x2="144.2" y2="-63.7"/>
			<line class="st1" x1="72.2" y1="-65.4" x2="144.2" y2="-65.4"/>
			<line class="st1" x1="72.2" y1="-67.1" x2="144.2" y2="-67.1"/>
			<line class="st1" x1="72.2" y1="-68.8" x2="144.2" y2="-68.8"/>
			<line class="st1" x1="72.2" y1="-70.5" x2="144.2" y2="-70.5"/>
			<line class="st1" x1="72.2" y1="-72.2" x2="144.2" y2="-72.2"/>
			<line class="st1" x1="72.2" y1="-73.9" x2="144.2" y2="-73.9"/>
		</g>
		<g>
			<line class="st1" x1="0.2" y1="-0.8" x2="72.2" y2="-0.8"/>
			<line class="st1" x1="0.2" y1="-2.5" x2="72.2" y2="-2.5"/>
			<line class="st1" x1="0.2" y1="-4.2" x2="72.2" y2="-4.2"/>
			<line class="st1" x1="0.2" y1="-6" x2="72.2" y2="-6"/>
			<line class="st1" x1="0.2" y1="-7.7" x2="72.2" y2="-7.7"/>
			<line class="st1" x1="0.2" y1="-9.3" x2="72.2" y2="-9.3"/>
			<line class="st1" x1="0.2" y1="-11" x2="72.2" y2="-11"/>
			<line class="st1" x1="0.2" y1="-12.8" x2="72.2" y2="-12.8"/>
			<line class="st1" x1="0.2" y1="-14.5" x2="72.2" y2="-14.5"/>
			<line class="st1" x1="0.2" y1="-16.2" x2="72.2" y2="-16.2"/>
			<line class="st1" x1="0.2" y1="-17.8" x2="72.2" y2="-17.8"/>
			<line class="st1" x1="0.2" y1="-19.5" x2="72.2" y2="-19.5"/>
			<line class="st1" x1="0.2" y1="-21.2" x2="72.2" y2="-21.2"/>
			<line class="st1" x1="0.2" y1="-22.9" x2="72.2" y2="-22.9"/>
			<line class="st1" x1="0.2" y1="-24.6" x2="72.2" y2="-24.6"/>
			<line class="st1" x1="0.2" y1="-26.3" x2="72.2" y2="-26.3"/>
			<line class="st1" x1="0.2" y1="-28" x2="72.2" y2="-28"/>
			<line class="st1" x1="0.2" y1="-29.7" x2="72.2" y2="-29.7"/>
			<line class="st1" x1="0.2" y1="-31.4" x2="72.2" y2="-31.4"/>
			<line class="st1" x1="0.2" y1="-33.1" x2="72.2" y2="-33.1"/>
			<line class="st1" x1="0.2" y1="-34.8" x2="72.2" y2="-34.8"/>
			<line class="st1" x1="0.2" y1="-36.5" x2="72.2" y2="-36.5"/>
			<line class="st1" x1="0.2" y1="-38.2" x2="72.2" y2="-38.2"/>
			<line class="st1" x1="0.2" y1="-39.9" x2="72.2" y2="-39.9"/>
			<line class="st1" x1="0.2" y1="-41.6" x2="72.2" y2="-41.6"/>
			<line class="st1" x1="0.2" y1="-43.3" x2="72.2" y2="-43.3"/>
			<line class="st1" x1="0.2" y1="-45" x2="72.2" y2="-45"/>
			<line class="st1" x1="0.2" y1="-46.7" x2="72.2" y2="-46.7"/>
			<line class="st1" x1="0.2" y1="-48.4" x2="72.2" y2="-48.4"/>
			<line class="st1" x1="0.2" y1="-50.1" x2="72.2" y2="-50.1"/>
			<line class="st1" x1="0.2" y1="-51.8" x2="72.2" y2="-51.8"/>
			<line class="st1" x1="0.2" y1="-53.5" x2="72.2" y2="-53.5"/>
			<line class="st1" x1="0.2" y1="-55.2" x2="72.2" y2="-55.2"/>
			<line class="st1" x1="0.2" y1="-56.9" x2="72.2" y2="-56.9"/>
			<line class="st1" x1="0.2" y1="-58.6" x2="72.2" y2="-58.6"/>
			<line class="st1" x1="0.2" y1="-60.3" x2="72.2" y2="-60.3"/>
			<line class="st1" x1="0.2" y1="-62" x2="72.2" y2="-62"/>
			<line class="st1" x1="0.2" y1="-63.7" x2="72.2" y2="-63.7"/>
			<line class="st1" x1="0.2" y1="-65.4" x2="72.2" y2="-65.4"/>
			<line class="st1" x1="0.2" y1="-67.1" x2="72.2" y2="-67.1"/>
			<line class="st1" x1="0.2" y1="-68.8" x2="72.2" y2="-68.8"/>
			<line class="st1" x1="0.2" y1="-70.5" x2="72.2" y2="-70.5"/>
			<line class="st1" x1="0.2" y1="-72.2" x2="72.2" y2="-72.2"/>
			<line class="st1" x1="0.2" y1="-73.9" x2="72.2" y2="-73.9"/>
		</g>
	</g>
</pattern>
<g>
	<g>
		<path d="M30.7,146.6c0.3-0.1,0.8-0.1,1.4-0.1c0.7,0,1.2,0.2,1.6,0.5c0.3,0.3,0.5,0.7,0.5,1.2c0,0.5-0.1,0.9-0.4,1.2
			c-0.4,0.4-1,0.6-1.7,0.6c-0.2,0-0.4,0-0.6,0v2.2h-0.7V146.6z M31.4,149.3c0.2,0,0.4,0.1,0.6,0.1c0.9,0,1.4-0.4,1.4-1.2
			c0-0.7-0.5-1.1-1.3-1.1c-0.3,0-0.6,0-0.7,0.1V149.3z"/>
		<path d="M35.1,146.3h0.7v5.9h-0.7V146.3z"/>
		<path d="M39.2,152.2l-0.1-0.5h0c-0.2,0.3-0.7,0.6-1.2,0.6c-0.8,0-1.2-0.6-1.2-1.2c0-1,0.9-1.5,2.4-1.5v-0.1c0-0.3-0.1-0.9-0.9-0.9
			c-0.4,0-0.8,0.1-1,0.3l-0.2-0.5c0.3-0.2,0.8-0.4,1.3-0.4c1.2,0,1.5,0.8,1.5,1.6v1.5c0,0.3,0,0.7,0.1,1H39.2z M39.1,150.1
			c-0.8,0-1.7,0.1-1.7,0.9c0,0.5,0.3,0.7,0.7,0.7c0.5,0,0.9-0.3,1-0.7c0-0.1,0-0.2,0-0.2V150.1z"/>
		<path d="M43.9,152c-0.2,0.1-0.6,0.2-1.2,0.2c-1.2,0-2-0.8-2-2.1c0-1.2,0.8-2.1,2.2-2.1c0.4,0,0.8,0.1,1,0.2l-0.2,0.6
			c-0.2-0.1-0.4-0.2-0.8-0.2c-0.9,0-1.4,0.7-1.4,1.5c0,0.9,0.6,1.5,1.4,1.5c0.4,0,0.7-0.1,0.9-0.2L43.9,152z"/>
		<path d="M45.1,150.3c0,1,0.6,1.4,1.4,1.4c0.5,0,0.8-0.1,1.1-0.2l0.1,0.5c-0.3,0.1-0.7,0.2-1.3,0.2c-1.2,0-2-0.8-2-2
			c0-1.2,0.7-2.2,1.9-2.2c1.3,0,1.7,1.2,1.7,1.9c0,0.2,0,0.3,0,0.3H45.1z M47.2,149.8c0-0.5-0.2-1.2-1-1.2c-0.7,0-1.1,0.7-1.1,1.2
			H47.2z"/>
		<path d="M50.7,152.2v-3.5h-0.6v-0.6h0.6V148c0-0.6,0.2-1.1,0.6-1.4c0.3-0.3,0.7-0.4,1.3-0.4c0.5,0,0.9,0.1,1.2,0.3v5.7H53v-5.3
			c-0.1-0.1-0.3-0.1-0.6-0.1c-0.8,0-1,0.6-1,1.2v0.2h0.9v0.6h-0.9v3.5H50.7z"/>
		<path d="M58.6,150.1c0,1.5-1,2.1-2,2.1c-1.1,0-1.9-0.8-1.9-2.1c0-1.3,0.9-2.1,2-2.1C57.8,148,58.6,148.9,58.6,150.1z M55.4,150.2
			c0,0.9,0.5,1.5,1.2,1.5c0.7,0,1.2-0.7,1.2-1.6c0-0.7-0.3-1.5-1.2-1.5C55.8,148.6,55.4,149.4,55.4,150.2z"/>
		<path d="M63.2,150.1c0,1.5-1,2.1-2,2.1c-1.1,0-1.9-0.8-1.9-2.1c0-1.3,0.9-2.1,2-2.1C62.4,148,63.2,148.9,63.2,150.1z M60,150.2
			c0,0.9,0.5,1.5,1.2,1.5c0.7,0,1.2-0.7,1.2-1.6c0-0.7-0.3-1.5-1.2-1.5C60.4,148.6,60,149.4,60,150.2z"/>
		<path d="M64.1,149.4c0-0.5,0-0.9,0-1.3h0.6l0,0.8h0c0.2-0.5,0.6-0.9,1.1-0.9c0.1,0,0.1,0,0.2,0v0.7c-0.1,0-0.1,0-0.2,0
			c-0.5,0-0.9,0.4-1,0.9c0,0.1,0,0.2,0,0.3v2.1h-0.7V149.4z"/>
		<path d="M67.7,147c0,0.2-0.2,0.4-0.5,0.4c-0.3,0-0.4-0.2-0.4-0.4c0-0.3,0.2-0.5,0.5-0.5C67.5,146.5,67.7,146.7,67.7,147z
			 M66.8,152.2v-4h0.7v4H66.8z"/>
		<path d="M68.8,149.2c0-0.4,0-0.8,0-1.1h0.6l0,0.7h0c0.2-0.4,0.7-0.8,1.3-0.8c0.6,0,1.4,0.3,1.4,1.7v2.4h-0.7v-2.3
			c0-0.6-0.2-1.2-0.9-1.2c-0.5,0-0.9,0.3-1,0.7c0,0.1,0,0.2,0,0.3v2.4h-0.7V149.2z"/>
		<path d="M76.9,148.1c0,0.3,0,0.6,0,1.1v2.3c0,0.9-0.2,1.5-0.6,1.8c-0.4,0.4-1,0.5-1.5,0.5c-0.5,0-1-0.1-1.3-0.3l0.2-0.6
			c0.3,0.2,0.7,0.3,1.2,0.3c0.7,0,1.3-0.4,1.3-1.4v-0.4h0c-0.2,0.4-0.7,0.7-1.3,0.7c-1,0-1.7-0.8-1.7-2c0-1.4,0.9-2.1,1.8-2.1
			c0.7,0,1.1,0.4,1.3,0.7h0l0-0.6H76.9z M76.1,149.7c0-0.1,0-0.2,0-0.3c-0.1-0.4-0.5-0.8-1-0.8c-0.7,0-1.2,0.6-1.2,1.5
			c0,0.8,0.4,1.4,1.2,1.4c0.4,0,0.9-0.3,1-0.7c0-0.1,0.1-0.3,0.1-0.4V149.7z"/>
		<path d="M79.8,149.2c0-0.4,0-0.8,0-1.1h0.6l0,0.6h0c0.2-0.4,0.6-0.7,1.3-0.7c0.5,0,1,0.3,1.1,0.8h0c0.1-0.2,0.3-0.4,0.4-0.5
			c0.2-0.2,0.5-0.3,0.9-0.3c0.5,0,1.3,0.3,1.3,1.7v2.4h-0.7v-2.3c0-0.8-0.3-1.2-0.9-1.2c-0.4,0-0.7,0.3-0.9,0.7
			c0,0.1-0.1,0.2-0.1,0.4v2.5h-0.7v-2.4c0-0.6-0.3-1.1-0.8-1.1c-0.5,0-0.8,0.4-0.9,0.7c0,0.1-0.1,0.2-0.1,0.4v2.4h-0.7V149.2z"/>
		<path d="M89,152.2l-0.1-0.5h0c-0.2,0.3-0.7,0.6-1.2,0.6c-0.8,0-1.2-0.6-1.2-1.2c0-1,0.9-1.5,2.4-1.5v-0.1c0-0.3-0.1-0.9-0.9-0.9
			c-0.4,0-0.8,0.1-1,0.3l-0.2-0.5c0.3-0.2,0.8-0.4,1.3-0.4c1.2,0,1.5,0.8,1.5,1.6v1.5c0,0.3,0,0.7,0.1,1H89z M88.9,150.1
			c-0.8,0-1.7,0.1-1.7,0.9c0,0.5,0.3,0.7,0.7,0.7c0.5,0,0.9-0.3,1-0.7c0-0.1,0-0.2,0-0.2V150.1z"/>
		<path d="M91.6,147v1.2h1v0.6h-1v2.2c0,0.5,0.1,0.8,0.5,0.8c0.2,0,0.3,0,0.4,0l0,0.5c-0.1,0.1-0.4,0.1-0.6,0.1
			c-0.3,0-0.6-0.1-0.8-0.3c-0.2-0.2-0.3-0.6-0.3-1v-2.2h-0.6v-0.6h0.6v-1L91.6,147z"/>
		<path d="M93.8,150.3c0,1,0.6,1.4,1.4,1.4c0.5,0,0.8-0.1,1.1-0.2l0.1,0.5c-0.3,0.1-0.7,0.2-1.3,0.2c-1.2,0-2-0.8-2-2
			c0-1.2,0.7-2.2,1.9-2.2c1.3,0,1.7,1.2,1.7,1.9c0,0.2,0,0.3,0,0.3H93.8z M96,149.8c0-0.5-0.2-1.2-1-1.2c-0.7,0-1.1,0.7-1.1,1.2H96z
			"/>
		<path d="M97.6,149.4c0-0.5,0-0.9,0-1.3h0.6l0,0.8h0c0.2-0.5,0.6-0.9,1.1-0.9c0.1,0,0.1,0,0.2,0v0.7c-0.1,0-0.1,0-0.2,0
			c-0.5,0-0.9,0.4-1,0.9c0,0.1,0,0.2,0,0.3v2.1h-0.7V149.4z"/>
		<path d="M101.1,147c0,0.2-0.2,0.4-0.5,0.4c-0.3,0-0.4-0.2-0.4-0.4c0-0.3,0.2-0.5,0.5-0.5C101,146.5,101.1,146.7,101.1,147z
			 M100.3,152.2v-4h0.7v4H100.3z"/>
		<path d="M104.5,152.2l-0.1-0.5h0c-0.2,0.3-0.7,0.6-1.2,0.6c-0.8,0-1.2-0.6-1.2-1.2c0-1,0.9-1.5,2.4-1.5v-0.1
			c0-0.3-0.1-0.9-0.9-0.9c-0.4,0-0.8,0.1-1,0.3l-0.2-0.5c0.3-0.2,0.8-0.4,1.3-0.4c1.2,0,1.5,0.8,1.5,1.6v1.5c0,0.3,0,0.7,0.1,1
			H104.5z M104.4,150.1c-0.8,0-1.7,0.1-1.7,0.9c0,0.5,0.3,0.7,0.7,0.7c0.5,0,0.9-0.3,1-0.7c0-0.1,0-0.2,0-0.2V150.1z"/>
		<path d="M106.3,146.3h0.7v5.9h-0.7V146.3z"/>
		<path d="M113.6,150.1c0,1.5-1,2.1-2,2.1c-1.1,0-1.9-0.8-1.9-2.1c0-1.3,0.9-2.1,2-2.1C112.9,148,113.6,148.9,113.6,150.1z
			 M110.4,150.2c0,0.9,0.5,1.5,1.2,1.5c0.7,0,1.2-0.7,1.2-1.6c0-0.7-0.3-1.5-1.2-1.5C110.8,148.6,110.4,149.4,110.4,150.2z"/>
		<path d="M114.6,149.2c0-0.4,0-0.8,0-1.1h0.6l0,0.7h0c0.2-0.4,0.7-0.8,1.3-0.8c0.6,0,1.4,0.3,1.4,1.7v2.4h-0.7v-2.3
			c0-0.6-0.2-1.2-0.9-1.2c-0.5,0-0.9,0.3-1,0.7c0,0.1,0,0.2,0,0.3v2.4h-0.7V149.2z"/>
		<path d="M121.8,147v1.2h1v0.6h-1v2.2c0,0.5,0.1,0.8,0.5,0.8c0.2,0,0.3,0,0.4,0l0,0.5c-0.1,0.1-0.4,0.1-0.6,0.1
			c-0.3,0-0.6-0.1-0.8-0.3c-0.2-0.2-0.3-0.6-0.3-1v-2.2h-0.6v-0.6h0.6v-1L121.8,147z"/>
		<path d="M127.3,150.1c0,1.5-1,2.1-2,2.1c-1.1,0-1.9-0.8-1.9-2.1c0-1.3,0.9-2.1,2-2.1C126.5,148,127.3,148.9,127.3,150.1z
			 M124.1,150.2c0,0.9,0.5,1.5,1.2,1.5c0.7,0,1.2-0.7,1.2-1.6c0-0.7-0.3-1.5-1.2-1.5C124.5,148.6,124.1,149.4,124.1,150.2z"/>
		<path d="M128.2,149.4c0-0.5,0-0.9,0-1.3h0.7l0,0.7h0c0.3-0.5,0.8-0.8,1.4-0.8c1,0,1.7,0.8,1.7,2c0,1.4-0.9,2.2-1.8,2.2
			c-0.5,0-1-0.2-1.2-0.6h0v2.2h-0.7V149.4z M128.9,150.5c0,0.1,0,0.2,0,0.3c0.1,0.5,0.6,0.9,1.1,0.9c0.8,0,1.2-0.6,1.2-1.6
			c0-0.8-0.4-1.5-1.2-1.5c-0.5,0-1,0.4-1.1,0.9c0,0.1,0,0.2,0,0.3V150.5z"/>
		<path d="M138.3,150.1c0,1.5-1,2.1-2,2.1c-1.1,0-1.9-0.8-1.9-2.1c0-1.3,0.9-2.1,2-2.1C137.5,148,138.3,148.9,138.3,150.1z
			 M135.1,150.2c0,0.9,0.5,1.5,1.2,1.5c0.7,0,1.2-0.7,1.2-1.6c0-0.7-0.3-1.5-1.2-1.5C135.5,148.6,135.1,149.4,135.1,150.2z"/>
		<path d="M139.3,152.2v-3.5h-0.6v-0.6h0.6v-0.2c0-0.6,0.1-1.1,0.5-1.4c0.3-0.3,0.6-0.4,1-0.4c0.3,0,0.5,0.1,0.6,0.1l-0.1,0.6
			c-0.1-0.1-0.3-0.1-0.5-0.1c-0.6,0-0.8,0.5-0.8,1.2v0.2h1v0.6h-1v3.5H139.3z"/>
		<path d="M46.6,159.2c0-0.4,0-0.8,0-1.1h0.6l0,0.6h0c0.2-0.4,0.6-0.7,1.3-0.7c0.5,0,1,0.3,1.1,0.8h0c0.1-0.2,0.3-0.4,0.4-0.5
			c0.2-0.2,0.5-0.3,0.9-0.3c0.5,0,1.3,0.3,1.3,1.7v2.4h-0.7v-2.3c0-0.8-0.3-1.2-0.9-1.2c-0.4,0-0.7,0.3-0.9,0.7
			c0,0.1-0.1,0.2-0.1,0.4v2.5h-0.7v-2.4c0-0.6-0.3-1.1-0.8-1.1c-0.5,0-0.8,0.4-0.9,0.7c0,0.1-0.1,0.2-0.1,0.4v2.4h-0.7V159.2z"/>
		<path d="M56.9,161c0,0.4,0,0.8,0,1.1h-0.6l0-0.7h0c-0.2,0.3-0.6,0.7-1.3,0.7c-0.6,0-1.4-0.3-1.4-1.8v-2.4h0.7v2.2
			c0,0.8,0.2,1.3,0.9,1.3c0.5,0,0.8-0.3,1-0.7c0-0.1,0.1-0.2,0.1-0.4v-2.5h0.7V161z"/>
		<path d="M58.1,156.2h0.7v5.9h-0.7V156.2z"/>
		<path d="M60.9,157v1.2h1v0.6h-1v2.2c0,0.5,0.1,0.8,0.5,0.8c0.2,0,0.3,0,0.4,0l0,0.5c-0.1,0.1-0.4,0.1-0.6,0.1
			c-0.3,0-0.6-0.1-0.8-0.3c-0.2-0.2-0.3-0.6-0.3-1v-2.2h-0.6v-0.6h0.6v-1L60.9,157z"/>
		<path d="M63.6,157c0,0.2-0.2,0.4-0.5,0.4c-0.3,0-0.4-0.2-0.4-0.4c0-0.3,0.2-0.5,0.5-0.5C63.4,156.5,63.6,156.7,63.6,157z
			 M62.8,162.1v-4h0.7v4H62.8z"/>
		<path d="M66.4,159.6v0.5h-2.1v-0.5H66.4z"/>
		<path d="M67.3,159.4c0-0.5,0-0.9,0-1.3h0.7l0,0.7h0c0.3-0.5,0.8-0.8,1.4-0.8c1,0,1.7,0.8,1.7,2c0,1.4-0.9,2.2-1.8,2.2
			c-0.5,0-1-0.2-1.2-0.6h0v2.2h-0.7V159.4z M68,160.5c0,0.1,0,0.2,0,0.3c0.1,0.5,0.6,0.9,1.1,0.9c0.8,0,1.2-0.6,1.2-1.6
			c0-0.8-0.4-1.5-1.2-1.5c-0.5,0-1,0.4-1.1,0.9c0,0.1,0,0.2,0,0.3V160.5z"/>
		<path d="M75.4,161c0,0.4,0,0.8,0,1.1h-0.6l0-0.7h0c-0.2,0.3-0.6,0.7-1.3,0.7c-0.6,0-1.4-0.3-1.4-1.8v-2.4h0.7v2.2
			c0,0.8,0.2,1.3,0.9,1.3c0.5,0,0.8-0.3,1-0.7c0-0.1,0.1-0.2,0.1-0.4v-2.5h0.7V161z"/>
		<path d="M76.6,159.4c0-0.5,0-0.9,0-1.3h0.6l0,0.8h0c0.2-0.5,0.6-0.9,1.1-0.9c0.1,0,0.1,0,0.2,0v0.7c-0.1,0-0.1,0-0.2,0
			c-0.5,0-0.9,0.4-1,0.9c0,0.1,0,0.2,0,0.3v2.1h-0.7V159.4z"/>
		<path d="M79.3,159.4c0-0.5,0-0.9,0-1.3H80l0,0.7h0c0.3-0.5,0.8-0.8,1.4-0.8c1,0,1.7,0.8,1.7,2c0,1.4-0.9,2.2-1.8,2.2
			c-0.5,0-1-0.2-1.2-0.6h0v2.2h-0.7V159.4z M80.1,160.5c0,0.1,0,0.2,0,0.3c0.1,0.5,0.6,0.9,1.1,0.9c0.8,0,1.2-0.6,1.2-1.6
			c0-0.8-0.4-1.5-1.2-1.5c-0.5,0-1,0.4-1.1,0.9c0,0.1-0.1,0.2-0.1,0.3V160.5z"/>
		<path d="M87.7,160.1c0,1.5-1,2.1-2,2.1c-1.1,0-1.9-0.8-1.9-2.1c0-1.3,0.9-2.1,2-2.1C86.9,158,87.7,158.9,87.7,160.1z M84.5,160.1
			c0,0.9,0.5,1.5,1.2,1.5c0.7,0,1.2-0.7,1.2-1.6c0-0.7-0.3-1.5-1.2-1.5C84.9,158.6,84.5,159.4,84.5,160.1z"/>
		<path d="M88.5,161.4c0.2,0.1,0.6,0.3,1,0.3c0.5,0,0.8-0.3,0.8-0.6c0-0.3-0.2-0.5-0.7-0.7c-0.7-0.3-1.1-0.7-1.1-1.1
			c0-0.6,0.5-1.2,1.4-1.2c0.4,0,0.8,0.1,1,0.2l-0.2,0.5c-0.2-0.1-0.4-0.2-0.8-0.2c-0.4,0-0.7,0.2-0.7,0.5c0,0.3,0.2,0.5,0.8,0.7
			c0.7,0.3,1.1,0.6,1.1,1.2c0,0.7-0.5,1.2-1.5,1.2c-0.4,0-0.8-0.1-1.1-0.3L88.5,161.4z"/>
		<path d="M92.3,160.3c0,1,0.6,1.4,1.4,1.4c0.5,0,0.8-0.1,1.1-0.2l0.1,0.5c-0.3,0.1-0.7,0.2-1.3,0.2c-1.2,0-2-0.8-2-2
			c0-1.2,0.7-2.2,1.9-2.2c1.3,0,1.7,1.2,1.7,1.9c0,0.2,0,0.3,0,0.3H92.3z M94.5,159.7c0-0.5-0.2-1.2-1-1.2c-0.7,0-1.1,0.7-1.1,1.2
			H94.5z"/>
		<path d="M100.7,162c-0.2,0.1-0.6,0.2-1.2,0.2c-1.2,0-2-0.8-2-2.1c0-1.2,0.8-2.1,2.2-2.1c0.4,0,0.8,0.1,1,0.2l-0.2,0.6
			c-0.2-0.1-0.4-0.2-0.8-0.2c-0.9,0-1.4,0.7-1.4,1.5c0,0.9,0.6,1.5,1.4,1.5c0.4,0,0.7-0.1,0.9-0.2L100.7,162z"/>
		<path d="M101.9,160.3c0,1,0.6,1.4,1.4,1.4c0.5,0,0.8-0.1,1.1-0.2l0.1,0.5c-0.3,0.1-0.7,0.2-1.3,0.2c-1.2,0-2-0.8-2-2
			c0-1.2,0.7-2.2,1.9-2.2c1.3,0,1.7,1.2,1.7,1.9c0,0.2,0,0.3,0,0.3H101.9z M104.1,159.7c0-0.5-0.2-1.2-1-1.2c-0.7,0-1.1,0.7-1.1,1.2
			H104.1z"/>
		<path d="M105.7,159.2c0-0.4,0-0.8,0-1.1h0.6l0,0.6h0c0.2-0.4,0.6-0.7,1.3-0.7c0.5,0,1,0.3,1.1,0.8h0c0.1-0.2,0.3-0.4,0.4-0.5
			c0.2-0.2,0.5-0.3,0.9-0.3c0.5,0,1.3,0.3,1.3,1.7v2.4h-0.7v-2.3c0-0.8-0.3-1.2-0.9-1.2c-0.4,0-0.7,0.3-0.9,0.7
			c0,0.1-0.1,0.2-0.1,0.4v2.5h-0.7v-2.4c0-0.6-0.3-1.1-0.8-1.1c-0.5,0-0.8,0.4-0.9,0.7c0,0.1-0.1,0.2-0.1,0.4v2.4h-0.7V159.2z"/>
		<path d="M113,160.3c0,1,0.6,1.4,1.4,1.4c0.5,0,0.8-0.1,1.1-0.2l0.1,0.5c-0.3,0.1-0.7,0.2-1.3,0.2c-1.2,0-2-0.8-2-2
			c0-1.2,0.7-2.2,1.9-2.2c1.3,0,1.7,1.2,1.7,1.9c0,0.2,0,0.3,0,0.3H113z M115.2,159.7c0-0.5-0.2-1.2-1-1.2c-0.7,0-1.1,0.7-1.1,1.2
			H115.2z"/>
		<path d="M116.8,159.2c0-0.4,0-0.8,0-1.1h0.6l0,0.7h0c0.2-0.4,0.7-0.8,1.3-0.8c0.6,0,1.4,0.3,1.4,1.7v2.4h-0.7v-2.3
			c0-0.6-0.2-1.2-0.9-1.2c-0.5,0-0.9,0.3-1,0.7c0,0.1,0,0.2,0,0.3v2.4h-0.7V159.2z"/>
		<path d="M122.2,157v1.2h1v0.6h-1v2.2c0,0.5,0.1,0.8,0.5,0.8c0.2,0,0.3,0,0.4,0l0,0.5c-0.1,0.1-0.4,0.1-0.6,0.1
			c-0.3,0-0.6-0.1-0.8-0.3c-0.2-0.2-0.3-0.6-0.3-1v-2.2h-0.6v-0.6h0.6v-1L122.2,157z"/>
		<path d="M123.9,161.7c0-0.3,0.2-0.5,0.5-0.5s0.5,0.2,0.5,0.5c0,0.3-0.2,0.5-0.5,0.5C124.1,162.2,123.9,162,123.9,161.7z"/>
	</g>
	<pattern  id="SVGID_1_" xlink:href="#USGS_8_Sewage_Disposal" patternTransform="matrix(1 0 0 1 -23 -44.2767)">
	</pattern>
	<rect x="1.4" y="67.6" class="st2" width="167.2" height="63.9"/>
	
		<rect x="-2.8" y="5.4" transform="matrix(2.238482e-11 -1 1 2.238482e-11 -3.9999 174.0001)" class="st3" width="175.6" height="167.2"/>
	
		<rect x="62.6" y="70.8" transform="matrix(8.785512e-11 -1 1 8.785512e-11 -69.3797 239.3799)" class="st3" width="44.8" height="167.2"/>
	<circle cx="23.2" cy="23" r="11.5"/>
	<g>
		<polygon class="st4" points="122.5,114 47.5,114 51.3,91.3 118.7,91.3 		"/>
		<polygon class="st5" points="116.8,109.9 53.3,109.9 55.2,95.4 114.6,95.4 		"/>
	</g>
	<rect x="53" y="35.9" class="st6" width="64.9" height="4"/>
	<pattern  id="SVGID_2_" xlink:href="#USGS_8_Sewage_Disposal" patternTransform="matrix(1 0 0 1 -23 -43.8008)">
	</pattern>
	<polygon class="st7" points="117.9,35.9 53,35.9 56.3,18 114.6,18 	"/>
	<g>
		<path class="st5" d="M24,28.4v-2.8h-4.8v-0.9l4.6-6.5h1.5v6.4h1.4v1.1h-1.4v2.8H24z M24,24.5V21c0-0.5,0-1.1,0-1.6h0
			c-0.3,0.6-0.6,1-0.9,1.5l-2.5,3.5v0H24z"/>
	</g>
	<pattern  id="SVGID_3_" xlink:href="#USGS_22_Gravel_Beach" patternTransform="matrix(1 0 0 1 -112.0879 -345.1516)">
	</pattern>
	<polygon class="st8" points="116.8,109.9 53.2,109.9 55.2,95.4 114.6,95.4 	"/>
</g>
</svg>
