<?xml version="1.0" encoding="utf-8"?>
<!-- Generator: Adobe Illustrator 20.1.0, SVG Export Plug-In . SVG Version: 6.00 Build 0)  -->
<svg version="1.1" id="Layer_1" xmlns="http://www.w3.org/2000/svg" xmlns:xlink="http://www.w3.org/1999/xlink" x="0px" y="0px"
	 viewBox="0 0 170 178" style="enable-background:new 0 0 170 178;" xml:space="preserve">
<style type="text/css">
	.st0{fill:none;}
	.st1{fill:none;stroke:#000000;stroke-width:0.3;stroke-linecap:square;}
	.st2{fill:none;stroke:#000000;stroke-width:2;stroke-miterlimit:10;}
	.st3{fill:url(#SVGID_1_);stroke:#000000;stroke-width:2;stroke-miterlimit:10;}
	.st4{fill:none;stroke:#000000;stroke-width:5;stroke-linejoin:round;stroke-miterlimit:10;}
	.st5{fill:#D3D4D4;stroke:#000000;stroke-miterlimit:10;}
	.st6{fill:#D3D4D4;}
</style>
<pattern  width="72" height="74.8" patternUnits="userSpaceOnUse" id="USGS_8_Sewage_Disposal" viewBox="72.2 -74.8 72 74.8" style="overflow:visible;">
	<g>
		<rect x="72.2" y="-74.8" class="st0" width="72" height="74.8"/>
		<g>
			<line class="st1" x1="144.2" y1="-0.8" x2="216.2" y2="-0.8"/>
			<line class="st1" x1="144.2" y1="-2.5" x2="216.2" y2="-2.5"/>
			<line class="st1" x1="144.2" y1="-4.2" x2="216.2" y2="-4.2"/>
			<line class="st1" x1="144.2" y1="-6" x2="216.2" y2="-6"/>
			<line class="st1" x1="144.2" y1="-7.7" x2="216.2" y2="-7.7"/>
			<line class="st1" x1="144.2" y1="-9.3" x2="216.2" y2="-9.3"/>
			<line class="st1" x1="144.2" y1="-11" x2="216.2" y2="-11"/>
			<line class="st1" x1="144.2" y1="-12.8" x2="216.2" y2="-12.8"/>
			<line class="st1" x1="144.2" y1="-14.5" x2="216.2" y2="-14.5"/>
			<line class="st1" x1="144.2" y1="-16.2" x2="216.2" y2="-16.2"/>
			<line class="st1" x1="144.2" y1="-17.8" x2="216.2" y2="-17.8"/>
			<line class="st1" x1="144.2" y1="-19.5" x2="216.2" y2="-19.5"/>
			<line class="st1" x1="144.2" y1="-21.2" x2="216.2" y2="-21.2"/>
			<line class="st1" x1="144.2" y1="-22.9" x2="216.2" y2="-22.9"/>
			<line class="st1" x1="144.2" y1="-24.6" x2="216.2" y2="-24.6"/>
			<line class="st1" x1="144.2" y1="-26.3" x2="216.2" y2="-26.3"/>
			<line class="st1" x1="144.2" y1="-28" x2="216.2" y2="-28"/>
			<line class="st1" x1="144.2" y1="-29.7" x2="216.2" y2="-29.7"/>
			<line class="st1" x1="144.2" y1="-31.4" x2="216.2" y2="-31.4"/>
			<line class="st1" x1="144.2" y1="-33.1" x2="216.2" y2="-33.1"/>
			<line class="st1" x1="144.2" y1="-34.8" x2="216.2" y2="-34.8"/>
			<line class="st1" x1="144.2" y1="-36.5" x2="216.2" y2="-36.5"/>
			<line class="st1" x1="144.2" y1="-38.2" x2="216.2" y2="-38.2"/>
			<line class="st1" x1="144.2" y1="-39.9" x2="216.2" y2="-39.9"/>
			<line class="st1" x1="144.2" y1="-41.6" x2="216.2" y2="-41.6"/>
			<line class="st1" x1="144.2" y1="-43.3" x2="216.2" y2="-43.3"/>
			<line class="st1" x1="144.2" y1="-45" x2="216.2" y2="-45"/>
			<line class="st1" x1="144.2" y1="-46.7" x2="216.2" y2="-46.7"/>
			<line class="st1" x1="144.2" y1="-48.4" x2="216.2" y2="-48.4"/>
			<line class="st1" x1="144.2" y1="-50.1" x2="216.2" y2="-50.1"/>
			<line class="st1" x1="144.2" y1="-51.8" x2="216.2" y2="-51.8"/>
			<line class="st1" x1="144.2" y1="-53.5" x2="216.2" y2="-53.5"/>
			<line class="st1" x1="144.2" y1="-55.2" x2="216.2" y2="-55.2"/>
			<line class="st1" x1="144.2" y1="-56.9" x2="216.2" y2="-56.9"/>
			<line class="st1" x1="144.2" y1="-58.6" x2="216.2" y2="-58.6"/>
			<line class="st1" x1="144.2" y1="-60.3" x2="216.2" y2="-60.3"/>
			<line class="st1" x1="144.2" y1="-62" x2="216.2" y2="-62"/>
			<line class="st1" x1="144.2" y1="-63.7" x2="216.2" y2="-63.7"/>
			<line class="st1" x1="144.2" y1="-65.4" x2="216.2" y2="-65.4"/>
			<line class="st1" x1="144.2" y1="-67.1" x2="216.2" y2="-67.1"/>
			<line class="st1" x1="144.2" y1="-68.8" x2="216.2" y2="-68.8"/>
			<line class="st1" x1="144.2" y1="-70.5" x2="216.2" y2="-70.5"/>
			<line class="st1" x1="144.2" y1="-72.2" x2="216.2" y2="-72.2"/>
			<line class="st1" x1="144.2" y1="-73.9" x2="216.2" y2="-73.9"/>
		</g>
		<g>
			<line class="st1" x1="72.2" y1="-0.8" x2="144.2" y2="-0.8"/>
			<line class="st1" x1="72.2" y1="-2.5" x2="144.2" y2="-2.5"/>
			<line class="st1" x1="72.2" y1="-4.2" x2="144.2" y2="-4.2"/>
			<line class="st1" x1="72.2" y1="-6" x2="144.2" y2="-6"/>
			<line class="st1" x1="72.2" y1="-7.7" x2="144.2" y2="-7.7"/>
			<line class="st1" x1="72.2" y1="-9.3" x2="144.2" y2="-9.3"/>
			<line class="st1" x1="72.2" y1="-11" x2="144.2" y2="-11"/>
			<line class="st1" x1="72.2" y1="-12.8" x2="144.2" y2="-12.8"/>
			<line class="st1" x1="72.2" y1="-14.5" x2="144.2" y2="-14.5"/>
			<line class="st1" x1="72.2" y1="-16.2" x2="144.2" y2="-16.2"/>
			<line class="st1" x1="72.2" y1="-17.8" x2="144.2" y2="-17.8"/>
			<line class="st1" x1="72.2" y1="-19.5" x2="144.2" y2="-19.5"/>
			<line class="st1" x1="72.2" y1="-21.2" x2="144.2" y2="-21.2"/>
			<line class="st1" x1="72.2" y1="-22.9" x2="144.2" y2="-22.9"/>
			<line class="st1" x1="72.2" y1="-24.6" x2="144.2" y2="-24.6"/>
			<line class="st1" x1="72.2" y1="-26.3" x2="144.2" y2="-26.3"/>
			<line class="st1" x1="72.2" y1="-28" x2="144.2" y2="-28"/>
			<line class="st1" x1="72.2" y1="-29.7" x2="144.2" y2="-29.7"/>
			<line class="st1" x1="72.2" y1="-31.4" x2="144.2" y2="-31.4"/>
			<line class="st1" x1="72.2" y1="-33.1" x2="144.2" y2="-33.1"/>
			<line class="st1" x1="72.2" y1="-34.8" x2="144.2" y2="-34.8"/>
			<line class="st1" x1="72.2" y1="-36.5" x2="144.2" y2="-36.5"/>
			<line class="st1" x1="72.2" y1="-38.2" x2="144.2" y2="-38.2"/>
			<line class="st1" x1="72.2" y1="-39.9" x2="144.2" y2="-39.9"/>
			<line class="st1" x1="72.2" y1="-41.6" x2="144.2" y2="-41.6"/>
			<line class="st1" x1="72.2" y1="-43.3" x2="144.2" y2="-43.3"/>
			<line class="st1" x1="72.2" y1="-45" x2="144.2" y2="-45"/>
			<line class="st1" x1="72.2" y1="-46.7" x2="144.2" y2="-46.7"/>
			<line class="st1" x1="72.2" y1="-48.4" x2="144.2" y2="-48.4"/>
			<line class="st1" x1="72.2" y1="-50.1" x2="144.2" y2="-50.1"/>
			<line class="st1" x1="72.2" y1="-51.8" x2="144.2" y2="-51.8"/>
			<line class="st1" x1="72.2" y1="-53.5" x2="144.2" y2="-53.5"/>
			<line class="st1" x1="72.2" y1="-55.2" x2="144.2" y2="-55.2"/>
			<line class="st1" x1="72.2" y1="-56.9" x2="144.2" y2="-56.9"/>
			<line class="st1" x1="72.2" y1="-58.6" x2="144.2" y2="-58.6"/>
			<line class="st1" x1="72.2" y1="-60.3" x2="144.2" y2="-60.3"/>
			<line class="st1" x1="72.2" y1="-62" x2="144.2" y2="-62"/>
			<line class="st1" x1="72.2" y1="-63.7" x2="144.2" y2="-63.7"/>
			<line class="st1" x1="72.2" y1="-65.4" x2="144.2" y2="-65.4"/>
			<line class="st1" x1="72.2" y1="-67.1" x2="144.2" y2="-67.1"/>
			<line class="st1" x1="72.2" y1="-68.8" x2="144.2" y2="-68.8"/>
			<line class="st1" x1="72.2" y1="-70.5" x2="144.2" y2="-70.5"/>
			<line class="st1" x1="72.2" y1="-72.2" x2="144.2" y2="-72.2"/>
			<line class="st1" x1="72.2" y1="-73.9" x2="144.2" y2="-73.9"/>
		</g>
		<g>
			<line class="st1" x1="0.2" y1="-0.8" x2="72.2" y2="-0.8"/>
			<line class="st1" x1="0.2" y1="-2.5" x2="72.2" y2="-2.5"/>
			<line class="st1" x1="0.2" y1="-4.2" x2="72.2" y2="-4.2"/>
			<line class="st1" x1="0.2" y1="-6" x2="72.2" y2="-6"/>
			<line class="st1" x1="0.2" y1="-7.7" x2="72.2" y2="-7.7"/>
			<line class="st1" x1="0.2" y1="-9.3" x2="72.2" y2="-9.3"/>
			<line class="st1" x1="0.2" y1="-11" x2="72.2" y2="-11"/>
			<line class="st1" x1="0.2" y1="-12.8" x2="72.2" y2="-12.8"/>
			<line class="st1" x1="0.2" y1="-14.5" x2="72.2" y2="-14.5"/>
			<line class="st1" x1="0.2" y1="-16.2" x2="72.2" y2="-16.2"/>
			<line class="st1" x1="0.2" y1="-17.8" x2="72.2" y2="-17.8"/>
			<line class="st1" x1="0.2" y1="-19.5" x2="72.2" y2="-19.5"/>
			<line class="st1" x1="0.2" y1="-21.2" x2="72.2" y2="-21.2"/>
			<line class="st1" x1="0.2" y1="-22.9" x2="72.2" y2="-22.9"/>
			<line class="st1" x1="0.2" y1="-24.6" x2="72.2" y2="-24.6"/>
			<line class="st1" x1="0.2" y1="-26.3" x2="72.2" y2="-26.3"/>
			<line class="st1" x1="0.2" y1="-28" x2="72.2" y2="-28"/>
			<line class="st1" x1="0.2" y1="-29.7" x2="72.2" y2="-29.7"/>
			<line class="st1" x1="0.2" y1="-31.4" x2="72.2" y2="-31.4"/>
			<line class="st1" x1="0.2" y1="-33.1" x2="72.2" y2="-33.1"/>
			<line class="st1" x1="0.2" y1="-34.8" x2="72.2" y2="-34.8"/>
			<line class="st1" x1="0.2" y1="-36.5" x2="72.2" y2="-36.5"/>
			<line class="st1" x1="0.2" y1="-38.2" x2="72.2" y2="-38.2"/>
			<line class="st1" x1="0.2" y1="-39.9" x2="72.2" y2="-39.9"/>
			<line class="st1" x1="0.2" y1="-41.6" x2="72.2" y2="-41.6"/>
			<line class="st1" x1="0.2" y1="-43.3" x2="72.2" y2="-43.3"/>
			<line class="st1" x1="0.2" y1="-45" x2="72.2" y2="-45"/>
			<line class="st1" x1="0.2" y1="-46.7" x2="72.2" y2="-46.7"/>
			<line class="st1" x1="0.2" y1="-48.4" x2="72.2" y2="-48.4"/>
			<line class="st1" x1="0.2" y1="-50.1" x2="72.2" y2="-50.1"/>
			<line class="st1" x1="0.2" y1="-51.8" x2="72.2" y2="-51.8"/>
			<line class="st1" x1="0.2" y1="-53.5" x2="72.2" y2="-53.5"/>
			<line class="st1" x1="0.2" y1="-55.2" x2="72.2" y2="-55.2"/>
			<line class="st1" x1="0.2" y1="-56.9" x2="72.2" y2="-56.9"/>
			<line class="st1" x1="0.2" y1="-58.6" x2="72.2" y2="-58.6"/>
			<line class="st1" x1="0.2" y1="-60.3" x2="72.2" y2="-60.3"/>
			<line class="st1" x1="0.2" y1="-62" x2="72.2" y2="-62"/>
			<line class="st1" x1="0.2" y1="-63.7" x2="72.2" y2="-63.7"/>
			<line class="st1" x1="0.2" y1="-65.4" x2="72.2" y2="-65.4"/>
			<line class="st1" x1="0.2" y1="-67.1" x2="72.2" y2="-67.1"/>
			<line class="st1" x1="0.2" y1="-68.8" x2="72.2" y2="-68.8"/>
			<line class="st1" x1="0.2" y1="-70.5" x2="72.2" y2="-70.5"/>
			<line class="st1" x1="0.2" y1="-72.2" x2="72.2" y2="-72.2"/>
			<line class="st1" x1="0.2" y1="-73.9" x2="72.2" y2="-73.9"/>
		</g>
	</g>
</pattern>
<g>
	<rect x="-2.8" y="5.4" transform="matrix(2.233242e-11 -1 1 2.233242e-11 -4 174)" class="st2" width="175.6" height="167.2"/>
	
		<rect x="62.6" y="70.8" transform="matrix(8.785512e-11 -1 1 8.785512e-11 -69.3798 239.3798)" class="st2" width="44.8" height="167.2"/>
	<g>
		<path d="M72.9,155.1h-2.5v2.4h2.8v0.7h-3.7v-6.6H73v0.7h-2.7v2.1h2.5V155.1z"/>
		<path d="M74.3,154.8c0-0.5,0-0.9,0-1.3H75l0,0.8h0c0.2-0.4,0.8-0.9,1.6-0.9c0.7,0,1.7,0.4,1.7,2v2.8h-0.9v-2.7
			c0-0.8-0.3-1.4-1.1-1.4c-0.6,0-1,0.4-1.1,0.9c0,0.1-0.1,0.3-0.1,0.4v2.8h-0.9V154.8z"/>
		<path d="M78.5,159.5c0.4,0,0.7-0.1,0.9-0.4c0.2-0.3,0.3-0.6,0.3-1.8v-3.9h0.9v4.3c0,0.9-0.1,1.5-0.6,1.9c-0.4,0.4-1,0.5-1.5,0.5
			L78.5,159.5z M80.7,152.2c0,0.3-0.2,0.5-0.5,0.5c-0.3,0-0.5-0.2-0.5-0.5c0-0.3,0.2-0.5,0.5-0.5C80.5,151.6,80.7,151.9,80.7,152.2z
			"/>
		<path d="M86.3,155.8c0,1.7-1.2,2.5-2.3,2.5c-1.3,0-2.3-0.9-2.3-2.4c0-1.6,1-2.5,2.3-2.5C85.4,153.4,86.3,154.4,86.3,155.8z
			 M82.5,155.8c0,1,0.6,1.8,1.4,1.8c0.8,0,1.4-0.8,1.4-1.8c0-0.8-0.4-1.8-1.4-1.8S82.5,154.9,82.5,155.8z"/>
		<path d="M87.6,153.5l1,2.8c0.1,0.3,0.2,0.7,0.3,1h0c0.1-0.3,0.2-0.6,0.3-1l0.9-2.8h0.9l-1.3,3.4c-0.6,1.6-1,2.4-1.6,2.9
			c-0.4,0.4-0.8,0.5-1,0.6l-0.2-0.7c0.2-0.1,0.5-0.2,0.7-0.4c0.2-0.2,0.5-0.5,0.7-1c0-0.1,0.1-0.2,0.1-0.2c0,0,0-0.1-0.1-0.2
			l-1.7-4.3H87.6z"/>
		<path d="M95,156.1l-0.7,2.1h-0.9l2.2-6.6h1l2.2,6.6H98l-0.7-2.1H95z M97.2,155.5l-0.6-1.9c-0.1-0.4-0.2-0.8-0.3-1.2h0
			c-0.1,0.4-0.2,0.8-0.3,1.2l-0.6,1.9H97.2z"/>
		<path d="M99.8,154.9c0-0.6,0-1,0-1.5h0.7l0,0.9h0c0.2-0.6,0.7-1,1.3-1c0.1,0,0.2,0,0.2,0v0.8c-0.1,0-0.2,0-0.3,0
			c-0.6,0-1,0.5-1.1,1.1c0,0.1,0,0.3,0,0.4v2.5h-0.8V154.9z"/>
		<path d="M104,152.2c0,0.3-0.2,0.5-0.5,0.5c-0.3,0-0.5-0.2-0.5-0.5c0-0.3,0.2-0.5,0.5-0.5C103.8,151.6,104,151.9,104,152.2z
			 M103.1,158.2v-4.7h0.9v4.7H103.1z"/>
		<path d="M107.9,158.2l-0.1-0.6h0c-0.3,0.4-0.8,0.7-1.4,0.7c-1,0-1.4-0.7-1.4-1.4c0-1.1,1-1.8,2.8-1.8v-0.1c0-0.4-0.1-1.1-1.1-1.1
			c-0.4,0-0.9,0.1-1.2,0.3l-0.2-0.6c0.4-0.3,1-0.4,1.5-0.4c1.4,0,1.8,1,1.8,1.9v1.8c0,0.4,0,0.8,0.1,1.1H107.9z M107.8,155.8
			c-0.9,0-2,0.1-2,1.1c0,0.6,0.4,0.8,0.8,0.8c0.6,0,1-0.4,1.1-0.8c0-0.1,0-0.2,0-0.3V155.8z"/>
	</g>
	<pattern  id="SVGID_1_" xlink:href="#USGS_8_Sewage_Disposal" patternTransform="matrix(1 0 0 1 -23 -43.8008)">
	</pattern>
	<rect x="1.4" y="1.2" class="st3" width="167.2" height="130.8"/>
	
		<rect x="67.7" y="26.7" transform="matrix(4.879214e-11 -1 1 4.879214e-11 19.768 155.297)" class="st4" width="39.7" height="82.2"/>
	<circle class="st5" cx="87.8" cy="67.3" r="10.8"/>
	<g>
		<path d="M86.3,64.3c0,0.7-0.6,1.3-1.3,1.3c-0.7,0-1.3-0.6-1.3-1.3c0-0.7,0.6-1.3,1.3-1.3C85.7,63,86.3,63.5,86.3,64.3z M91.7,64.2
			c0,0.7-0.6,1.3-1.3,1.3c-0.7,0-1.3-0.6-1.3-1.3c0-0.7,0.6-1.3,1.3-1.3C91.2,62.9,91.7,63.5,91.7,64.2z"/>
		<path d="M81.8,70.6l0.7-0.8c1.4,1.3,3,2.1,5.2,2.1c2.2,0,3.8-0.8,5.2-2.1l0.8,0.8c-1.4,1.4-3.2,2.5-6,2.5
			C85.1,73,83.2,72,81.8,70.6z"/>
	</g>
	<circle cx="23.2" cy="23" r="11.5"/>
	<g>
		<path class="st6" d="M25.6,19.1c-0.3,0-0.6,0-1,0.1c-2.2,0.4-3.3,2-3.6,3.6h0c0.5-0.6,1.3-1.2,2.5-1.2c1.8,0,3.1,1.3,3.1,3.3
			c0,1.9-1.3,3.6-3.4,3.6c-2.2,0-3.6-1.7-3.6-4.4c0-2,0.7-3.6,1.7-4.6c0.9-0.8,2-1.4,3.3-1.5c0.4-0.1,0.8-0.1,1-0.1V19.1z M25.2,25
			c0-1.5-0.8-2.4-2.1-2.4c-0.8,0-1.6,0.5-2,1.3c-0.1,0.2-0.2,0.4-0.2,0.6c0,1.7,0.8,2.9,2.3,2.9C24.4,27.5,25.2,26.5,25.2,25z"/>
	</g>
</g>
</svg>
