<?xml version="1.0" encoding="utf-8"?>
<!-- Generator: Adobe Illustrator 20.1.0, SVG Export Plug-In . SVG Version: 6.00 Build 0)  -->
<svg version="1.1" id="Layer_1" xmlns="http://www.w3.org/2000/svg" xmlns:xlink="http://www.w3.org/1999/xlink" x="0px" y="0px"
	 viewBox="0 0 170 178" style="enable-background:new 0 0 170 178;" xml:space="preserve">
<style type="text/css">
	.st0{fill:none;}
	.st1{fill:none;stroke:#000000;stroke-width:0.3;stroke-linecap:square;}
	.st2{fill:none;stroke:#000000;stroke-width:2;stroke-miterlimit:10;}
	.st3{fill:#D3D4D4;}
	.st4{fill:url(#SVGID_1_);stroke:#000000;stroke-width:2;stroke-linejoin:round;stroke-miterlimit:10;}
	.st5{stroke:#000000;stroke-width:2;stroke-linecap:round;stroke-linejoin:round;stroke-miterlimit:10;}
	.st6{fill:none;stroke:#000000;stroke-miterlimit:10;}
</style>
<pattern  width="72" height="74.8" patternUnits="userSpaceOnUse" id="USGS_8_Sewage_Disposal" viewBox="72.2 -74.8 72 74.8" style="overflow:visible;">
	<g>
		<rect x="72.2" y="-74.8" class="st0" width="72" height="74.8"/>
		<g>
			<line class="st1" x1="144.2" y1="-0.8" x2="216.2" y2="-0.8"/>
			<line class="st1" x1="144.2" y1="-2.5" x2="216.2" y2="-2.5"/>
			<line class="st1" x1="144.2" y1="-4.2" x2="216.2" y2="-4.2"/>
			<line class="st1" x1="144.2" y1="-6" x2="216.2" y2="-6"/>
			<line class="st1" x1="144.2" y1="-7.7" x2="216.2" y2="-7.7"/>
			<line class="st1" x1="144.2" y1="-9.3" x2="216.2" y2="-9.3"/>
			<line class="st1" x1="144.2" y1="-11" x2="216.2" y2="-11"/>
			<line class="st1" x1="144.2" y1="-12.8" x2="216.2" y2="-12.8"/>
			<line class="st1" x1="144.2" y1="-14.5" x2="216.2" y2="-14.5"/>
			<line class="st1" x1="144.2" y1="-16.2" x2="216.2" y2="-16.2"/>
			<line class="st1" x1="144.2" y1="-17.8" x2="216.2" y2="-17.8"/>
			<line class="st1" x1="144.2" y1="-19.5" x2="216.2" y2="-19.5"/>
			<line class="st1" x1="144.2" y1="-21.2" x2="216.2" y2="-21.2"/>
			<line class="st1" x1="144.2" y1="-22.9" x2="216.2" y2="-22.9"/>
			<line class="st1" x1="144.2" y1="-24.6" x2="216.2" y2="-24.6"/>
			<line class="st1" x1="144.2" y1="-26.3" x2="216.2" y2="-26.3"/>
			<line class="st1" x1="144.2" y1="-28" x2="216.2" y2="-28"/>
			<line class="st1" x1="144.2" y1="-29.7" x2="216.2" y2="-29.7"/>
			<line class="st1" x1="144.2" y1="-31.4" x2="216.2" y2="-31.4"/>
			<line class="st1" x1="144.2" y1="-33.1" x2="216.2" y2="-33.1"/>
			<line class="st1" x1="144.2" y1="-34.8" x2="216.2" y2="-34.8"/>
			<line class="st1" x1="144.2" y1="-36.5" x2="216.2" y2="-36.5"/>
			<line class="st1" x1="144.2" y1="-38.2" x2="216.2" y2="-38.2"/>
			<line class="st1" x1="144.2" y1="-39.9" x2="216.2" y2="-39.9"/>
			<line class="st1" x1="144.2" y1="-41.6" x2="216.2" y2="-41.6"/>
			<line class="st1" x1="144.2" y1="-43.3" x2="216.2" y2="-43.3"/>
			<line class="st1" x1="144.2" y1="-45" x2="216.2" y2="-45"/>
			<line class="st1" x1="144.2" y1="-46.7" x2="216.2" y2="-46.7"/>
			<line class="st1" x1="144.2" y1="-48.4" x2="216.2" y2="-48.4"/>
			<line class="st1" x1="144.2" y1="-50.1" x2="216.2" y2="-50.1"/>
			<line class="st1" x1="144.2" y1="-51.8" x2="216.2" y2="-51.8"/>
			<line class="st1" x1="144.2" y1="-53.5" x2="216.2" y2="-53.5"/>
			<line class="st1" x1="144.2" y1="-55.2" x2="216.2" y2="-55.2"/>
			<line class="st1" x1="144.2" y1="-56.9" x2="216.2" y2="-56.9"/>
			<line class="st1" x1="144.2" y1="-58.6" x2="216.2" y2="-58.6"/>
			<line class="st1" x1="144.2" y1="-60.3" x2="216.2" y2="-60.3"/>
			<line class="st1" x1="144.2" y1="-62" x2="216.2" y2="-62"/>
			<line class="st1" x1="144.2" y1="-63.7" x2="216.2" y2="-63.7"/>
			<line class="st1" x1="144.2" y1="-65.4" x2="216.2" y2="-65.4"/>
			<line class="st1" x1="144.2" y1="-67.1" x2="216.2" y2="-67.1"/>
			<line class="st1" x1="144.2" y1="-68.8" x2="216.2" y2="-68.8"/>
			<line class="st1" x1="144.2" y1="-70.5" x2="216.2" y2="-70.5"/>
			<line class="st1" x1="144.2" y1="-72.2" x2="216.2" y2="-72.2"/>
			<line class="st1" x1="144.2" y1="-73.9" x2="216.2" y2="-73.9"/>
		</g>
		<g>
			<line class="st1" x1="72.2" y1="-0.8" x2="144.2" y2="-0.8"/>
			<line class="st1" x1="72.2" y1="-2.5" x2="144.2" y2="-2.5"/>
			<line class="st1" x1="72.2" y1="-4.2" x2="144.2" y2="-4.2"/>
			<line class="st1" x1="72.2" y1="-6" x2="144.2" y2="-6"/>
			<line class="st1" x1="72.2" y1="-7.7" x2="144.2" y2="-7.7"/>
			<line class="st1" x1="72.2" y1="-9.3" x2="144.2" y2="-9.3"/>
			<line class="st1" x1="72.2" y1="-11" x2="144.2" y2="-11"/>
			<line class="st1" x1="72.2" y1="-12.8" x2="144.2" y2="-12.8"/>
			<line class="st1" x1="72.2" y1="-14.5" x2="144.2" y2="-14.5"/>
			<line class="st1" x1="72.2" y1="-16.2" x2="144.2" y2="-16.2"/>
			<line class="st1" x1="72.2" y1="-17.8" x2="144.2" y2="-17.8"/>
			<line class="st1" x1="72.2" y1="-19.5" x2="144.2" y2="-19.5"/>
			<line class="st1" x1="72.2" y1="-21.2" x2="144.2" y2="-21.2"/>
			<line class="st1" x1="72.2" y1="-22.9" x2="144.2" y2="-22.9"/>
			<line class="st1" x1="72.2" y1="-24.6" x2="144.2" y2="-24.6"/>
			<line class="st1" x1="72.2" y1="-26.3" x2="144.2" y2="-26.3"/>
			<line class="st1" x1="72.2" y1="-28" x2="144.2" y2="-28"/>
			<line class="st1" x1="72.2" y1="-29.7" x2="144.2" y2="-29.7"/>
			<line class="st1" x1="72.2" y1="-31.4" x2="144.2" y2="-31.4"/>
			<line class="st1" x1="72.2" y1="-33.1" x2="144.2" y2="-33.1"/>
			<line class="st1" x1="72.2" y1="-34.8" x2="144.2" y2="-34.8"/>
			<line class="st1" x1="72.2" y1="-36.5" x2="144.2" y2="-36.5"/>
			<line class="st1" x1="72.2" y1="-38.2" x2="144.2" y2="-38.2"/>
			<line class="st1" x1="72.2" y1="-39.9" x2="144.2" y2="-39.9"/>
			<line class="st1" x1="72.2" y1="-41.6" x2="144.2" y2="-41.6"/>
			<line class="st1" x1="72.2" y1="-43.3" x2="144.2" y2="-43.3"/>
			<line class="st1" x1="72.2" y1="-45" x2="144.2" y2="-45"/>
			<line class="st1" x1="72.2" y1="-46.7" x2="144.2" y2="-46.7"/>
			<line class="st1" x1="72.2" y1="-48.4" x2="144.2" y2="-48.4"/>
			<line class="st1" x1="72.2" y1="-50.1" x2="144.2" y2="-50.1"/>
			<line class="st1" x1="72.2" y1="-51.8" x2="144.2" y2="-51.8"/>
			<line class="st1" x1="72.2" y1="-53.5" x2="144.2" y2="-53.5"/>
			<line class="st1" x1="72.2" y1="-55.2" x2="144.2" y2="-55.2"/>
			<line class="st1" x1="72.2" y1="-56.9" x2="144.2" y2="-56.9"/>
			<line class="st1" x1="72.2" y1="-58.6" x2="144.2" y2="-58.6"/>
			<line class="st1" x1="72.2" y1="-60.3" x2="144.2" y2="-60.3"/>
			<line class="st1" x1="72.2" y1="-62" x2="144.2" y2="-62"/>
			<line class="st1" x1="72.2" y1="-63.7" x2="144.2" y2="-63.7"/>
			<line class="st1" x1="72.2" y1="-65.4" x2="144.2" y2="-65.4"/>
			<line class="st1" x1="72.2" y1="-67.1" x2="144.2" y2="-67.1"/>
			<line class="st1" x1="72.2" y1="-68.8" x2="144.2" y2="-68.8"/>
			<line class="st1" x1="72.2" y1="-70.5" x2="144.2" y2="-70.5"/>
			<line class="st1" x1="72.2" y1="-72.2" x2="144.2" y2="-72.2"/>
			<line class="st1" x1="72.2" y1="-73.9" x2="144.2" y2="-73.9"/>
		</g>
		<g>
			<line class="st1" x1="0.2" y1="-0.8" x2="72.2" y2="-0.8"/>
			<line class="st1" x1="0.2" y1="-2.5" x2="72.2" y2="-2.5"/>
			<line class="st1" x1="0.2" y1="-4.2" x2="72.2" y2="-4.2"/>
			<line class="st1" x1="0.2" y1="-6" x2="72.2" y2="-6"/>
			<line class="st1" x1="0.2" y1="-7.7" x2="72.2" y2="-7.7"/>
			<line class="st1" x1="0.2" y1="-9.3" x2="72.2" y2="-9.3"/>
			<line class="st1" x1="0.2" y1="-11" x2="72.2" y2="-11"/>
			<line class="st1" x1="0.2" y1="-12.8" x2="72.2" y2="-12.8"/>
			<line class="st1" x1="0.2" y1="-14.5" x2="72.2" y2="-14.5"/>
			<line class="st1" x1="0.2" y1="-16.2" x2="72.2" y2="-16.2"/>
			<line class="st1" x1="0.2" y1="-17.8" x2="72.2" y2="-17.8"/>
			<line class="st1" x1="0.2" y1="-19.5" x2="72.2" y2="-19.5"/>
			<line class="st1" x1="0.2" y1="-21.2" x2="72.2" y2="-21.2"/>
			<line class="st1" x1="0.2" y1="-22.9" x2="72.2" y2="-22.9"/>
			<line class="st1" x1="0.2" y1="-24.6" x2="72.2" y2="-24.6"/>
			<line class="st1" x1="0.2" y1="-26.3" x2="72.2" y2="-26.3"/>
			<line class="st1" x1="0.2" y1="-28" x2="72.2" y2="-28"/>
			<line class="st1" x1="0.2" y1="-29.7" x2="72.2" y2="-29.7"/>
			<line class="st1" x1="0.2" y1="-31.4" x2="72.2" y2="-31.4"/>
			<line class="st1" x1="0.2" y1="-33.1" x2="72.2" y2="-33.1"/>
			<line class="st1" x1="0.2" y1="-34.8" x2="72.2" y2="-34.8"/>
			<line class="st1" x1="0.2" y1="-36.5" x2="72.2" y2="-36.5"/>
			<line class="st1" x1="0.2" y1="-38.2" x2="72.2" y2="-38.2"/>
			<line class="st1" x1="0.2" y1="-39.9" x2="72.2" y2="-39.9"/>
			<line class="st1" x1="0.2" y1="-41.6" x2="72.2" y2="-41.6"/>
			<line class="st1" x1="0.2" y1="-43.3" x2="72.2" y2="-43.3"/>
			<line class="st1" x1="0.2" y1="-45" x2="72.2" y2="-45"/>
			<line class="st1" x1="0.2" y1="-46.7" x2="72.2" y2="-46.7"/>
			<line class="st1" x1="0.2" y1="-48.4" x2="72.2" y2="-48.4"/>
			<line class="st1" x1="0.2" y1="-50.1" x2="72.2" y2="-50.1"/>
			<line class="st1" x1="0.2" y1="-51.8" x2="72.2" y2="-51.8"/>
			<line class="st1" x1="0.2" y1="-53.5" x2="72.2" y2="-53.5"/>
			<line class="st1" x1="0.2" y1="-55.2" x2="72.2" y2="-55.2"/>
			<line class="st1" x1="0.2" y1="-56.9" x2="72.2" y2="-56.9"/>
			<line class="st1" x1="0.2" y1="-58.6" x2="72.2" y2="-58.6"/>
			<line class="st1" x1="0.2" y1="-60.3" x2="72.2" y2="-60.3"/>
			<line class="st1" x1="0.2" y1="-62" x2="72.2" y2="-62"/>
			<line class="st1" x1="0.2" y1="-63.7" x2="72.2" y2="-63.7"/>
			<line class="st1" x1="0.2" y1="-65.4" x2="72.2" y2="-65.4"/>
			<line class="st1" x1="0.2" y1="-67.1" x2="72.2" y2="-67.1"/>
			<line class="st1" x1="0.2" y1="-68.8" x2="72.2" y2="-68.8"/>
			<line class="st1" x1="0.2" y1="-70.5" x2="72.2" y2="-70.5"/>
			<line class="st1" x1="0.2" y1="-72.2" x2="72.2" y2="-72.2"/>
			<line class="st1" x1="0.2" y1="-73.9" x2="72.2" y2="-73.9"/>
		</g>
	</g>
</pattern>
<rect x="-2.8" y="5.4" transform="matrix(2.232265e-11 -1 1 2.232265e-11 -4 174)" class="st2" width="175.6" height="167.2"/>
<g>
	<g>
		<path d="M36.3,147.2l-1.4-5.6h0.8l0.7,2.8c0.2,0.7,0.3,1.4,0.4,1.9h0c0.1-0.6,0.3-1.2,0.5-1.9l0.7-2.8h0.8l0.7,2.8
			c0.2,0.7,0.3,1.3,0.4,1.9h0c0.1-0.6,0.3-1.2,0.4-1.9l0.7-2.8h0.7l-1.6,5.6h-0.8l-0.7-2.9c-0.2-0.7-0.3-1.3-0.4-1.8h0
			c-0.1,0.6-0.2,1.1-0.4,1.8l-0.8,2.9H36.3z"/>
		<path d="M42.4,141.3h0.7v2.5h0c0.1-0.2,0.3-0.4,0.5-0.5c0.2-0.1,0.5-0.2,0.7-0.2c0.5,0,1.4,0.3,1.4,1.7v2.4h-0.7v-2.3
			c0-0.6-0.2-1.2-0.9-1.2c-0.5,0-0.8,0.3-1,0.7c0,0.1,0,0.2,0,0.3v2.4h-0.7V141.3z"/>
		<path d="M47.4,145.3c0,1,0.6,1.4,1.4,1.4c0.5,0,0.8-0.1,1.1-0.2L50,147c-0.3,0.1-0.7,0.2-1.3,0.2c-1.2,0-2-0.8-2-2
			s0.7-2.2,1.9-2.2c1.3,0,1.7,1.2,1.7,1.9c0,0.2,0,0.3,0,0.3H47.4z M49.6,144.8c0-0.5-0.2-1.2-1-1.2c-0.7,0-1.1,0.7-1.1,1.2H49.6z"
			/>
		<path d="M51.2,144.2c0-0.4,0-0.8,0-1.1h0.6l0,0.7h0c0.2-0.4,0.7-0.8,1.3-0.8c0.6,0,1.4,0.3,1.4,1.7v2.4h-0.7v-2.3
			c0-0.6-0.2-1.2-0.9-1.2c-0.5,0-0.9,0.3-1,0.7c0,0.1-0.1,0.2-0.1,0.3v2.4h-0.7V144.2z"/>
		<path d="M60.4,147c-0.2,0.1-0.6,0.2-1.2,0.2c-1.2,0-2-0.8-2-2c0-1.2,0.8-2.1,2.2-2.1c0.4,0,0.8,0.1,1,0.2l-0.2,0.6
			c-0.2-0.1-0.4-0.2-0.8-0.2c-0.9,0-1.4,0.7-1.4,1.5c0,0.9,0.6,1.5,1.4,1.5c0.4,0,0.7-0.1,0.9-0.2L60.4,147z"/>
		<path d="M64.6,146.1c0,0.4,0,0.8,0,1.1H64l0-0.7h0c-0.2,0.3-0.6,0.7-1.3,0.7c-0.6,0-1.4-0.3-1.4-1.8v-2.3H62v2.2
			c0,0.8,0.2,1.3,0.9,1.3c0.5,0,0.8-0.3,1-0.7c0-0.1,0.1-0.2,0.1-0.4v-2.5h0.7V146.1z"/>
		<path d="M65.8,144.4c0-0.5,0-0.9,0-1.3h0.6l0,0.8h0c0.2-0.5,0.6-0.9,1.1-0.9c0.1,0,0.1,0,0.2,0v0.7c-0.1,0-0.1,0-0.2,0
			c-0.5,0-0.9,0.4-1,0.9c0,0.1,0,0.2,0,0.3v2.1h-0.7V144.4z"/>
		<path d="M68.9,145.3c0,1,0.6,1.4,1.4,1.4c0.5,0,0.8-0.1,1.1-0.2l0.1,0.5c-0.3,0.1-0.7,0.2-1.3,0.2c-1.2,0-2-0.8-2-2
			s0.7-2.2,1.9-2.2c1.3,0,1.7,1.2,1.7,1.9c0,0.2,0,0.3,0,0.3H68.9z M71,144.8c0-0.5-0.2-1.2-1-1.2c-0.7,0-1.1,0.7-1.1,1.2H71z"/>
		<path d="M76.1,141.3v4.9c0,0.4,0,0.8,0,1h-0.7l0-0.7h0c-0.2,0.4-0.7,0.8-1.4,0.8c-1,0-1.7-0.8-1.7-2c0-1.3,0.8-2.2,1.8-2.2
			c0.6,0,1,0.3,1.2,0.6h0v-2.4H76.1z M75.4,144.8c0-0.1,0-0.2,0-0.3c-0.1-0.5-0.5-0.8-1.1-0.8c-0.8,0-1.2,0.7-1.2,1.6
			c0,0.8,0.4,1.5,1.2,1.5c0.5,0,0.9-0.3,1.1-0.9c0-0.1,0-0.2,0-0.3V144.8z"/>
		<path d="M76.8,148.2c0.2-0.5,0.4-1.4,0.5-2l0.8-0.1c-0.2,0.7-0.6,1.6-0.8,2L76.8,148.2z"/>
		<path d="M80.6,146.4c0.2,0.1,0.6,0.3,1,0.3c0.5,0,0.8-0.3,0.8-0.6c0-0.3-0.2-0.5-0.7-0.7c-0.7-0.3-1.1-0.7-1.1-1.1
			c0-0.6,0.5-1.2,1.4-1.2c0.4,0,0.8,0.1,1,0.2l-0.2,0.5c-0.2-0.1-0.4-0.2-0.8-0.2c-0.4,0-0.7,0.2-0.7,0.5c0,0.3,0.2,0.5,0.8,0.7
			c0.7,0.3,1.1,0.6,1.1,1.2c0,0.7-0.5,1.2-1.5,1.2c-0.4,0-0.8-0.1-1.1-0.3L80.6,146.4z"/>
		<path d="M84,141.3h0.7v5.9H84V141.3z"/>
		<path d="M86.8,142c0,0.2-0.2,0.4-0.5,0.4c-0.3,0-0.4-0.2-0.4-0.4c0-0.3,0.2-0.5,0.5-0.5C86.6,141.6,86.8,141.8,86.8,142z
			 M86,147.2v-4h0.7v4H86z"/>
		<path d="M91.4,141.3v4.9c0,0.4,0,0.8,0,1h-0.7l0-0.7h0c-0.2,0.4-0.7,0.8-1.4,0.8c-1,0-1.7-0.8-1.7-2c0-1.3,0.8-2.2,1.8-2.2
			c0.6,0,1,0.3,1.2,0.6h0v-2.4H91.4z M90.6,144.8c0-0.1,0-0.2,0-0.3c-0.1-0.5-0.5-0.8-1.1-0.8c-0.8,0-1.2,0.7-1.2,1.6
			c0,0.8,0.4,1.5,1.2,1.5c0.5,0,0.9-0.3,1.1-0.9c0-0.1,0-0.2,0-0.3V144.8z"/>
		<path d="M93,145.3c0,1,0.6,1.4,1.4,1.4c0.5,0,0.8-0.1,1.1-0.2l0.1,0.5c-0.3,0.1-0.7,0.2-1.3,0.2c-1.2,0-2-0.8-2-2s0.7-2.2,1.9-2.2
			c1.3,0,1.7,1.2,1.7,1.9c0,0.2,0,0.3,0,0.3H93z M95.1,144.8c0-0.5-0.2-1.2-1-1.2c-0.7,0-1.1,0.7-1.1,1.2H95.1z"/>
		<path d="M100.7,147.2l-0.1-0.5h0c-0.2,0.3-0.7,0.6-1.2,0.6c-0.8,0-1.2-0.6-1.2-1.2c0-1,0.9-1.5,2.4-1.5v-0.1
			c0-0.3-0.1-0.9-0.9-0.9c-0.4,0-0.8,0.1-1,0.3l-0.2-0.5c0.3-0.2,0.8-0.4,1.3-0.4c1.2,0,1.5,0.8,1.5,1.6v1.5c0,0.3,0,0.7,0.1,1
			H100.7z M100.6,145.1c-0.8,0-1.7,0.1-1.7,0.9c0,0.5,0.3,0.7,0.7,0.7c0.5,0,0.9-0.3,1-0.7c0-0.1,0-0.2,0-0.2V145.1z"/>
		<path d="M102.5,144.2c0-0.4,0-0.8,0-1.1h0.6l0,0.7h0c0.2-0.4,0.7-0.8,1.3-0.8c0.6,0,1.4,0.3,1.4,1.7v2.4h-0.7v-2.3
			c0-0.6-0.2-1.2-0.9-1.2c-0.5,0-0.9,0.3-1,0.7c0,0.1,0,0.2,0,0.3v2.4h-0.7V144.2z"/>
		<path d="M110.6,141.3v4.9c0,0.4,0,0.8,0,1H110l0-0.7h0c-0.2,0.4-0.7,0.8-1.4,0.8c-1,0-1.7-0.8-1.7-2c0-1.3,0.8-2.2,1.8-2.2
			c0.6,0,1,0.3,1.2,0.6h0v-2.4H110.6z M109.9,144.8c0-0.1,0-0.2,0-0.3c-0.1-0.5-0.5-0.8-1.1-0.8c-0.8,0-1.2,0.7-1.2,1.6
			c0,0.8,0.4,1.5,1.2,1.5c0.5,0,0.9-0.3,1.1-0.9c0-0.1,0-0.2,0-0.3V144.8z"/>
		<path d="M113.6,144.4c0-0.5,0-0.9,0-1.3h0.6l0,0.8h0c0.2-0.5,0.6-0.9,1.1-0.9c0.1,0,0.1,0,0.2,0v0.7c-0.1,0-0.1,0-0.2,0
			c-0.5,0-0.9,0.4-1,0.9c0,0.1,0,0.2,0,0.3v2.1h-0.7V144.4z"/>
		<path d="M116.6,145.3c0,1,0.6,1.4,1.4,1.4c0.5,0,0.8-0.1,1.1-0.2l0.1,0.5c-0.3,0.1-0.7,0.2-1.3,0.2c-1.2,0-2-0.8-2-2
			s0.7-2.2,1.9-2.2c1.3,0,1.7,1.2,1.7,1.9c0,0.2,0,0.3,0,0.3H116.6z M118.8,144.8c0-0.5-0.2-1.2-1-1.2c-0.7,0-1.1,0.7-1.1,1.2H118.8
			z"/>
		<path d="M120.4,144.2c0-0.4,0-0.8,0-1.1h0.6l0,0.6h0c0.2-0.4,0.6-0.7,1.3-0.7c0.5,0,1,0.3,1.1,0.8h0c0.1-0.2,0.3-0.4,0.4-0.5
			c0.2-0.2,0.5-0.3,0.9-0.3c0.5,0,1.3,0.3,1.3,1.7v2.4h-0.7v-2.3c0-0.8-0.3-1.2-0.9-1.2c-0.4,0-0.7,0.3-0.9,0.7
			c0,0.1-0.1,0.2-0.1,0.4v2.5h-0.7v-2.4c0-0.6-0.3-1.1-0.8-1.1c-0.5,0-0.8,0.4-0.9,0.7c0,0.1-0.1,0.2-0.1,0.4v2.4h-0.7V144.2z"/>
		<path d="M130.9,145.1c0,1.5-1,2.1-2,2.1c-1.1,0-1.9-0.8-1.9-2.1c0-1.3,0.9-2.1,2-2.1C130.2,143.1,130.9,143.9,130.9,145.1z
			 M127.8,145.2c0,0.9,0.5,1.5,1.2,1.5c0.7,0,1.2-0.7,1.2-1.6c0-0.7-0.3-1.5-1.2-1.5S127.8,144.4,127.8,145.2z"/>
		<path d="M132.1,143.2l0.8,2.3c0.1,0.4,0.2,0.7,0.3,1h0c0.1-0.3,0.2-0.7,0.3-1l0.8-2.3h0.8l-1.6,4h-0.7l-1.5-4H132.1z"/>
		<path d="M136.1,145.3c0,1,0.6,1.4,1.4,1.4c0.5,0,0.8-0.1,1.1-0.2l0.1,0.5c-0.3,0.1-0.7,0.2-1.3,0.2c-1.2,0-2-0.8-2-2
			s0.7-2.2,1.9-2.2c1.3,0,1.7,1.2,1.7,1.9c0,0.2,0,0.3,0,0.3H136.1z M138.3,144.8c0-0.5-0.2-1.2-1-1.2c-0.7,0-1.1,0.7-1.1,1.2H138.3
			z"/>
		<path d="M37.5,152v1.2h1v0.6h-1v2.2c0,0.5,0.1,0.8,0.5,0.8c0.2,0,0.3,0,0.4,0l0,0.5c-0.1,0.1-0.4,0.1-0.6,0.1
			c-0.3,0-0.6-0.1-0.8-0.3c-0.2-0.2-0.3-0.6-0.3-1v-2.2h-0.6v-0.6h0.6v-1L37.5,152z"/>
		<path d="M39.4,154.4c0-0.5,0-0.9,0-1.3H40l0,0.8h0c0.2-0.5,0.6-0.9,1.1-0.9c0.1,0,0.1,0,0.2,0v0.7c-0.1,0-0.1,0-0.2,0
			c-0.5,0-0.9,0.4-1,0.9c0,0.1,0,0.2,0,0.3v2.1h-0.7V154.4z"/>
		<path d="M44.3,157.1l-0.1-0.5h0c-0.2,0.3-0.7,0.6-1.2,0.6c-0.8,0-1.2-0.6-1.2-1.2c0-1,0.9-1.5,2.4-1.5v-0.1c0-0.3-0.1-0.9-0.9-0.9
			c-0.4,0-0.8,0.1-1,0.3l-0.2-0.5c0.3-0.2,0.8-0.4,1.3-0.4c1.2,0,1.5,0.8,1.5,1.6v1.5c0,0.3,0,0.7,0.1,1H44.3z M44.2,155.1
			c-0.8,0-1.7,0.1-1.7,0.9c0,0.5,0.3,0.7,0.7,0.7c0.5,0,0.9-0.3,1-0.7c0-0.1,0-0.2,0-0.2V155.1z"/>
		<path d="M46.3,153.1l0.9,2.4c0.1,0.3,0.2,0.6,0.3,0.8h0c0.1-0.2,0.2-0.5,0.3-0.8l0.8-2.4h0.8l-1.1,2.9c-0.5,1.4-0.9,2.1-1.4,2.5
			c-0.4,0.3-0.7,0.4-0.9,0.5l-0.2-0.6c0.2-0.1,0.4-0.2,0.6-0.4c0.2-0.2,0.4-0.4,0.6-0.8c0-0.1,0.1-0.1,0.1-0.2c0,0,0-0.1,0-0.2
			l-1.5-3.7H46.3z"/>
		<path d="M51.7,157.1c0-0.3,0-0.7,0-1v-4.9h0.7v2.5h0c0.3-0.4,0.7-0.7,1.4-0.7c1,0,1.7,0.8,1.7,2.1c0,1.4-0.9,2.2-1.8,2.2
			c-0.6,0-1-0.2-1.3-0.8h0l0,0.7H51.7z M52.4,155.5c0,0.1,0,0.2,0,0.3c0.1,0.5,0.6,0.9,1.1,0.9c0.8,0,1.2-0.6,1.2-1.5
			c0-0.8-0.4-1.5-1.2-1.5c-0.5,0-1,0.3-1.1,0.9c0,0.1,0,0.2,0,0.3V155.5z"/>
		<path d="M60.1,155.1c0,1.5-1,2.1-2,2.1c-1.1,0-1.9-0.8-1.9-2.1c0-1.3,0.9-2.1,2-2.1C59.3,153,60.1,153.9,60.1,155.1z M56.9,155.1
			c0,0.9,0.5,1.5,1.2,1.5c0.7,0,1.2-0.7,1.2-1.6c0-0.7-0.3-1.5-1.2-1.5S56.9,154.4,56.9,155.1z"/>
		<path d="M61.2,153.1l0.6,0.9c0.2,0.2,0.3,0.4,0.4,0.7h0c0.1-0.2,0.3-0.4,0.4-0.7l0.6-0.9H64l-1.4,1.9l1.4,2.1h-0.8l-0.6-0.9
			c-0.2-0.2-0.3-0.5-0.4-0.7h0c-0.1,0.2-0.3,0.5-0.4,0.7l-0.6,0.9h-0.8l1.4-2.1l-1.4-2H61.2z"/>
		<path d="M64.5,156.7c0-0.3,0.2-0.5,0.5-0.5s0.5,0.2,0.5,0.5c0,0.3-0.2,0.5-0.5,0.5C64.7,157.2,64.5,157,64.5,156.7z"/>
		<path d="M72.5,156.9c-0.3,0.1-1,0.3-1.7,0.3c-0.8,0-1.5-0.2-2.1-0.7c-0.5-0.5-0.8-1.2-0.8-2.1c0-1.7,1.2-2.9,3-2.9
			c0.6,0,1.2,0.1,1.4,0.3l-0.2,0.6c-0.3-0.1-0.7-0.2-1.2-0.2c-1.4,0-2.2,0.8-2.2,2.2c0,1.4,0.9,2.3,2.2,2.3c0.5,0,0.8-0.1,1-0.2
			v-1.7h-1.1v-0.6h1.8V156.9z"/>
		<path d="M73.6,154.4c0-0.5,0-0.9,0-1.3h0.6l0,0.8h0c0.2-0.5,0.6-0.9,1.1-0.9c0.1,0,0.1,0,0.2,0v0.7c-0.1,0-0.1,0-0.2,0
			c-0.5,0-0.9,0.4-1,0.9c0,0.1,0,0.2,0,0.3v2.1h-0.7V154.4z"/>
		<path d="M79.8,155.1c0,1.5-1,2.1-2,2.1c-1.1,0-1.9-0.8-1.9-2.1c0-1.3,0.9-2.1,2-2.1C79.1,153,79.8,153.9,79.8,155.1z M76.6,155.1
			c0,0.9,0.5,1.5,1.2,1.5c0.7,0,1.2-0.7,1.2-1.6c0-0.7-0.3-1.5-1.2-1.5S76.6,154.4,76.6,155.1z"/>
		<path d="M84.1,156c0,0.4,0,0.8,0,1.1h-0.6l0-0.7h0c-0.2,0.3-0.6,0.7-1.3,0.7c-0.6,0-1.4-0.3-1.4-1.8v-2.3h0.7v2.2
			c0,0.8,0.2,1.3,0.9,1.3c0.5,0,0.8-0.3,1-0.7c0-0.1,0.1-0.2,0.1-0.4v-2.5h0.7V156z"/>
		<path d="M86.2,152v1.2h1v0.6h-1v2.2c0,0.5,0.1,0.8,0.5,0.8c0.2,0,0.3,0,0.4,0l0,0.5c-0.1,0.1-0.4,0.1-0.6,0.1
			c-0.3,0-0.6-0.1-0.8-0.3c-0.2-0.2-0.3-0.6-0.3-1v-2.2h-0.6v-0.6h0.6v-1L86.2,152z"/>
		<path d="M90.7,152v1.2h1v0.6h-1v2.2c0,0.5,0.1,0.8,0.5,0.8c0.2,0,0.3,0,0.4,0l0,0.5c-0.1,0.1-0.4,0.1-0.6,0.1
			c-0.3,0-0.6-0.1-0.8-0.3c-0.2-0.2-0.3-0.6-0.3-1v-2.2h-0.6v-0.6H90v-1L90.7,152z"/>
		<path d="M96.2,155.1c0,1.5-1,2.1-2,2.1c-1.1,0-1.9-0.8-1.9-2.1c0-1.3,0.9-2.1,2-2.1C95.4,153,96.2,153.9,96.2,155.1z M93,155.1
			c0,0.9,0.5,1.5,1.2,1.5c0.7,0,1.2-0.7,1.2-1.6c0-0.7-0.3-1.5-1.2-1.5S93,154.4,93,155.1z"/>
		<path d="M98.9,157.1v-3.5h-0.6v-0.6h0.6v-0.2c0-0.6,0.1-1.1,0.5-1.4c0.3-0.3,0.6-0.4,1-0.4c0.3,0,0.5,0.1,0.6,0.1l-0.1,0.6
			c-0.1,0-0.3-0.1-0.5-0.1c-0.6,0-0.8,0.5-0.8,1.2v0.2h1v0.6h-1v3.5H98.9z"/>
		<path d="M102.1,152c0,0.2-0.2,0.4-0.5,0.4c-0.3,0-0.4-0.2-0.4-0.4c0-0.3,0.2-0.5,0.5-0.5C101.9,151.5,102.1,151.7,102.1,152z
			 M101.3,157.1v-4h0.7v4H101.3z"/>
		<path d="M103.2,151.3h0.7v5.9h-0.7V151.3z"/>
		<path d="M105.2,151.3h0.7v5.9h-0.7V151.3z"/>
		<path d="M111.1,157.1l-0.1-0.5h0c-0.2,0.3-0.7,0.6-1.2,0.6c-0.8,0-1.2-0.6-1.2-1.2c0-1,0.9-1.5,2.4-1.5v-0.1
			c0-0.3-0.1-0.9-0.9-0.9c-0.4,0-0.8,0.1-1,0.3l-0.2-0.5c0.3-0.2,0.8-0.4,1.3-0.4c1.2,0,1.5,0.8,1.5,1.6v1.5c0,0.3,0,0.7,0.1,1
			H111.1z M111,155.1c-0.8,0-1.7,0.1-1.7,0.9c0,0.5,0.3,0.7,0.7,0.7c0.5,0,0.9-0.3,1-0.7c0-0.1,0-0.2,0-0.2V155.1z"/>
		<path d="M112.9,151.3h0.7v5.9h-0.7V151.3z"/>
		<path d="M114.9,151.3h0.7v5.9h-0.7V151.3z"/>
		<path d="M118.9,153.1l0.8,2.3c0.1,0.4,0.2,0.7,0.3,1h0c0.1-0.3,0.2-0.7,0.3-1l0.8-2.3h0.8l-1.6,4h-0.7l-1.5-4H118.9z"/>
		<path d="M126.2,155.1c0,1.5-1,2.1-2,2.1c-1.1,0-1.9-0.8-1.9-2.1c0-1.3,0.9-2.1,2-2.1C125.4,153,126.2,153.9,126.2,155.1z
			 M123,155.1c0,0.9,0.5,1.5,1.2,1.5c0.7,0,1.2-0.7,1.2-1.6c0-0.7-0.3-1.5-1.2-1.5S123,154.4,123,155.1z"/>
		<path d="M127.9,152c0,0.2-0.2,0.4-0.5,0.4c-0.3,0-0.4-0.2-0.4-0.4c0-0.3,0.2-0.5,0.5-0.5C127.7,151.5,127.9,151.7,127.9,152z
			 M127.1,157.1v-4h0.7v4H127.1z"/>
		<path d="M132.5,151.3v4.9c0,0.4,0,0.8,0,1h-0.7l0-0.7h0c-0.2,0.4-0.7,0.8-1.4,0.8c-1,0-1.7-0.8-1.7-2c0-1.3,0.8-2.2,1.8-2.2
			c0.6,0,1,0.3,1.2,0.6h0v-2.4H132.5z M131.8,154.8c0-0.1,0-0.2,0-0.3c-0.1-0.5-0.5-0.8-1.1-0.8c-0.8,0-1.2,0.7-1.2,1.6
			c0,0.8,0.4,1.5,1.2,1.5c0.5,0,0.9-0.3,1.1-0.9c0-0.1,0-0.2,0-0.3V154.8z"/>
		<path d="M133.6,156.4c0.2,0.1,0.6,0.3,1,0.3c0.5,0,0.8-0.3,0.8-0.6c0-0.3-0.2-0.5-0.7-0.7c-0.7-0.3-1.1-0.7-1.1-1.1
			c0-0.6,0.5-1.2,1.4-1.2c0.4,0,0.8,0.1,1,0.2l-0.2,0.5c-0.2-0.1-0.4-0.2-0.8-0.2c-0.4,0-0.7,0.2-0.7,0.5c0,0.3,0.2,0.5,0.8,0.7
			c0.7,0.3,1.1,0.6,1.1,1.2c0,0.7-0.5,1.2-1.5,1.2c-0.4,0-0.8-0.1-1.1-0.3L133.6,156.4z"/>
		<path d="M136.7,156.7c0-0.3,0.2-0.5,0.5-0.5s0.5,0.2,0.5,0.5c0,0.3-0.2,0.5-0.5,0.5C136.9,157.2,136.7,157,136.7,156.7z"/>
		<path d="M72.4,164.5h-2.2v2h2.4v0.6h-3.1v-5.6h3v0.6h-2.3v1.8h2.2V164.5z"/>
		<path d="M73.5,164.2c0-0.4,0-0.8,0-1.1h0.6l0,0.7h0c0.2-0.4,0.7-0.8,1.3-0.8c0.6,0,1.4,0.3,1.4,1.7v2.4h-0.7v-2.3
			c0-0.6-0.2-1.2-0.9-1.2c-0.5,0-0.9,0.3-1,0.7c0,0.1-0.1,0.2-0.1,0.3v2.4h-0.7V164.2z"/>
		<path d="M77.2,168.3c0.3,0,0.6-0.1,0.8-0.3c0.2-0.2,0.3-0.5,0.3-1.5v-3.4H79v3.6c0,0.8-0.1,1.3-0.5,1.7c-0.3,0.3-0.9,0.5-1.2,0.5
			L77.2,168.3z M79.1,162c0,0.2-0.2,0.4-0.5,0.4c-0.3,0-0.4-0.2-0.4-0.4c0-0.3,0.2-0.5,0.5-0.5C78.9,161.5,79.1,161.7,79.1,162z"/>
		<path d="M83.8,165.1c0,1.5-1,2.1-2,2.1c-1.1,0-1.9-0.8-1.9-2.1c0-1.3,0.9-2.1,2-2.1C83,163,83.8,163.8,83.8,165.1z M80.6,165.1
			c0,0.9,0.5,1.5,1.2,1.5c0.7,0,1.2-0.7,1.2-1.6c0-0.7-0.3-1.5-1.2-1.5S80.6,164.4,80.6,165.1z"/>
		<path d="M84.9,163.1l0.9,2.4c0.1,0.3,0.2,0.6,0.3,0.8h0c0.1-0.2,0.2-0.5,0.3-0.8l0.8-2.4h0.8l-1.1,2.9c-0.5,1.4-0.9,2.1-1.4,2.5
			c-0.4,0.3-0.7,0.4-0.9,0.5l-0.2-0.6c0.2-0.1,0.4-0.2,0.6-0.4c0.2-0.2,0.4-0.4,0.6-0.8c0-0.1,0.1-0.1,0.1-0.2c0,0,0-0.1,0-0.2
			l-1.5-3.7H84.9z"/>
		<path d="M91.3,165.4l-0.6,1.8H90l1.9-5.6h0.9l1.9,5.6h-0.8l-0.6-1.8H91.3z M93.1,164.8l-0.5-1.6c-0.1-0.4-0.2-0.7-0.3-1h0
			c-0.1,0.3-0.2,0.7-0.3,1l-0.5,1.6H93.1z"/>
		<path d="M95.4,164.4c0-0.5,0-0.9,0-1.3H96l0,0.8h0c0.2-0.5,0.6-0.9,1.1-0.9c0.1,0,0.1,0,0.2,0v0.7c-0.1,0-0.1,0-0.2,0
			c-0.5,0-0.9,0.4-1,0.9c0,0.1,0,0.2,0,0.3v2.1h-0.7V164.4z"/>
		<path d="M99,162c0,0.2-0.2,0.4-0.5,0.4c-0.3,0-0.4-0.2-0.4-0.4c0-0.3,0.2-0.5,0.5-0.5C98.8,161.5,99,161.7,99,162z M98.2,167.1v-4
			h0.7v4H98.2z"/>
		<path d="M102.3,167.1l-0.1-0.5h0c-0.2,0.3-0.7,0.6-1.2,0.6c-0.8,0-1.2-0.6-1.2-1.2c0-1,0.9-1.5,2.4-1.5v-0.1
			c0-0.3-0.1-0.9-0.9-0.9c-0.4,0-0.8,0.1-1,0.3l-0.2-0.5c0.3-0.2,0.8-0.4,1.3-0.4c1.2,0,1.5,0.8,1.5,1.6v1.5c0,0.3,0,0.7,0.1,1
			H102.3z M102.2,165.1c-0.8,0-1.7,0.1-1.7,0.9c0,0.5,0.3,0.7,0.7,0.7c0.5,0,0.9-0.3,1-0.7c0-0.1,0-0.2,0-0.2V165.1z"/>
		<path d="M103.9,166.7c0-0.3,0.2-0.5,0.5-0.5s0.5,0.2,0.5,0.5c0,0.3-0.2,0.5-0.5,0.5C104.1,167.2,103.9,167,103.9,166.7z"/>
	</g>
</g>
<circle cx="23.2" cy="23" r="11.5"/>
<g>
	<path class="st3" d="M25,19.1c-0.3,0-0.6,0-1,0.1c-2.2,0.4-3.3,2-3.6,3.6h0c0.5-0.6,1.3-1.2,2.5-1.2c1.8,0,3.1,1.3,3.1,3.3
		c0,1.9-1.3,3.6-3.4,3.6c-2.2,0-3.6-1.7-3.6-4.4c0-2,0.7-3.6,1.7-4.6c0.9-0.8,2-1.4,3.3-1.5c0.4-0.1,0.8-0.1,1-0.1V19.1z M24.6,25
		c0-1.5-0.8-2.4-2.1-2.4c-0.8,0-1.6,0.5-2,1.3c-0.1,0.2-0.2,0.4-0.2,0.6c0,1.7,0.8,2.9,2.3,2.9C23.8,27.5,24.6,26.5,24.6,25z"/>
</g>
<pattern  id="SVGID_1_" xlink:href="#USGS_8_Sewage_Disposal" patternTransform="matrix(1 0 0 1 -22.7933 -43.8008)">
</pattern>
<rect x="1.4" y="67.4" class="st4" width="167.2" height="63.9"/>
<path class="st5" d="M119,90.5H51.6l-3.8,22.8h74.9L119,90.5z M53.5,109.1l1.9-14.5h59.4l2.1,14.5H53.5z"/>
<g>
	<g>
		<line class="st6" x1="58.3" y1="77.2" x2="112.8" y2="77.2"/>
		<g>
			<polygon points="59.8,82.1 51.2,77.2 59.8,72.2 			"/>
		</g>
		<g>
			<polygon points="111.4,82.1 120,77.2 111.4,72.2 			"/>
		</g>
	</g>
</g>
</svg>
